<svg width="18" height="20" viewBox="0 0 18 20" fill="none" xmlns="http://www.w3.org/2000/svg">
<path d="M17.9888 7.875L15.5031 0.176639C15.4869 0.125126 15.4545 0.0801322 15.4105 0.0483199C15.3665 0.0165075 15.3134 -0.000432379 15.2589 8.38841e-06H13.1353C13.0229 8.38841e-06 12.9268 0.0706605 12.8912 0.176639L10.3862 7.875C10.378 7.89946 10.3725 7.92664 10.3725 7.95381C10.3725 8.0924 10.4877 8.20653 10.6277 8.20653H12.1751C12.2903 8.20653 12.3891 8.13044 12.422 8.02174L12.9021 6.34783H15.344L15.8186 8.01903C15.8488 8.12772 15.9503 8.20381 16.0655 8.20381H17.7446C17.7721 8.20381 17.7967 8.20109 17.8214 8.19294C17.8873 8.1712 17.9394 8.12772 17.9723 8.06794C18.0025 8.00816 18.008 7.94022 17.9888 7.875ZM13.1518 4.93207L14.0517 1.75544H14.2246L15.1053 4.93207H13.1518ZM17.0889 18.3261H13.5332V18.3152L17.1712 13.1821C17.2014 13.1386 17.2178 13.0897 17.2178 13.0353V12.0462C17.2178 11.9076 17.1026 11.7935 16.9627 11.7935H11.3657C11.2258 11.7935 11.1106 11.9076 11.1106 12.0462V13.2147C11.1106 13.3533 11.2258 13.4674 11.3657 13.4674H14.7294V13.4783L11.0776 18.6114C11.0471 18.6544 11.0308 18.7056 11.031 18.7582V19.7473C11.031 19.8859 11.1462 20 11.2861 20H17.0861C17.2261 20 17.3413 19.8859 17.3413 19.7473V18.5788C17.3417 18.5457 17.3354 18.5129 17.3229 18.4823C17.3104 18.4517 17.2918 18.4238 17.2684 18.4003C17.2449 18.3768 17.2169 18.3581 17.1861 18.3454C17.1553 18.3326 17.1223 18.3261 17.0889 18.3261ZM6.36684 15.163H4.28169V0.760878C4.28169 0.641312 4.18292 0.543486 4.0622 0.543486H2.52577C2.40505 0.543486 2.30628 0.641312 2.30628 0.760878V15.163H0.221136C0.0373132 15.163 -0.0669443 15.375 0.0482876 15.5163L3.12114 19.3723C3.14167 19.3983 3.1679 19.4193 3.19785 19.4337C3.2278 19.4482 3.26067 19.4557 3.29399 19.4557C3.3273 19.4557 3.36017 19.4482 3.39012 19.4337C3.42007 19.4193 3.4463 19.3983 3.46683 19.3723L6.53968 15.5163C6.65217 15.375 6.55066 15.163 6.36684 15.163Z" fill="white"/>
</svg>
