<svg width="79" height="79" viewBox="0 0 79 79" fill="none" xmlns="http://www.w3.org/2000/svg">
<path d="M39.25 16.8214C36.4775 16.8214 33.7673 17.6435 31.4621 19.1838C29.1569 20.7241 27.3602 22.9134 26.2992 25.4749C25.2382 28.0363 24.9606 30.8548 25.5015 33.574C26.0424 36.2932 27.3775 38.791 29.3379 40.7514C31.2983 42.7118 33.7961 44.0469 36.5153 44.5878C39.2345 45.1287 42.053 44.8511 44.6144 43.7901C47.1758 42.7291 49.3651 40.9324 50.9054 38.6272C52.4457 36.3219 53.2679 33.6117 53.2679 30.8393C53.2679 27.1215 51.791 23.556 49.1621 20.9271C46.5333 18.2983 42.9678 16.8214 39.25 16.8214Z" fill="#BDBDBD"/>
<path d="M39.25 0C31.4871 0 23.8985 2.30197 17.4439 6.61482C10.9893 10.9277 5.95849 17.0577 2.98775 24.2297C0.0170064 31.4017 -0.760275 39.2935 0.754195 46.9073C2.26867 54.521 6.00686 61.5147 11.4961 67.0039C16.9853 72.4932 23.979 76.2314 31.5927 77.7458C39.2065 79.2603 47.0983 78.483 54.2703 75.5123C61.4423 72.5415 67.5724 67.5108 71.8852 61.0561C76.198 54.6015 78.5 47.0129 78.5 39.25C78.4881 28.8439 74.3491 18.8674 66.9908 11.5092C59.6326 4.15094 49.6561 0.0118723 39.25 0V0ZM61.6562 64.2747C61.6003 60.5973 60.102 57.0891 57.4842 54.5059C54.8664 51.9227 51.3385 50.4712 47.6607 50.4643H30.8393C27.1615 50.4712 23.6337 51.9227 21.0158 54.5059C18.398 57.0891 16.8997 60.5973 16.8439 64.2747C11.7598 59.735 8.17448 53.7581 6.56271 47.1355C4.95095 40.5129 5.38876 33.5569 7.81816 27.1886C10.2476 20.8204 14.554 15.3402 20.1671 11.4738C25.7803 7.6074 32.4355 5.53713 39.2514 5.53713C46.0673 5.53713 52.7225 7.6074 58.3357 11.4738C63.9489 15.3402 68.2553 20.8204 70.6847 27.1886C73.1141 33.5569 73.5519 40.5129 71.9401 47.1355C70.3284 53.7581 66.7431 59.735 61.659 64.2747H61.6562Z" fill="#BDBDBD"/>
</svg>
