<svg width="40" height="40" viewBox="0 0 40 40" fill="none" xmlns="http://www.w3.org/2000/svg">
<g clip-path="url(#clip0)">
<path d="M18.8459 29.6007C18.5451 29.38 18.1217 29.4444 17.9006 29.7454L17.8171 29.8591C17.5962 30.1599 17.6605 30.5826 17.961 30.804C18.0817 30.8929 18.2223 30.9359 18.3616 30.9359C18.5689 30.9359 18.7735 30.8409 18.906 30.6614L18.9908 30.5461C19.2118 30.2451 19.1469 29.8218 18.8459 29.6007Z" fill="#DEE5EE"/>
<path d="M19.0224 36.0345L17.2831 32.8719L18.907 30.6602C19.1281 30.3591 19.0632 29.9359 18.7621 29.7148C18.4611 29.4936 18.0378 29.5585 17.8168 29.8597L15.9373 32.4195C15.7814 32.6316 15.763 32.9149 15.8898 33.1456L17.8373 36.6863V36.6863C17.9605 36.9101 18.1918 37.0367 18.4305 37.0367C18.5407 37.0367 18.6524 37.0097 18.7558 36.9529C19.083 36.773 19.2024 36.3618 19.0224 36.0345Z" fill="#DEE5EE"/>
<path d="M24.0628 32.4195L22.191 29.8701C22.0357 29.6588 21.7727 29.5561 21.5153 29.607C21.2581 29.6575 21.0533 29.8524 20.9897 30.1067C20.9409 30.302 20.9816 30.5087 21.1007 30.671L22.7167 32.8719L20.9892 36.0131C20.9344 36.1129 20.9056 36.2254 20.9056 36.3394C20.9056 36.648 21.1146 36.9176 21.4136 36.9944C21.4696 37.0088 21.5261 37.0158 21.5819 37.0158C21.824 37.0158 22.0535 36.8851 22.1745 36.6654L24.1103 33.1458C24.2372 32.915 24.2186 32.6317 24.0628 32.4195Z" fill="#DEE5EE"/>
<path d="M25.1345 21.7916C24.9121 21.6748 24.6432 21.6907 24.4362 21.8334C24.034 22.1105 23.6607 22.4041 23.3268 22.7059C21.5068 24.3512 19.7776 24.1285 19.7099 24.1189C19.6691 24.1125 19.6276 24.1095 19.5866 24.1108C18.8673 24.1293 17.5704 23.472 16.1985 22.3945C15.9886 22.2297 15.7735 22.0727 15.5586 21.9277C15.3515 21.7877 15.0837 21.7735 14.8629 21.891C14.6421 22.0083 14.504 22.238 14.504 22.4882V24.8082C14.504 25.0133 14.5974 25.2072 14.7574 25.3357C14.7763 25.3509 14.796 25.365 14.8163 25.3779L19.6117 28.5823C19.6125 28.5828 19.6132 28.5834 19.614 28.5839L19.6266 28.5924C19.7395 28.6671 19.8696 28.7048 20.0001 28.7048C20.11 28.7048 20.2198 28.6782 20.3202 28.6245C20.3414 28.6132 20.3617 28.6007 20.3812 28.5875C20.3835 28.586 20.3858 28.5845 20.3881 28.5829C20.3908 28.5812 20.3934 28.5794 20.3961 28.5776L25.1801 25.3808C25.1994 25.3686 25.2181 25.3555 25.2362 25.3414C25.4003 25.2133 25.4962 25.0167 25.4962 24.8084V22.3903C25.4962 22.1389 25.357 21.9085 25.1345 21.7916ZM24.1436 24.4464L20.0001 27.2152L15.8566 24.4464V23.8313C16.8655 24.5645 18.3497 25.4638 19.5594 25.4637C19.5619 25.4637 19.5647 25.4637 19.5673 25.4637C19.9735 25.5086 22.0448 25.6307 24.1437 23.7895V24.4464H24.1436Z" fill="#DEE5EE"/>
<path d="M20.6672 27.9175C20.6226 27.6493 20.4215 27.4339 20.157 27.3708C19.8923 27.308 19.6159 27.4092 19.455 27.6284L17.9005 29.7457C17.6794 30.0468 17.7443 30.4701 18.0454 30.6911C18.166 30.7797 18.3062 30.8223 18.4451 30.8223C18.6531 30.8223 18.8583 30.7266 18.9909 30.5461L20.5373 28.44C20.6252 28.325 20.6765 28.1819 20.6765 28.0289C20.6764 27.9917 20.6733 27.9542 20.6672 27.9175Z" fill="#DEE5EE"/>
<path d="M30.3033 6.115C30.2898 6.00906 29.973 3.72265 27.8208 2.8207C27.8833 2.41913 27.8768 1.90304 27.6219 1.40093C27.2792 0.726083 26.603 0.286316 25.612 0.0936597C25.5695 0.0853784 25.5264 0.0812378 25.483 0.0812378H16.4059C12.7201 0.0812378 9.72144 3.07984 9.72144 6.76578V10.3276C9.72144 11.2556 10.0378 12.1605 10.612 12.8755C10.8967 13.23 11.2473 13.8492 11.3002 14.7853C11.3208 15.1507 11.6268 15.4331 11.9945 15.423C12.3604 15.4127 12.6517 15.113 12.6517 14.747V10.1032C13.1109 8.20407 14.6782 7.83446 14.9476 7.78453H17.8837C18.2291 7.78453 18.5687 7.7318 18.8933 7.62774C19.4516 7.44868 20.3373 7.11914 20.9822 6.87422C21.4136 6.71024 21.8912 6.70422 22.3269 6.85735L25.4702 7.96079C27.0416 8.54047 27.3221 9.92001 27.3569 10.1367V15.7099C27.3569 16.0639 27.6298 16.3576 27.9827 16.3839C27.9999 16.3852 28.0168 16.3859 28.0337 16.3859C28.3654 16.3858 28.6518 16.1428 28.702 15.8097C28.7047 15.7923 28.9747 14.048 29.8455 12.6514C30.1484 12.1652 30.3087 11.6109 30.3087 11.0484V6.20039C30.3087 6.17188 30.3069 6.14336 30.3033 6.115ZM28.956 11.0481C28.956 11.3502 28.8708 11.6499 28.7094 11.9164V10.0905C28.7094 10.066 28.708 10.0417 28.7054 10.0174C28.6948 9.91923 28.4153 7.60157 25.9321 6.68938C25.929 6.68828 25.926 6.68719 25.923 6.6861L22.7749 5.58094C22.42 5.45633 22.0486 5.39414 21.6776 5.39414C21.2785 5.39414 20.8797 5.46609 20.5018 5.60984C19.599 5.95281 18.8998 6.20524 18.4802 6.33977C18.2893 6.40094 18.0886 6.43203 17.8836 6.43203H14.8929C14.8639 6.43203 14.8349 6.43391 14.8061 6.43758C14.6916 6.45242 11.9942 6.83602 11.3153 9.8786C11.3046 9.92696 11.2991 9.97634 11.2991 10.0259V11.4177C11.1518 11.0774 11.0739 10.7057 11.0739 10.3277V6.76594C11.0739 3.82593 13.4658 1.43397 16.4057 1.43397H25.4148C25.7877 1.51343 26.241 1.67648 26.413 2.0082C26.6235 2.41421 26.3837 2.97327 26.3834 2.97374C26.2969 3.15773 26.298 3.37078 26.3858 3.55398C26.4738 3.73718 26.6396 3.87109 26.8373 3.91867C28.559 4.33312 28.9101 5.98445 28.9559 6.25156V11.0481H28.956Z" fill="#DEE5EE"/>
<path d="M28.7054 10.0174C28.6948 9.91921 28.4154 7.60155 25.9322 6.68936C25.9291 6.68826 25.9261 6.68717 25.923 6.68608L22.775 5.58092C22.0382 5.32232 21.2311 5.33264 20.5018 5.60967C19.5989 5.95264 18.8998 6.20506 18.4802 6.33967C18.2893 6.40084 18.0886 6.43186 17.8836 6.43186H14.8929C14.8639 6.43186 14.8349 6.43373 14.806 6.4374C14.6916 6.45225 11.9942 6.83584 11.3153 9.87842C11.3045 9.92678 11.2991 9.97616 11.2991 10.0257V15.8394C11.2991 15.8444 11.2992 15.8495 11.2992 15.8545C11.3037 16.0564 11.4466 20.8257 14.7419 23.0069L14.7589 23.0189C14.7731 23.0289 14.7872 23.0389 14.802 23.0488C14.9899 23.1757 15.1785 23.3134 15.3631 23.4583C16.3231 24.2121 18.1322 25.4638 19.5594 25.4638C19.5621 25.4638 19.5646 25.4638 19.5673 25.4638C19.6448 25.4723 19.7832 25.4837 19.9708 25.4837C20.7796 25.4837 22.5053 25.2717 24.2337 23.7092C24.5238 23.4471 24.85 23.1907 25.2036 22.9471L25.2541 22.9117C25.2706 22.9001 25.2871 22.8884 25.3041 22.877C26.4033 22.1387 28.3071 20.2337 28.7068 15.7701C28.7086 15.7501 28.7095 15.7298 28.7095 15.7097V10.0905C28.7094 10.0661 28.708 10.0418 28.7054 10.0174ZM27.3568 15.6791C26.9883 19.7074 25.2719 21.2691 24.5499 21.754C24.5243 21.7713 24.4989 21.7891 24.4736 21.8069L24.4361 21.8333C24.0339 22.1104 23.6606 22.404 23.3267 22.7058C21.5135 24.345 19.79 24.13 19.7054 24.1181C19.6661 24.1123 19.6263 24.1098 19.5865 24.1109C18.8672 24.1293 17.5703 23.472 16.1984 22.3945C15.9885 22.2297 15.7734 22.0727 15.5588 21.9279L15.5422 21.9162C15.526 21.9046 15.5098 21.8931 15.4907 21.8805C12.8315 20.1204 12.6575 16.0016 12.6517 15.8297V10.1031C13.1125 8.19702 14.6895 7.83162 14.9465 7.78444H17.8837C18.2291 7.78444 18.5687 7.7317 18.8933 7.62764C19.4516 7.44858 20.3374 7.11904 20.9821 6.87412C21.4136 6.71014 21.8912 6.70412 22.3269 6.85725L25.4702 7.96069C27.0416 8.54038 27.3221 9.91991 27.3568 10.1366V15.6791H27.3568Z" fill="#DEE5EE"/>
<path d="M20.6049 27.7265C20.4995 27.5157 20.292 27.375 20.0572 27.355C19.8229 27.3356 19.5943 27.4387 19.4548 27.6287L17.8348 29.8351C17.6139 30.136 17.6785 30.559 17.9792 30.7801C18.0998 30.8689 18.2402 30.9118 18.3793 30.9118C18.5868 30.9118 18.7917 30.8165 18.9243 30.6366L20.5443 28.4383C20.6301 28.3221 20.6763 28.1735 20.6763 28.0291C20.6764 27.9242 20.6518 27.8204 20.6049 27.7265Z" fill="#DEE5EE"/>
<path d="M20.6482 38.6154C20.3941 38.3497 19.9744 38.3356 19.7031 38.5838L19.5485 38.7252C19.317 38.9368 19.2615 39.2799 19.4145 39.5539L19.4192 39.5624C19.5225 39.7475 19.7067 39.8734 19.9166 39.9025C19.9477 39.9068 19.9788 39.9089 20.0098 39.9089C20.1878 39.9089 20.3602 39.8385 20.488 39.7108L20.6377 39.5609C20.8977 39.301 20.9023 38.881 20.6482 38.6154Z" fill="#DEE5EE"/>
<path d="M20.4515 38.7252L20.2969 38.5838C20.0257 38.3356 19.6058 38.3498 19.3518 38.6154C19.0976 38.8812 19.1023 39.3013 19.3623 39.5611L19.5123 39.711C19.64 39.8388 19.8124 39.9091 19.9904 39.9091C20.0222 39.9091 20.0542 39.9069 20.0861 39.9023C20.2968 39.8722 20.481 39.7446 20.5834 39.5581L20.5882 39.5496C20.738 39.2761 20.6816 38.9356 20.4515 38.7252Z" fill="#DEE5EE"/>
<path d="M20.4629 38.7357L20.4621 38.7349C20.3576 38.6373 20.2225 38.5729 20.0737 38.5566C19.8744 38.5348 19.6803 38.6023 19.5391 38.7338L19.5371 38.7357C19.4003 38.8604 19.3207 39.0358 19.3167 39.2208C19.3128 39.4059 19.3848 39.5845 19.516 39.7149L19.5231 39.722C19.655 39.8532 19.8274 39.9188 19.9999 39.9188C20.1731 39.9188 20.3461 39.8527 20.4781 39.7208L20.4852 39.7137C20.6158 39.583 20.6874 39.4046 20.6831 39.2199C20.679 39.0352 20.5994 38.8602 20.4629 38.7357Z" fill="#DEE5EE"/>
<path d="M20.2194 27.3742C19.9394 27.2845 19.632 27.3885 19.4615 27.6283C19.2707 27.8969 19.3022 28.2629 19.5346 28.4965C19.6654 28.6279 19.839 28.6952 20.0139 28.6952C20.1498 28.6952 20.2863 28.6546 20.4041 28.5716C20.5841 28.445 20.6912 28.2387 20.6912 28.0186V28.0169C20.6912 27.7226 20.4998 27.4636 20.2194 27.3742Z" fill="#DEE5EE"/>
<path d="M20.5496 27.6228L20.5438 27.615C20.3703 27.3801 20.0656 27.2834 19.7883 27.3747C19.5111 27.466 19.3237 27.7251 19.3237 28.017V28.0285C19.3237 28.2775 19.4635 28.5045 19.6829 28.6223C19.7822 28.6757 19.8919 28.702 20.0015 28.702C20.1336 28.702 20.2655 28.6637 20.379 28.5886C20.5336 28.4862 20.6394 28.3248 20.6717 28.1422C20.704 27.9597 20.6598 27.7718 20.5496 27.6228Z" fill="#DEE5EE"/>
<path d="M28.0453 25.4983C27.9752 25.313 27.8275 25.1679 27.6411 25.1011L25.048 24.1716C25.027 24.1641 25.0052 24.1574 24.9835 24.1521C24.7984 24.1058 24.6023 24.1397 24.4437 24.2458L19.6392 27.4563C19.6379 27.4572 19.6365 27.458 19.6352 27.459L20.0125 28.0199L19.6268 27.4647C19.4858 27.5579 19.3849 27.7008 19.3439 27.8647C19.3214 27.9547 19.3178 28.0487 19.333 28.1401C19.3504 28.2447 19.3921 28.3437 19.455 28.4293L22.9725 33.22C23.1004 33.3942 23.3032 33.4961 23.5175 33.4961C23.5322 33.4961 23.547 33.4955 23.5618 33.4945C23.7922 33.4794 23.9989 33.348 24.1102 33.1455L28.0053 26.0636C28.1008 25.8901 28.1154 25.6833 28.0453 25.4983ZM23.4357 31.5654L20.9634 28.1982L24.912 25.5597L26.438 26.1068L23.4357 31.5654Z" fill="#DEE5EE"/>
<path d="M20.6664 27.9121C20.6346 27.7305 20.5301 27.5698 20.377 27.4671L15.5564 24.2459C15.403 24.1432 15.2139 24.1081 15.0336 24.1481C15.006 24.1542 14.9788 24.1621 14.9521 24.1717L12.3591 25.1012C12.1727 25.168 12.0249 25.3132 11.9549 25.4983C11.8848 25.6835 11.8993 25.8901 11.9948 26.0637L15.8899 33.1456C16.0011 33.3479 16.2079 33.4794 16.4383 33.4946C16.453 33.4955 16.4678 33.496 16.4825 33.496C16.6968 33.496 16.8996 33.3941 17.0276 33.2198L18.9071 30.66C18.9086 30.6581 18.9101 30.656 18.9116 30.6539L20.5453 28.4288C20.6543 28.2802 20.6981 28.0936 20.6664 27.9121ZM17.817 29.8593C17.8153 29.8614 17.8138 29.8636 17.8121 29.8658L16.5642 31.5654L13.5619 26.1067L15.088 25.5597L19.0365 28.1982L17.817 29.8593Z" fill="#DEE5EE"/>
<path d="M39.9666 37.0435L39.0942 31.7752C38.8192 30.115 37.6654 28.7279 36.0829 28.1555L27.6427 25.1019C27.3825 25.0079 27.0916 25.0816 26.9077 25.288C26.7238 25.4945 26.684 25.7922 26.8075 26.0398L28.5697 29.5737L26.8405 29.6003C26.6058 29.604 26.3896 29.729 26.2697 29.9309C26.1497 30.1327 26.143 30.3823 26.2519 30.5903L26.9611 31.9445L19.703 38.5841C19.6956 38.5909 19.6883 38.5978 19.6812 38.6049L19.5314 38.7547C19.3191 38.9671 19.2722 39.2939 19.4163 39.5574L19.4216 39.567C19.5403 39.7838 19.7678 39.9187 20.015 39.9187H37.5284C38.2559 39.9187 38.943 39.6005 39.4134 39.0456C39.8838 38.4908 40.0855 37.761 39.9666 37.0435ZM38.382 38.1709C38.1688 38.4221 37.8577 38.5662 37.5284 38.5662H21.7264L28.2585 32.5909C28.4851 32.3838 28.5437 32.0501 28.4012 31.7781L27.9599 30.9357L29.6651 30.9095C29.8975 30.9059 30.1116 30.7832 30.2325 30.5847C30.3532 30.386 30.3636 30.1395 30.2599 29.9314L28.7726 26.9489L35.6231 29.4273C36.7462 29.8335 37.565 30.8179 37.7601 31.9961L38.6325 37.2643C38.6325 37.2644 38.6325 37.2644 38.6325 37.2644C38.6863 37.5893 38.595 37.9196 38.382 38.1709Z" fill="#DEE5EE"/>
<path d="M20.4688 38.7411L20.4609 38.734C20.1932 38.4916 19.7821 38.5024 19.5274 38.7585L19.5204 38.7656C19.3278 38.9594 19.2707 39.25 19.3756 39.5022C19.4805 39.7544 19.7269 39.9187 20 39.9187H20.0149C20.2945 39.9187 20.5453 39.7465 20.6458 39.4857C20.7465 39.2247 20.6761 38.9287 20.4688 38.7411Z" fill="#DEE5EE"/>
<path d="M20.4476 38.7216C20.2941 38.5834 20.0859 38.5228 19.882 38.5576C19.6783 38.592 19.5016 38.7179 19.4022 38.899L19.3975 38.9075C19.2549 39.1674 19.2983 39.4899 19.5045 39.7031L19.5069 39.7056C19.6394 39.8425 19.8159 39.9116 19.993 39.9116C20.1559 39.9116 20.3192 39.853 20.4486 39.7348L20.4557 39.7284C20.5171 39.6724 20.5677 39.6054 20.6049 39.531C20.7411 39.2589 20.6737 38.925 20.4476 38.7216Z" fill="#DEE5EE"/>
<path d="M20.4767 38.7629L20.4738 38.76C20.472 38.7582 20.4702 38.7563 20.4685 38.7546L20.3185 38.6047C20.3114 38.5976 20.3042 38.5907 20.2968 38.584L13.0387 31.9444L13.748 30.5903C13.857 30.3823 13.8502 30.1327 13.7303 29.9308C13.6103 29.729 13.3942 29.6039 13.1595 29.6003L11.4302 29.5736L13.1923 26.0397C13.3158 25.7922 13.2759 25.4945 13.0921 25.288C12.9083 25.0815 12.617 25.0077 12.3571 25.1019L3.91701 28.1555C2.33451 28.7278 1.1806 30.1149 0.905677 31.7752L0.0332531 37.0434C-0.0855753 37.7612 0.116144 38.4909 0.586614 39.0457C1.05716 39.6004 1.74427 39.9187 2.47162 39.9187H19.9999C20.2738 39.9187 20.5206 39.7534 20.625 39.5003C20.7295 39.2472 20.6709 38.9559 20.4767 38.7629ZM2.4717 38.5661C2.14232 38.5661 1.83123 38.4221 1.61826 38.1708C1.40529 37.9197 1.31404 37.5893 1.36779 37.2643L2.24021 31.9961C2.43529 30.8177 3.25412 29.8335 4.37717 29.4272L11.2276 26.9489L9.74038 29.9312C9.63663 30.1393 9.64694 30.3858 9.7678 30.5845C9.88851 30.7831 10.1028 30.9057 10.3352 30.9093L12.0404 30.9356L11.5991 31.778C11.4567 32.0499 11.5153 32.3836 11.7417 32.5907L18.2738 38.5661H2.4717Z" fill="#DEE5EE"/>
<path d="M22.3019 30.4342C22.3507 30.2389 22.31 30.0321 22.1909 29.8698L20.5451 27.6285C20.3721 27.3929 20.0671 27.2992 19.7895 27.3903C19.6396 27.4395 19.516 27.5387 19.4339 27.6655L17.8182 29.8577C17.795 29.889 17.7745 29.9226 17.7571 29.9574C17.6464 30.1789 17.6655 30.4431 17.8069 30.6463L18.4949 31.6344L17.762 36.2545C17.7385 36.4028 17.765 36.5547 17.8374 36.6863L19.4075 39.5411C19.5264 39.7573 19.7535 39.8915 20.0001 39.8915C20.2467 39.8915 20.4739 39.7573 20.5927 39.5411L22.1746 36.6652C22.2294 36.5653 22.2582 36.4532 22.2582 36.3393V36.3389C22.2582 36.3034 22.2553 36.268 22.2499 36.2329L21.5203 31.6345L22.2009 30.6573C22.2476 30.5896 22.2821 30.5139 22.3019 30.4342ZM20.0001 37.812L19.1341 36.2375L19.8735 31.5774C19.9009 31.4048 19.8603 31.2284 19.7605 31.085L19.1938 30.2711L20.0021 29.1744L20.8146 30.2809L20.2546 31.085C20.1548 31.2283 20.1143 31.4048 20.1417 31.5774L20.8777 36.2163L20.0001 37.812Z" fill="#DEE5EE"/>
</g>
<defs>
<clipPath id="clip0">
<rect width="40" height="40" fill="white"/>
</clipPath>
</defs>
</svg>
