<svg width="112" height="135" viewBox="0 0 112 135" fill="none" xmlns="http://www.w3.org/2000/svg">
<path d="M101.839 59.6279C98.1413 59.5566 94.9569 61.8778 93.759 65.1707C92.1076 66.0059 88.4371 66.5781 80.2876 65.1725C76.3045 64.4856 74.7023 61.9718 74.0837 60.4254C73.7597 58.0277 73.1461 55.681 72.2621 53.4392C72.1548 52.1494 72.1802 49.5064 73.9446 48.1631C77.4712 45.4784 78.939 44.987 79.5473 45.0112C79.6813 45.105 79.8235 45.184 79.9714 45.2478L79.9735 45.2516L79.9728 45.2484C80.7191 45.5696 81.6091 45.5033 82.3166 44.9953C83.393 44.2224 83.6394 42.7196 82.867 41.6388C82.0946 40.558 80.5959 40.3085 79.5196 41.0814C78.7533 41.6316 78.4077 42.5516 78.5507 43.426C78.2052 44.0787 76.9149 45.2287 72.7221 46.9989C70.8582 47.7859 69.0041 46.7393 67.9831 45.9625C65.8567 43.2484 63.2336 40.8733 60.1687 38.9899C59.4677 37.6659 58.9253 35.9278 59.5004 34.2101C60.9011 30.0272 62.1478 28.2011 63.05 27.4236C65.4796 28.0232 68.0553 26.8002 69.0822 24.4243C70.2286 21.7719 69.0106 18.687 66.3618 17.534C63.713 16.3809 60.6363 17.5964 59.4899 20.2488C58.584 22.3449 59.1546 24.7111 60.7411 26.1805C60.8272 27.3329 60.2854 29.5824 57.5639 33.9302C56.7059 35.3009 55.3553 35.9 54.1055 36.1399C48.8553 34.3551 43.3779 34.1295 38.2349 35.2622C35.8001 35.4772 30.2488 35.4942 27.3093 31.7037C22.7469 25.8206 21.3271 22.3432 21.0621 20.3283C24.1882 17.4493 24.8757 12.6416 22.4821 8.94779C19.8132 4.82894 14.3242 3.65472 10.2221 6.32509C6.12005 8.99546 4.95825 14.4992 7.62718 18.6181C9.74037 21.8793 13.6215 23.2945 17.1823 22.4169C18.889 23.3981 21.5424 26.2954 25.1047 34.1851C26.5317 37.3453 25.4934 40.462 24.272 42.625C21.6316 45.1091 19.4042 48.1233 17.7646 51.605C13.2836 61.1204 14.2784 71.8209 19.4697 80.1351L19.3052 79.9835C19.3052 79.9835 22.1536 85.5921 19.4442 89.3734C16.2028 93.8971 14.0213 95.635 12.6445 96.2364C9.93548 94.6108 6.37622 95.1269 4.25711 97.6089C1.89042 100.381 2.21631 104.555 4.98499 106.932C7.75367 109.31 11.9167 108.99 14.2834 106.218C16.1548 104.026 16.3427 100.957 14.9706 98.5936C15.2948 97.1714 16.7833 94.6605 21.6771 90.4323C24.0069 88.4193 27.0389 88.9447 28.8374 89.5378C29.8329 90.164 30.876 90.738 31.9648 91.2542C33.6065 92.0327 35.2832 92.6474 36.9766 93.1049C37.4794 94.0215 38.4361 96.3785 37.5724 99.9694C35.6315 108.039 34.7221 109.909 34.3571 110.315C34.2963 110.342 34.2361 110.372 34.1768 110.405L34.1493 110.401C34.1493 110.401 34.1505 110.402 34.1529 110.404C34.1553 110.407 34.1589 110.41 34.1638 110.412C33.4921 110.789 32.9297 111.499 32.7415 112.302C32.4673 113.471 33.0909 114.394 34.1344 114.364C35.178 114.333 36.2462 113.36 36.5204 112.191C36.7286 111.303 36.4194 110.557 35.8019 110.263C35.7816 109.37 36.2588 106.783 38.8571 99.3725C39.9498 96.2559 41.6484 94.7283 42.6568 94.0571C45.6685 94.2627 48.6686 94.0022 51.5563 93.3119C54.529 94.0239 57.8248 95.5214 59.7189 98.6349C64.5366 106.554 65.805 111.055 65.8503 113.584C61.5784 116.702 60.053 122.552 62.4958 127.458C65.2191 132.928 71.8434 135.155 77.2916 132.432C82.7397 129.708 84.9486 123.066 82.2253 117.596C80.0695 113.266 75.4694 110.968 70.9432 111.549C68.9698 110.096 66.0938 106.139 62.7936 95.8775C61.6783 92.4095 62.73 89.2277 64.1758 86.8149C66.2728 84.9862 68.1355 82.8394 69.6841 80.4029C70.5205 80.2363 71.4151 80.2494 72.2548 80.6348C76.2429 82.465 77.3901 83.5269 77.6733 84.081C77.5535 85.0685 78.0579 86.0684 78.9997 86.5327C80.1897 87.1193 81.6274 86.6289 82.2109 85.4373C82.7944 84.2457 82.3027 82.8042 81.1127 82.2175C80.2627 81.7985 79.2864 81.9289 78.5853 82.4718C77.8398 82.4648 76.2149 81.8538 72.6978 79.0062C72.0585 78.4885 71.6851 77.83 71.4805 77.1456L71.5076 77.0882C71.7752 76.5198 72.0234 75.9471 72.2522 75.371C73.1567 73.6178 76.1807 68.5509 81.0635 68.2293C88.1831 67.7603 91.6599 68.5172 93.3564 69.3947C93.9858 73.3672 97.3865 76.4408 101.542 76.5209C106.201 76.6107 110.046 72.9019 110.128 68.237C110.21 63.5722 106.499 59.7177 101.839 59.6279Z" fill="#DEE5EE"/>
<path d="M44.8687 21.812C45.0534 23.1286 44.1402 24.3446 42.829 24.528C41.5178 24.7113 40.305 23.7925 40.1203 22.4759C39.9356 21.1592 40.8488 19.9432 42.16 19.7599C43.4712 19.5766 44.684 20.4953 44.8687 21.812Z" fill="#DEE5EE"/>
<path d="M16.8028 86.582C17.6417 86.4647 18.226 85.6867 18.1078 84.8443C17.9896 84.002 17.2137 83.4142 16.3748 83.5314C15.5359 83.6487 14.9516 84.4267 15.0698 85.2691C15.188 86.1115 15.9639 86.6993 16.8028 86.582Z" fill="#DEE5EE"/>
<path d="M72.4863 90.292C72.5439 90.703 72.2589 91.0826 71.8496 91.1398C71.4403 91.197 71.0617 90.9102 71.0041 90.4992C70.9464 90.0882 71.2315 89.7087 71.6408 89.6515C72.05 89.5942 72.4286 89.881 72.4863 90.292Z" fill="#DEE5EE"/>
<path d="M69.9153 132.12C71.8253 132.543 73.8126 132.447 75.6718 131.842C77.5309 131.237 79.1944 130.145 80.4901 128.68L80.3426 128.549C79.0702 129.988 77.4366 131.06 75.6108 131.654C73.7849 132.248 71.8332 132.342 69.9576 131.927L69.9153 132.12Z" fill="#4B5D6B"/>
<path d="M7.70667 107.409C8.85479 107.663 10.0494 107.606 11.1671 107.242C12.2847 106.879 13.2846 106.222 14.0635 105.341L13.9748 105.263C13.21 106.128 12.2279 106.772 11.1304 107.129C10.0328 107.486 8.85958 107.543 7.73206 107.293L7.70667 107.409Z" fill="#4B5D6B"/>
<path d="M12.7907 20.8348C14.3338 21.1764 15.9394 21.0989 17.4414 20.6103C18.9435 20.1217 20.2875 19.2397 21.3343 18.0556L21.2151 17.9499C20.1871 19.1128 18.8673 19.9789 17.3922 20.4588C15.917 20.9386 14.3402 21.0147 12.8248 20.6792L12.7907 20.8348Z" fill="#4B5D6B"/>
<path d="M69.7377 130.936C72.3843 131.522 75.1527 131.107 77.5095 129.77L77.4345 129.637C75.1103 130.956 72.3803 131.365 69.7703 130.787L69.7377 130.936Z" fill="#4B5D6B"/>
<path d="M7.02787 106.906C8.61889 107.259 10.283 107.009 11.6998 106.205L11.6547 106.126C10.2575 106.918 8.61646 107.164 7.04748 106.817L7.02787 106.906Z" fill="#4B5D6B"/>
<path d="M12.7633 19.5972C14.9016 20.0708 17.1382 19.7353 19.0424 18.6554L18.9818 18.5483C17.104 19.6133 14.8984 19.9442 12.7896 19.4771L12.7633 19.5972Z" fill="#4B5D6B"/>
<path d="M99.4139 75.7129C100.882 76.038 102.41 75.9643 103.839 75.4994C105.268 75.0345 106.547 74.1954 107.542 73.0688L107.429 72.9682C106.451 74.0746 105.195 74.8987 103.792 75.3552C102.388 75.8117 100.888 75.8841 99.4464 75.5649L99.4139 75.7129Z" fill="#4B5D6B"/>
<path d="M63.0134 26.8666C63.923 27.068 64.8694 27.0224 65.7548 26.7343C66.6402 26.4463 67.4324 25.9265 68.0494 25.2285L67.9792 25.1662C67.3732 25.8516 66.5953 26.3622 65.7258 26.645C64.8562 26.9279 63.9268 26.9727 63.0336 26.7749L63.0134 26.8666Z" fill="#4B5D6B"/>
<path d="M80.1028 44.9941C80.5206 45.0866 80.9553 45.0656 81.362 44.9333C81.7686 44.801 82.1325 44.5622 82.4159 44.2417L82.3837 44.213C82.1053 44.5279 81.748 44.7624 81.3486 44.8923C80.9492 45.0222 80.5223 45.0428 80.112 44.952L80.1028 44.9941Z" fill="#4B5D6B"/>
<path d="M79.2881 86.2319C79.7058 86.3244 80.1406 86.3034 80.5472 86.1711C80.9539 86.0388 81.3178 85.8 81.6012 85.4794L81.569 85.4508C81.2906 85.7657 80.9333 86.0002 80.5339 86.1301C80.1345 86.26 79.7076 86.2806 79.2973 86.1898L79.2881 86.2319Z" fill="#4B5D6B"/>
<path d="M33.3567 113.744C33.7745 113.837 34.2092 113.816 34.6158 113.684C35.0225 113.551 35.3864 113.312 35.6698 112.992L35.6376 112.963C35.3592 113.278 35.0019 113.513 34.6025 113.643C34.2031 113.772 33.7762 113.793 33.3659 113.702L33.3567 113.744Z" fill="#4B5D6B"/>
<path d="M99.2205 74.8274C101.255 75.278 103.383 74.9589 105.195 73.9314L105.137 73.8295C103.35 74.8428 101.252 75.1576 99.2456 74.7132L99.2205 74.8274Z" fill="#4B5D6B"/>
<path d="M62.9516 26.3498C64.2121 26.629 65.5304 26.4312 66.6528 25.7947L66.6171 25.7316C65.5102 26.3593 64.2102 26.5543 62.9672 26.279L62.9516 26.3498Z" fill="#4B5D6B"/>
<path d="M80.0414 44.4776C80.6203 44.6058 81.2259 44.515 81.7414 44.2226L81.725 44.1936C81.2166 44.482 80.6194 44.5715 80.0485 44.4451L80.0414 44.4776Z" fill="#4B5D6B"/>
<path d="M79.2267 85.7153C79.8056 85.8435 80.4112 85.7527 80.9267 85.4603L80.9103 85.4313C80.4019 85.7196 79.8048 85.8092 79.2338 85.6828L79.2267 85.7153Z" fill="#4B5D6B"/>
<path d="M33.2953 113.228C33.8742 113.356 34.4798 113.265 34.9953 112.973L34.9789 112.944C34.4705 113.232 33.8734 113.322 33.3024 113.195L33.2953 113.228Z" fill="#4B5D6B"/>
<ellipse cx="45.1406" cy="64.7835" rx="25.2753" ry="25.3433" fill="white"/>
<g clip-path="url(#clip0)">
<path d="M44.0767 72.6806C43.836 72.504 43.4973 72.5555 43.3204 72.7963L43.2536 72.8873C43.0769 73.1279 43.1283 73.4661 43.3687 73.6432C43.4653 73.7144 43.5778 73.7487 43.6892 73.7487C43.855 73.7487 44.0187 73.6727 44.1247 73.5291L44.1925 73.4369C44.3693 73.1961 44.3175 72.8575 44.0767 72.6806Z" fill="#4B5D6B"/>
<path d="M44.2179 77.8276L42.8265 75.2975L44.1256 73.5281C44.3025 73.2873 44.2506 72.9486 44.0097 72.7718C43.7689 72.5948 43.4303 72.6468 43.2535 72.8877L41.7498 74.9355C41.6252 75.1053 41.6104 75.3319 41.7118 75.5165L43.2699 78.349V78.349C43.3684 78.528 43.5535 78.6293 43.7444 78.6293C43.8326 78.6293 43.922 78.6077 44.0047 78.5623C44.2664 78.4183 44.3619 78.0894 44.2179 77.8276Z" fill="#4B5D6B"/>
<path d="M48.2503 74.9356L46.7528 72.8961C46.6286 72.727 46.4182 72.6448 46.2123 72.6856C46.0065 72.726 45.8427 72.8819 45.7918 73.0853C45.7527 73.2416 45.7853 73.407 45.8806 73.5368L47.1734 75.2975L45.7914 77.8105C45.7475 77.8903 45.7245 77.9803 45.7245 78.0715C45.7245 78.3184 45.8917 78.534 46.1309 78.5955C46.1757 78.607 46.2209 78.6126 46.2655 78.6126C46.4592 78.6126 46.6428 78.5081 46.7396 78.3323L48.2882 75.5167C48.3898 75.332 48.3749 75.1054 48.2503 74.9356Z" fill="#4B5D6B"/>
<path d="M49.1075 66.4333C48.9296 66.3399 48.7145 66.3526 48.5489 66.4667C48.2271 66.6884 47.9285 66.9233 47.6614 67.1647C46.2053 68.481 44.822 68.3029 44.7678 68.2951C44.7352 68.29 44.702 68.2876 44.6692 68.2887C44.0938 68.3034 43.0563 67.7776 41.9587 66.9156C41.7908 66.7838 41.6187 66.6582 41.4468 66.5422C41.2811 66.4302 41.0669 66.4189 40.8903 66.5128C40.7136 66.6067 40.6031 66.7904 40.6031 66.9905V68.8466C40.6031 69.0107 40.6778 69.1658 40.8058 69.2686C40.821 69.2807 40.8367 69.292 40.853 69.3024L44.6893 71.8659C44.6899 71.8662 44.6905 71.8667 44.6911 71.8672L44.7012 71.8739C44.7915 71.9337 44.8956 71.9639 45 71.9639C45.0879 71.9639 45.1758 71.9426 45.2561 71.8996C45.273 71.8906 45.2893 71.8806 45.3049 71.87C45.3067 71.8688 45.3085 71.8676 45.3104 71.8664C45.3125 71.865 45.3147 71.8636 45.3168 71.8621L49.144 69.3047C49.1594 69.2949 49.1744 69.2844 49.1889 69.2732C49.3202 69.1707 49.3969 69.0134 49.3969 68.8467V66.9123C49.3969 66.7112 49.2855 66.5269 49.1075 66.4333ZM48.3148 68.5572L45 70.7722L41.6852 68.5571V68.065C42.4923 68.6516 43.6797 69.3711 44.6475 69.371C44.6495 69.371 44.6517 69.371 44.6538 69.371C44.9787 69.4069 46.6358 69.5046 48.3149 68.0316V68.5572H48.3148Z" fill="#4B5D6B"/>
<path d="M45.5338 71.334C45.4981 71.1194 45.3373 70.9471 45.1256 70.8966C44.9139 70.8464 44.6928 70.9274 44.564 71.1028L43.3204 72.7966C43.1436 73.0374 43.1954 73.3761 43.4364 73.5529C43.5328 73.6238 43.6449 73.6579 43.7561 73.6579C43.9225 73.6579 44.0866 73.5813 44.1928 73.4369L45.4298 71.752C45.5002 71.66 45.5412 71.5455 45.5412 71.4231C45.5411 71.3934 45.5386 71.3634 45.5338 71.334Z" fill="#4B5D6B"/>
<path d="M53.2426 53.892C53.2318 53.8072 52.9784 51.9781 51.2566 51.2565C51.3066 50.9353 51.3014 50.5224 51.0974 50.1207C50.8233 49.5808 50.2824 49.229 49.4896 49.0749C49.4556 49.0683 49.4211 49.0649 49.3864 49.0649H42.1247C39.176 49.0649 36.7771 51.4638 36.7771 54.4126V57.262C36.7771 58.0044 37.0302 58.7283 37.4895 59.3003C37.7173 59.584 37.9978 60.0793 38.0401 60.8282C38.0566 61.1205 38.3014 61.3465 38.5955 61.3383C38.8883 61.3301 39.1213 61.0903 39.1213 60.7975V57.0825C39.4887 55.5632 40.7425 55.2675 40.958 55.2276H43.3069C43.5832 55.2276 43.8549 55.1854 44.1146 55.1021C44.5612 54.9589 45.2698 54.6953 45.7857 54.4993C46.1308 54.3681 46.5129 54.3633 46.8615 54.4858L49.3761 55.3686C50.6333 55.8323 50.8576 56.936 50.8854 57.1093V61.5679C50.8854 61.8511 51.1038 62.086 51.3861 62.1071C51.3999 62.1081 51.4134 62.1087 51.4269 62.1087C51.6923 62.1086 51.9214 61.9142 51.9616 61.6477C51.9637 61.6338 52.1797 60.2383 52.8763 59.1211C53.1187 58.7322 53.2469 58.2887 53.2469 57.8387V53.9603C53.2469 53.9375 53.2454 53.9146 53.2426 53.892ZM52.1648 57.8385C52.1648 58.0801 52.0966 58.3199 51.9674 58.5331V57.0723C51.9674 57.0528 51.9664 57.0333 51.9643 57.0139C51.9558 56.9353 51.7322 55.0812 49.7456 54.3515C49.7432 54.3506 49.7408 54.3497 49.7383 54.3488L47.2199 53.4647C46.9359 53.365 46.6389 53.3153 46.342 53.3153C46.0227 53.3153 45.7037 53.3728 45.4014 53.4878C44.6791 53.7622 44.1198 53.9641 43.7841 54.0718C43.6314 54.1207 43.4709 54.1456 43.3069 54.1456H40.9143C40.8911 54.1456 40.8679 54.1471 40.8448 54.15C40.7532 54.1619 38.5953 54.4688 38.0522 56.9028C38.0436 56.9415 38.0392 56.981 38.0392 57.0206V58.1341C37.9214 57.8619 37.859 57.5645 37.859 57.2621V54.4127C37.859 52.0607 39.7726 50.1471 42.1245 50.1471H49.3318C49.6301 50.2107 49.9928 50.3411 50.1303 50.6065C50.2988 50.9313 50.1069 51.3786 50.1067 51.3789C50.0375 51.5261 50.0383 51.6966 50.1086 51.8431C50.179 51.9897 50.3116 52.0968 50.4698 52.1349C51.8471 52.4664 52.1281 53.7875 52.1647 54.0012V57.8385H52.1648Z" fill="#4B5D6B"/>
<path d="M51.9644 57.0139C51.9559 56.9353 51.7323 55.0812 49.7458 54.3515C49.7433 54.3506 49.7409 54.3497 49.7385 54.3488L47.22 53.4647C46.6306 53.2578 45.9849 53.2661 45.4015 53.4877C44.6792 53.7621 44.1199 53.964 43.7842 54.0717C43.6315 54.1206 43.4709 54.1455 43.3069 54.1455H40.9144C40.8912 54.1455 40.8679 54.147 40.8449 54.1499C40.7533 54.1618 38.5954 54.4686 38.0523 56.9027C38.0437 56.9414 38.0393 56.9809 38.0393 57.0205V61.6715C38.0393 61.6755 38.0394 61.6795 38.0394 61.6835C38.043 61.8451 38.1573 65.6605 40.7936 67.4055L40.8072 67.4151C40.8185 67.4231 40.8298 67.4311 40.8416 67.439C40.9919 67.5405 41.1429 67.6507 41.2905 67.7666C42.0585 68.3697 43.5058 69.371 44.6476 69.371C44.6497 69.371 44.6517 69.371 44.6539 69.371C44.7159 69.3778 44.8266 69.3869 44.9767 69.3869C45.6238 69.3869 47.0043 69.2174 48.387 67.9674C48.6191 67.7577 48.88 67.5525 49.1629 67.3577L49.2033 67.3294C49.2165 67.32 49.2297 67.3107 49.2433 67.3015C50.1227 66.7109 51.6457 65.1869 51.9655 61.616C51.9669 61.6 51.9677 61.5838 51.9677 61.5677V57.0723C51.9676 57.0528 51.9665 57.0334 51.9644 57.0139ZM50.8855 61.5433C50.5907 64.7659 49.2176 66.0152 48.64 66.4032C48.6195 66.417 48.5992 66.4312 48.579 66.4455L48.549 66.4666C48.2271 66.6883 47.9285 66.9232 47.6614 67.1646C46.2108 68.476 44.832 68.304 44.7644 68.2945C44.7329 68.2898 44.7011 68.2878 44.6693 68.2887C44.0938 68.3034 43.0563 67.7776 41.9588 66.9156C41.7909 66.7837 41.6188 66.6581 41.4471 66.5423L41.4338 66.5329C41.4208 66.5237 41.4079 66.5145 41.3926 66.5044C39.2652 65.0963 39.1261 61.8012 39.1214 61.6637V57.0825C39.4901 55.5576 40.7516 55.2653 40.9573 55.2275H43.307C43.5833 55.2275 43.855 55.1853 44.1147 55.1021C44.5613 54.9588 45.27 54.6952 45.7858 54.4993C46.1309 54.3681 46.513 54.3633 46.8616 54.4858L49.3762 55.3685C50.6333 55.8323 50.8577 56.9359 50.8855 57.1093V61.5433H50.8855Z" fill="#4B5D6B"/>
<path d="M45.4839 71.1811C45.3996 71.0125 45.2336 70.8999 45.0457 70.8839C44.8582 70.8684 44.6754 70.9509 44.5638 71.1029L43.2678 72.868C43.0911 73.1087 43.1427 73.4471 43.3833 73.6241C43.4798 73.6951 43.5921 73.7294 43.7034 73.7294C43.8694 73.7294 44.0333 73.6532 44.1394 73.5093L45.4354 71.7506C45.504 71.6576 45.541 71.5387 45.541 71.4232C45.5411 71.3393 45.5214 71.2563 45.4839 71.1811Z" fill="#4B5D6B"/>
<path d="M45.5186 79.8924C45.3153 79.6798 44.9795 79.6685 44.7625 79.867L44.6388 79.9802C44.4536 80.1495 44.4092 80.424 44.5316 80.6431L44.5354 80.6499C44.618 80.798 44.7654 80.8987 44.9333 80.9221C44.9582 80.9255 44.9831 80.9272 45.0078 80.9272C45.1503 80.9272 45.2882 80.8709 45.3904 80.7687L45.5102 80.6487C45.7181 80.4408 45.7219 80.1048 45.5186 79.8924Z" fill="#4B5D6B"/>
<path d="M45.3612 79.9801L45.2375 79.867C45.0205 79.6685 44.6846 79.6798 44.4814 79.8923C44.278 80.1049 44.2818 80.441 44.4898 80.6489L44.6098 80.7688C44.712 80.871 44.8499 80.9272 44.9923 80.9272C45.0177 80.9272 45.0433 80.9255 45.0689 80.9218C45.2374 80.8977 45.3847 80.7957 45.4667 80.6464L45.4705 80.6396C45.5904 80.4209 45.5452 80.1484 45.3612 79.9801Z" fill="#4B5D6B"/>
<path d="M45.3703 79.9886L45.3696 79.9879C45.2861 79.9098 45.178 79.8583 45.0589 79.8453C44.8995 79.8279 44.7442 79.8819 44.6312 79.9871L44.6296 79.9886C44.5202 80.0883 44.4566 80.2286 44.4534 80.3766C44.4502 80.5247 44.5078 80.6676 44.6127 80.7719L44.6184 80.7776C44.724 80.8826 44.8619 80.935 44.9999 80.935C45.1384 80.935 45.2769 80.8821 45.3824 80.7766L45.3881 80.7709C45.4926 80.6664 45.5499 80.5237 45.5464 80.3759C45.5432 80.2281 45.4795 80.0882 45.3703 79.9886Z" fill="#4B5D6B"/>
<path d="M45.1755 70.8993C44.9514 70.8276 44.7056 70.9107 44.5691 71.1026C44.4165 71.3175 44.4417 71.6103 44.6276 71.7971C44.7323 71.9022 44.8711 71.9561 45.0111 71.9561C45.1198 71.9561 45.229 71.9236 45.3233 71.8572C45.4673 71.7559 45.5529 71.5909 45.5529 71.4148V71.4135C45.5529 71.1781 45.3998 70.9709 45.1755 70.8993Z" fill="#4B5D6B"/>
<path d="M45.4397 71.0982L45.4351 71.092C45.2962 70.9041 45.0525 70.8267 44.8307 70.8998C44.6089 70.9728 44.459 71.1801 44.459 71.4136V71.4228C44.459 71.622 44.5708 71.8036 44.7463 71.8978C44.8258 71.9405 44.9135 71.9616 45.0012 71.9616C45.1069 71.9616 45.2124 71.931 45.3032 71.8708C45.4269 71.789 45.5116 71.6598 45.5374 71.5138C45.5632 71.3678 45.5279 71.2175 45.4397 71.0982Z" fill="#4B5D6B"/>
<path d="M51.4362 69.3986C51.3801 69.2504 51.2619 69.1342 51.1128 69.0809L49.0384 68.3372C49.0215 68.3312 49.0041 68.3259 48.9867 68.3216C48.8387 68.2846 48.6818 68.3117 48.5549 68.3966L44.7113 70.965C44.7103 70.9657 44.7092 70.9664 44.7081 70.9671L45.0099 71.4159L44.7014 70.9717C44.5886 71.0462 44.5079 71.1606 44.4751 71.2917C44.4571 71.3637 44.4542 71.4389 44.4664 71.5121C44.4803 71.5957 44.5137 71.6749 44.5639 71.7434L47.378 75.5759C47.4802 75.7153 47.6425 75.7968 47.814 75.7968C47.8257 75.7968 47.8375 75.7964 47.8494 75.7956C48.0337 75.7834 48.1991 75.6783 48.2881 75.5164L51.4042 69.8509C51.4806 69.712 51.4923 69.5466 51.4362 69.3986ZM47.7485 74.2523L45.7707 71.5585L48.9295 69.4477L50.1504 69.8854L47.7485 74.2523Z" fill="#4B5D6B"/>
<path d="M45.533 71.3296C45.5076 71.1844 45.424 71.0558 45.3015 70.9736L41.4451 68.3967C41.3223 68.3146 41.171 68.2864 41.0268 68.3184C41.0047 68.3233 40.983 68.3297 40.9617 68.3373L38.8872 69.0809C38.7381 69.1344 38.6199 69.2505 38.5638 69.3986C38.5078 69.5468 38.5194 69.7121 38.5958 69.8509L41.7118 75.5165C41.8008 75.6783 41.9663 75.7835 42.1506 75.7956C42.1623 75.7964 42.1742 75.7968 42.1859 75.7968C42.3574 75.7968 42.5196 75.7153 42.622 75.5758L44.1257 73.528C44.1269 73.5264 44.128 73.5248 44.1292 73.5231L45.4362 71.743C45.5234 71.6241 45.5584 71.4749 45.533 71.3296ZM43.2535 72.8874C43.2522 72.8891 43.251 72.8909 43.2497 72.8926L42.2513 74.2523L39.8495 69.8854L41.0703 69.4477L44.2292 71.5586L43.2535 72.8874Z" fill="#4B5D6B"/>
<path d="M60.9733 78.6348L60.2753 74.4202C60.0554 73.092 59.1323 71.9824 57.8663 71.5245L51.1142 69.0816C50.906 69.0063 50.6733 69.0653 50.5262 69.2305C50.3791 69.3957 50.3473 69.6338 50.446 69.8319L51.8558 72.659L50.4724 72.6803C50.2846 72.6832 50.1117 72.7832 50.0158 72.9447C49.9198 73.1062 49.9144 73.3059 50.0015 73.4723L50.5689 74.5556L44.7624 79.8673C44.7565 79.8727 44.7507 79.8782 44.745 79.8839L44.6251 80.0038C44.4553 80.1737 44.4177 80.4352 44.5331 80.6459L44.5373 80.6536C44.6322 80.8271 44.8142 80.935 45.012 80.935H59.0227C59.6048 80.935 60.1544 80.6804 60.5307 80.2366C60.9071 79.7927 61.0684 79.2088 60.9733 78.6348ZM59.7056 79.5367C59.5351 79.7377 59.2862 79.853 59.0228 79.853H46.3811L51.6068 75.0727C51.7881 74.9071 51.835 74.6401 51.721 74.4226L51.3679 73.7486L52.7321 73.7276C52.918 73.7248 53.0893 73.6266 53.186 73.4678C53.2826 73.3089 53.2909 73.1116 53.208 72.9452L52.0181 70.5592L57.4985 72.5419C58.397 72.8669 59.052 73.6544 59.2081 74.5969L59.906 78.8115C59.906 78.8116 59.906 78.8116 59.906 78.8116C59.949 79.0715 59.876 79.3357 59.7056 79.5367Z" fill="#4B5D6B"/>
<path d="M45.375 79.9929L45.3687 79.9872C45.1546 79.7933 44.8257 79.8019 44.622 80.0068L44.6163 80.0125C44.4623 80.1675 44.4166 80.4 44.5005 80.6018C44.5844 80.8036 44.7815 80.935 45 80.935H45.0119C45.2356 80.935 45.4363 80.7973 45.5166 80.5886C45.5972 80.3798 45.5409 80.143 45.375 79.9929Z" fill="#4B5D6B"/>
<path d="M45.358 79.9773C45.2352 79.8667 45.0687 79.8183 44.9055 79.8461C44.7426 79.8736 44.6012 79.9743 44.5217 80.1192L44.518 80.126C44.4039 80.334 44.4386 80.592 44.6035 80.7625L44.6055 80.7645C44.7115 80.874 44.8527 80.9293 44.9943 80.9293C45.1247 80.9293 45.2553 80.8824 45.3588 80.7878L45.3645 80.7827C45.4137 80.738 45.4542 80.6843 45.4839 80.6248C45.5928 80.4071 45.539 80.14 45.358 79.9773Z" fill="#4B5D6B"/>
<path d="M45.3813 80.0103L45.3791 80.008C45.3776 80.0066 45.3761 80.0051 45.3747 80.0037L45.2547 79.8838C45.2491 79.8781 45.2433 79.8726 45.2374 79.8673L39.431 74.5556L39.9984 73.4722C40.0856 73.3059 40.0802 73.1062 39.9842 72.9447C39.8882 72.7832 39.7153 72.6832 39.5275 72.6802L38.1441 72.6589L39.5538 69.8318C39.6526 69.6338 39.6207 69.3956 39.4737 69.2304C39.3266 69.0652 39.0936 69.0062 38.8857 69.0815L32.1336 71.5244C30.8676 71.9822 29.9445 73.0919 29.7245 74.4202L29.0266 78.6348C28.9315 79.209 29.0929 79.7928 29.4693 80.2366C29.8457 80.6804 30.3954 80.9349 30.9773 80.9349H44.9999C45.219 80.9349 45.4165 80.8028 45.5 80.6003C45.5836 80.3978 45.5367 80.1648 45.3813 80.0103ZM30.9773 79.8529C30.7138 79.8529 30.465 79.7377 30.2946 79.5367C30.1242 79.3358 30.0512 79.0714 30.0942 78.8114L30.7921 74.5969C30.9482 73.6542 31.6033 72.8668 32.5017 72.5418L37.982 70.5591L36.7923 72.945C36.7093 73.1114 36.7175 73.3087 36.8142 73.4676C36.9108 73.6265 37.0822 73.7246 37.2682 73.7274L38.6323 73.7485L38.2793 74.4224C38.1653 74.6399 38.2122 74.9069 38.3933 75.0726L43.619 79.8529H30.9773Z" fill="#4B5D6B"/>
<path d="M46.8416 73.3474C46.8806 73.1911 46.8481 73.0257 46.7527 72.8959L45.4361 71.1028C45.2977 70.9143 45.0537 70.8394 44.8316 70.9122C44.7117 70.9516 44.6129 71.0309 44.5471 71.1324L43.2545 72.8862C43.236 72.9112 43.2196 72.9381 43.2057 72.9659C43.1171 73.1431 43.1324 73.3545 43.2455 73.5171L43.796 74.3075L43.2096 78.0036C43.1908 78.1223 43.212 78.2438 43.2699 78.3491L44.526 80.6329C44.6211 80.8058 44.8029 80.9132 45.0001 80.9132C45.1974 80.9132 45.3791 80.8058 45.4742 80.6329L46.7397 78.3321C46.7836 78.2523 46.8066 78.1626 46.8066 78.0714V78.0711C46.8066 78.0428 46.8043 78.0144 46.7999 77.9863L46.2162 74.3076L46.7607 73.5258C46.7981 73.4717 46.8257 73.4111 46.8416 73.3474ZM45.0001 79.2496L44.3073 77.99L44.8988 74.2619C44.9207 74.1238 44.8883 73.9827 44.8084 73.868L44.355 73.2169L45.0017 72.3395L45.6517 73.2248L45.2037 73.868C45.1239 73.9826 45.0915 74.1238 45.1134 74.2619L45.7022 77.973L45.0001 79.2496Z" fill="#4B5D6B"/>
</g>
<defs>
<clipPath id="clip0">
<rect width="32" height="32" fill="white" transform="translate(29 49)"/>
</clipPath>
</defs>
</svg>
