<svg width="103" height="111" viewBox="0 0 103 111" fill="none" xmlns="http://www.w3.org/2000/svg">
<g clip-path="url(#clip0)">
<path fill-rule="evenodd" clip-rule="evenodd" d="M93.9486 39.1213C90.3837 39.0526 87.314 41.2902 86.1592 44.4644C84.5672 45.2696 81.029 45.8212 73.1727 44.4662C69.3332 43.804 67.7886 41.3809 67.1922 39.8901C66.8799 37.5786 66.2883 35.3163 65.4361 33.1551C65.3327 31.9117 65.3573 29.3642 67.0581 28.0694C70.4579 25.4812 71.8727 25.0075 72.4591 25.031C72.5882 25.1213 72.7253 25.1974 72.8678 25.2589L72.8699 25.2627L72.8693 25.2595C73.5886 25.5692 74.4466 25.5053 75.1286 25.0155C76.1663 24.2704 76.4038 22.8218 75.6592 21.7799C74.9147 20.738 73.4699 20.4974 72.4323 21.2425C71.6936 21.7729 71.3604 22.6599 71.4983 23.5028C71.1653 24.132 69.9215 25.2406 65.8795 26.9471C64.0829 27.7056 62.2958 26.697 61.3115 25.9482C59.2616 23.3317 56.7329 21.0421 53.7783 19.2265C53.1026 17.9502 52.5795 16.2745 53.134 14.6185C54.4842 10.5862 55.6861 8.82587 56.5558 8.07633C58.8979 8.65428 61.3808 7.47537 62.3707 5.18503C63.4759 2.62813 62.3017 -0.345717 59.7483 -1.45724C57.1948 -2.56877 54.229 -1.39706 53.1238 1.15984C52.2505 3.18049 52.8006 5.46155 54.33 6.87805C54.413 7.98896 53.8907 10.1575 51.2672 14.3487C50.44 15.6702 49.1379 16.2477 47.9329 16.4789C42.8721 14.7585 37.5923 14.5411 32.6346 15.6327C30.2879 15.8401 24.9357 15.8569 22.1018 12.2025C17.7036 6.53113 16.335 3.17888 16.0795 1.23654C19.0931 -1.53874 19.7558 -6.17341 17.4485 -9.7343C14.8756 -13.7049 9.58425 -14.8368 5.62986 -12.2626C1.67546 -9.68834 0.555494 -4.38274 3.12834 -0.412174C5.16541 2.73156 8.90668 4.09581 12.3392 3.24997C13.9845 4.19573 16.5424 6.98872 19.9766 14.5945C21.3522 17.6411 20.3512 20.6457 19.1737 22.7308C16.6284 25.1254 14.4813 28.031 12.9008 31.3874C8.58116 40.5601 9.54009 50.8753 14.5445 58.8901L14.3858 58.7441C14.3858 58.7441 17.1317 64.1507 14.5199 67.7959C11.3952 72.1567 9.29218 73.832 7.96492 74.4118C5.35347 72.8447 1.92235 73.3423 -0.12045 75.7349C-2.40193 78.407 -2.08778 82.431 0.58122 84.7227C3.25023 87.0143 7.26338 86.7059 9.54486 84.0337C11.3489 81.9208 11.53 78.9627 10.2073 76.6841C10.5198 75.3131 11.9548 72.8927 16.6724 68.8166C18.9182 66.8762 21.8409 67.3825 23.5747 67.9543C24.5344 68.5581 25.5401 69.1114 26.5897 69.6091C28.1723 70.3595 29.7887 70.9521 31.4211 71.3932C31.9058 72.2768 32.8279 74.5489 31.9953 78.0103C30.1242 85.7898 29.2475 87.5927 28.8958 87.9832C28.8372 88.0097 28.7792 88.0387 28.722 88.0703L28.6955 88.0659C28.6955 88.0659 28.6999 88.072 28.7095 88.0773C28.062 88.44 27.5198 89.1246 27.3383 89.8986C27.074 91.026 27.6752 91.916 28.6811 91.8866C29.6871 91.8571 30.7169 90.9193 30.9812 89.7918C31.1819 88.9361 30.8839 88.217 30.2886 87.9331C30.269 87.0729 30.729 84.5788 33.2338 77.4349C34.2871 74.4308 35.9244 72.9581 36.8965 72.311C39.7999 72.5092 42.6921 72.2581 45.476 71.5926C48.3416 72.279 51.5187 73.7226 53.3446 76.724C57.9888 84.3578 59.2115 88.6964 59.2552 91.1344C55.1371 94.1408 53.6666 99.7796 56.0214 104.51C58.6467 109.783 65.0325 111.929 70.2845 109.304C75.5366 106.679 77.6659 100.276 75.0406 95.0025C72.9624 90.8283 68.5279 88.6133 64.1647 89.1735C62.2624 87.7723 59.4899 83.9579 56.3086 74.0658C55.2334 70.7228 56.2473 67.6556 57.6409 65.3297C59.6625 63.5668 61.4582 61.4972 62.9511 59.1484C63.7574 58.9878 64.6198 59.0004 65.4292 59.3719C69.2736 61.1362 70.3796 62.1599 70.6526 62.694C70.5371 63.646 71.0234 64.6098 71.9313 65.0574C73.0784 65.6229 74.4644 65.1502 75.0269 64.0015C75.5893 62.8528 75.1153 61.4631 73.9682 60.8976C73.1488 60.4936 72.2076 60.6194 71.5317 61.1428C70.813 61.1359 69.2466 60.5469 65.8563 57.8019C65.24 57.3029 64.8801 56.6681 64.6828 56.0083L64.7089 55.953C64.9671 55.4047 65.2064 54.8524 65.4271 54.2966C66.2996 52.6057 69.2146 47.7229 73.9208 47.4129C80.784 46.9608 84.1356 47.6905 85.7711 48.5364C86.3778 52.3659 89.656 55.3289 93.6617 55.4061C98.1537 55.4927 101.859 51.9174 101.939 47.4205C102.018 42.9235 98.4406 39.2079 93.9486 39.1213ZM39.029 2.66687C39.2071 3.93613 38.3267 5.10834 37.0627 5.28507C35.7987 5.4618 34.6296 4.57613 34.4515 3.30687C34.2735 2.0376 35.1538 0.865395 36.4178 0.688663C37.6818 0.511935 38.8509 1.39761 39.029 2.66687ZM11.9737 65.105C12.7824 64.9919 13.3456 64.2419 13.2316 63.4299C13.1177 62.6178 12.3698 62.0512 11.5611 62.1642C10.7524 62.2773 10.1891 63.0273 10.3031 63.8393C10.417 64.6514 11.1649 65.218 11.9737 65.105ZM65.6522 68.6815C65.7078 69.0777 65.433 69.4436 65.0385 69.4988C64.6439 69.5539 64.279 69.2775 64.2234 68.8813C64.1678 68.4851 64.4426 68.1192 64.8372 68.064C65.2317 68.0089 65.5966 68.2853 65.6522 68.6815Z" fill="#4B5D6B"/>
<path d="M63.1741 109.003C65.0152 109.411 66.931 109.318 68.7233 108.735C70.5155 108.152 72.1191 107.1 73.3681 105.687L73.2259 105.561C71.9993 106.949 70.4245 107.982 68.6644 108.555C66.9044 109.127 65.0229 109.218 63.2148 108.818L63.1741 109.003Z" fill="white"/>
<path d="M3.20495 85.1822C4.31173 85.4272 5.46338 85.3716 6.54075 85.0212C7.61811 84.6707 8.58207 84.0381 9.33289 83.1888L9.24746 83.113C8.5101 83.947 7.56344 84.5683 6.50539 84.9125C5.44735 85.2566 4.31636 85.3112 3.22942 85.0706L3.20495 85.1822Z" fill="white"/>
<path d="M8.10585 1.72467C9.59337 2.05403 11.1412 1.97933 12.5892 1.50831C14.0372 1.0373 15.3327 0.187067 16.3418 -0.954414L16.227 -1.05633C15.236 0.0646775 13.9637 0.899657 12.5417 1.36223C11.1196 1.8248 9.59958 1.89815 8.13874 1.57471L8.10585 1.72467Z" fill="white"/>
<path d="M63.0026 107.862C65.554 108.427 68.2227 108.026 70.4947 106.738L70.4224 106.61C68.1819 107.881 65.5502 108.276 63.0341 107.718L63.0026 107.862Z" fill="white"/>
<path d="M2.5506 84.6972C4.08433 85.0369 5.68854 84.7963 7.05431 84.0217L7.01086 83.9449C5.66399 84.7088 4.082 84.9461 2.5695 84.611L2.5506 84.6972Z" fill="white"/>
<path d="M8.07948 0.531795C10.1408 0.988375 12.2969 0.664987 14.1325 -0.376097L14.0741 -0.479286C12.2639 0.547385 10.1377 0.866296 8.10488 0.416037L8.07948 0.531795Z" fill="white"/>
<path d="M91.6106 54.6271C93.0258 54.9405 94.4985 54.8694 95.8761 54.4213C97.2538 53.9732 98.4864 53.1642 99.4465 52.0782L99.3372 51.9812C98.3944 53.0478 97.1839 53.8422 95.8309 54.2823C94.478 54.7224 93.0318 54.7922 91.6419 54.4845L91.6106 54.6271Z" fill="white"/>
<path d="M56.5206 7.53932C57.3975 7.73346 58.3098 7.68943 59.1633 7.41179C60.0168 7.13415 60.7805 6.63299 61.3753 5.96015L61.3076 5.90007C60.7235 6.56085 59.9735 7.05302 59.1353 7.32568C58.2971 7.59834 57.4011 7.64158 56.54 7.45092L56.5206 7.53932Z" fill="white"/>
<path d="M72.9947 25.0142C73.3974 25.1034 73.8165 25.0832 74.2085 24.9556C74.6005 24.8281 74.9513 24.5979 75.2245 24.2889L75.1934 24.2613C74.9251 24.5648 74.5807 24.7909 74.1956 24.9161C73.8106 25.0413 73.3991 25.0612 73.0036 24.9736L72.9947 25.0142Z" fill="white"/>
<path d="M72.2093 64.7674C72.6121 64.8566 73.0311 64.8363 73.4232 64.7088C73.8152 64.5813 74.166 64.3511 74.4392 64.042L74.4081 64.0144C74.1398 64.318 73.7953 64.544 73.4103 64.6693C73.0253 64.7945 72.6137 64.8144 72.2182 64.7268L72.2093 64.7674Z" fill="white"/>
<path d="M27.9315 91.2894C28.3343 91.3785 28.7533 91.3583 29.1454 91.2308C29.5374 91.1033 29.8882 90.8731 30.1614 90.564L30.1303 90.5364C29.862 90.8399 29.5175 91.066 29.1325 91.1912C28.7475 91.3165 28.336 91.3363 27.9404 91.2488L27.9315 91.2894Z" fill="white"/>
<path d="M91.4242 53.7737C93.3854 54.2081 95.4368 53.9004 97.1832 52.9099L97.1277 52.8117C95.4054 53.7885 93.3825 54.0919 91.4484 53.6635L91.4242 53.7737Z" fill="white"/>
<path d="M56.461 7.04117C57.6761 7.3103 58.9469 7.11968 60.0289 6.50602L59.9945 6.4452C58.9275 7.05036 57.6742 7.23834 56.476 6.97294L56.461 7.04117Z" fill="white"/>
<path d="M72.9355 24.5164C73.4936 24.64 74.0773 24.5525 74.5743 24.2706L74.5585 24.2426C74.0684 24.5206 73.4927 24.607 72.9424 24.4851L72.9355 24.5164Z" fill="white"/>
<path d="M72.1502 64.2693C72.7083 64.3929 73.292 64.3054 73.789 64.0235L73.7732 63.9956C73.2831 64.2735 72.7074 64.3599 72.157 64.238L72.1502 64.2693Z" fill="white"/>
<path d="M27.8724 90.7913C28.4305 90.9149 29.0143 90.8274 29.5113 90.5455L29.4955 90.5176C29.0054 90.7955 28.4297 90.8819 27.8793 90.76L27.8724 90.7913Z" fill="white"/>
<ellipse cx="39.2913" cy="44.091" rx="24.3653" ry="24.4309" fill="#F8F8F8"/>
<g clip-path="url(#clip1)">
<path d="M38.6056 51.9406C38.3724 51.7695 38.0443 51.8195 37.873 52.0528L37.8082 52.1409C37.6371 52.374 37.6869 52.7016 37.9198 52.8731C38.0133 52.9421 38.1223 52.9754 38.2302 52.9754C38.3909 52.9754 38.5495 52.9017 38.6521 52.7626L38.7178 52.6733C38.8891 52.44 38.8389 52.112 38.6056 51.9406Z" fill="#4B5D6B"/>
<path d="M38.7424 56.9268L37.3944 54.4757L38.6529 52.7617C38.8244 52.5284 38.774 52.2003 38.5407 52.029C38.3074 51.8576 37.9794 51.9079 37.8081 52.1413L36.3514 54.1251C36.2306 54.2896 36.2163 54.5091 36.3146 54.6879L37.8239 57.432V57.4319C37.9194 57.6054 38.0987 57.7035 38.2837 57.7035C38.3691 57.7034 38.4557 57.6826 38.5358 57.6385C38.7894 57.4991 38.8819 57.1804 38.7424 56.9268Z" fill="#4B5D6B"/>
<path d="M42.6487 54.1251L41.198 52.1493C41.0777 51.9855 40.8739 51.9059 40.6744 51.9454C40.475 51.9846 40.3163 52.1356 40.2671 52.3327C40.2292 52.484 40.2608 52.6442 40.3531 52.77L41.6054 54.4757L40.2667 56.9101C40.2242 56.9875 40.2018 57.0746 40.2018 57.163C40.2018 57.4022 40.3639 57.6111 40.5956 57.6706C40.639 57.6818 40.6828 57.6872 40.726 57.6872C40.9136 57.6872 41.0915 57.586 41.1852 57.4156L42.6855 54.688C42.7839 54.5091 42.7695 54.2895 42.6487 54.1251Z" fill="#4B5D6B"/>
<path d="M43.4792 45.8885C43.3069 45.798 43.0985 45.8103 42.9381 45.9209C42.6263 46.1357 42.337 46.3632 42.0782 46.5971C40.6677 47.8722 39.3276 47.6997 39.2752 47.6921C39.2435 47.6872 39.2114 47.6849 39.1796 47.6859C38.6222 47.7002 37.6171 47.1908 36.5538 46.3557C36.3912 46.2281 36.2244 46.1064 36.0579 45.994C35.8974 45.8855 35.6899 45.8745 35.5188 45.9655C35.3476 46.0565 35.2406 46.2345 35.2406 46.4283V48.2264C35.2406 48.3853 35.313 48.5356 35.437 48.6352C35.4516 48.647 35.4669 48.6579 35.4826 48.6679L39.199 51.1513C39.1996 51.1517 39.2002 51.1522 39.2008 51.1526L39.2106 51.1591C39.2981 51.217 39.3989 51.2463 39.5001 51.2463C39.5852 51.2463 39.6703 51.2256 39.7481 51.184C39.7646 51.1752 39.7803 51.1656 39.7954 51.1553C39.7972 51.1542 39.7989 51.153 39.8008 51.1518C39.8028 51.1505 39.8049 51.1491 39.8069 51.1477L43.5146 48.6702C43.5295 48.6607 43.544 48.6505 43.558 48.6396C43.6852 48.5403 43.7596 48.3879 43.7596 48.2265V46.3525C43.7596 46.1577 43.6517 45.9791 43.4792 45.8885ZM42.7113 47.946L39.5 50.0918L36.2889 47.946V47.4693C37.0708 48.0375 38.221 48.7345 39.1585 48.7344C39.1605 48.7344 39.1627 48.7344 39.1647 48.7344C39.4794 48.7692 41.0847 48.8638 42.7114 47.4369V47.946H42.7113Z" fill="#4B5D6B"/>
<path d="M40.017 50.636C39.9825 50.4282 39.8267 50.2613 39.6217 50.2123C39.4165 50.1637 39.2023 50.2421 39.0776 50.412L37.8729 52.0529C37.7015 52.2863 37.7518 52.6143 37.9852 52.7856C38.0786 52.8542 38.1872 52.8873 38.295 52.8873C38.4561 52.8873 38.6151 52.8131 38.7179 52.6732L39.9164 51.041C39.9845 50.9519 40.0242 50.8409 40.0242 50.7224C40.0242 50.6936 40.0218 50.6645 40.017 50.636Z" fill="#4B5D6B"/>
<path d="M47.485 33.7392C47.4746 33.6571 47.2291 31.8851 45.5612 31.1861C45.6096 30.8749 45.6045 30.4749 45.4069 30.0857C45.1414 29.5627 44.6174 29.2219 43.8493 29.0726C43.8164 29.0662 43.783 29.063 43.7494 29.063H36.7146C33.8581 29.063 31.5341 31.3869 31.5341 34.2435V37.0039C31.5341 37.7231 31.7793 38.4244 32.2243 38.9785C32.4449 39.2533 32.7167 39.7331 32.7577 40.4586C32.7736 40.7418 33.0107 40.9607 33.2957 40.9528C33.5793 40.9449 33.8051 40.7126 33.8051 40.4289V36.83C34.1609 35.3582 35.3756 35.0717 35.5844 35.033H37.8599C38.1276 35.033 38.3908 34.9922 38.6423 34.9115C39.075 34.7728 39.7614 34.5174 40.2612 34.3276C40.5955 34.2005 40.9657 34.1958 41.3034 34.3145L43.7394 35.1696C44.9573 35.6189 45.1746 36.688 45.2016 36.856V41.1752C45.2016 41.4496 45.4131 41.6772 45.6866 41.6976C45.6999 41.6985 45.713 41.6991 45.7261 41.6991C45.9832 41.699 46.2051 41.5107 46.2441 41.2526C46.2461 41.2391 46.4554 39.8872 47.1302 38.8049C47.365 38.4281 47.4892 37.9985 47.4892 37.5626V33.8053C47.4892 33.7832 47.4878 33.7611 47.485 33.7392ZM46.4409 37.5623C46.4409 37.7965 46.3749 38.0287 46.2498 38.2353V36.8202C46.2498 36.8012 46.2487 36.7824 46.2467 36.7635C46.2384 36.6874 46.0219 34.8912 44.0974 34.1843C44.095 34.1834 44.0927 34.1826 44.0903 34.1818L41.6506 33.3253C41.3755 33.2287 41.0877 33.1805 40.8001 33.1805C40.4908 33.1805 40.1817 33.2363 39.8889 33.3477C39.1892 33.6135 38.6474 33.8091 38.3222 33.9133C38.1742 33.9608 38.0187 33.9849 37.8598 33.9849H35.542C35.5196 33.9849 35.497 33.9863 35.4747 33.9892C35.386 34.0007 33.2955 34.2979 32.7694 36.6559C32.761 36.6934 32.7568 36.7317 32.7568 36.7701V37.8488C32.6427 37.585 32.5822 37.297 32.5822 37.004V34.2436C32.5822 31.9651 34.436 30.1114 36.7145 30.1114H43.6964C43.9855 30.1729 44.3368 30.2993 44.47 30.5564C44.6332 30.871 44.4473 31.3043 44.4472 31.3047C44.3801 31.4473 44.3809 31.6124 44.449 31.7544C44.5172 31.8963 44.6457 32.0001 44.7989 32.037C46.1332 32.3582 46.4054 33.638 46.4408 33.845V37.5623H46.4409Z" fill="#4B5D6B"/>
<path d="M46.2467 36.7634C46.2385 36.6873 46.0219 34.8911 44.0974 34.1842C44.0951 34.1833 44.0927 34.1825 44.0903 34.1817L41.6506 33.3252C41.0796 33.1247 40.4541 33.1327 39.8889 33.3474C39.1892 33.6132 38.6473 33.8089 38.3221 33.9132C38.1742 33.9606 38.0187 33.9846 37.8598 33.9846H35.542C35.5195 33.9846 35.497 33.9861 35.4747 33.9889C35.386 34.0004 33.2955 34.2977 32.7694 36.6557C32.761 36.6932 32.7568 36.7315 32.7568 36.7699V41.2755C32.7568 41.2794 32.7568 41.2833 32.7569 41.2871C32.7603 41.4437 32.8711 45.1399 35.425 46.8303L35.4382 46.8396C35.4491 46.8474 35.4601 46.8551 35.4715 46.8628C35.6171 46.9611 35.7634 47.0679 35.9064 47.1801C36.6504 47.7643 38.0525 48.7344 39.1585 48.7344C39.1606 48.7344 39.1625 48.7344 39.1646 48.7344C39.2247 48.741 39.3319 48.7498 39.4774 48.7498C40.1042 48.7498 41.4416 48.5855 42.7811 47.3746C43.0059 47.1715 43.2587 46.9727 43.5328 46.784L43.5719 46.7565C43.5847 46.7475 43.5975 46.7384 43.6107 46.7296C44.4626 46.1574 45.938 44.681 46.2477 41.2218C46.2491 41.2062 46.2499 41.1906 46.2499 41.1749V36.82C46.2498 36.8012 46.2487 36.7823 46.2467 36.7634ZM45.2015 41.1513C44.9159 44.2732 43.5857 45.4835 43.0262 45.8593C43.0063 45.8727 42.9867 45.8865 42.9671 45.9003L42.938 45.9207C42.6262 46.1355 42.3369 46.363 42.0782 46.5969C40.6729 47.8673 39.3372 47.7007 39.2717 47.6915C39.2412 47.687 39.2104 47.685 39.1795 47.6859C38.6221 47.7002 37.617 47.1908 36.5537 46.3557C36.3911 46.228 36.2244 46.1063 36.0581 45.9941L36.0452 45.985C36.0326 45.976 36.0201 45.9671 36.0053 45.9573C33.9444 44.5932 33.8096 41.4012 33.805 41.2679V36.8299C34.1622 35.3526 35.3843 35.0695 35.5835 35.0329H37.8599C38.1275 35.0329 38.3907 34.992 38.6423 34.9114C39.075 34.7726 39.7615 34.5172 40.2612 34.3274C40.5955 34.2003 40.9657 34.1956 41.3034 34.3143L43.7394 35.1695C44.9572 35.6187 45.1746 36.6879 45.2016 36.8558V41.1513H45.2015Z" fill="#4B5D6B"/>
<path d="M39.9688 50.4881C39.8871 50.3247 39.7263 50.2157 39.5443 50.2002C39.3627 50.1851 39.1855 50.265 39.0775 50.4123L37.822 52.1222C37.6508 52.3555 37.7008 52.6833 37.9338 52.8547C38.0273 52.9234 38.1361 52.9567 38.244 52.9567C38.4048 52.9567 38.5635 52.8829 38.6663 52.7434L39.9218 51.0398C39.9883 50.9497 40.0241 50.8345 40.0241 50.7226C40.0242 50.6413 40.0051 50.5609 39.9688 50.4881Z" fill="#4B5D6B"/>
<path d="M40.0024 58.9269C39.8055 58.721 39.4802 58.71 39.27 58.9024L39.1502 59.012C38.9708 59.176 38.9277 59.4419 39.0463 59.6542L39.05 59.6608C39.13 59.8043 39.2728 59.9019 39.4355 59.9244C39.4596 59.9278 39.4837 59.9294 39.5076 59.9294C39.6456 59.9294 39.7792 59.8749 39.8782 59.7759L39.9943 59.6597C40.1957 59.4582 40.1994 59.1327 40.0024 58.9269Z" fill="#4B5D6B"/>
<path d="M39.8499 59.0119L39.7301 58.9024C39.5199 58.7101 39.1945 58.721 38.9976 58.9269C38.8006 59.1329 38.8043 59.4584 39.0058 59.6598L39.122 59.776C39.221 59.875 39.3546 59.9295 39.4926 59.9295C39.5172 59.9295 39.542 59.9278 39.5667 59.9242C39.73 59.9009 39.8728 59.802 39.9521 59.6574L39.9558 59.6508C40.072 59.4389 40.0282 59.175 39.8499 59.0119Z" fill="#4B5D6B"/>
<path d="M39.8588 59.0202L39.8581 59.0196C39.7772 58.9439 39.6725 58.8941 39.5572 58.8814C39.4027 58.8646 39.2522 58.9169 39.1428 59.0188L39.1413 59.0202C39.0353 59.1169 38.9736 59.2528 38.9705 59.3962C38.9674 59.5397 39.0233 59.678 39.1249 59.7791L39.1304 59.7846C39.2327 59.8863 39.3663 59.9371 39.5 59.9371C39.6342 59.9371 39.7683 59.8859 39.8705 59.7837L39.8761 59.7782C39.9773 59.6769 40.0328 59.5386 40.0294 59.3955C40.0263 59.2523 39.9646 59.1168 39.8588 59.0202Z" fill="#4B5D6B"/>
<path d="M39.67 50.215C39.453 50.1455 39.2148 50.2261 39.0826 50.412C38.9348 50.6202 38.9592 50.9038 39.1393 51.0848C39.2406 51.1866 39.3752 51.2388 39.5107 51.2388C39.616 51.2388 39.7219 51.2073 39.8132 51.143C39.9527 51.0449 40.0357 50.885 40.0357 50.7144V50.7132C40.0357 50.4851 39.8873 50.2844 39.67 50.215Z" fill="#4B5D6B"/>
<path d="M39.9259 50.4077L39.9214 50.4016C39.7869 50.2196 39.5508 50.1447 39.3359 50.2155C39.121 50.2862 38.9758 50.487 38.9758 50.7132V50.7222C38.9758 50.9151 39.0841 51.091 39.2542 51.1823C39.3312 51.2237 39.4162 51.2441 39.5011 51.2441C39.6035 51.2441 39.7057 51.2144 39.7936 51.1562C39.9135 51.0769 39.9955 50.9518 40.0205 50.8103C40.0455 50.6688 40.0113 50.5232 39.9259 50.4077Z" fill="#4B5D6B"/>
<path d="M45.7351 48.7611C45.6808 48.6176 45.5663 48.5051 45.4218 48.4534L43.4122 47.733C43.3959 47.7272 43.379 47.722 43.3622 47.7178C43.2188 47.6819 43.0668 47.7083 42.9439 47.7905L39.2204 50.2786C39.2194 50.2793 39.2183 50.2799 39.2173 50.2807L39.5097 50.7154L39.2107 50.2851C39.1015 50.3573 39.0233 50.4681 38.9916 50.5951C38.9741 50.6648 38.9713 50.7377 38.9831 50.8086C38.9966 50.8896 39.0289 50.9664 39.0776 51.0327L41.8037 54.7455C41.9028 54.8805 42.06 54.9594 42.2261 54.9594C42.2375 54.9594 42.2489 54.959 42.2604 54.9582C42.4389 54.9465 42.5992 54.8446 42.6854 54.6878L45.7041 49.1993C45.7782 49.0648 45.7895 48.9046 45.7351 48.7611ZM42.1627 53.4631L40.2466 50.8536L43.3068 48.8087L44.4895 49.2327L42.1627 53.4631Z" fill="#4B5D6B"/>
<path d="M40.0164 50.632C39.9918 50.4913 39.9108 50.3667 39.7922 50.2871L36.0562 47.7907C35.9373 47.7111 35.7907 47.6839 35.6511 47.7149C35.6296 47.7196 35.6086 47.7258 35.5879 47.7332L33.5783 48.4536C33.4338 48.5053 33.3193 48.6178 33.265 48.7613C33.2107 48.9049 33.222 49.065 33.296 49.1995L36.3146 54.688C36.4009 54.8448 36.5611 54.9467 36.7397 54.9584C36.7511 54.9592 36.7625 54.9595 36.7739 54.9595C36.94 54.9595 37.0972 54.8806 37.1964 54.7455L38.653 52.7617C38.6542 52.7601 38.6553 52.7585 38.6565 52.7569L39.9226 51.0324C40.0071 50.9173 40.041 50.7727 40.0164 50.632ZM37.8082 52.141C37.8069 52.1427 37.8057 52.1444 37.8044 52.1461L36.8373 53.4633L34.5105 49.2329L35.6932 48.8089L38.7533 50.8538L37.8082 52.141Z" fill="#4B5D6B"/>
<path d="M54.9741 57.7088L54.298 53.6259C54.0849 52.3392 53.1907 51.2642 51.9643 50.8207L45.4231 48.4541C45.2214 48.3812 44.996 48.4384 44.8535 48.5983C44.711 48.7584 44.6802 48.9891 44.7758 49.1809L46.1415 51.9197L44.8014 51.9404C44.6195 51.9432 44.452 52.0401 44.359 52.1965C44.266 52.353 44.2608 52.5464 44.3452 52.7076L44.8949 53.7571L39.2699 58.9028C39.2641 58.9081 39.2585 58.9134 39.253 58.9189L39.1368 59.035C38.9723 59.1996 38.9359 59.4529 39.0476 59.6571L39.0518 59.6645C39.1437 59.8325 39.32 59.9371 39.5116 59.9371H53.0845C53.6484 59.9371 54.1808 59.6905 54.5454 59.2605C54.91 58.8305 55.0663 58.2649 54.9741 57.7088ZM53.746 58.5826C53.5809 58.7773 53.3398 58.8889 53.0846 58.8889H40.838L45.9004 54.258C46.0759 54.0975 46.1214 53.8389 46.0109 53.6282L45.6689 52.9753L46.9904 52.955C47.1706 52.9522 47.3365 52.8571 47.4302 52.7033C47.5237 52.5493 47.5318 52.3582 47.4515 52.197L46.2988 49.8855L51.6079 51.8063C52.4783 52.1211 53.1129 52.884 53.2641 53.7971L53.9402 57.88C53.9402 57.88 53.9402 57.88 53.9402 57.88C53.9819 58.1318 53.9112 58.3878 53.746 58.5826Z" fill="#4B5D6B"/>
<path d="M39.8633 59.0243L39.8572 59.0188C39.6497 58.831 39.3312 58.8394 39.1338 59.0378L39.1283 59.0434C38.9791 59.1935 38.9348 59.4188 39.0161 59.6142C39.0974 59.8097 39.2883 59.937 39.5 59.937H39.5115C39.7282 59.937 39.9226 59.8036 40.0005 59.6014C40.0785 59.3991 40.024 59.1698 39.8633 59.0243Z" fill="#4B5D6B"/>
<path d="M39.8469 59.0092C39.7279 58.9021 39.5665 58.8551 39.4085 58.8821C39.2506 58.9088 39.1137 59.0063 39.0367 59.1467L39.033 59.1533C38.9225 59.3547 38.9561 59.6047 39.1159 59.7698L39.1178 59.7718C39.2205 59.8779 39.3573 59.9314 39.4945 59.9314C39.6208 59.9314 39.7474 59.886 39.8476 59.7944L39.8531 59.7894C39.9007 59.7461 39.94 59.6941 39.9688 59.6365C40.0743 59.4256 40.0221 59.1668 39.8469 59.0092Z" fill="#4B5D6B"/>
<path d="M39.8694 59.0412L39.8672 59.039C39.8658 59.0376 39.8644 59.0361 39.863 59.0348L39.7468 58.9187C39.7413 58.9131 39.7357 58.9078 39.73 58.9026L34.105 53.7569L34.6547 52.7074C34.7392 52.5463 34.7339 52.3528 34.641 52.1964C34.548 52.04 34.3805 51.943 34.1985 51.9402L32.8583 51.9195L34.224 49.1808C34.3197 48.9889 34.2888 48.7582 34.1464 48.5982C34.0039 48.4381 33.7782 48.3809 33.5767 48.4539L27.0357 50.8205C25.8092 51.264 24.9149 52.339 24.7019 53.6258L24.0257 57.7086C23.9337 58.2649 24.09 58.8304 24.4546 59.2604C24.8193 59.6903 25.3518 59.9369 25.9155 59.9369H39.4999C39.7122 59.9369 39.9035 59.8089 39.9844 59.6127C40.0653 59.4165 40.0199 59.1908 39.8694 59.0412ZM25.9155 58.8887C25.6603 58.8887 25.4192 58.7771 25.2541 58.5824C25.0891 58.3877 25.0184 58.1317 25.06 57.8798L25.7361 53.7969C25.8873 52.8837 26.5219 52.1209 27.3923 51.8061L32.7013 49.8853L31.5488 52.1967C31.4684 52.3579 31.4764 52.549 31.57 52.703C31.6636 52.8569 31.8296 52.9519 32.0098 52.9546L33.3313 52.9751L32.9893 53.6279C32.8789 53.8386 32.9243 54.0973 33.0998 54.2578L38.1622 58.8887H25.9155Z" fill="#4B5D6B"/>
<path d="M41.284 52.5865C41.3218 52.4351 41.2903 52.2748 41.198 52.1491L39.9225 50.412C39.7884 50.2294 39.5521 50.1568 39.3369 50.2274C39.2207 50.2655 39.125 50.3424 39.0613 50.4407L37.8091 52.1397C37.7912 52.1639 37.7752 52.1899 37.7617 52.2169C37.676 52.3886 37.6908 52.5934 37.8004 52.7508L38.3336 53.5166L37.7656 57.0971C37.7473 57.2121 37.7679 57.3298 37.824 57.4319L39.0409 59.6443C39.133 59.8118 39.309 59.9158 39.5001 59.9158C39.6913 59.9158 39.8673 59.8118 39.9594 59.6443L41.1853 57.4154C41.2278 57.3381 41.2502 57.2512 41.2502 57.1629V57.1626C41.2502 57.1351 41.2479 57.1076 41.2437 57.0804L40.6782 53.5166L41.2057 52.7593C41.2419 52.7069 41.2686 52.6482 41.284 52.5865ZM39.5001 58.3042L38.8289 57.084L39.402 53.4724C39.4232 53.3386 39.3918 53.2019 39.3144 53.0908L38.8752 52.46L39.5016 51.6101L40.1313 52.4677L39.6974 53.0908C39.62 53.2019 39.5886 53.3386 39.6098 53.4724L40.1802 57.0675L39.5001 58.3042Z" fill="#4B5D6B"/>
</g>
</g>
<defs>
<clipPath id="clip0">
<rect width="103" height="111" fill="white"/>
</clipPath>
<clipPath id="clip1">
<rect width="31" height="31" fill="white" transform="translate(24 29)"/>
</clipPath>
</defs>
</svg>
