<svg width="103" height="111" viewBox="0 0 103 111" fill="none" xmlns="http://www.w3.org/2000/svg">
<g clip-path="url(#clip0)">
<path fill-rule="evenodd" clip-rule="evenodd" d="M93.9486 39.1213C90.3837 39.0526 87.314 41.2902 86.1592 44.4644C84.5672 45.2696 81.029 45.8212 73.1727 44.4662C69.3332 43.804 67.7886 41.3809 67.1922 39.8901C66.8799 37.5786 66.2883 35.3163 65.4361 33.1551C65.3327 31.9117 65.3573 29.3642 67.0581 28.0694C70.4579 25.4812 71.8727 25.0075 72.4591 25.031C72.5882 25.1213 72.7253 25.1974 72.8678 25.2589L72.8699 25.2627L72.8693 25.2595C73.5886 25.5692 74.4466 25.5053 75.1286 25.0155C76.1663 24.2704 76.4038 22.8218 75.6592 21.7799C74.9147 20.738 73.4699 20.4974 72.4323 21.2425C71.6936 21.7729 71.3604 22.6599 71.4983 23.5028C71.1653 24.132 69.9215 25.2406 65.8795 26.9471C64.0829 27.7056 62.2958 26.697 61.3115 25.9482C59.2616 23.3317 56.7329 21.0421 53.7783 19.2265C53.1026 17.9502 52.5795 16.2745 53.134 14.6185C54.4842 10.5862 55.6861 8.82587 56.5558 8.07633C58.8979 8.65428 61.3808 7.47537 62.3707 5.18503C63.4759 2.62813 62.3017 -0.345717 59.7483 -1.45724C57.1948 -2.56877 54.229 -1.39706 53.1238 1.15984C52.2505 3.18049 52.8006 5.46155 54.33 6.87805C54.413 7.98896 53.8907 10.1575 51.2672 14.3487C50.44 15.6702 49.1379 16.2477 47.9329 16.4789C42.8721 14.7585 37.5923 14.5411 32.6346 15.6327C30.2879 15.8401 24.9357 15.8569 22.1018 12.2025C17.7036 6.53113 16.335 3.17888 16.0795 1.23654C19.0931 -1.53874 19.7558 -6.17341 17.4485 -9.7343C14.8756 -13.7049 9.58425 -14.8368 5.62986 -12.2626C1.67546 -9.68834 0.555494 -4.38274 3.12834 -0.412174C5.16541 2.73156 8.90668 4.09581 12.3392 3.24997C13.9845 4.19573 16.5424 6.98872 19.9766 14.5945C21.3522 17.6411 20.3512 20.6457 19.1737 22.7308C16.6284 25.1254 14.4813 28.031 12.9008 31.3874C8.58116 40.5601 9.54009 50.8753 14.5445 58.8901L14.3858 58.7441C14.3858 58.7441 17.1317 64.1507 14.5199 67.7959C11.3952 72.1567 9.29218 73.832 7.96492 74.4118C5.35347 72.8447 1.92235 73.3423 -0.12045 75.7349C-2.40193 78.407 -2.08778 82.431 0.58122 84.7227C3.25023 87.0143 7.26338 86.7059 9.54486 84.0337C11.3489 81.9208 11.53 78.9627 10.2073 76.6841C10.5198 75.3131 11.9548 72.8927 16.6724 68.8166C18.9182 66.8762 21.8409 67.3825 23.5747 67.9543C24.5344 68.5581 25.5401 69.1114 26.5897 69.6091C28.1723 70.3595 29.7887 70.9521 31.4211 71.3932C31.9058 72.2768 32.8279 74.5489 31.9953 78.0103C30.1242 85.7898 29.2475 87.5927 28.8958 87.9832C28.8372 88.0097 28.7792 88.0387 28.722 88.0703L28.6955 88.0659C28.6955 88.0659 28.6999 88.072 28.7095 88.0773C28.062 88.44 27.5198 89.1246 27.3383 89.8986C27.074 91.026 27.6752 91.916 28.6811 91.8866C29.6871 91.8571 30.7169 90.9193 30.9812 89.7918C31.1819 88.9361 30.8839 88.217 30.2886 87.9331C30.269 87.0729 30.729 84.5788 33.2338 77.4349C34.2871 74.4308 35.9244 72.9581 36.8965 72.311C39.7999 72.5092 42.6921 72.2581 45.476 71.5926C48.3416 72.279 51.5187 73.7226 53.3446 76.724C57.9888 84.3578 59.2115 88.6964 59.2552 91.1344C55.1371 94.1408 53.6666 99.7796 56.0214 104.51C58.6467 109.783 65.0325 111.929 70.2845 109.304C75.5366 106.679 77.6659 100.276 75.0406 95.0025C72.9624 90.8283 68.5279 88.6133 64.1647 89.1735C62.2624 87.7723 59.4899 83.9579 56.3086 74.0658C55.2334 70.7228 56.2473 67.6556 57.6409 65.3297C59.6625 63.5668 61.4582 61.4972 62.9511 59.1484C63.7574 58.9878 64.6198 59.0004 65.4292 59.3719C69.2736 61.1362 70.3796 62.1599 70.6526 62.694C70.5371 63.646 71.0234 64.6098 71.9313 65.0574C73.0784 65.6229 74.4644 65.1502 75.0269 64.0015C75.5893 62.8528 75.1153 61.4631 73.9682 60.8976C73.1488 60.4936 72.2076 60.6194 71.5317 61.1428C70.813 61.1359 69.2466 60.5469 65.8563 57.8019C65.24 57.3029 64.8801 56.6681 64.6828 56.0083L64.7089 55.953C64.9671 55.4047 65.2064 54.8524 65.4271 54.2966C66.2996 52.6057 69.2146 47.7229 73.9208 47.4129C80.784 46.9608 84.1356 47.6905 85.7711 48.5364C86.3778 52.3659 89.656 55.3289 93.6617 55.4061C98.1537 55.4927 101.859 51.9174 101.939 47.4205C102.018 42.9235 98.4406 39.2079 93.9486 39.1213ZM39.029 2.66687C39.2071 3.93613 38.3267 5.10834 37.0627 5.28507C35.7987 5.4618 34.6296 4.57613 34.4515 3.30687C34.2735 2.0376 35.1538 0.865395 36.4178 0.688663C37.6818 0.511935 38.8509 1.39761 39.029 2.66687ZM11.9737 65.105C12.7824 64.9919 13.3456 64.2419 13.2316 63.4299C13.1177 62.6178 12.3698 62.0512 11.5611 62.1642C10.7524 62.2773 10.1891 63.0273 10.3031 63.8393C10.417 64.6514 11.1649 65.218 11.9737 65.105ZM65.6522 68.6815C65.7078 69.0777 65.433 69.4436 65.0385 69.4988C64.6439 69.5539 64.279 69.2775 64.2234 68.8813C64.1678 68.4851 64.4426 68.1192 64.8372 68.064C65.2317 68.0089 65.5966 68.2853 65.6522 68.6815Z" fill="#4B5D6B"/>
<path d="M63.1741 109.003C65.0152 109.411 66.931 109.318 68.7233 108.735C70.5155 108.152 72.1191 107.1 73.3681 105.687L73.2259 105.561C71.9993 106.949 70.4245 107.982 68.6644 108.555C66.9044 109.127 65.0229 109.218 63.2148 108.818L63.1741 109.003Z" fill="white"/>
<path d="M3.20495 85.1822C4.31173 85.4272 5.46338 85.3716 6.54075 85.0212C7.61811 84.6707 8.58207 84.0381 9.33289 83.1888L9.24746 83.113C8.5101 83.947 7.56344 84.5683 6.50539 84.9125C5.44735 85.2566 4.31636 85.3112 3.22942 85.0706L3.20495 85.1822Z" fill="white"/>
<path d="M8.10585 1.72467C9.59337 2.05403 11.1412 1.97933 12.5892 1.50831C14.0372 1.0373 15.3327 0.187067 16.3418 -0.954414L16.227 -1.05633C15.236 0.0646775 13.9637 0.899657 12.5417 1.36223C11.1196 1.8248 9.59958 1.89815 8.13874 1.57471L8.10585 1.72467Z" fill="white"/>
<path d="M63.0026 107.862C65.554 108.427 68.2227 108.026 70.4947 106.738L70.4224 106.61C68.1819 107.881 65.5502 108.276 63.0341 107.718L63.0026 107.862Z" fill="white"/>
<path d="M2.5506 84.6972C4.08433 85.0369 5.68854 84.7963 7.05431 84.0217L7.01086 83.9449C5.66399 84.7088 4.082 84.9461 2.5695 84.611L2.5506 84.6972Z" fill="white"/>
<path d="M8.07948 0.531795C10.1408 0.988375 12.2969 0.664987 14.1325 -0.376097L14.0741 -0.479286C12.2639 0.547385 10.1377 0.866296 8.10488 0.416037L8.07948 0.531795Z" fill="white"/>
<path d="M91.6106 54.6271C93.0258 54.9405 94.4985 54.8694 95.8761 54.4213C97.2538 53.9732 98.4864 53.1642 99.4465 52.0782L99.3372 51.9812C98.3944 53.0478 97.1839 53.8422 95.8309 54.2823C94.478 54.7224 93.0318 54.7922 91.6419 54.4845L91.6106 54.6271Z" fill="white"/>
<path d="M56.5206 7.53932C57.3975 7.73346 58.3098 7.68943 59.1633 7.41179C60.0168 7.13415 60.7805 6.63299 61.3753 5.96015L61.3076 5.90007C60.7235 6.56085 59.9735 7.05302 59.1353 7.32568C58.2971 7.59834 57.4011 7.64158 56.54 7.45092L56.5206 7.53932Z" fill="white"/>
<path d="M72.9947 25.0142C73.3974 25.1034 73.8165 25.0832 74.2085 24.9556C74.6005 24.8281 74.9513 24.5979 75.2245 24.2889L75.1934 24.2613C74.9251 24.5648 74.5807 24.7909 74.1956 24.9161C73.8106 25.0413 73.3991 25.0612 73.0036 24.9736L72.9947 25.0142Z" fill="white"/>
<path d="M72.2093 64.7674C72.6121 64.8566 73.0311 64.8363 73.4232 64.7088C73.8152 64.5813 74.166 64.3511 74.4392 64.042L74.4081 64.0144C74.1398 64.318 73.7953 64.544 73.4103 64.6693C73.0253 64.7945 72.6137 64.8144 72.2182 64.7268L72.2093 64.7674Z" fill="white"/>
<path d="M27.9315 91.2894C28.3343 91.3785 28.7533 91.3583 29.1454 91.2308C29.5374 91.1033 29.8882 90.8731 30.1614 90.564L30.1303 90.5364C29.862 90.8399 29.5175 91.066 29.1325 91.1912C28.7475 91.3165 28.336 91.3363 27.9404 91.2488L27.9315 91.2894Z" fill="white"/>
<path d="M91.4242 53.7737C93.3854 54.2081 95.4368 53.9004 97.1832 52.9099L97.1277 52.8117C95.4054 53.7885 93.3825 54.0919 91.4484 53.6635L91.4242 53.7737Z" fill="white"/>
<path d="M56.461 7.04117C57.6761 7.3103 58.9469 7.11968 60.0289 6.50602L59.9945 6.4452C58.9275 7.05036 57.6742 7.23834 56.476 6.97294L56.461 7.04117Z" fill="white"/>
<path d="M72.9355 24.5164C73.4936 24.64 74.0773 24.5525 74.5743 24.2706L74.5585 24.2426C74.0684 24.5206 73.4927 24.607 72.9424 24.4851L72.9355 24.5164Z" fill="white"/>
<path d="M72.1502 64.2693C72.7083 64.3929 73.292 64.3054 73.789 64.0235L73.7732 63.9956C73.2831 64.2735 72.7074 64.3599 72.157 64.238L72.1502 64.2693Z" fill="white"/>
<path d="M27.8724 90.7913C28.4305 90.9149 29.0143 90.8274 29.5113 90.5455L29.4955 90.5176C29.0054 90.7955 28.4297 90.8819 27.8793 90.76L27.8724 90.7913Z" fill="white"/>
<ellipse cx="39.2913" cy="44.091" rx="24.3653" ry="24.4309" fill="#F8F8F8"/>
<path d="M52.3359 34.0254C52.4483 34.0254 52.5561 33.9807 52.6356 33.9013C52.7151 33.8218 52.7598 33.714 52.7598 33.6016V31.6641C52.7598 31.5517 52.7151 31.4439 52.6356 31.3644C52.5561 31.2849 52.4483 31.2402 52.3359 31.2402H26.6641C26.5517 31.2402 26.4439 31.2849 26.3644 31.3644C26.2849 31.4439 26.2402 31.5517 26.2402 31.6641V33.6016C26.2402 33.714 26.2849 33.8218 26.3644 33.9013C26.4439 33.9807 26.5517 34.0254 26.6641 34.0254H27.6934V47.0631H26.6641C26.5517 47.0631 26.4439 47.1077 26.3644 47.1872C26.2849 47.2667 26.2402 47.3745 26.2402 47.4869V49.4244C26.2402 49.5368 26.2849 49.6446 26.3644 49.7241C26.4439 49.8036 26.5517 49.8482 26.6641 49.8482H28.3247C27.0353 51.3409 26.3267 53.2482 26.3289 55.2207V57.3359C26.3289 57.4483 26.3735 57.5561 26.453 57.6356C26.5325 57.7151 26.6403 57.7598 26.7527 57.7598C26.8651 57.7598 26.9729 57.7151 27.0524 57.6356C27.1319 57.5561 27.1765 57.4483 27.1765 57.3359V55.2207C27.1747 53.9919 27.4808 52.7823 28.0668 51.7023C28.6529 50.6223 29.5003 49.7065 30.5316 49.0384L33.0019 51.1711C33.0845 51.2425 33.1915 51.2792 33.3005 51.2737C33.4096 51.2681 33.5123 51.2207 33.5872 51.1413L34.1571 50.5358L34.6156 51.4527L33.4938 57.2555C33.4724 57.3659 33.4958 57.4802 33.5588 57.5733C33.6217 57.6664 33.7191 57.7307 33.8294 57.752C33.8561 57.7573 33.8832 57.7599 33.9103 57.7598C34.0087 57.7596 34.1039 57.7252 34.1797 57.6626C34.2555 57.5999 34.3072 57.5129 34.3259 57.4163L35.0595 53.6247L35.7928 57.4163C35.8142 57.5267 35.8785 57.6241 35.9716 57.6871C36.0647 57.7501 36.1791 57.7735 36.2894 57.7521C36.3998 57.7308 36.4972 57.6665 36.5602 57.5734C36.6232 57.4802 36.6466 57.3659 36.6252 57.2555L35.5025 51.4537L35.9607 50.5372L36.5303 51.1413C36.6052 51.2207 36.7079 51.2681 36.817 51.2737C36.9261 51.2792 37.033 51.2425 37.1157 51.1711L39.6344 48.9972L43.7451 51.6034C43.8811 51.6896 44.0332 51.7474 44.1922 51.7734C44.3512 51.7994 44.5138 51.7929 44.6703 51.7545C44.8267 51.716 44.9738 51.6463 45.1026 51.5496C45.2315 51.4529 45.3394 51.3311 45.42 51.1916L48.0172 46.6923L49.5205 47.56L46.6007 52.6176C46.416 52.9375 46.17 53.2177 45.8767 53.4422C45.5835 53.6667 45.2487 53.831 44.8918 53.9257C44.5348 54.0205 44.1627 54.0438 43.7967 53.9943C43.4307 53.9447 43.0781 53.8234 42.7591 53.6372L41.5736 52.9971C41.5087 52.9621 41.4359 52.9446 41.3622 52.9463C41.2885 52.948 41.2165 52.9689 41.1533 53.007C41.0902 53.045 41.0381 53.0989 41.0021 53.1633C40.9661 53.2276 40.9476 53.3003 40.9483 53.374L40.9834 57.3398C40.9844 57.4515 41.0295 57.5584 41.1089 57.637C41.1883 57.7156 41.2955 57.7598 41.4072 57.7598H41.4111C41.4668 57.7593 41.5218 57.7478 41.573 57.726C41.6242 57.7043 41.6707 57.6726 41.7097 57.6329C41.7487 57.5932 41.7795 57.5462 41.8003 57.4945C41.8211 57.4429 41.8316 57.3877 41.8311 57.3321L41.8022 54.0838L42.3455 54.3771C42.7607 54.6171 43.2192 54.7729 43.6947 54.8356C44.1702 54.8983 44.6534 54.8668 45.1167 54.7427C45.58 54.6186 46.0144 54.4045 46.3949 54.1126C46.7754 53.8206 47.0947 53.4566 47.3345 53.0412L49.1781 49.848H52.3359C52.4483 49.848 52.5561 49.8033 52.6356 49.7238C52.7151 49.6444 52.7598 49.5366 52.7598 49.4242V47.4867C52.7598 47.3742 52.7151 47.2664 52.6356 47.187C52.5561 47.1075 52.4483 47.0628 52.3359 47.0628H51.3066V34.0254H52.3359ZM27.0879 32.0879H51.9121V33.1777H27.0879V32.0879ZM28.541 43.5477C28.6187 43.898 28.794 44.2191 29.0466 44.4739C29.2991 44.7286 29.6187 44.9067 29.9682 44.9875V45.3389C29.9689 45.9355 30.1024 46.5244 30.3591 47.0628H28.541V43.5477ZM46.8245 47.0631H44.9492V46.4375H47.1856L46.8245 47.0631ZM46.335 47.9107L45.7053 49.0006H41.2222L39.5027 47.9107H46.335ZM40.1495 42.1837C40.3353 42.2654 40.4933 42.3995 40.6042 42.5694C40.7152 42.7394 40.7742 42.938 40.7742 43.141C40.7742 43.3439 40.7152 43.5425 40.6042 43.7125C40.4933 43.8825 40.3353 44.0165 40.1495 44.0982V42.1837ZM39.3019 45.3392C39.3009 46.1876 38.9635 47.001 38.3636 47.6009C37.7637 48.2008 36.9503 48.5382 36.1019 48.5392H34.0159C33.1675 48.5382 32.3542 48.2007 31.7543 47.6008C31.1544 47.0009 30.8169 46.1876 30.8159 45.3392V40.9016C30.8156 40.355 30.9388 39.8155 31.1763 39.3232C31.8225 39.7607 32.5907 39.9823 33.3707 39.9563H35.734C36.7973 39.9536 37.8182 40.3733 38.5722 41.1232L39.3021 41.8454L39.3019 45.3392ZM39.1682 40.5196C38.2559 39.6123 37.0205 39.1044 35.7337 39.1077H33.3707C32.4824 39.1077 31.7868 38.8401 31.3039 38.3116C30.5897 37.5306 30.4705 36.3514 30.4599 35.7486H35.059C38.3426 35.7486 39.1004 38.8117 39.2617 40.6119L39.1682 40.5196ZM29.9682 44.0982C29.7824 44.0165 29.6244 43.8825 29.5135 43.7125C29.4026 43.5425 29.3435 43.3439 29.3435 43.141C29.3435 42.938 29.4026 42.7394 29.5135 42.5694C29.6244 42.3995 29.7824 42.2654 29.9682 42.1837V44.0982ZM27.0879 47.9107H30.7827C30.2046 48.209 29.664 48.5749 29.1722 49.0006H27.0879V47.9107ZM33.2487 50.2641L31.3141 48.593C31.3763 48.5627 31.4402 48.5348 31.5037 48.506C32.2172 49.0761 33.1034 49.3865 34.0166 49.3864H34.0772L33.2487 50.2641ZM35.059 50.4447L34.7773 49.8802L35.0597 49.5808L35.3424 49.8804L35.059 50.4447ZM36.8689 50.2641L36.0411 49.3864H36.1019C37.0625 49.3866 37.9915 49.0435 38.7214 48.4188L38.8853 48.5227L36.8689 50.2641ZM44.4678 50.9308C44.4223 50.9421 44.375 50.944 44.3288 50.9364C44.2826 50.9289 44.2384 50.9119 44.1989 50.8867L42.5598 49.8477H45.2156L44.685 50.7668C44.6618 50.8076 44.6306 50.8431 44.5933 50.8714C44.5559 50.8997 44.5132 50.9201 44.4678 50.9313V50.9308ZM48.3551 45.9078C48.3977 45.7696 48.4708 45.6428 48.5692 45.5367C48.6675 45.4307 48.7885 45.3482 48.9231 45.2953C49.0577 45.2424 49.2025 45.2206 49.3467 45.2314C49.491 45.2422 49.6309 45.2853 49.7561 45.3576C49.8814 45.43 49.9887 45.5296 50.0702 45.6491C50.1516 45.7686 50.2051 45.9049 50.2266 46.0479C50.2482 46.1909 50.2372 46.3369 50.1945 46.4751C50.1519 46.6133 50.0786 46.7401 49.9802 46.8461L48.3551 45.9078ZM51.9121 49.0006H49.6675L50.2972 47.9107H51.9126L51.9121 49.0006ZM50.459 44.8238C50.1303 44.5367 49.7087 44.3786 49.2723 44.3789C49.1454 44.3792 49.019 44.3926 48.8949 44.4191L45.6051 38.2966C45.5509 38.1994 45.4607 38.1273 45.3539 38.096C45.2471 38.0647 45.1322 38.0767 45.0342 38.1294C44.9361 38.1821 44.8627 38.2712 44.8299 38.3775C44.797 38.4838 44.8072 38.5988 44.8584 38.6977L48.1304 44.7846C47.8704 44.9953 47.6741 45.2741 47.5634 45.5898H44.5254C44.413 45.5898 44.3052 45.6345 44.2257 45.714C44.1462 45.7935 44.1016 45.9013 44.1016 46.0137V47.0631H39.7587C40.0154 46.5246 40.1489 45.9357 40.1495 45.3392V44.9878C40.5679 44.8922 40.9413 44.6574 41.2088 44.3219C41.4763 43.9864 41.622 43.5701 41.622 43.141C41.622 42.7119 41.4763 42.2955 41.2088 41.96C40.9413 41.6245 40.5679 41.3897 40.1495 41.2942V40.9016C40.1491 40.8539 40.1405 40.8066 40.1241 40.7618C39.9277 37.8055 38.5225 34.9009 35.059 34.9009H30.0457C29.9401 34.9009 29.8383 34.9403 29.7602 35.0114C29.6821 35.0826 29.6334 35.1803 29.6236 35.2855C29.6156 35.3724 29.4502 37.3489 30.5364 38.7122C30.1624 39.3809 29.9665 40.1344 29.9675 40.9006V41.2932C29.6179 41.374 29.2984 41.5522 29.0458 41.807C28.7933 42.0618 28.618 42.383 28.5403 42.7332V34.0254H50.4583L50.459 44.8238Z" fill="#4B5D6B"/>
<path d="M29.4955 53.4515C29.3831 53.4515 29.2753 53.4962 29.1958 53.5757C29.1163 53.6552 29.0717 53.763 29.0717 53.8754V57.336C29.0717 57.4484 29.1163 57.5562 29.1958 57.6357C29.2753 57.7152 29.3831 57.7598 29.4955 57.7598C29.6079 57.7598 29.7157 57.7152 29.7952 57.6357C29.8747 57.5562 29.9193 57.4484 29.9193 57.336V53.8754C29.9193 53.763 29.8747 53.6552 29.7952 53.5757C29.7157 53.4962 29.6079 53.4515 29.4955 53.4515Z" fill="#4B5D6B"/>
<path d="M36.2082 44.54C36.0958 44.54 35.988 44.5847 35.9085 44.6642C35.829 44.7437 35.7844 44.8515 35.7844 44.9639C35.7754 45.1503 35.695 45.3261 35.5599 45.4548C35.4247 45.5835 35.2453 45.6553 35.0587 45.6553C34.872 45.6553 34.6926 45.5835 34.5575 45.4548C34.4224 45.3261 34.342 45.1503 34.3329 44.9639C34.3329 44.8515 34.2883 44.7437 34.2088 44.6642C34.1293 44.5847 34.0215 44.54 33.9091 44.54C33.7967 44.54 33.6889 44.5847 33.6094 44.6642C33.5299 44.7437 33.4853 44.8515 33.4853 44.9639C33.4987 45.3722 33.6703 45.7593 33.9639 46.0435C34.2575 46.3276 34.6501 46.4864 35.0587 46.4864C35.4672 46.4864 35.8598 46.3276 36.1534 46.0435C36.447 45.7593 36.6186 45.3722 36.632 44.9639C36.632 44.8515 36.5874 44.7437 36.5079 44.6642C36.4284 44.5847 36.3206 44.54 36.2082 44.54V44.54Z" fill="#4B5D6B"/>
<path d="M33.9256 42.4267C33.9256 42.2886 33.8847 42.1535 33.8079 42.0387C33.7311 41.9238 33.622 41.8343 33.4944 41.7814C33.3667 41.7286 33.2263 41.7147 33.0908 41.7417C32.9553 41.7687 32.8309 41.8352 32.7332 41.9329C32.6355 42.0306 32.569 42.1551 32.5421 42.2906C32.5152 42.4261 32.529 42.5666 32.5819 42.6942C32.6348 42.8218 32.7244 42.9309 32.8393 43.0076C32.9542 43.0843 33.0892 43.1253 33.2274 43.1252C33.4125 43.1249 33.59 43.0512 33.7209 42.9203C33.8517 42.7893 33.9254 42.6119 33.9256 42.4267V42.4267Z" fill="#4B5D6B"/>
<path d="M36.8907 41.7285C36.7525 41.7285 36.6175 41.7695 36.5026 41.8462C36.3878 41.923 36.2982 42.0321 36.2454 42.1597C36.1925 42.2873 36.1787 42.4278 36.2056 42.5632C36.2326 42.6987 36.2991 42.8232 36.3968 42.9209C36.4945 43.0186 36.6189 43.0851 36.7544 43.112C36.8899 43.139 37.0303 43.1252 37.158 43.0723C37.2856 43.0194 37.3947 42.9299 37.4714 42.815C37.5482 42.7002 37.5891 42.5651 37.5891 42.427C37.5889 42.2418 37.5153 42.0643 37.3843 41.9333C37.2534 41.8024 37.0759 41.7287 36.8907 41.7285V41.7285Z" fill="#4B5D6B"/>
</g>
<defs>
<clipPath id="clip0">
<rect width="103" height="111" fill="white"/>
</clipPath>
</defs>
</svg>
