<svg width="30" height="30" viewBox="0 0 30 30" fill="none" xmlns="http://www.w3.org/2000/svg">
<path d="M13.7838 0.931522C14.5015 0.381863 15.4985 0.381864 16.2162 0.931522L17.6945 2.0639C18.1186 2.38868 18.6549 2.53036 19.184 2.45738L20.9506 2.21371C21.8609 2.08815 22.7396 2.599 23.0809 3.45217L23.7531 5.13273C23.9564 5.64094 24.3591 6.04362 24.8673 6.24691L26.5478 6.91913C27.401 7.2604 27.9118 8.1391 27.7863 9.04936L27.5426 10.816C27.4696 11.3451 27.6113 11.8814 27.9361 12.3055L29.0685 13.7838C29.6181 14.5015 29.6181 15.4985 29.0685 16.2162L27.9361 17.6945C27.6113 18.1186 27.4696 18.6549 27.5426 19.184L27.7863 20.9506C27.9118 21.8609 27.401 22.7396 26.5478 23.0809L24.8673 23.7531C24.3591 23.9564 23.9564 24.3591 23.7531 24.8673L23.0809 26.5478C22.7396 27.401 21.8609 27.9118 20.9506 27.7863L19.184 27.5426C18.6549 27.4696 18.1186 27.6113 17.6945 27.9361L16.2162 29.0685C15.4985 29.6181 14.5015 29.6181 13.7838 29.0685L12.3055 27.9361C11.8814 27.6113 11.3451 27.4696 10.816 27.5426L9.04936 27.7863C8.1391 27.9118 7.2604 27.401 6.91913 26.5478L6.24691 24.8673C6.04362 24.3591 5.64094 23.9564 5.13273 23.7531L3.45217 23.0809C2.599 22.7396 2.08815 21.8609 2.21371 20.9506L2.45738 19.184C2.53036 18.6549 2.38868 18.1186 2.0639 17.6945L0.931522 16.2162C0.381863 15.4985 0.381864 14.5015 0.931522 13.7838L2.0639 12.3055C2.38868 11.8814 2.53036 11.3451 2.45738 10.816L2.21371 9.04936C2.08815 8.1391 2.599 7.2604 3.45217 6.91913L5.13273 6.24691C5.64094 6.04362 6.04362 5.64094 6.24691 5.13273L6.91913 3.45217C7.2604 2.59901 8.1391 2.08815 9.04936 2.21371L10.816 2.45738C11.3451 2.53036 11.8814 2.38868 12.3055 2.0639L13.7838 0.931522Z" fill="#DEE5EE"/>
<path d="M22.8422 9.75303C22.3418 9.32214 21.5996 9.32892 21.1072 9.76888L13.4633 16.5981C12.69 17.289 11.517 17.2743 10.7613 16.5642L8.88541 14.8016C8.40034 14.3459 7.64953 14.3296 7.14516 14.7639C6.54225 15.2831 6.54225 16.2169 7.14516 16.7361L10.7917 19.8762C11.5419 20.5222 12.6517 20.5222 13.4018 19.8762L22.8422 11.747C23.4518 11.2221 23.4518 10.2779 22.8422 9.75303Z" fill="#2B2A29"/>
</svg>
