<svg width="276" height="276" viewBox="0 0 276 276" fill="none" xmlns="http://www.w3.org/2000/svg">
<path d="M137.998 22.998C74.633 22.998 22.998 74.633 22.998 137.998C22.998 201.363 74.633 252.998 137.998 252.998C153.868 252.998 166.748 240.118 166.748 224.248C166.748 217.233 164.103 210.448 159.388 205.043C158.468 203.893 157.893 202.628 157.893 201.248C157.893 198.028 160.423 195.498 163.643 195.498H183.998C222.063 195.498 252.998 164.563 252.998 126.498C252.998 69.4581 201.363 22.998 137.998 22.998ZM201.248 149.498C191.703 149.498 183.998 141.793 183.998 132.248C183.998 122.703 191.703 114.998 201.248 114.998C210.793 114.998 218.498 122.703 218.498 132.248C218.498 141.793 210.793 149.498 201.248 149.498ZM166.748 103.498C157.203 103.498 149.498 95.7931 149.498 86.2481C149.498 76.7031 157.203 68.9981 166.748 68.9981C176.293 68.9981 183.998 76.7031 183.998 86.2481C183.998 95.7931 176.293 103.498 166.748 103.498ZM57.498 132.248C57.498 122.703 65.2031 114.998 74.7481 114.998C84.2931 114.998 91.9981 122.703 91.9981 132.248C91.9981 141.793 84.2931 149.498 74.7481 149.498C65.2031 149.498 57.498 141.793 57.498 132.248ZM126.498 86.2481C126.498 95.7931 118.793 103.498 109.248 103.498C99.7031 103.498 91.9981 95.7931 91.9981 86.2481C91.9981 76.7031 99.7031 68.9981 109.248 68.9981C118.793 68.9981 126.498 76.7031 126.498 86.2481Z" fill="#E7DFDF"/>
</svg>
