<svg width="24" height="14" viewBox="0 0 24 14" fill="none" xmlns="http://www.w3.org/2000/svg">
<path d="M4.87987 1.63975C4.87987 1.20121 4.52564 0.845703 4.08866 0.845703C3.65169 0.845703 3.29746 1.20121 3.29746 1.63975V10.3955L2.28391 9.3432C1.9802 9.02789 1.47931 9.01937 1.16513 9.32417C0.850952 9.62896 0.842462 10.1316 1.14617 10.447L3.51979 12.9112C3.66887 13.066 3.87417 13.1534 4.08866 13.1534C4.30316 13.1534 4.50846 13.066 4.65753 12.9112L7.03116 10.447C7.33487 10.1316 7.32638 9.62896 7.0122 9.32417C6.69802 9.01937 6.19713 9.02789 5.89342 9.3432L4.87987 10.3955V1.63975Z" fill="#4B5D6B"/>
<path d="M9.62713 2.43379H12.792C13.2271 2.43379 13.5832 2.79111 13.5832 3.22784C13.5832 3.66456 13.2271 4.02188 12.792 4.02188H9.62713C9.19196 4.02188 8.83592 3.66456 8.83592 3.22784C8.83592 2.79111 9.19196 2.43379 9.62713 2.43379Z" fill="#4B5D6B"/>
<path d="M22.2865 10.3742C22.7216 10.3742 23.0777 10.7316 23.0777 11.1683C23.0777 11.605 22.7216 11.9623 22.2865 11.9623H9.62713C9.19196 11.9623 8.83592 11.605 8.83592 11.1683C8.83592 10.7316 9.19196 10.3742 9.62713 10.3742H22.2865Z" fill="#4B5D6B"/>
<path d="M8.83592 7.19806C8.83592 6.76134 9.19196 6.40402 9.62713 6.40402H17.5392C17.9744 6.40402 18.3304 6.76134 18.3304 7.19806C18.3304 7.63479 17.9744 7.99211 17.5392 7.99211H9.62713C9.19196 7.99211 8.83592 7.63479 8.83592 7.19806Z" fill="#4B5D6B"/>
</svg>
