<svg width="44" height="44" viewBox="0 0 44 44" fill="none" xmlns="http://www.w3.org/2000/svg">
<path d="M21.978 0C9.834 0 0 9.856 0 22C0 34.144 9.834 44 21.978 44C34.144 44 44 34.144 44 22C44 9.856 34.144 0 21.978 0ZM22 39.6C12.276 39.6 4.4 31.724 4.4 22C4.4 12.276 12.276 4.4 22 4.4C31.724 4.4 39.6 12.276 39.6 22C39.6 31.724 31.724 39.6 22 39.6ZM29.7 19.8C31.526 19.8 33 18.326 33 16.5C33 14.674 31.526 13.2 29.7 13.2C27.874 13.2 26.4 14.674 26.4 16.5C26.4 18.326 27.874 19.8 29.7 19.8ZM14.3 19.8C16.126 19.8 17.6 18.326 17.6 16.5C17.6 14.674 16.126 13.2 14.3 13.2C12.474 13.2 11 14.674 11 16.5C11 18.326 12.474 19.8 14.3 19.8ZM22 25.3C17.534 25.3 13.64 27.742 11.55 31.35C11.132 32.076 11.682 33 12.518 33C20.0273 26.6252 24.171 26.6785 31.482 33C32.318 33 32.868 32.076 32.45 31.35C30.36 27.742 26.466 25.3 22 25.3Z" fill="#4B5D6B"/>
</svg>
