<svg width="202" height="271" viewBox="0 0 202 271" fill="none" xmlns="http://www.w3.org/2000/svg">
<g clip-path="url(#clip0_156_43)">
<g opacity="0.05">
<path fill-rule="evenodd" clip-rule="evenodd" d="M-50.2606 47.1871C-64.7706 66.3512 -73.2231 87.9367 -76.3303 109.958C-81.4056 142.825 -75.0255 177.507 -55.6146 206.942C-33.5105 242.578 4.0774 268.561 52.1098 270.849L52.4749 270.865C53.6798 270.934 54.869 270.971 56.0438 270.976C85.5011 271.506 138.98 263.405 143.097 233.564C147.099 204.544 81.9293 218.444 74.163 204.917C78.9837 171.14 145.037 206.32 182.26 174.378C195.325 163.169 203.064 146.798 201.881 122.107C200.712 97.6882 192.464 74.225 179.016 54.0652C169.962 39.9572 158.253 27.8561 144.779 18.144C120.786 0.405885 90.9644 -10.0336 58.7042 -8.91885C35.1148 -8.56091 11.2908 -2.23982 -10.3432 11.0614C-10.6058 11.2174 -10.8641 11.3781 -11.1253 11.5356L-11.422 11.7209C-26.9549 21.143 -39.9727 33.2828 -50.2606 47.1871V47.1871Z" fill="black"/>
<path d="M23.5304 74.6113C39.3169 74.6113 52.1144 61.8603 52.1144 46.1311C52.1144 30.4019 39.3169 17.6509 23.5304 17.6509C7.74382 17.6509 -5.05371 30.4019 -5.05371 46.1311C-5.05371 61.8603 7.74382 74.6113 23.5304 74.6113Z" fill="#44A13B"/>
<path d="M98.8136 73.5371C114.6 73.5371 127.398 60.7861 127.398 45.0569C127.398 29.3277 114.6 16.5767 98.8136 16.5767C83.027 16.5767 70.2295 29.3277 70.2295 45.0569C70.2295 60.7861 83.027 73.5371 98.8136 73.5371Z" fill="#FBAE45"/>
<path d="M145.332 135.444C161.119 135.444 173.916 122.693 173.916 106.964C173.916 91.2349 161.119 78.4839 145.332 78.4839C129.546 78.4839 116.748 91.2349 116.748 106.964C116.748 122.693 129.546 135.444 145.332 135.444Z" fill="#B62931"/>
<path d="M-23.7021 136.386C-7.91557 136.386 4.88196 123.635 4.88196 107.906C4.88196 92.1768 -7.91557 79.4258 -23.7021 79.4258C-39.4886 79.4258 -52.2861 92.1768 -52.2861 107.906C-52.2861 123.635 -39.4886 136.386 -23.7021 136.386Z" fill="#6C67F2"/>
</g>
</g>
<defs>
<clipPath id="clip0_156_43">
<rect width="202" height="271" fill="white"/>
</clipPath>
</defs>
</svg>
