<svg width="18" height="19" viewBox="0 0 18 19" fill="none" xmlns="http://www.w3.org/2000/svg">
<path d="M18 11.4998C18 11.2236 17.7761 10.9998 17.5 10.9998H15.37C15.1184 10.9998 14.9077 10.8125 14.8647 10.5647C14.8454 10.4534 14.824 10.343 14.8004 10.2334C14.7527 10.0118 14.8466 9.78085 15.0429 9.66749L16.8569 8.61992C17.096 8.48178 17.1779 8.17585 17.0397 7.93671L16.5394 7.07129C16.4016 6.83275 16.0967 6.75071 15.8577 6.88784L14.3506 7.75267C14.1123 7.88942 13.8098 7.807 13.6528 7.58151C13.4838 7.33871 13.2999 7.11047 13.1059 6.89679C12.9976 6.77746 12.9488 6.61617 12.968 6.45616C13.0328 5.91556 13.0282 5.07764 12.5545 4.16946C12.4453 3.96007 12.4694 3.70033 12.6364 3.53334L13.6464 2.52332C13.8417 2.32806 13.8417 2.01147 13.6464 1.81621L12.9436 1.11332C12.7483 0.918057 12.4317 0.918057 12.2364 1.11332L11.1312 2.21857C10.976 2.37381 10.7385 2.40662 10.5366 2.32018C9.24737 1.76801 8.14005 2.03967 7.47084 2.32319C7.26997 2.40829 7.03482 2.37519 6.88011 2.22138L5.76355 1.11127C5.56812 0.916976 5.25233 0.917434 5.05747 1.1123L4.35355 1.81621C4.15829 2.01147 4.15829 2.32806 4.35355 2.52332L5.36358 3.53334C5.53056 3.70033 5.55474 3.96007 5.44564 4.16951C4.97181 5.07913 4.96723 5.92266 5.03205 6.4593C5.05118 6.61758 5.0044 6.77745 4.89815 6.89632C4.70317 7.11444 4.51838 7.3443 4.34855 7.58591C4.19123 7.80973 3.88963 7.88972 3.65278 7.75281L2.14289 6.88C1.90381 6.7418 1.59797 6.82358 1.45977 7.06266L0.960319 7.92671C0.822087 8.16585 0.903954 8.47178 1.14315 8.60992L2.95706 9.65749C3.15336 9.77085 3.24727 10.0018 3.19956 10.2234C3.17597 10.333 3.15464 10.4434 3.13531 10.5547C3.09226 10.8025 2.88157 10.9898 2.63001 10.9898H0.5C0.223858 10.9898 0 11.2136 0 11.4898V12.4898C0 12.7659 0.223858 12.9898 0.5 12.9898H2.63001C2.88157 12.9898 3.09226 13.177 3.13531 13.4248C3.15464 13.5361 3.17597 13.6465 3.19956 13.7561C3.24727 13.9777 3.15336 14.2087 2.95706 14.322L1.14315 15.3696C0.903954 15.5078 0.822087 15.8137 0.960319 16.0528L1.46136 16.9196C1.59893 17.1576 1.90285 17.2399 2.14172 17.1038L3.65423 16.2423C3.89075 16.1076 4.19011 16.1881 4.34556 16.4116C5.44218 17.9881 7.11908 18.9998 9 18.9998C10.8799 18.9998 12.556 17.9892 13.6527 16.4142C13.8089 16.1898 14.1102 16.1097 14.3469 16.2466L15.8571 17.1195C16.0962 17.2577 16.402 17.176 16.5402 16.9369L17.0397 16.0728C17.1779 15.8337 17.096 15.5278 16.8569 15.3896L15.0429 14.342C14.8466 14.2287 14.7527 13.9977 14.8004 13.7761C14.824 13.6665 14.8454 13.5561 14.8647 13.4448C14.9077 13.197 15.1184 13.0098 15.37 13.0098H17.5C17.7761 13.0098 18 12.7859 18 12.5098V11.4998ZM9 3.99977C9.49937 3.99977 9.95365 4.18331 10.3007 4.48645C10.6191 4.76453 10.2771 5.14629 9.86056 5.07403C9.5802 5.0254 9.29306 4.99977 9 4.99977C8.70694 4.99977 8.4198 5.0254 8.13944 5.07403C7.72293 5.14629 7.38089 4.76453 7.69928 4.48645C8.04635 4.18331 8.50063 3.99977 9 3.99977ZM9 16.9998C6.79 16.9998 5 14.7598 5 11.9998C5 9.23977 6.79 6.99977 9 6.99977C11.21 6.99977 13 9.23977 13 11.9998C13 14.7598 11.21 16.9998 9 16.9998Z" fill="#6C67F2"/>
<path d="M10 9.49977C10 9.22362 9.77614 8.99977 9.5 8.99977H8.5C8.22386 8.99977 8 9.22362 8 9.49977V14.4998C8 14.7759 8.22386 14.9998 8.5 14.9998H9.5C9.77614 14.9998 10 14.7759 10 14.4998V9.49977Z" fill="#6C67F2"/>
</svg>
