<svg width="276" height="276" viewBox="0 0 276 276" fill="none" xmlns="http://www.w3.org/2000/svg">
<path d="M138.004 80.5V34.5H23.0039V241.5H253.004V80.5H138.004ZM69.0039 218.5H46.0039V195.5H69.0039V218.5ZM69.0039 172.5H46.0039V149.5H69.0039V172.5ZM69.0039 126.5H46.0039V103.5H69.0039V126.5ZM69.0039 80.5H46.0039V57.5H69.0039V80.5ZM115.004 218.5H92.0039V195.5H115.004V218.5ZM115.004 172.5H92.0039V149.5H115.004V172.5ZM115.004 126.5H92.0039V103.5H115.004V126.5ZM115.004 80.5H92.0039V57.5H115.004V80.5ZM230.004 218.5H138.004V195.5H161.004V172.5H138.004V149.5H161.004V126.5H138.004V103.5H230.004V218.5ZM207.004 126.5H184.004V149.5H207.004V126.5ZM207.004 172.5H184.004V195.5H207.004V172.5Z" fill="#E1DFE7"/>
</svg>
