<svg width="28" height="28" viewBox="0 0 28 28" fill="none" xmlns="http://www.w3.org/2000/svg">
<path d="M25.9993 19.9686V23.5816C26.0006 23.917 25.9318 24.249 25.7971 24.5563C25.6625 24.8636 25.465 25.1395 25.2174 25.3662C24.9698 25.593 24.6774 25.7656 24.359 25.873C24.0407 25.9805 23.7033 26.0204 23.3686 25.9902C19.6554 25.5875 16.0885 24.3212 12.9547 22.293C10.0391 20.4439 7.56712 17.9769 5.7144 15.067C3.67503 11.9252 2.40589 8.34809 2.00979 4.62554C1.97964 4.29251 2.0193 3.95685 2.12624 3.63995C2.23319 3.32305 2.40508 3.03185 2.63097 2.78488C2.85686 2.53791 3.1318 2.34059 3.43829 2.20548C3.74478 2.07037 4.0761 2.00043 4.41115 2.00012H8.03129C8.61692 1.99436 9.18466 2.20133 9.62869 2.58245C10.0727 2.96356 10.3628 3.49281 10.4447 4.07155C10.5975 5.22778 10.8809 6.36305 11.2894 7.4557C11.4518 7.88675 11.4869 8.35522 11.3907 8.8056C11.2944 9.25597 11.0708 9.66938 10.7464 9.99682L9.21387 11.5263C10.9317 14.5414 13.4331 17.0378 16.4542 18.7522L17.9867 17.2228C18.3148 16.899 18.729 16.6758 19.1803 16.5798C19.6315 16.4837 20.1009 16.5188 20.5328 16.6808C21.6277 17.0885 22.7652 17.3713 23.9237 17.5238C24.5099 17.6064 25.0452 17.901 25.4279 18.3518C25.8106 18.8026 26.0139 19.378 25.9993 19.9686Z" stroke="white" stroke-width="2.5" stroke-linecap="round" stroke-linejoin="round"/>
</svg>
