<svg width="37" height="37" viewBox="0 0 37 37" fill="none" xmlns="http://www.w3.org/2000/svg">
<path d="M33.8589 22.1548C33.5597 21.4149 32.7172 21.0572 31.9772 21.3565C31.2372 21.6557 30.8797 22.4981 31.1789 23.2382L32.8811 27.4488L27.8256 25.2202C27.4596 25.0589 27.0432 25.0564 26.6753 25.2134C24.9476 25.9505 23.0968 26.3243 21.1742 26.3243C13.4365 26.3243 8.23868 20.2659 8.23868 14.6075C8.23868 8.14678 14.0415 2.89062 21.1742 2.89062C28.3069 2.89062 34.1097 8.14678 34.1097 14.6075C34.1097 15.1115 34.0628 15.7151 33.981 16.2633C33.8632 17.0528 34.4077 17.7882 35.1972 17.906C35.9868 18.0241 36.7223 17.4793 36.84 16.6898C36.9434 15.9968 37.0003 15.2572 37.0003 14.6075C37.0003 10.6813 35.3378 6.99732 32.3188 4.23425C29.3355 1.50377 25.3776 0 21.1742 0C16.9708 0 13.013 1.50377 10.0296 4.23418C7.33182 6.70335 5.71828 9.90818 5.40529 13.3638C2.01192 15.611 0.000414398 19.2119 0.000414398 23.0906C0.000414398 25.5135 0.763755 27.8125 2.2168 29.7909L0.105777 35.0129C-0.114705 35.5582 0.0173245 36.1828 0.439716 36.5923C0.714975 36.8592 1.07768 37 1.44601 37C1.64279 36.9999 1.84123 36.9598 2.02869 36.8772L8.11554 34.1939C9.6467 34.7639 11.2652 35.0524 12.9359 35.0524C12.972 35.0524 13.0075 35.0496 13.043 35.047C15.4593 35.0287 17.8084 34.3932 19.843 33.2038C21.6654 32.1383 23.1645 30.6746 24.2154 28.9461C25.2415 28.7618 26.2444 28.4834 27.2178 28.1113L34.972 31.5295C35.1595 31.6121 35.3579 31.6524 35.5547 31.6524C35.923 31.6523 36.2858 31.5115 36.561 31.2446C36.9834 30.8352 37.1155 30.2107 36.895 29.6653L33.8589 22.1548ZM12.936 32.1581C12.9163 32.1581 12.8971 32.1603 12.8775 32.1611C11.4017 32.1536 9.98122 31.8635 8.65464 31.2975C8.28688 31.1405 7.87041 31.143 7.50446 31.3044L4.11976 32.7964L5.21162 30.0955C5.41346 29.5962 5.32089 29.026 4.97156 28.6162C3.61044 27.0193 2.89103 25.1087 2.89103 23.0906C2.89103 20.781 3.86264 18.5925 5.56262 16.9332C6.09189 19.8184 7.58526 22.5783 9.83799 24.7464C12.6412 27.4443 16.3492 29.0073 20.353 29.1955C18.4733 31.0458 15.7833 32.1581 12.936 32.1581Z" fill="#4B5D6B"/>
</svg>
