<svg width="28" height="25" viewBox="0 0 28 25" fill="none" xmlns="http://www.w3.org/2000/svg">
<path d="M16.2432 21.6576C21.3476 21.6576 23.9005 21.6576 25.4856 20.0712C27.072 18.4861 27.072 15.9332 27.072 10.8288C27.072 5.72437 27.072 3.17148 25.4856 1.58642C23.9005 -1.61362e-07 21.3476 0 16.2432 0H10.8288C5.72437 0 3.17148 -1.61362e-07 1.58642 1.58642C-1.61362e-07 3.17148 0 5.72437 0 10.8288C0 15.9332 -1.61362e-07 18.4861 1.58642 20.0712C2.47032 20.9564 3.65472 21.3476 5.4144 21.5195" fill="black"/>
<path d="M16.2432 21.6576C14.5701 21.6576 12.7265 22.3344 11.044 23.2075C8.33953 24.6111 6.98728 25.3137 6.32131 24.8656C5.65534 24.4189 5.78122 23.0315 6.03435 20.258L6.0912 19.6272" fill="black"/>
</svg>
