<svg width="32" height="30" viewBox="0 0 32 30" fill="none" xmlns="http://www.w3.org/2000/svg">
<path d="M28.3592 22.874L26.9417 21.4631L26.9405 21.4643L28.3592 22.874ZM28.3592 3.64988L26.9405 5.05958L26.9417 5.06079L28.3592 3.64988ZM3.6408 3.64988L5.05831 5.06079L5.05951 5.05958L3.6408 3.64988ZM3.6408 22.874L5.05999 21.4648L5.05831 21.4631L3.6408 22.874ZM7.40448 26.3707C8.50375 26.4787 9.48243 25.6751 9.59042 24.5758C9.6984 23.4766 8.8948 22.4979 7.79552 22.3899L7.40448 26.3707ZM13.4226 26.1358L12.4974 24.3626L12.4973 24.3627L13.4226 26.1358ZM8.538 27.8602L9.65864 26.2037L9.65631 26.2021L8.538 27.8602ZM8.2412 23.0683L10.233 23.2491L10.2332 23.2468L8.2412 23.0683ZM10.292 22.5908C10.3906 21.4907 9.57871 20.5189 8.47855 20.4203C7.37839 20.3217 6.4066 21.1336 6.30799 22.2337L10.292 22.5908ZM18.8 26.5239C21.3828 26.5239 23.5225 26.5282 25.2126 26.2996C26.9614 26.0631 28.525 25.5446 29.7779 24.2837L26.9405 21.4643C26.554 21.8533 25.9777 22.1597 24.6766 22.3357C23.3168 22.5196 21.4966 22.5239 18.8 22.5239V26.5239ZM29.7767 24.2849C31.0292 23.0266 31.5427 21.4589 31.7772 19.7057C32.0042 18.0089 32 15.86 32 13.2619H28C28 15.9725 27.9958 17.8054 27.8126 19.1754C27.6369 20.489 27.33 21.073 26.9417 21.4631L29.7767 24.2849ZM32 13.2619C32 10.6639 32.0042 8.51502 31.7772 6.81821C31.5427 5.06502 31.0292 3.49728 29.7767 2.23896L26.9417 5.06079C27.33 5.45094 27.6369 6.03493 27.8126 7.34851C27.9958 8.71847 28 10.5514 28 13.2619H32ZM29.7779 2.24017C28.525 0.979257 26.9614 0.460782 25.2126 0.224277C23.5225 -0.00429678 21.3828 0 18.8 0V4C21.4966 4 23.3168 4.0043 24.6766 4.18819C25.9777 4.36416 26.554 4.67062 26.9405 5.05958L29.7779 2.24017ZM18.8 0H13.2V4H18.8V0ZM13.2 0C10.6172 0 8.47749 -0.00429678 6.78736 0.224277C5.03858 0.460782 3.475 0.979256 2.22209 2.24017L5.05951 5.05958C5.446 4.67062 6.02232 4.36416 7.32344 4.18819C8.68321 4.0043 10.5034 4 13.2 4V0ZM2.22329 2.23896C0.970826 3.49728 0.457254 5.06503 0.222754 6.81821C-0.00420475 8.51502 0 10.6639 0 13.2619H4C4 10.5514 4.0042 8.71847 4.18745 7.34851C4.36315 6.03493 4.66997 5.45094 5.05831 5.06079L2.22329 2.23896ZM0 13.2619C0 15.86 -0.00420475 18.0089 0.222754 19.7057C0.457254 21.4589 0.970826 23.0266 2.22329 24.2849L5.05831 21.4631C4.66997 21.073 4.36315 20.489 4.18745 19.1754C4.0042 17.8054 4 15.9725 4 13.2619H0ZM2.22161 24.2832C3.62054 25.6921 5.40625 26.1744 7.40448 26.3707L7.79552 22.3899C6.15375 22.2286 5.48946 21.8973 5.05999 21.4648L2.22161 24.2832ZM18.8 22.5239C16.588 22.5239 14.3369 23.4028 12.4974 24.3626L14.3478 27.9089C15.9887 27.0527 17.5512 26.5239 18.8 26.5239V22.5239ZM12.4973 24.3627C11.0524 25.1168 10.1206 25.5999 9.46176 25.8573C9.30999 25.9166 9.1964 25.9542 9.11388 25.9771C9.02985 26.0004 8.99909 26.0026 9.00953 26.0016C9.03595 25.9991 9.32904 25.9807 9.65864 26.2037L7.41736 29.5168C8.09136 29.9728 8.81757 30.0378 9.38737 29.9837C9.93011 29.9322 10.4575 29.7628 10.9175 29.583C11.8295 29.2267 12.9956 28.6146 14.3479 27.9088L12.4973 24.3627ZM9.65631 26.2021C9.94614 26.3976 10.0466 26.6428 10.0646 26.6979C10.0717 26.7193 10.0407 26.6269 10.0324 26.3183C10.0155 25.6855 10.0971 24.7463 10.233 23.2491L6.24939 22.8875C6.12348 24.2747 6.0091 25.4993 6.03384 26.4252C6.05451 27.1987 6.16445 28.6718 7.41969 29.5184L9.65631 26.2021ZM10.2332 23.2468L10.292 22.5908L6.30799 22.2337L6.24919 22.8897L10.2332 23.2468Z" fill="white"/>
</svg>
