<svg width="74" height="78" viewBox="0 0 74 78" fill="none" xmlns="http://www.w3.org/2000/svg">
<mask id="mask0" mask-type="alpha" maskUnits="userSpaceOnUse" x="0" y="0" width="74" height="78">
<rect width="74" height="78" fill="#C4C4C4"/>
</mask>
<g mask="url(#mask0)">
<path d="M50 78C77.6142 78 100 55.6142 100 28C100 0.385763 77.6142 -22 50 -22C22.3858 -22 0 0.385763 0 28C0 55.6142 22.3858 78 50 78Z" fill="#4B5D6B" fill-opacity="0.5"/>
<path d="M50 68C72.0914 68 90 50.0914 90 28C90 5.90861 72.0914 -12 50 -12C27.9086 -12 10 5.90861 10 28C10 50.0914 27.9086 68 50 68Z" fill="#4B5D6B"/>
</g>
</svg>
