<svg width="23" height="20" viewBox="0 0 23 20" fill="none" xmlns="http://www.w3.org/2000/svg">
<path d="M12.3353 17.3216C11.93 17.766 11.4779 18.1081 11 18.3559C11.5028 19.9941 13.7016 20.6263 14.9795 19.2337L22.5777 10.9539C23.0728 10.4144 23.0728 9.58564 22.5777 9.04606L14.9795 0.766311C13.7018 -0.626072 11.5034 0.0057447 11.0002 1.64345C11.478 1.89127 11.9301 2.23328 12.3353 2.67764L18.145 9.04897C18.6361 9.58758 18.6361 10.4116 18.145 10.9503L12.3353 17.3216Z" fill="white"/>
<path d="M1.70711 6.29289C1.31658 5.90237 0.683417 5.90237 0.292893 6.29289C-0.0976311 6.68342 -0.0976311 7.31658 0.292893 7.70711L2.58579 10L0.292893 12.2929C-0.0976311 12.6834 -0.0976311 13.3166 0.292893 13.7071C0.683417 14.0976 1.31658 14.0976 1.70711 13.7071L4 11.4142L6.29289 13.7071C6.68342 14.0976 7.31658 14.0976 7.70711 13.7071C8.09763 13.3166 8.09763 12.6834 7.70711 12.2929L5.41421 10L7.70711 7.70711C8.09763 7.31658 8.09763 6.68342 7.70711 6.29289C7.31658 5.90237 6.68342 5.90237 6.29289 6.29289L4 8.58579L1.70711 6.29289Z" fill="white"/>
</svg>
