<svg width="22" height="22" viewBox="0 0 22 22" fill="none" xmlns="http://www.w3.org/2000/svg">
<path d="M20 10.5C20.0034 11.8199 19.695 13.1219 19.1 14.3C18.3944 15.7118 17.3097 16.8992 15.9674 17.7293C14.6251 18.5594 13.0782 18.9994 11.5 19C10.1801 19.0034 8.8781 18.6951 7.69999 18.1L2 20L3.9 14.3C3.30493 13.1219 2.99656 11.8199 3 10.5C3.00061 8.92177 3.44061 7.37487 4.27072 6.03257C5.10082 4.69027 6.28825 3.60559 7.69999 2.90003C8.8781 2.30496 10.1801 1.99659 11.5 2.00003H12C14.0843 2.11502 16.053 2.99479 17.5291 4.47088C19.0052 5.94698 19.885 7.91567 20 10V10.5Z" stroke="#2B2A29" stroke-width="2.5" stroke-linecap="round" stroke-linejoin="round"/>
</svg>
