<svg width="32" height="30" viewBox="0 0 32 30" fill="none" xmlns="http://www.w3.org/2000/svg">
<path d="M31.5833 15L28.1267 11.0475L28.6083 5.82L23.4942 4.65833L20.8167 0.125L16 2.19333L11.1833 0.125L8.50582 4.64417L3.39166 5.79167L3.87332 11.0333L0.416656 15L3.87332 18.9525L3.39166 24.1942L8.50582 25.3558L11.1833 29.875L16 27.7925L20.8167 29.8608L23.4942 25.3417L28.6083 24.18L28.1267 18.9525L31.5833 15ZM12.2883 20.6808L8.91666 17.2808C8.36416 16.7283 8.36416 15.8358 8.91666 15.2833L9.01582 15.1842C9.56832 14.6317 10.475 14.6317 11.0275 15.1842L13.3083 17.4792L20.6042 10.1692C21.1567 9.61667 22.0633 9.61667 22.6158 10.1692L22.715 10.2683C23.2675 10.8208 23.2675 11.7133 22.715 12.2658L14.3283 20.6808C13.7475 21.2333 12.855 21.2333 12.2883 20.6808Z" fill="#0092AA"/>
</svg>
