<svg width="18" height="16" viewBox="0 0 18 16" fill="none" xmlns="http://www.w3.org/2000/svg">
<path d="M0 8C0 10.21 0.91 12.2 2.36 13.64L0 16H6V10L3.76 12.24C2.63474 11.1157 2.00173 9.5907 2 8C1.99995 6.76006 2.3847 5.55066 3.10116 4.53866C3.81762 3.52666 4.83048 2.76193 6 2.35V0.26C2.55 1.15 0 4.27 0 8ZM8 13H10V11H8V13ZM18 0H12V6L14.24 3.76C15.3653 4.88433 15.9983 6.4093 16 8C16 9.23994 15.6153 10.4493 14.8988 11.4613C14.1824 12.4733 13.1695 13.2381 12 13.65V15.74C15.45 14.85 18 11.73 18 8C18 5.79 17.09 3.8 15.64 2.36L18 0ZM8 9H10V3H8V9Z" fill="#F86D70"/>
</svg>
