<svg width="36" height="36" viewBox="0 0 36 36" fill="none" xmlns="http://www.w3.org/2000/svg">
<path d="M18 3C9.72 3 3 9.72 3 18C3 26.28 9.72 33 18 33C26.28 33 33 26.28 33 18C33 9.72 26.28 3 18 3ZM24 19.5H19.5V24C19.5 24.825 18.825 25.5 18 25.5C17.175 25.5 16.5 24.825 16.5 24V19.5H12C11.175 19.5 10.5 18.825 10.5 18C10.5 17.175 11.175 16.5 12 16.5H16.5V12C16.5 11.175 17.175 10.5 18 10.5C18.825 10.5 19.5 11.175 19.5 12V16.5H24C24.825 16.5 25.5 17.175 25.5 18C25.5 18.825 24.825 19.5 24 19.5Z" fill="black"/>
</svg>
