<svg width="36" height="36" viewBox="0 0 36 36" fill="none" xmlns="http://www.w3.org/2000/svg">
<path d="M30.0341 3.9375H5.96589C4.84559 3.9375 3.9375 4.84559 3.9375 5.96589V30.0341C3.9375 31.1544 4.84559 32.0625 5.96589 32.0625H30.0341C31.1544 32.0625 32.0625 31.1544 32.0625 30.0341V5.96589C32.0625 4.84559 31.1544 3.9375 30.0341 3.9375V3.9375ZM13.9136 25.196H10.4887V14.8923H13.9136V25.196ZM12.2013 13.4853H12.179C11.0297 13.4853 10.2864 12.6942 10.2864 11.7054C10.2864 10.6943 11.0524 9.92505 12.224 9.92505C13.3956 9.92505 14.1166 10.6943 14.1389 11.7054C14.1389 12.6942 13.3956 13.4853 12.2013 13.4853ZM26.2629 25.196H22.8385V19.6838C22.8385 18.2985 22.3426 17.3537 21.1034 17.3537C20.1574 17.3537 19.5939 17.991 19.3463 18.6062C19.2557 18.8263 19.2336 19.134 19.2336 19.442V25.196H15.809C15.809 25.196 15.8538 15.859 15.809 14.8923H19.2336V16.3512C19.6887 15.6491 20.503 14.6505 22.3201 14.6505C24.5733 14.6505 26.2629 16.1231 26.2629 19.2879V25.196Z" fill="black"/>
</svg>
