<svg width="50" height="50" viewBox="0 0 50 50" fill="none" xmlns="http://www.w3.org/2000/svg">
<path d="M29.5066 32.0108C32.5289 30.7366 34.9149 29.0022 36.6632 26.807C38.4114 24.6122 39.2855 22.2221 39.2855 19.6365C39.2855 17.0508 38.4114 14.6605 36.6625 12.4656C34.9144 10.2708 32.5288 8.53621 29.5061 7.26175C26.4834 5.98748 23.1958 5.35059 19.6427 5.35059C16.0899 5.35059 12.8022 5.98787 9.77931 7.26175C6.75669 8.53612 4.37106 10.2707 2.62281 12.4656C0.874369 14.6609 0 17.0508 0 19.6366C0 21.8499 0.661323 23.9342 1.98192 25.8873C3.30241 27.84 5.11614 29.4865 7.42251 30.8255C7.23663 31.2723 7.04597 31.6811 6.85061 32.0536C6.65515 32.4255 6.42286 32.7833 6.15293 33.1277C5.8832 33.4722 5.67416 33.7417 5.52523 33.9364C5.37639 34.1317 5.13461 34.4067 4.7996 34.7595C4.46469 35.113 4.25066 35.3454 4.15782 35.4568C4.15782 35.4381 4.12059 35.4802 4.04612 35.5825C3.97155 35.6849 3.92973 35.7311 3.92054 35.7224C3.91116 35.7123 3.87392 35.7588 3.80884 35.8612C3.74375 35.9636 3.71111 36.0147 3.71111 36.0147L3.64123 36.1537C3.61367 36.2099 3.59472 36.2649 3.58553 36.3211C3.57615 36.3765 3.57146 36.4374 3.57146 36.5022C3.57146 36.5671 3.58064 36.6273 3.5996 36.6834C3.63684 36.9249 3.74375 37.1199 3.92044 37.2694C4.09704 37.418 4.28751 37.4921 4.49234 37.4921H4.5761C5.50598 37.362 6.30597 37.2132 6.97551 37.0456C9.8401 36.3019 12.4259 35.1109 14.7323 33.4742C16.4063 33.7718 18.0433 33.9206 19.6429 33.9206C23.1959 33.9218 26.484 33.2852 29.5066 32.0108Z" fill="black"/>
<path d="M48.0179 33.044C49.339 31.1003 49.999 29.0131 49.999 26.7807C49.999 24.4925 49.3007 22.3521 47.9061 20.3619C46.5108 18.372 44.6133 16.7162 42.214 15.3955C42.6414 16.7905 42.8553 18.2041 42.8553 19.6367C42.8553 22.129 42.233 24.4914 40.9859 26.7238C39.7397 28.9555 37.9539 30.9271 35.6289 32.6387C33.4711 34.2011 31.0156 35.4006 28.2625 36.2379C25.5101 37.0746 22.636 37.4935 19.6411 37.4935C19.0833 37.4935 18.2648 37.4566 17.186 37.3824C20.9247 39.8372 25.3147 41.0652 30.3554 41.0652C31.9553 41.0652 33.592 40.9161 35.2663 40.6185C37.5727 42.256 40.1585 43.4459 43.0229 44.1904C43.6926 44.3583 44.4925 44.5067 45.4225 44.6368C45.6457 44.6555 45.8507 44.5903 46.0366 44.4414C46.2225 44.2927 46.3436 44.0886 46.3991 43.8285C46.3904 43.7168 46.3991 43.6555 46.4272 43.6466C46.4546 43.6378 46.45 43.577 46.4131 43.4656C46.3764 43.3538 46.3576 43.298 46.3576 43.298L46.288 43.1589C46.2687 43.1221 46.2372 43.0706 46.1904 43.0057C46.1439 42.9412 46.1068 42.894 46.0787 42.8663C46.0513 42.8385 46.0098 42.7917 45.9536 42.7271C45.8981 42.6626 45.8607 42.6204 45.8419 42.6017C45.749 42.49 45.5351 42.2576 45.2004 41.904C44.8653 41.5509 44.6239 41.2766 44.4751 41.0814C44.3262 40.886 44.1169 40.6165 43.8473 40.272C43.5777 39.9282 43.345 39.57 43.1496 39.1979C42.9543 38.8259 42.7637 38.4165 42.5777 37.9704C44.8843 36.63 46.6975 34.9884 48.0179 33.044Z" fill="black"/>
<path d="M24.2344 21.3014H21.3007V24.2351C21.3007 24.656 20.0635 25.0004 19.6425 25.0004C19.2216 25.0004 17.9844 24.656 17.9844 24.2351V21.3014H15.0507C14.6298 21.3014 14.2854 20.0642 14.2854 19.6433C14.2854 19.2224 14.6298 17.9851 15.0507 17.9851H17.9844V15.0514C17.9844 14.6305 19.2216 14.2861 19.6425 14.2861C20.0635 14.2861 21.3007 14.6305 21.3007 15.0514V17.9851H24.2344C24.6553 17.9851 24.9997 19.2224 24.9997 19.6433C24.9997 20.0642 24.6553 21.3014 24.2344 21.3014Z" fill="white"/>
</svg>
