<svg width="40" height="40" viewBox="0 0 40 40" fill="none" xmlns="http://www.w3.org/2000/svg">
<path d="M26.6667 21.6666H21.6667C20.75 21.6666 20 22.4166 20 23.3333V28.3333C20 29.25 20.75 30 21.6667 30H26.6667C27.5833 30 28.3333 29.25 28.3333 28.3333V23.3333C28.3333 22.4166 27.5833 21.6666 26.6667 21.6666ZM26.6667 4.99998V6.66665H13.3333V4.99998C13.3333 4.08331 12.5833 3.33331 11.6667 3.33331C10.75 3.33331 10 4.08331 10 4.99998V6.66665H8.33333C6.48333 6.66665 5.01667 8.16665 5.01667 9.99998L5 33.3333C5 35.1666 6.48333 36.6666 8.33333 36.6666H31.6667C33.5 36.6666 35 35.1666 35 33.3333V9.99998C35 8.16665 33.5 6.66665 31.6667 6.66665H30V4.99998C30 4.08331 29.25 3.33331 28.3333 3.33331C27.4167 3.33331 26.6667 4.08331 26.6667 4.99998ZM31.6667 33.3333H8.33333V16.6666H31.6667V33.3333Z" fill="#DEE5EE"/>
</svg>
