<svg width="25" height="28" viewBox="0 0 25 28" fill="none" xmlns="http://www.w3.org/2000/svg">
<path d="M2 6.8H4.4M4.4 6.8H23.6M4.4 6.8V23.6C4.4 24.2365 4.65286 24.847 5.10294 25.2971C5.55303 25.7471 6.16348 26 6.8 26H18.8C19.4365 26 20.047 25.7471 20.4971 25.2971C20.9471 24.847 21.2 24.2365 21.2 23.6V6.8H4.4ZM8 6.8V4.4C8 3.76348 8.25286 3.15303 8.70294 2.70294C9.15303 2.25286 9.76348 2 10.4 2H15.2C15.8365 2 16.447 2.25286 16.8971 2.70294C17.3471 3.15303 17.6 3.76348 17.6 4.4V6.8M10.4 12.8V20M15.2 12.8V20" stroke="white" stroke-width="2.5" stroke-linecap="round" stroke-linejoin="round"/>
</svg>
