<svg width="24" height="14" viewBox="0 0 24 14" fill="none" xmlns="http://www.w3.org/2000/svg">
<path d="M4.65753 1.08787C4.50846 0.933099 4.30316 0.845703 4.08866 0.845703C3.87417 0.845703 3.66887 0.933099 3.51979 1.08787L1.14617 3.55215C0.842462 3.86745 0.850952 4.37014 1.16513 4.67493C1.47931 4.97973 1.9802 4.97121 2.28391 4.6559L3.29746 3.60365V12.3594C3.29746 12.7979 3.65169 13.1534 4.08866 13.1534C4.52564 13.1534 4.87987 12.7979 4.87987 12.3594V3.60365L5.89342 4.6559C6.19713 4.97121 6.69802 4.97973 7.0122 4.67493C7.32638 4.37014 7.33487 3.86745 7.03116 3.55215L4.65753 1.08787Z" fill="#4B5D6B"/>
<path d="M12.792 11.9623H9.62713C9.19196 11.9623 8.83592 11.605 8.83592 11.1683C8.83592 10.7316 9.19196 10.3742 9.62713 10.3742H12.792C13.2271 10.3742 13.5832 10.7316 13.5832 11.1683C13.5832 11.605 13.2271 11.9623 12.792 11.9623Z" fill="#4B5D6B"/>
<path d="M9.62713 4.02188C9.19196 4.02188 8.83592 3.66456 8.83592 3.22784C8.83592 2.79111 9.19196 2.43379 9.62713 2.43379H22.2865C22.7216 2.43379 23.0777 2.79111 23.0777 3.22784C23.0777 3.66456 22.7216 4.02188 22.2865 4.02188H9.62713Z" fill="#4B5D6B"/>
<path d="M17.5392 7.99211H9.62713C9.19196 7.99211 8.83592 7.63479 8.83592 7.19806C8.83592 6.76134 9.19196 6.40402 9.62713 6.40402H17.5392C17.9744 6.40402 18.3304 6.76134 18.3304 7.19806C18.3304 7.63479 17.9744 7.99211 17.5392 7.99211Z" fill="#4B5D6B"/>
</svg>
