<svg width="162" height="194" viewBox="0 0 162 194" fill="none" xmlns="http://www.w3.org/2000/svg">
<mask id="mask0" mask-type="alpha" maskUnits="userSpaceOnUse" x="0" y="0" width="162" height="194">
<rect width="162" height="194" fill="#C4C4C4"/>
</mask>
<g mask="url(#mask0)">
<path fill-rule="evenodd" clip-rule="evenodd" d="M201.972 72.5255C196.473 72.4195 191.739 75.8708 189.957 80.7667C187.502 82.0085 182.045 82.8594 169.928 80.7695C164.005 79.7481 161.623 76.0105 160.703 73.7112C160.222 70.1462 159.309 66.6571 157.995 63.3239C157.836 61.4063 157.873 57.4764 160.497 55.4792C165.74 51.4875 167.922 50.7568 168.827 50.7928C169.026 50.9323 169.238 51.0497 169.457 51.1445L169.461 51.1503L169.46 51.1455C170.569 51.623 171.892 51.5245 172.944 50.7691C174.545 49.6199 174.911 47.3856 173.763 45.7786C172.614 44.1716 170.386 43.8005 168.786 44.9497C167.646 45.7678 167.132 47.1358 167.345 48.4358C166.831 49.4063 164.913 51.1162 158.679 53.7482C155.908 54.9183 153.151 53.3622 151.633 52.2072C148.471 48.1718 144.571 44.6403 140.014 41.8401C138.972 39.8715 138.165 37.2872 139.02 34.7332C141.103 28.5139 142.957 25.7988 144.298 24.6428C147.911 25.5342 151.74 23.7159 153.267 20.1833C154.971 16.2396 153.161 11.6529 149.222 9.93848C145.284 8.2241 140.709 10.0313 139.005 13.975C137.658 17.0915 138.506 20.6097 140.865 22.7945C140.993 24.5079 140.188 27.8525 136.141 34.3171C134.865 36.3552 132.857 37.2459 130.999 37.6026C123.193 34.9488 115.049 34.6135 107.402 36.2975C103.782 36.6173 95.5278 36.6425 91.1572 31.0067C84.3737 22.2594 82.2627 17.089 81.8686 14.0932C86.5167 9.81266 87.5388 2.66436 83.98 -2.82782C80.0117 -8.9519 71.8505 -10.6978 65.7513 -6.72736C59.6522 -2.75693 57.9248 5.42628 61.8931 11.5504C65.035 16.3992 70.8056 18.5034 76.1 17.1987C78.6376 18.6575 82.5828 22.9654 87.8794 34.6961C90.001 39.3948 88.4573 44.0288 86.6414 47.2449C82.7154 50.9383 79.4037 55.4199 76.9658 60.5968C70.3033 74.7446 71.7824 90.6546 79.5011 103.016L79.2564 102.791C79.2564 102.791 83.4915 111.13 79.4631 116.752C74.6437 123.478 71.4001 126.062 69.353 126.957C65.3251 124.54 60.0331 125.307 56.8823 128.997C53.3634 133.119 53.8479 139.325 57.9645 142.86C62.0811 146.394 68.2709 145.919 71.7898 141.797C74.5722 138.538 74.8516 133.976 72.8115 130.461C73.2936 128.347 75.5068 124.614 82.7831 118.327C86.2471 115.334 90.7553 116.115 93.4293 116.997C94.9095 117.928 96.4604 118.781 98.0792 119.549C100.52 120.706 103.013 121.62 105.531 122.301C106.279 123.663 107.701 127.168 106.417 132.507C103.531 144.505 102.179 147.286 101.636 147.889C101.546 147.93 101.456 147.974 101.368 148.023L101.327 148.016C101.327 148.016 101.33 148.02 101.336 148.025C101.339 148.028 101.343 148.031 101.349 148.034C100.35 148.593 99.5139 149.649 99.2341 150.843C98.8263 152.582 99.7536 153.955 101.305 153.909C102.857 153.864 104.445 152.417 104.853 150.678C105.162 149.358 104.703 148.249 103.784 147.811C103.754 146.485 104.464 142.638 108.327 131.619C109.952 126.986 112.477 124.714 113.977 123.716C118.455 124.022 122.915 123.635 127.209 122.608C131.629 123.667 136.529 125.893 139.345 130.523C146.508 142.297 148.394 148.989 148.462 152.749C142.11 157.386 139.842 166.083 143.474 173.378C147.523 181.512 157.373 184.823 165.473 180.773C173.574 176.724 176.858 166.848 172.809 158.715C169.603 152.277 162.764 148.86 156.034 149.725C153.1 147.563 148.824 141.68 143.917 126.423C142.258 121.267 143.822 116.536 145.972 112.948C149.09 110.229 151.859 107.037 154.162 103.415C155.406 103.167 156.736 103.186 157.984 103.759C163.914 106.481 165.619 108.06 166.041 108.883C165.862 110.352 166.612 111.838 168.013 112.529C169.782 113.401 171.92 112.672 172.787 110.9C173.655 109.128 172.924 106.985 171.154 106.113C169.891 105.49 168.439 105.684 167.397 106.491C166.288 106.48 163.872 105.572 158.643 101.338C157.692 100.568 157.137 99.5892 156.833 98.5715L156.873 98.4862C157.271 97.641 157.64 96.7896 157.98 95.933C159.325 93.3262 163.821 85.7926 171.081 85.3144C181.667 84.6171 186.836 85.7424 189.359 87.0473C190.295 92.9536 195.351 97.5236 201.529 97.6427C208.457 97.7762 214.173 92.2618 214.295 85.3259C214.417 78.39 208.9 72.659 201.972 72.5255ZM117.265 16.2992C117.54 18.2569 116.182 20.0648 114.233 20.3374C112.283 20.61 110.48 19.244 110.205 17.2863C109.931 15.3286 111.288 13.5206 113.238 13.2481C115.188 12.9755 116.991 14.3415 117.265 16.2992ZM75.5358 112.602C76.7831 112.428 77.6518 111.271 77.4761 110.018C77.3003 108.766 76.1467 107.892 74.8994 108.066C73.6521 108.241 72.7834 109.397 72.9591 110.65C73.1349 111.902 74.2885 112.776 75.5358 112.602ZM158.328 118.118C158.414 118.729 157.99 119.294 157.382 119.379C156.773 119.464 156.21 119.037 156.124 118.426C156.039 117.815 156.463 117.251 157.071 117.166C157.68 117.081 158.243 117.507 158.328 118.118Z" fill="#4B5D6B"/>
<path d="M154.506 180.309C157.345 180.938 160.3 180.796 163.065 179.896C165.829 178.997 168.302 177.374 170.229 175.195L170.009 175C168.118 177.14 165.689 178.734 162.974 179.618C160.259 180.501 157.357 180.641 154.569 180.023L154.506 180.309Z" fill="white"/>
<path d="M62.0112 143.569C63.7183 143.947 65.4945 143.861 67.1562 143.32C68.8179 142.78 70.3047 141.804 71.4628 140.494L71.331 140.377C70.1937 141.664 68.7336 142.622 67.1017 143.153C65.4698 143.684 63.7254 143.768 62.049 143.397L62.0112 143.569Z" fill="white"/>
<path d="M69.5703 14.8462C71.8646 15.3542 74.2519 15.239 76.4852 14.5125C78.7185 13.786 80.7168 12.4747 82.2732 10.7141L82.0961 10.5569C80.5676 12.2859 78.6052 13.5737 76.4119 14.2872C74.2186 15.0006 71.8741 15.1138 69.621 14.6149L69.5703 14.8462Z" fill="white"/>
<path d="M154.241 178.549C158.177 179.421 162.293 178.803 165.797 176.816L165.685 176.619C162.23 178.579 158.171 179.187 154.29 178.328L154.241 178.549Z" fill="white"/>
<path d="M61.002 142.821C63.3676 143.345 65.8419 142.974 67.9484 141.779L67.8814 141.66C65.804 142.839 63.364 143.205 61.0311 142.688L61.002 142.821Z" fill="white"/>
<path d="M69.5295 13.0062C72.7089 13.7104 76.0344 13.2116 78.8655 11.6059L78.7755 11.4467C75.9835 13.0302 72.7041 13.5221 69.5687 12.8277L69.5295 13.0062Z" fill="white"/>
<path d="M144.244 23.8147C145.596 24.1141 147.003 24.0462 148.32 23.618C149.636 23.1898 150.814 22.4168 151.731 21.379L151.627 21.2864C150.726 22.3055 149.569 23.0646 148.277 23.4852C146.984 23.9057 145.602 23.9724 144.274 23.6784L144.244 23.8147Z" fill="white"/>
<path d="M100.149 152.988C100.77 153.126 101.416 153.094 102.021 152.898C102.626 152.701 103.167 152.346 103.588 151.869L103.54 151.827C103.126 152.295 102.595 152.644 102.001 152.837C101.407 153.03 100.772 153.061 100.162 152.925L100.149 152.988Z" fill="white"/>
<path d="M144.152 23.0463C146.026 23.4614 147.986 23.1674 149.655 22.2209L149.602 22.1271C147.956 23.0605 146.023 23.3504 144.175 22.941L144.152 23.0463Z" fill="white"/>
<path d="M100.057 152.22C100.918 152.411 101.819 152.276 102.585 151.841L102.561 151.798C101.805 152.227 100.917 152.36 100.068 152.172L100.057 152.22Z" fill="white"/>
<ellipse cx="117.67" cy="80.1912" rx="37.5803" ry="37.6814" fill="#F8F8F8"/>
</g>
</svg>
