<svg width="16" height="16" viewBox="0 0 16 16" fill="none" xmlns="http://www.w3.org/2000/svg">
<path d="M10.9664 5.0336C11.0409 5.10791 11.1 5.19619 11.1403 5.29339C11.1807 5.39058 11.2014 5.49477 11.2014 5.6C11.2014 5.70523 11.1807 5.80942 11.1403 5.90661C11.1 6.00381 11.0409 6.09209 10.9664 6.1664L9.1312 8L10.9664 9.8336C11.1166 9.98382 11.201 10.1876 11.201 10.4C11.201 10.6124 11.1166 10.8162 10.9664 10.9664C10.8162 11.1166 10.6124 11.201 10.4 11.201C10.1876 11.201 9.98382 11.1166 9.8336 10.9664L8 9.1312L6.1664 10.9664C6.09202 11.0408 6.00372 11.0998 5.90653 11.14C5.80935 11.1803 5.70519 11.201 5.6 11.201C5.49481 11.201 5.39065 11.1803 5.29347 11.14C5.19628 11.0998 5.10798 11.0408 5.0336 10.9664C4.95922 10.892 4.90022 10.8037 4.85996 10.7065C4.81971 10.6094 4.79899 10.5052 4.79899 10.4C4.79899 10.2948 4.81971 10.1906 4.85996 10.0935C4.90022 9.99628 4.95922 9.90798 5.0336 9.8336L6.8688 8L5.0336 6.1664C4.95922 6.09202 4.90022 6.00372 4.85996 5.90653C4.81971 5.80935 4.79899 5.70519 4.79899 5.6C4.79899 5.49481 4.81971 5.39065 4.85996 5.29347C4.90022 5.19628 4.95922 5.10798 5.0336 5.0336C5.10798 4.95922 5.19628 4.90022 5.29347 4.85996C5.39065 4.81971 5.49481 4.79899 5.6 4.79899C5.70519 4.79899 5.80935 4.81971 5.90653 4.85996C6.00372 4.90022 6.09202 4.95922 6.1664 5.0336L8 6.8688L9.8336 5.0336C9.90791 4.9591 9.99619 4.89999 10.0934 4.85966C10.1906 4.81933 10.2948 4.79857 10.4 4.79857C10.5052 4.79857 10.6094 4.81933 10.7066 4.85966C10.8038 4.89999 10.8921 4.9591 10.9664 5.0336ZM8 0C5.87827 0 3.84344 0.842855 2.34315 2.34315C0.842855 3.84344 0 5.87827 0 8C0 10.1217 0.842855 12.1566 2.34315 13.6569C3.84344 15.1571 5.87827 16 8 16C10.1217 16 12.1566 15.1571 13.6569 13.6569C15.1571 12.1566 16 10.1217 16 8C16 5.87827 15.1571 3.84344 13.6569 2.34315C12.1566 0.842855 10.1217 0 8 0ZM1.6 8C1.6 6.30261 2.27428 4.67475 3.47452 3.47452C4.67475 2.27428 6.30261 1.6 8 1.6C9.69739 1.6 11.3253 2.27428 12.5255 3.47452C13.7257 4.67475 14.4 6.30261 14.4 8C14.4 9.69739 13.7257 11.3253 12.5255 12.5255C11.3253 13.7257 9.69739 14.4 8 14.4C6.30261 14.4 4.67475 13.7257 3.47452 12.5255C2.27428 11.3253 1.6 9.69739 1.6 8Z" fill="#F86D70"/>
</svg>
