<svg width="18" height="12" viewBox="0 0 18 12" fill="none" xmlns="http://www.w3.org/2000/svg">
<path fill-rule="evenodd" clip-rule="evenodd" d="M3.59998 6.85725H17.1C17.3387 6.85725 17.5676 6.94756 17.7364 7.1083C17.9052 7.26904 18 7.48705 18 7.71438C18 7.9417 17.9052 8.15971 17.7364 8.32046C17.5676 8.4812 17.3387 8.5715 17.1 8.5715H3.59998C3.36129 8.5715 3.13237 8.4812 2.96358 8.32046C2.7948 8.15971 2.69998 7.9417 2.69998 7.71438C2.69998 7.48705 2.7948 7.26904 2.96358 7.1083C3.13237 6.94756 3.36129 6.85725 3.59998 6.85725ZM3.59998 10.2858H17.1C17.3387 10.2858 17.5676 10.3761 17.7364 10.5368C17.9052 10.6975 18 10.9156 18 11.1429C18 11.3702 17.9052 11.5882 17.7364 11.749C17.5676 11.9097 17.3387 12 17.1 12H3.59998C3.36129 12 3.13237 11.9097 2.96358 11.749C2.7948 11.5882 2.69998 11.3702 2.69998 11.1429C2.69998 10.9156 2.7948 10.6975 2.96358 10.5368C3.13237 10.3761 3.36129 10.2858 3.59998 10.2858ZM9.89999 3.42876H17.1C17.3387 3.42876 17.5676 3.51906 17.7364 3.6798C17.9052 3.84055 18 4.05856 18 4.28588C18 4.51321 17.9052 4.73122 17.7364 4.89196C17.5676 5.0527 17.3387 5.14301 17.1 5.14301H9.89999C9.66129 5.14301 9.43237 5.0527 9.26359 4.89196C9.09481 4.73122 8.99999 4.51321 8.99999 4.28588C8.99999 4.05856 9.09481 3.84055 9.26359 3.6798C9.43237 3.51906 9.66129 3.42876 9.89999 3.42876ZM3.36868 5.92642L0.880022 4.13569C0.422781 3.80668 0.377049 3.14313 0.784829 2.7545C1.07395 2.47897 1.51013 2.42708 1.85582 2.6271L3.36868 3.50247L7.50517 0.440329C7.84905 0.185763 8.32615 0.215238 8.63608 0.510195C9.02492 0.880246 8.99501 1.50912 8.57281 1.8406L3.36868 5.92642Z" fill="white"/>
</svg>
