<svg width="20" height="36" viewBox="0 0 20 36" fill="none" xmlns="http://www.w3.org/2000/svg">
<g clip-path="url(#clip0)">
<path d="M10.3821 7.81738C4.76117 7.81738 0.703674 11.9121 0.703674 17.6075C0.703674 23.638 4.76118 28.0305 10.3077 28.0305C14.0302 28.0305 17.641 26.132 18.9811 23.4891V22.4468H17.0082C16.0031 24.4569 13.2112 25.9087 10.3821 25.9087C6.84577 25.9087 4.12837 23.5635 3.27217 20.0271H19.9489C20.0978 19.3571 20.1723 18.3892 20.1723 17.6448C20.1723 11.9121 16.0403 7.81738 10.3821 7.81738ZM3.01156 17.6075C3.01156 13.1778 6.02677 9.93919 10.2705 9.93919C14.7747 9.93919 18.0505 13.4383 17.7899 18.0542H3.01156V17.6075Z" fill="#2B2A29"/>
</g>
<defs>
<clipPath id="clip0">
<rect width="20" height="36" fill="white"/>
</clipPath>
</defs>
</svg>
