<svg width="28" height="28" viewBox="0 0 28 28" fill="none" xmlns="http://www.w3.org/2000/svg">
<path d="M13.1919 4.53022H4.84256C4.20988 4.53022 3.60311 4.78155 3.15574 5.22893C2.70836 5.6763 2.45703 6.28307 2.45703 6.91575V23.6145C2.45703 24.2472 2.70836 24.8539 3.15574 25.3013C3.60311 25.7487 4.20988 26 4.84256 26H21.5413C22.1739 26 22.7807 25.7487 23.2281 25.3013C23.6755 24.8539 23.9268 24.2472 23.9268 23.6145V15.2651M22.1376 2.74109C22.6122 2.26658 23.2557 2 23.9268 2C24.5979 2 25.2414 2.26658 25.7159 2.74109C26.1905 3.2156 26.457 3.85918 26.457 4.53024C26.457 5.2013 26.1905 5.84487 25.7159 6.31939L14.3847 17.6507L9.61362 18.8434L10.8064 14.0724L22.1376 2.74109Z" stroke="white" stroke-width="3" stroke-linecap="round" stroke-linejoin="round"/>
</svg>
