<svg width="48" height="48" viewBox="0 0 48 48" fill="none" xmlns="http://www.w3.org/2000/svg">
<path d="M10.0001 26.3605V31.9805C10.0001 33.4405 10.8001 34.8005 12.0801 35.5005L22.0801 40.9605C23.2801 41.6205 24.7201 41.6205 25.9201 40.9605L35.9201 35.5005C37.2001 34.8005 38.0001 33.4405 38.0001 31.9805V26.3605L25.9201 32.9605C24.7201 33.6205 23.2801 33.6205 22.0801 32.9605L10.0001 26.3605ZM22.0801 7.04055L5.22006 16.2405C3.84006 17.0005 3.84006 19.0005 5.22006 19.7605L22.0801 28.9605C23.2801 29.6205 24.7201 29.6205 25.9201 28.9605L42.0001 20.1805V32.0005C42.0001 33.1005 42.9001 34.0005 44.0001 34.0005C45.1001 34.0005 46.0001 33.1005 46.0001 32.0005V19.1805C46.0001 18.4405 45.6001 17.7805 44.9601 17.4205L25.9201 7.04055C24.7201 6.40055 23.2801 6.40055 22.0801 7.04055Z" fill="black"/>
</svg>
