<svg width="28" height="39" viewBox="0 0 28 39" fill="none" xmlns="http://www.w3.org/2000/svg">
<path d="M0.916797 29.4165C0.233464 30.0998 0.233464 31.2332 0.916797 31.9165C1.60013 32.5998 2.73346 32.5998 3.4168 31.9165L8.00013 27.3332H11.3335L7.1668 23.1665L0.916797 29.4165ZM18.0001 7.33317C19.8335 7.33317 21.3335 5.83317 21.3335 3.99984C21.3335 2.1665 19.8335 0.666504 18.0001 0.666504C16.1668 0.666504 14.6668 2.1665 14.6668 3.99984C14.6668 5.83317 16.1668 7.33317 18.0001 7.33317ZM26.8168 32.8332L23.4835 29.4832C23.1835 29.1832 22.7501 28.9998 22.3001 28.9998H20.5001L10.0168 18.5165C11.3335 17.9665 12.7835 17.0665 13.8335 16.1998V19.9832L19.8001 25.9498C20.7501 25.0332 21.3335 23.7498 21.3335 22.3498V12.7665C21.3335 10.6998 19.6335 8.99984 17.5668 8.99984H17.5335C16.9668 8.99984 16.4168 9.14984 15.9335 9.38317C15.5001 9.58317 15.1001 9.8665 14.7835 10.2165L12.4501 12.7998C10.6835 14.7498 7.43346 16.2498 4.6668 16.1998C3.6668 16.1998 2.8668 16.9998 2.8668 17.9998C2.8668 18.9998 3.6668 19.7998 4.6668 19.7998C5.18346 19.7998 5.68346 19.7498 6.1668 19.6832L18.0168 31.4998V33.2998C18.0168 33.7332 18.1835 34.1665 18.5001 34.4665L21.8168 37.8165C22.4668 38.4665 23.5168 38.4665 24.1835 37.8165L26.8168 35.1832C27.4668 34.5498 27.4668 33.4832 26.8168 32.8332Z" fill="#4B5D6B"/>
</svg>
