<svg width="13" height="18" viewBox="0 0 13 18" fill="none" xmlns="http://www.w3.org/2000/svg">
<path d="M0.562656 13.6875C0.255156 13.995 0.255156 14.505 0.562656 14.8125C0.870156 15.12 1.38016 15.12 1.68766 14.8125L3.75016 12.75H5.25016L3.37516 10.875L0.562656 13.6875ZM8.25016 3.75C9.07516 3.75 9.75016 3.075 9.75016 2.25C9.75016 1.425 9.07516 0.75 8.25016 0.75C7.42516 0.75 6.75016 1.425 6.75016 2.25C6.75016 3.075 7.42516 3.75 8.25016 3.75ZM12.2177 15.225L10.7177 13.7175C10.5827 13.5825 10.3877 13.5 10.1852 13.5H9.37516L4.65766 8.7825C5.25016 8.535 5.90266 8.13 6.37516 7.74V9.4425L9.06016 12.1275C9.48766 11.715 9.75016 11.1375 9.75016 10.5075V6.195C9.75016 5.265 8.98516 4.5 8.05516 4.5H8.04016C7.78516 4.5 7.53766 4.5675 7.32016 4.6725C7.12516 4.7625 6.94516 4.89 6.80266 5.0475L5.75266 6.21C4.95766 7.0875 3.49516 7.7625 2.25016 7.74C1.80016 7.74 1.44016 8.1 1.44016 8.55C1.44016 9 1.80016 9.36 2.25016 9.36C2.48266 9.36 2.70766 9.3375 2.92516 9.3075L8.25766 14.625V15.435C8.25766 15.63 8.33266 15.825 8.47516 15.96L9.96766 17.4675C10.2602 17.76 10.7327 17.76 11.0327 17.4675L12.2177 16.2825C12.5102 15.9975 12.5102 15.5175 12.2177 15.225Z" fill="#4B5D6B"/>
</svg>
