<svg width="20" height="27" viewBox="0 0 20 27" fill="none" xmlns="http://www.w3.org/2000/svg">
<path d="M0.541794 20.2917C0.0634611 20.7701 0.0634611 21.5634 0.541794 22.0417C1.02013 22.5201 1.81346 22.5201 2.29179 22.0417L5.50013 18.8334H7.83346L4.91679 15.9167L0.541794 20.2917ZM12.5001 4.83341C13.7835 4.83341 14.8335 3.78341 14.8335 2.50008C14.8335 1.21675 13.7835 0.166748 12.5001 0.166748C11.2168 0.166748 10.1668 1.21675 10.1668 2.50008C10.1668 3.78341 11.2168 4.83341 12.5001 4.83341ZM18.6718 22.6834L16.3385 20.3384C16.1285 20.1284 15.8251 20.0001 15.5101 20.0001H14.2501L6.91179 12.6617C7.83346 12.2767 8.84846 11.6467 9.58346 11.0401V13.6884L13.7601 17.8651C14.4251 17.2234 14.8335 16.3251 14.8335 15.3451V8.63675C14.8335 7.19008 13.6435 6.00008 12.1968 6.00008H12.1735C11.7768 6.00008 11.3918 6.10508 11.0535 6.26841C10.7501 6.40841 10.4701 6.60675 10.2485 6.85175L8.61513 8.66008C7.37846 10.0251 5.10346 11.0751 3.16679 11.0401C2.46679 11.0401 1.90679 11.6001 1.90679 12.3001C1.90679 13.0001 2.46679 13.5601 3.16679 13.5601C3.52846 13.5601 3.87846 13.5251 4.21679 13.4784L12.5118 21.7501V23.0101C12.5118 23.3134 12.6285 23.6167 12.8501 23.8267L15.1718 26.1717C15.6268 26.6267 16.3618 26.6267 16.8285 26.1717L18.6718 24.3284C19.1268 23.8851 19.1268 23.1384 18.6718 22.6834Z" fill="#4B5D6B" fill-opacity="0.5"/>
</svg>
