<svg width="33" height="43" viewBox="0 0 33 43" fill="none" xmlns="http://www.w3.org/2000/svg">
<path d="M19 1H11C10.4696 1 9.96086 1.21071 9.58579 1.58579C9.21071 1.96086 9 2.46957 9 3V19C9 19.5304 9.21071 20.0391 9.58579 20.4142C9.96086 20.7893 10.4696 21 11 21H23C23.5304 21 24.0391 20.7893 24.4142 20.4142C24.7893 20.0391 25 19.5304 25 19V7M19 1L25 7M19 1V7H25M21 12H13M21 16H13M15 8H13" stroke="white" stroke-width="2" stroke-linecap="round" stroke-linejoin="round"/>
<path d="M3.136 31.726V34.708H7.868V36.248H3.136V40H1.316V30.2H8.47V31.726H3.136ZM9.92534 32.524H11.6753V40H9.92534V32.524ZM10.8073 31.292C10.49 31.292 10.224 31.194 10.0093 30.998C9.79468 30.7927 9.68734 30.5407 9.68734 30.242C9.68734 29.9433 9.79468 29.696 10.0093 29.5C10.224 29.2947 10.49 29.192 10.8073 29.192C11.1247 29.192 11.3907 29.29 11.6053 29.486C11.82 29.6727 11.9273 29.9107 11.9273 30.2C11.9273 30.508 11.82 30.7693 11.6053 30.984C11.4 31.1893 11.134 31.292 10.8073 31.292ZM13.9722 29.612H15.7222V40H13.9722V29.612ZM25.0471 36.304C25.0471 36.4253 25.0378 36.598 25.0191 36.822H19.1531C19.2558 37.3727 19.5218 37.8113 19.9511 38.138C20.3898 38.4553 20.9311 38.614 21.5751 38.614C22.3964 38.614 23.0731 38.3433 23.6051 37.802L24.5431 38.88C24.2071 39.2813 23.7824 39.5847 23.2691 39.79C22.7558 39.9953 22.1771 40.098 21.5331 40.098C20.7118 40.098 19.9884 39.9347 19.3631 39.608C18.7378 39.2813 18.2524 38.8287 17.9071 38.25C17.5711 37.662 17.4031 36.9993 17.4031 36.262C17.4031 35.534 17.5664 34.8807 17.8931 34.302C18.2291 33.714 18.6911 33.2567 19.2791 32.93C19.8671 32.6033 20.5298 32.44 21.2671 32.44C21.9951 32.44 22.6438 32.6033 23.2131 32.93C23.7918 33.2473 24.2398 33.7 24.5571 34.288C24.8838 34.8667 25.0471 35.5387 25.0471 36.304ZM21.2671 33.84C20.7071 33.84 20.2311 34.008 19.8391 34.344C19.4564 34.6707 19.2231 35.1093 19.1391 35.66H23.3811C23.3064 35.1187 23.0778 34.68 22.6951 34.344C22.3124 34.008 21.8364 33.84 21.2671 33.84ZM29.0381 40.098C28.4314 40.098 27.8387 40.0187 27.2601 39.86C26.6814 39.7013 26.2194 39.5007 25.8741 39.258L26.5461 37.928C26.8821 38.152 27.2834 38.334 27.7501 38.474C28.2261 38.6047 28.6927 38.67 29.1501 38.67C30.1954 38.67 30.7181 38.3947 30.7181 37.844C30.7181 37.5827 30.5827 37.4007 30.3121 37.298C30.0507 37.1953 29.6261 37.0973 29.0381 37.004C28.4221 36.9107 27.9181 36.8033 27.5261 36.682C27.1434 36.5607 26.8074 36.3507 26.5181 36.052C26.2381 35.744 26.0981 35.3193 26.0981 34.778C26.0981 34.0687 26.3921 33.504 26.9801 33.084C27.5774 32.6547 28.3801 32.44 29.3881 32.44C29.9014 32.44 30.4147 32.5007 30.9281 32.622C31.4414 32.734 31.8614 32.888 32.1881 33.084L31.5161 34.414C30.8814 34.0407 30.1674 33.854 29.3741 33.854C28.8607 33.854 28.4687 33.9333 28.1981 34.092C27.9367 34.2413 27.8061 34.442 27.8061 34.694C27.8061 34.974 27.9461 35.1747 28.2261 35.296C28.5154 35.408 28.9587 35.5153 29.5561 35.618C30.1534 35.7113 30.6434 35.8187 31.0261 35.94C31.4087 36.0613 31.7354 36.2667 32.0061 36.556C32.2861 36.8453 32.4261 37.256 32.4261 37.788C32.4261 38.488 32.1227 39.048 31.5161 39.468C30.9094 39.888 30.0834 40.098 29.0381 40.098Z" fill="white"/>
</svg>
