<svg width="447" height="580" viewBox="0 0 447 580" fill="none" xmlns="http://www.w3.org/2000/svg">
<g clip-path="url(#clip0)">
<path fill-rule="evenodd" clip-rule="evenodd" d="M-45 0H447V257.5C447 257.5 402.959 280.505 380.5 309C378.737 311.237 376.856 313.512 374.874 315.816L386.035 312.471C387.791 309.238 391.593 307 396 307C402.075 307 407 311.253 407 316.5C407 321.747 402.075 326 396 326C393.028 326 390.332 324.982 388.352 323.328L366.605 324.999C343.345 349.801 311.619 376.23 292.29 392.332C289.807 394.4 287.529 396.298 285.5 398C280.444 402.24 276.791 407.314 272.924 412.683C264.936 423.775 256.04 436.128 232 445C215.251 451.181 203.272 452.395 193.559 453.379C178.916 454.863 169.423 455.825 156.5 472.5C148.642 482.639 139.307 493.002 129.243 503.012C140.549 510.538 148 523.399 148 538C148 561.196 129.196 580 106 580C88.3318 580 73.2116 569.09 67.0086 553.64C57.2303 559.857 48.1625 564.656 40.5 567.5C6.66459 580.06 -45 524.1 -45 524.1V0Z" fill="#4B5D6B"/>
<path fill-rule="evenodd" clip-rule="evenodd" d="M117.606 177.657C123.089 189.836 135.564 196.672 148.158 195.558C153.453 199.63 161.046 210.731 169.113 239.702C172.455 251.703 166.606 262.133 161.067 268.804C154.504 273.277 148.462 278.458 143.05 284.236C138.935 286.586 130.396 290.42 123.365 286.76C109.209 279.392 105.287 275.346 104.392 273.304C105.003 269.765 103.366 266.072 100.05 264.227C95.8543 261.892 90.5609 263.401 88.2266 267.597C85.8923 271.792 87.4011 277.085 91.5965 279.42C94.5856 281.083 98.1321 280.795 100.769 278.975C103.449 279.116 109.211 281.591 121.457 292.559C126.787 297.332 126.398 304.765 125.489 309.341C119.783 320.64 116.01 333.083 114.606 346.233C111.365 350.517 106.564 354.871 100.138 355.626C84.3354 357.485 76.4325 356.231 72.4809 354.484C70.6768 345.602 62.6839 339.053 53.3217 339.354C42.8721 339.691 34.6736 348.434 35.01 358.884C35.3463 369.334 44.0901 377.532 54.5397 377.196C62.8102 376.929 69.6705 371.397 72.0054 363.92C75.6607 361.872 83.8628 360.2 102.225 362.397C107.955 363.083 111.976 366.494 114.696 370.157C116.97 390.034 124.659 408.265 136.252 423.339C140.664 430.768 149.723 449.249 141.774 464.959C129.586 489.043 120.404 499.041 114.23 502.99C99.9816 497.214 83.2282 502.375 74.8772 515.894C65.5562 530.983 70.2323 550.772 85.3217 560.093C100.411 569.414 120.2 564.738 129.521 549.648C136.898 537.706 135.507 522.819 127.125 512.509C127.657 505.421 132.982 492.257 153.303 468.356C161.535 458.674 173.555 457.37 182.563 458.106C194.669 462.822 207.839 465.41 221.614 465.41C259.552 465.41 292.906 445.779 312.07 416.121L311.905 416.604C311.905 416.604 325.821 398.632 342.381 401.676C362.135 405.307 371.203 409.756 375.321 413.332C374.197 424.717 381.405 435.588 392.811 438.703C405.542 442.181 418.681 434.68 422.159 421.949C425.636 409.218 418.135 396.078 405.404 392.601C395.328 389.848 384.996 393.973 379.401 402.125C374.23 403.237 363.714 402.207 342.38 392.732C330.557 387.482 328.698 375.817 328.479 370.604C328.978 366.402 329.234 362.126 329.234 357.79C329.234 351.158 328.634 344.668 327.486 338.368C329.758 335.271 335.986 328.61 348.938 325.926C378.349 319.83 385.859 319.927 387.741 320.498C387.923 320.652 388.113 320.8 388.31 320.942L388.339 321.044C388.339 321.044 388.353 321.017 388.355 320.974C390.624 322.587 393.808 323.33 396.717 322.711C400.961 321.807 403.01 318.345 401.293 314.977C399.576 311.609 394.743 309.611 390.499 310.515C387.268 311.203 385.309 313.374 385.316 315.857C382.416 317.3 373.204 319.724 344.997 322.644C333.205 323.864 325.606 320.719 321.821 318.459C317.825 308.287 312.326 298.871 305.596 290.485C303.29 279.627 303.044 266.471 310.305 255.43C328.767 227.359 341.528 216.286 349.72 212.27C366.529 221.418 387.975 217.393 400.205 201.848C413.855 184.498 410.856 159.367 393.506 145.717C376.156 132.066 351.025 135.065 337.374 152.415C326.57 166.147 326.196 184.753 335.111 198.684C333.456 207.375 325.019 222.907 296.524 249.606C286.803 258.716 274.593 260.097 264.388 259.005C255.304 255.066 245.57 252.343 235.391 251.043C233.507 248.538 232.122 245.55 232.08 242.156C231.879 226.198 233.59 220.83 234.966 219.075C238.373 217.941 240.854 214.751 240.912 210.957C240.985 206.157 237.152 202.206 232.352 202.132C227.551 202.059 223.6 205.892 223.527 210.692C223.475 214.112 225.405 217.101 228.256 218.564C229.399 220.993 229.942 227.24 226.068 243.216C225.354 246.163 223.733 248.431 221.762 250.169L221.614 250.169C219.834 250.169 218.065 250.212 216.307 250.298C211.1 250.249 187.187 249.106 177.912 232.446C165.316 209.818 162.419 197.265 162.675 190.368C174.713 182.185 179.508 166.304 173.327 152.573C166.401 137.186 148.312 130.328 132.925 137.255C117.538 144.181 110.68 162.27 117.606 177.657ZM82.2687 422.696C86.2831 420.062 91.6723 421.182 94.3058 425.196C96.9393 429.211 95.8199 434.6 91.8055 437.233C87.7911 439.867 82.4019 438.747 79.7684 434.733C77.1349 430.719 78.2543 425.33 82.2687 422.696ZM337.352 414.65C335.667 412.082 332.219 411.366 329.65 413.051C327.082 414.736 326.366 418.184 328.051 420.752C329.736 423.32 333.184 424.036 335.752 422.352C338.32 420.667 339.036 417.219 337.352 414.65ZM263.269 226.488C264.522 225.666 266.204 226.016 267.026 227.269C267.848 228.522 267.499 230.204 266.246 231.026C264.993 231.848 263.31 231.499 262.488 230.246C261.666 228.993 262.016 227.31 263.269 226.488Z" fill="#DEE5EE"/>
<circle cx="222" cy="357" r="84" fill="#F8F8F8"/>
<path d="M167.924 369.352C167.372 369.352 166.712 368.896 165.944 367.984C165.176 367.048 164.792 366.292 164.792 365.716C164.792 365.14 165.08 363.952 165.656 362.152C167.432 356.632 168.38 351.796 168.5 347.644C167.684 346.78 167.276 346.096 167.276 345.592C167.276 344.8 168.212 344.056 170.084 343.36C171.98 342.64 173.78 342.28 175.484 342.28C178.364 342.28 180.632 342.952 182.288 344.296C183.968 345.64 184.808 347.356 184.808 349.444C184.808 352.108 183.5 354.52 180.884 356.68C178.292 358.84 175.016 360.316 171.056 361.108C169.928 365.164 169.184 367.552 168.824 368.272C168.488 368.992 168.188 369.352 167.924 369.352ZM179.696 349.552C179.696 348.784 179.42 348.16 178.868 347.68C178.316 347.176 177.572 346.924 176.636 346.924C175.7 346.924 174.404 347.368 172.748 348.256C173.228 349.096 173.468 349.852 173.468 350.524C173.468 351.844 173.12 353.8 172.424 356.392C174.584 355.528 176.336 354.496 177.68 353.296C179.024 352.072 179.696 350.824 179.696 349.552ZM199.958 359.344C200.39 359.728 200.606 360.076 200.606 360.388C200.606 360.7 200.462 361.348 200.174 362.332C199.886 363.316 199.694 364.084 199.598 364.636C199.502 365.164 199.418 365.584 199.346 365.896C199.298 366.208 199.262 366.46 199.238 366.652C199.214 366.82 199.166 367.036 199.094 367.3C199.046 367.564 198.998 367.78 198.95 367.948C198.926 368.092 198.878 368.272 198.806 368.488C198.758 368.68 198.698 368.836 198.626 368.956C198.554 369.052 198.47 369.16 198.374 369.28C198.23 369.472 197.99 369.568 197.654 369.568C197.318 369.568 196.898 369.232 196.394 368.56C195.914 367.888 195.554 367.072 195.314 366.112C193.058 368.416 191.162 369.568 189.626 369.568C188.594 369.568 187.478 369.004 186.278 367.876C185.078 366.724 184.478 365.584 184.478 364.456C184.478 363.304 184.994 361.672 186.026 359.56C187.058 357.448 188.462 355.492 190.238 353.692C192.038 351.892 193.814 350.992 195.566 350.992C196.574 350.992 197.738 351.58 199.058 352.756C200.378 353.932 201.038 355.012 201.038 355.996C201.038 356.956 200.678 358.072 199.958 359.344ZM189.482 365.032C190.442 365.032 191.714 364.384 193.298 363.088C194.906 361.768 195.902 360.112 196.286 358.12C196.31 357.832 196.514 357.664 196.898 357.616C196.826 356.248 196.598 355.564 196.214 355.564C195.254 355.564 194.174 356.188 192.974 357.436C191.798 358.684 190.826 360.016 190.058 361.432C189.314 362.848 188.942 363.892 188.942 364.564C188.942 364.756 188.966 364.888 189.014 364.96C189.086 365.008 189.242 365.032 189.482 365.032ZM208.085 340.912C208.661 340.912 209.405 341.44 210.317 342.496C211.229 343.552 211.685 344.56 211.685 345.52C211.685 346.48 211.541 348.196 211.253 350.668C210.965 353.116 210.665 355.072 210.353 356.536C208.361 365.224 206.969 369.568 206.177 369.568C205.649 369.568 204.989 369.148 204.197 368.308C203.429 367.444 203.045 366.736 203.045 366.184C203.045 366.136 203.369 364.888 204.017 362.44C204.665 359.992 205.313 356.848 205.961 353.008C206.633 349.144 206.969 345.46 206.969 341.956C206.969 341.26 207.341 340.912 208.085 340.912ZM228.7 357.724C228.7 358.9 227.896 359.956 226.288 360.892C224.704 361.828 223.072 362.296 221.392 362.296C219.712 362.296 218.332 362.176 217.252 361.936C217.036 362.584 216.928 363.232 216.928 363.88C216.928 364.528 217.036 364.996 217.252 365.284C217.468 365.548 218.008 365.68 218.872 365.68C220.672 365.68 222.208 365.512 223.48 365.176C224.776 364.84 225.448 364.672 225.496 364.672C226.48 364.672 226.972 364.996 226.972 365.644C226.972 366.58 226.192 367.468 224.632 368.308C223.096 369.148 221.308 369.568 219.268 369.568C217.252 369.568 215.632 368.932 214.408 367.66C213.184 366.388 212.572 364.888 212.572 363.16C212.572 361.408 213.076 359.584 214.084 357.688C215.116 355.792 216.4 354.208 217.936 352.936C219.472 351.64 220.996 350.992 222.508 350.992C224.044 350.992 225.46 351.748 226.756 353.26C228.052 354.748 228.7 356.236 228.7 357.724ZM224.524 357.148C224.524 356.908 224.272 356.56 223.768 356.104C223.264 355.648 222.784 355.42 222.328 355.42C221.896 355.42 221.332 355.744 220.636 356.392C219.94 357.016 219.28 357.832 218.656 358.84C218.872 358.864 219.184 358.876 219.592 358.876C222.88 358.876 224.524 358.3 224.524 357.148ZM239.474 355.276C239.282 355.924 238.994 356.836 238.61 358.012C238.25 359.164 237.794 360.616 237.242 362.368C236.714 364.12 236.45 365.056 236.45 365.176C236.45 365.272 236.642 365.32 237.026 365.32C237.434 365.32 238.382 365.056 239.87 364.528C241.358 363.976 242.234 363.7 242.498 363.7C243.098 363.7 243.398 364.108 243.398 364.924C243.398 365.74 242.594 366.724 240.986 367.876C239.378 369.004 237.698 369.568 235.946 369.568C235.178 369.568 234.266 369.148 233.21 368.308C232.154 367.468 231.626 366.616 231.626 365.752C231.626 365.032 231.986 363.52 232.706 361.216C233.45 358.888 233.954 357.292 234.218 356.428C233.282 356.692 232.574 356.824 232.094 356.824C231.614 356.824 231.11 356.5 230.582 355.852C230.054 355.18 229.79 354.544 229.79 353.944C229.79 353.176 231.65 352.528 235.37 352C235.826 349.768 236.054 347.836 236.054 346.204C236.054 345.484 236.414 345.124 237.134 345.124C237.758 345.124 238.55 345.508 239.51 346.276C240.494 347.02 240.986 347.764 240.986 348.508C240.986 349.228 240.83 350.248 240.518 351.568C241.67 351.52 242.546 351.496 243.146 351.496C244.946 351.496 245.846 351.904 245.846 352.72C245.846 353.248 245.318 353.704 244.262 354.088C243.23 354.448 241.634 354.844 239.474 355.276ZM255.716 355.276C255.524 355.924 255.236 356.836 254.852 358.012C254.492 359.164 254.036 360.616 253.484 362.368C252.956 364.12 252.692 365.056 252.692 365.176C252.692 365.272 252.884 365.32 253.268 365.32C253.676 365.32 254.624 365.056 256.112 364.528C257.6 363.976 258.476 363.7 258.74 363.7C259.34 363.7 259.64 364.108 259.64 364.924C259.64 365.74 258.836 366.724 257.228 367.876C255.62 369.004 253.94 369.568 252.188 369.568C251.42 369.568 250.508 369.148 249.452 368.308C248.396 367.468 247.868 366.616 247.868 365.752C247.868 365.032 248.228 363.52 248.948 361.216C249.692 358.888 250.196 357.292 250.46 356.428C249.524 356.692 248.816 356.824 248.336 356.824C247.856 356.824 247.352 356.5 246.824 355.852C246.296 355.18 246.032 354.544 246.032 353.944C246.032 353.176 247.892 352.528 251.612 352C252.068 349.768 252.296 347.836 252.296 346.204C252.296 345.484 252.656 345.124 253.376 345.124C254 345.124 254.792 345.508 255.752 346.276C256.736 347.02 257.228 347.764 257.228 348.508C257.228 349.228 257.072 350.248 256.76 351.568C257.912 351.52 258.788 351.496 259.388 351.496C261.188 351.496 262.088 351.904 262.088 352.72C262.088 353.248 261.56 353.704 260.504 354.088C259.472 354.448 257.876 354.844 255.716 355.276ZM278.762 357.724C278.762 358.9 277.958 359.956 276.35 360.892C274.766 361.828 273.134 362.296 271.454 362.296C269.774 362.296 268.394 362.176 267.314 361.936C267.098 362.584 266.99 363.232 266.99 363.88C266.99 364.528 267.098 364.996 267.314 365.284C267.53 365.548 268.07 365.68 268.934 365.68C270.734 365.68 272.27 365.512 273.542 365.176C274.838 364.84 275.51 364.672 275.558 364.672C276.542 364.672 277.034 364.996 277.034 365.644C277.034 366.58 276.254 367.468 274.694 368.308C273.158 369.148 271.37 369.568 269.33 369.568C267.314 369.568 265.694 368.932 264.47 367.66C263.246 366.388 262.634 364.888 262.634 363.16C262.634 361.408 263.138 359.584 264.146 357.688C265.178 355.792 266.462 354.208 267.998 352.936C269.534 351.64 271.058 350.992 272.57 350.992C274.106 350.992 275.522 351.748 276.818 353.26C278.114 354.748 278.762 356.236 278.762 357.724ZM274.586 357.148C274.586 356.908 274.334 356.56 273.83 356.104C273.326 355.648 272.846 355.42 272.39 355.42C271.958 355.42 271.394 355.744 270.698 356.392C270.002 357.016 269.342 357.832 268.718 358.84C268.934 358.864 269.246 358.876 269.654 358.876C272.942 358.876 274.586 358.3 274.586 357.148Z" fill="#4B5D6B"/>
<g clip-path="url(#clip1)">
<path d="M383.49 182.399L380.849 181.624L375.103 177.871V177.011C376.767 175.756 377.909 173.838 378.122 171.639C378.956 171.505 379.595 170.78 379.595 169.909V167.544C379.595 167.535 379.594 167.526 379.594 167.517V164.521C379.926 164.283 380.137 163.895 380.137 163.461V160.719L384.103 160.044C384.754 159.933 385.223 159.415 385.269 158.756C385.315 158.096 384.923 157.519 384.293 157.318L370.925 153.066C370.646 152.978 370.351 152.978 370.073 153.066L356.704 157.318C356.075 157.519 355.682 158.096 355.728 158.756C355.757 159.175 355.958 159.536 356.267 159.773V163.357H356.234C355.481 163.357 354.869 163.97 354.869 164.723V166.502L353.987 171.675C353.835 172.569 354.524 173.388 355.434 173.388H358.418C359.325 173.388 360.017 172.571 359.864 171.674L358.983 166.502V164.723C358.983 163.97 358.37 163.357 357.618 163.357H357.585V160.161L360.863 160.72V163.461C360.863 163.894 361.073 164.281 361.404 164.519L361.405 167.544V169.909C361.405 170.78 362.044 171.505 362.878 171.639C363.091 173.837 364.232 175.754 365.894 177.009V177.873L360.149 181.625L357.51 182.4C354.686 183.229 352.692 185.821 352.692 188.835V190.799C352.692 191.163 352.987 191.458 353.352 191.458C353.716 191.458 354.011 191.163 354.011 190.799V188.835C354.011 186.459 355.602 184.333 357.881 183.665L360.34 182.943L370.164 188.78C370.363 188.898 370.627 188.905 370.837 188.78L380.661 182.943L383.119 183.664C385.398 184.333 386.99 186.459 386.99 188.834V195.201C386.99 196.017 386.325 196.682 385.509 196.682H382.603V193.84C382.603 193.476 382.308 193.181 381.944 193.181C381.58 193.181 381.285 193.476 381.285 193.84V196.682H359.712V193.84C359.712 193.476 359.417 193.181 359.053 193.181C358.689 193.181 358.394 193.476 358.394 193.84V196.682H355.492C354.675 196.682 354.011 196.017 354.011 195.201V193.881C354.011 193.516 353.716 193.221 353.351 193.221C352.987 193.221 352.692 193.516 352.692 193.881V195.201C352.692 196.744 353.948 198 355.491 198H385.509C387.052 198 388.308 196.744 388.308 195.201V188.834C388.308 185.892 386.382 183.248 383.49 182.399ZM358.418 172.07H355.434C355.342 172.07 355.271 171.987 355.287 171.896L356.084 167.217H357.767L358.564 171.896C358.58 171.987 358.51 172.07 358.418 172.07ZM357.664 164.723V165.899H356.187V164.723C356.187 164.697 356.208 164.676 356.234 164.676H357.617C357.643 164.676 357.664 164.697 357.664 164.723ZM368.143 185.798L368.405 186.201L361.675 182.203L365.947 179.413C366.14 181.685 366.89 183.873 368.143 185.798ZM368.138 182.953C369.69 183.173 371.31 183.173 372.862 182.953C372.562 183.691 372.192 184.403 371.753 185.079L370.5 187.004L369.248 185.079C368.808 184.403 368.438 183.691 368.138 182.953ZM372.858 185.798C374.11 183.873 374.86 181.685 375.053 179.413L379.325 182.203L372.595 186.201L372.858 185.798ZM376.713 164.767H378.276V166.885H377.5C377.066 166.885 376.713 166.532 376.713 166.098V164.767H376.713ZM357.104 158.575L370.472 154.323C370.489 154.317 370.508 154.317 370.525 154.323L383.893 158.575C383.921 158.584 383.959 158.596 383.954 158.664C383.949 158.733 383.91 158.739 383.881 158.744L379.462 159.497L377.802 159.292C377.441 159.247 377.112 159.504 377.067 159.865C377.023 160.226 377.279 160.555 377.641 160.6L378.819 160.746V163.448L362.181 163.448V160.746L369.002 159.902C369.995 159.779 371.003 159.779 371.996 159.902L374.577 160.221C374.938 160.266 375.267 160.009 375.312 159.648C375.357 159.287 375.1 158.958 374.739 158.913L372.157 158.593C371.057 158.457 369.941 158.457 368.84 158.593L361.537 159.497L357.116 158.744C357.087 158.739 357.048 158.733 357.043 158.664C357.038 158.596 357.076 158.583 357.104 158.575ZM362.723 166.885L362.722 164.767H364.287V166.098C364.287 166.532 363.934 166.885 363.5 166.885H362.723V166.885ZM364.174 171.301C364.14 170.764 363.693 170.343 363.158 170.343C362.918 170.343 362.723 170.148 362.723 169.909V168.203H363.5C364.661 168.203 365.605 167.259 365.605 166.098V164.767H375.395V166.098C375.395 167.259 376.339 168.203 377.5 168.203H378.277V169.909C378.277 170.148 378.082 170.343 377.842 170.343C377.307 170.343 376.86 170.764 376.826 171.301C376.617 174.629 373.838 177.236 370.5 177.236C367.162 177.236 364.383 174.629 364.174 171.301ZM370.5 178.555C371.672 178.555 372.787 178.287 373.785 177.81V178.228C373.785 179.355 373.633 180.466 373.34 181.539C371.549 181.88 369.524 181.894 367.66 181.539C367.367 180.466 367.215 179.355 367.215 178.228C367.215 178.214 367.213 178.2 367.212 178.186C367.212 178.184 367.212 178.181 367.212 178.178V177.809C368.211 178.286 369.327 178.555 370.5 178.555Z" fill="#4B5D6B"/>
</g>
<g clip-path="url(#clip2)">
<path d="M135.88 160.117C136.14 160.117 136.35 159.906 136.35 159.646V158.557C136.35 158.297 136.14 158.087 135.88 158.087C135.62 158.087 135.41 158.297 135.41 158.557V159.646C135.41 159.906 135.62 160.117 135.88 160.117Z" fill="#4B5D6B"/>
<path d="M140.59 160.117C140.85 160.117 141.06 159.906 141.06 159.646V158.557C141.06 158.297 140.85 158.087 140.59 158.087C140.33 158.087 140.12 158.297 140.12 158.557V159.646C140.12 159.906 140.33 160.117 140.59 160.117Z" fill="#4B5D6B"/>
<path d="M140.563 162.944C140.744 162.889 140.875 162.731 140.894 162.543C140.899 162.5 140.996 161.479 140.306 160.714C139.832 160.188 139.128 159.922 138.212 159.922C137.296 159.922 136.592 160.188 136.118 160.714C135.428 161.479 135.526 162.5 135.53 162.543C135.55 162.731 135.68 162.889 135.861 162.944C136.417 163.113 137.492 163.189 138.212 162.541C138.651 162.936 139.221 163.062 139.725 163.062C140.049 163.062 140.346 163.01 140.563 162.944ZM138.635 161.576C138.629 161.563 138.622 161.55 138.614 161.537C138.529 161.396 138.377 161.31 138.212 161.31H138.212C138.048 161.31 137.895 161.396 137.81 161.537C137.802 161.55 137.795 161.563 137.789 161.576C137.494 162.123 136.873 162.154 136.481 162.11C136.513 161.885 136.598 161.586 136.817 161.343C137.104 161.024 137.574 160.862 138.212 160.862C138.846 160.862 139.314 161.022 139.602 161.338C139.824 161.58 139.91 161.882 139.943 162.11C139.55 162.154 138.93 162.122 138.635 161.576Z" fill="#4B5D6B"/>
<path d="M161.53 172.911C161.79 172.911 162 172.701 162 172.441V170.899C162 169.349 161.451 167.925 160.538 166.811C161.879 165.901 161.994 164.509 161.999 164.443C162.014 164.231 161.888 164.037 161.687 163.967C161.684 163.966 161.417 163.867 161.19 163.616C160.903 163.298 160.803 162.873 160.893 162.352C161.469 159.007 161.639 154.406 159.175 151.481C157.86 149.92 155.939 149.06 153.765 149.06C152.243 149.06 150.827 149.482 149.671 150.281C149.458 150.429 149.404 150.722 149.552 150.935C149.699 151.149 149.992 151.202 150.206 151.055C151.204 150.365 152.435 150 153.765 150C155.103 150 157.003 150.362 158.456 152.087C160.222 154.183 160.744 157.677 159.966 162.192C159.738 163.517 160.413 164.311 161.001 164.673C160.896 165.042 160.615 165.673 159.877 166.116C158.988 165.309 157.874 164.747 156.641 164.535C158.116 163.585 159.095 161.931 159.095 160.05V157.54C159.095 157.353 158.985 157.185 158.815 157.109C156.919 156.275 155.932 153.674 155.922 153.648C155.86 153.481 155.709 153.363 155.532 153.344C155.355 153.325 155.182 153.408 155.086 153.558C153.212 156.484 149.005 157.146 148.844 157.171C148.613 157.2 148.435 157.398 148.435 157.637V160.05C148.435 161.931 149.414 163.585 150.889 164.535C149.656 164.747 148.542 165.309 147.653 166.116C146.914 165.673 146.633 165.041 146.529 164.674C147.117 164.311 147.792 163.517 147.563 162.192C146.807 157.8 147.283 154.362 148.94 152.251C149.101 152.047 149.065 151.751 148.861 151.591C148.657 151.431 148.361 151.466 148.201 151.67C146.375 153.997 145.834 157.69 146.637 162.352C146.727 162.873 146.627 163.298 146.339 163.616C146.113 163.866 145.847 163.966 145.847 163.966C145.646 164.035 145.516 164.231 145.531 164.443C145.535 164.509 145.65 165.901 146.992 166.811C146.583 167.311 146.246 167.873 146 168.481C145.174 166.442 143.335 164.918 141.111 164.535C142.104 163.896 142.871 162.937 143.267 161.805C144.418 161.803 145.353 160.866 145.353 159.714C145.353 159.405 145.285 159.112 145.164 158.847C146.043 156.254 145.998 154.21 145.028 152.773C144.077 151.364 142.526 150.977 141.835 150.872C141.704 150.509 141.404 149.952 140.727 149.504C139.224 148.511 136.705 148.537 133.239 149.582C131.944 149.973 131.057 150.697 130.602 151.733C129.914 153.301 130.245 155.541 131.587 158.395C131.293 158.755 131.117 159.215 131.117 159.715C131.117 160.866 132.052 161.803 133.203 161.805C133.599 162.938 134.367 163.897 135.36 164.536C134.203 164.735 133.114 165.247 132.219 166.027C132.023 166.198 132.002 166.494 132.173 166.69C132.343 166.886 132.64 166.907 132.836 166.736C133.673 166.007 134.707 165.553 135.8 165.421C135.862 165.893 136.039 166.583 136.538 167.097C136.967 167.538 137.537 167.762 138.235 167.762C138.933 167.762 139.504 167.538 139.933 167.096C140.432 166.582 140.609 165.891 140.67 165.42C143.403 165.747 145.53 168.079 145.53 170.899V176.281H143.403V171.639C143.403 171.38 143.192 171.169 142.932 171.169C142.673 171.169 142.462 171.38 142.462 171.639V176.281H134.008V171.639C134.008 171.38 133.797 171.169 133.538 171.169C133.278 171.169 133.068 171.38 133.068 171.639V176.281H130.94V170.899C130.94 169.897 131.211 168.916 131.724 168.062C131.858 167.839 131.786 167.55 131.564 167.417C131.341 167.283 131.052 167.355 130.919 167.578C130.318 168.578 130 169.726 130 170.899V176.751C130 177.011 130.211 177.222 130.47 177.222H161.53C161.79 177.222 162 177.011 162 176.751V174.322C162 174.062 161.79 173.851 161.53 173.851C161.27 173.851 161.06 174.062 161.06 174.322V176.281H158.932V171.639C158.932 171.38 158.722 171.169 158.462 171.169C158.203 171.169 157.992 171.38 157.992 171.639V176.281H149.538V171.639C149.538 171.38 149.327 171.169 149.068 171.169C148.808 171.169 148.597 171.38 148.597 171.639V176.281H146.47V170.899C146.47 170.898 146.47 170.897 146.47 170.896C146.471 168.08 148.593 165.751 151.323 165.421C151.384 165.892 151.561 166.583 152.06 167.097C152.489 167.538 153.06 167.762 153.757 167.762C154.455 167.762 155.027 167.538 155.455 167.096C155.955 166.581 156.131 165.89 156.192 165.419C158.93 165.742 161.06 168.076 161.06 170.899V172.441C161.06 172.701 161.27 172.911 161.53 172.911ZM143.507 160.839C143.545 160.581 143.565 160.318 143.565 160.051V158.604C144.054 158.737 144.413 159.185 144.413 159.715C144.413 160.265 144.024 160.726 143.507 160.839ZM131.463 152.111C131.807 151.327 132.477 150.794 133.511 150.483C137.444 149.296 139.308 149.712 140.179 150.27C140.883 150.721 140.99 151.302 140.998 151.358C141.019 151.592 141.209 151.762 141.443 151.773C141.462 151.774 143.299 151.882 144.254 153.306C144.982 154.392 145.046 155.967 144.449 157.994C144.19 157.815 143.89 157.693 143.565 157.646V156.816C143.565 156.637 143.463 156.473 143.302 156.394C141.844 155.68 140.878 153.287 140.869 153.264C140.762 152.972 140.364 152.871 140.131 153.075C136.697 155.929 133.452 155.661 133.421 155.659C133.153 155.626 132.899 155.857 132.905 156.127V157.646C132.71 157.674 132.525 157.73 132.351 157.808C131.218 155.334 130.91 153.37 131.463 152.111ZM132.057 159.715C132.057 159.185 132.416 158.737 132.905 158.604V160.051C132.905 160.318 132.925 160.581 132.963 160.839C132.446 160.726 132.057 160.265 132.057 159.715ZM133.845 160.051V156.608C134.911 156.587 137.476 156.291 140.253 154.18C140.644 154.973 141.466 156.389 142.625 157.094V160.051C142.625 162.471 140.656 164.441 138.235 164.441C135.814 164.441 133.845 162.471 133.845 160.051ZM138.235 166.822C137.795 166.822 137.461 166.697 137.212 166.442C136.919 166.14 136.796 165.706 136.745 165.381H139.725C139.674 165.706 139.552 166.139 139.258 166.441C139.01 166.697 138.675 166.822 138.235 166.822ZM149.375 160.051V158.028C150.524 157.798 153.518 157.001 155.385 154.74C155.84 155.637 156.751 157.09 158.155 157.834V160.051C158.155 162.471 156.186 164.441 153.765 164.441C151.344 164.441 149.375 162.471 149.375 160.051ZM153.757 166.822C153.317 166.822 152.983 166.698 152.735 166.442C152.441 166.14 152.319 165.707 152.267 165.381H155.248C155.197 165.706 155.074 166.139 154.781 166.441C154.532 166.697 154.197 166.822 153.757 166.822Z" fill="#4B5D6B"/>
<path d="M151.41 158.087C151.15 158.087 150.94 158.297 150.94 158.557V159.646C150.94 159.906 151.15 160.117 151.41 160.117C151.67 160.117 151.88 159.906 151.88 159.646V158.557C151.88 158.297 151.669 158.087 151.41 158.087Z" fill="#4B5D6B"/>
<path d="M156.12 160.117C156.38 160.117 156.59 159.906 156.59 159.646V158.557C156.59 158.297 156.38 158.087 156.12 158.087C155.86 158.087 155.65 158.297 155.65 158.557V159.646C155.65 159.906 155.86 160.117 156.12 160.117Z" fill="#4B5D6B"/>
<path d="M155.251 161.785C155.515 161.202 154.677 160.813 154.399 161.384C154.385 161.413 154.244 161.67 153.765 161.67C153.286 161.67 153.145 161.413 153.131 161.384C152.852 160.813 152.015 161.202 152.279 161.785C152.425 162.106 152.887 162.612 153.765 162.612C154.643 162.612 155.105 162.106 155.251 161.785Z" fill="#4B5D6B"/>
</g>
<g clip-path="url(#clip3)">
<path d="M101.192 539.721C100.981 539.566 100.685 539.611 100.53 539.822L100.472 539.901C100.317 540.112 100.362 540.408 100.573 540.563C100.657 540.625 100.756 540.655 100.853 540.655C100.998 540.655 101.141 540.589 101.234 540.463L101.293 540.382C101.448 540.172 101.403 539.875 101.192 539.721Z" fill="#4B5D6B"/>
<path d="M101.316 544.224L100.098 542.01L101.235 540.462C101.39 540.251 101.344 539.955 101.134 539.8C100.923 539.646 100.627 539.691 100.472 539.902L99.1562 541.694C99.0471 541.842 99.0342 542.04 99.1229 542.202L100.486 544.68V544.68C100.572 544.837 100.734 544.926 100.901 544.926C100.979 544.926 101.057 544.907 101.129 544.867C101.358 544.741 101.442 544.453 101.316 544.224Z" fill="#4B5D6B"/>
<path d="M104.844 541.694L103.534 539.909C103.425 539.761 103.241 539.689 103.061 539.725C102.881 539.76 102.737 539.897 102.693 540.075C102.659 540.211 102.687 540.356 102.771 540.47L103.902 542.01L102.692 544.209C102.654 544.279 102.634 544.358 102.634 544.438C102.634 544.654 102.78 544.842 102.99 544.896C103.029 544.906 103.068 544.911 103.107 544.911C103.277 544.911 103.437 544.82 103.522 544.666L104.877 542.202C104.966 542.04 104.953 541.842 104.844 541.694Z" fill="#4B5D6B"/>
<path d="M105.594 534.254C105.438 534.172 105.25 534.184 105.105 534.283C104.824 534.477 104.562 534.683 104.329 534.894C103.055 536.046 101.844 535.89 101.797 535.883C101.768 535.879 101.739 535.877 101.711 535.878C101.207 535.891 100.299 535.43 99.339 534.676C99.1921 534.561 99.0415 534.451 98.8911 534.349C98.746 534.251 98.5586 534.242 98.4041 534.324C98.2495 534.406 98.1528 534.567 98.1528 534.742V536.366C98.1528 536.509 98.2182 536.645 98.3302 536.735C98.3434 536.746 98.3572 536.756 98.3714 536.765L101.728 539.008C101.729 539.008 101.729 539.008 101.73 539.009L101.739 539.015C101.818 539.067 101.909 539.093 102 539.093C102.077 539.093 102.154 539.075 102.224 539.037C102.239 539.029 102.253 539.021 102.267 539.011C102.268 539.01 102.27 539.009 102.272 539.008C102.274 539.007 102.275 539.006 102.277 539.004L105.626 536.767C105.64 536.758 105.653 536.749 105.665 536.739C105.78 536.649 105.847 536.512 105.847 536.366V534.673C105.847 534.497 105.75 534.336 105.594 534.254ZM104.901 536.113L102 538.051L99.0996 536.112V535.682C99.8059 536.195 100.845 536.825 101.692 536.825C101.693 536.825 101.695 536.825 101.697 536.825C101.981 536.856 103.431 536.942 104.901 535.653V536.113H104.901Z" fill="#4B5D6B"/>
<path d="M102.467 538.542C102.436 538.354 102.295 538.204 102.11 538.16C101.925 538.116 101.731 538.186 101.618 538.34L100.53 539.822C100.376 540.033 100.421 540.329 100.632 540.484C100.716 540.546 100.814 540.576 100.912 540.576C101.057 540.576 101.201 540.509 101.294 540.382L102.376 538.908C102.438 538.827 102.474 538.727 102.474 538.62C102.473 538.594 102.471 538.568 102.467 538.542Z" fill="#4B5D6B"/>
<path d="M109.212 523.281C109.203 523.206 108.981 521.606 107.475 520.975C107.518 520.693 107.514 520.332 107.335 519.981C107.095 519.508 106.622 519.2 105.928 519.066C105.899 519.06 105.868 519.057 105.838 519.057H99.4841C96.904 519.057 94.8049 521.156 94.8049 523.736V526.229C94.8049 526.879 95.0264 527.512 95.4283 528.013C95.6276 528.261 95.873 528.694 95.9101 529.35C95.9245 529.606 96.1387 529.803 96.3961 529.796C96.6522 529.789 96.8561 529.579 96.8561 529.323V526.072C97.1776 524.743 98.2746 524.484 98.4633 524.449H100.519C100.76 524.449 100.998 524.412 101.225 524.339C101.616 524.214 102.236 523.983 102.687 523.812C102.989 523.697 103.324 523.693 103.629 523.8L105.829 524.573C106.929 524.978 107.125 525.944 107.15 526.096V529.997C107.15 530.245 107.341 530.45 107.588 530.469C107.6 530.47 107.612 530.47 107.623 530.47C107.856 530.47 108.056 530.3 108.091 530.067C108.093 530.055 108.282 528.834 108.892 527.856C109.104 527.516 109.216 527.128 109.216 526.734V523.34C109.216 523.32 109.215 523.3 109.212 523.281ZM108.269 526.734C108.269 526.945 108.209 527.155 108.096 527.342V526.063C108.096 526.046 108.096 526.029 108.094 526.012C108.086 525.943 107.891 524.321 106.152 523.683C106.15 523.682 106.148 523.681 106.146 523.68L103.942 522.907C103.694 522.819 103.434 522.776 103.174 522.776C102.895 522.776 102.616 522.826 102.351 522.927C101.719 523.167 101.23 523.344 100.936 523.438C100.802 523.481 100.662 523.502 100.518 523.502H98.425C98.4047 523.502 98.3843 523.504 98.3642 523.506C98.284 523.517 96.3958 523.785 95.9207 525.915C95.9131 525.949 95.9093 525.983 95.9093 526.018V526.992C95.8062 526.754 95.7516 526.494 95.7516 526.229V523.736C95.7516 521.678 97.426 520.004 99.4839 520.004H105.79C106.051 520.059 106.369 520.174 106.489 520.406C106.636 520.69 106.468 521.081 106.468 521.082C106.408 521.21 106.408 521.36 106.47 521.488C106.532 521.616 106.648 521.71 106.786 521.743C107.991 522.033 108.237 523.189 108.269 523.376V526.734H108.269Z" fill="#4B5D6B"/>
<path d="M108.094 526.012C108.086 525.943 107.891 524.321 106.152 523.683C106.15 523.682 106.148 523.681 106.146 523.68L103.942 522.907C103.427 522.726 102.862 522.733 102.351 522.927C101.719 523.167 101.23 523.344 100.936 523.438C100.802 523.481 100.662 523.502 100.518 523.502H98.425C98.4047 523.502 98.3844 523.504 98.3642 523.506C98.2841 523.517 96.3959 523.785 95.9207 525.915C95.9131 525.949 95.9093 525.983 95.9093 526.018V530.088C95.9093 530.091 95.9094 530.095 95.9094 530.098C95.9125 530.24 96.0126 533.578 98.3193 535.105L98.3312 535.113C98.3411 535.12 98.351 535.127 98.3613 535.134C98.4929 535.223 98.6249 535.319 98.7541 535.421C99.4261 535.949 100.693 536.825 101.692 536.825C101.693 536.825 101.695 536.825 101.697 536.825C101.751 536.831 101.848 536.839 101.98 536.839C102.546 536.839 103.754 536.69 104.964 535.596C105.167 535.413 105.395 535.234 105.642 535.063L105.678 535.038C105.689 535.03 105.701 535.022 105.713 535.014C106.482 534.497 107.815 533.164 108.095 530.039C108.096 530.025 108.097 530.011 108.097 529.997V526.063C108.097 526.046 108.096 526.029 108.094 526.012ZM107.15 529.975C106.892 532.795 105.69 533.888 105.185 534.228C105.167 534.24 105.149 534.252 105.131 534.265L105.105 534.283C104.824 534.477 104.562 534.683 104.329 534.894C103.059 536.042 101.853 535.891 101.794 535.883C101.766 535.879 101.738 535.877 101.711 535.878C101.207 535.891 100.299 535.43 99.3388 534.676C99.1919 534.561 99.0413 534.451 98.8911 534.35L98.8795 534.341C98.8681 534.333 98.8568 534.325 98.8435 534.316C96.982 533.084 96.8602 530.201 96.8561 530.081V526.072C97.1787 524.738 98.2826 524.482 98.4625 524.449H100.519C100.76 524.449 100.998 524.412 101.225 524.339C101.616 524.214 102.236 523.983 102.687 523.812C102.989 523.697 103.324 523.693 103.629 523.8L105.829 524.573C106.929 524.978 107.125 525.944 107.15 526.096V529.975H107.15Z" fill="#4B5D6B"/>
<path d="M102.423 538.409C102.35 538.261 102.204 538.162 102.04 538.148C101.876 538.135 101.716 538.207 101.618 538.34L100.484 539.885C100.33 540.095 100.375 540.391 100.585 540.546C100.67 540.608 100.768 540.638 100.866 540.638C101.011 540.638 101.154 540.572 101.247 540.446L102.381 538.907C102.441 538.825 102.473 538.721 102.473 538.62C102.474 538.547 102.456 538.474 102.423 538.409Z" fill="#4B5D6B"/>
<path d="M102.454 546.031C102.276 545.845 101.982 545.835 101.792 546.009L101.684 546.108C101.522 546.256 101.483 546.496 101.59 546.688L101.593 546.694C101.666 546.823 101.795 546.911 101.942 546.932C101.963 546.935 101.985 546.936 102.007 546.936C102.131 546.936 102.252 546.887 102.342 546.798L102.446 546.693C102.628 546.511 102.632 546.217 102.454 546.031Z" fill="#4B5D6B"/>
<path d="M102.316 546.108L102.208 546.009C102.018 545.835 101.724 545.845 101.546 546.031C101.368 546.217 101.372 546.511 101.554 546.693L101.659 546.798C101.748 546.887 101.869 546.936 101.993 546.936C102.016 546.936 102.038 546.935 102.06 546.932C102.208 546.911 102.337 546.821 102.408 546.691L102.412 546.685C102.517 546.493 102.477 546.255 102.316 546.108Z" fill="#4B5D6B"/>
<path d="M102.324 546.115L102.323 546.114C102.25 546.046 102.156 546.001 102.052 545.99C101.912 545.974 101.776 546.022 101.677 546.114L101.676 546.115C101.58 546.202 101.525 546.325 101.522 546.455C101.519 546.584 101.569 546.709 101.661 546.8L101.666 546.805C101.759 546.897 101.879 546.943 102 546.943C102.121 546.943 102.242 546.897 102.335 546.805L102.34 546.8C102.431 546.708 102.481 546.583 102.478 546.454C102.475 546.325 102.42 546.202 102.324 546.115Z" fill="#4B5D6B"/>
<path d="M102.154 538.162C101.957 538.099 101.742 538.172 101.623 538.34C101.489 538.528 101.511 538.784 101.674 538.948C101.766 539.039 101.887 539.087 102.01 539.087C102.105 539.087 102.2 539.058 102.283 539C102.409 538.911 102.484 538.767 102.484 538.613V538.612C102.484 538.406 102.35 538.225 102.154 538.162Z" fill="#4B5D6B"/>
<path d="M102.385 538.336L102.381 538.33C102.259 538.166 102.046 538.098 101.852 538.162C101.658 538.226 101.527 538.408 101.527 538.612V538.62C101.527 538.794 101.624 538.953 101.778 539.036C101.848 539.073 101.924 539.091 102.001 539.091C102.094 539.091 102.186 539.065 102.265 539.012C102.374 538.94 102.448 538.827 102.47 538.7C102.493 538.572 102.462 538.44 102.385 538.336Z" fill="#4B5D6B"/>
<path d="M107.632 536.849C107.583 536.719 107.479 536.617 107.349 536.571L105.534 535.92C105.519 535.915 105.504 535.91 105.488 535.906C105.359 535.874 105.222 535.898 105.111 535.972L101.747 538.219C101.747 538.22 101.746 538.221 101.745 538.221L102.009 538.614L101.739 538.225C101.64 538.29 101.569 538.391 101.541 538.505C101.525 538.568 101.522 538.634 101.533 538.698C101.545 538.771 101.574 538.841 101.618 538.9L104.081 542.254C104.17 542.376 104.312 542.447 104.462 542.447C104.473 542.447 104.483 542.447 104.493 542.446C104.654 542.436 104.799 542.344 104.877 542.202L107.604 537.245C107.671 537.123 107.681 536.978 107.632 536.849ZM104.405 541.096L102.674 538.739L105.438 536.892L106.507 537.275L104.405 541.096Z" fill="#4B5D6B"/>
<path d="M102.466 538.538C102.444 538.411 102.371 538.299 102.264 538.227L98.8895 535.972C98.7821 535.9 98.6497 535.876 98.5236 535.904C98.5042 535.908 98.4852 535.914 98.4665 535.92L96.6514 536.571C96.5209 536.618 96.4175 536.719 96.3684 536.849C96.3194 536.979 96.3295 537.123 96.3964 537.245L99.1229 542.202C99.2008 542.344 99.3456 542.436 99.5068 542.446C99.5171 542.447 99.5275 542.447 99.5377 542.447C99.6878 542.447 99.8297 542.376 99.9193 542.254L101.235 540.462C101.236 540.461 101.237 540.459 101.238 540.458L102.382 538.9C102.458 538.796 102.489 538.666 102.466 538.538ZM100.472 539.902C100.471 539.903 100.47 539.905 100.469 539.906L99.595 541.096L97.4933 537.275L98.5616 536.892L101.326 538.739L100.472 539.902Z" fill="#4B5D6B"/>
<path d="M115.977 544.93L115.366 541.243C115.173 540.08 114.366 539.11 113.258 538.709L107.35 536.571C107.168 536.505 106.964 536.557 106.835 536.702C106.707 536.846 106.679 537.055 106.765 537.228L107.999 539.702L106.788 539.72C106.624 539.723 106.473 539.81 106.389 539.952C106.305 540.093 106.3 540.268 106.376 540.413L106.873 541.361L101.792 546.009C101.787 546.014 101.782 546.018 101.777 546.023L101.672 546.128C101.523 546.277 101.491 546.506 101.591 546.69L101.595 546.697C101.678 546.849 101.837 546.943 102.01 546.943H114.27C114.779 546.943 115.26 546.72 115.589 546.332C115.919 545.944 116.06 545.433 115.977 544.93ZM114.867 545.72C114.718 545.895 114.5 545.996 114.27 545.996H103.208L107.781 541.814C107.94 541.669 107.981 541.435 107.881 541.245L107.572 540.655L108.766 540.637C108.928 540.634 109.078 540.548 109.163 540.409C109.247 540.27 109.255 540.098 109.182 539.952L108.141 537.864L112.936 539.599C113.722 539.883 114.296 540.573 114.432 541.397L115.043 545.085C115.043 545.085 115.043 545.085 115.043 545.085C115.08 545.312 115.017 545.544 114.867 545.72Z" fill="#4B5D6B"/>
<path d="M102.328 546.119L102.323 546.114C102.135 545.944 101.847 545.952 101.669 546.131L101.664 546.136C101.529 546.272 101.49 546.475 101.563 546.652C101.636 546.828 101.809 546.943 102 546.943H102.01C102.206 546.943 102.382 546.823 102.452 546.64C102.523 546.457 102.473 546.25 102.328 546.119Z" fill="#4B5D6B"/>
<path d="M102.313 546.105C102.206 546.008 102.06 545.966 101.917 545.99C101.775 546.014 101.651 546.103 101.582 546.229L101.578 546.235C101.478 546.417 101.509 546.643 101.653 546.792L101.655 546.794C101.748 546.89 101.871 546.938 101.995 546.938C102.109 546.938 102.223 546.897 102.314 546.814L102.319 546.81C102.362 546.771 102.397 546.724 102.423 546.672C102.519 546.481 102.472 546.248 102.313 546.105Z" fill="#4B5D6B"/>
<path d="M102.334 546.134L102.332 546.132C102.33 546.131 102.329 546.129 102.328 546.128L102.223 546.023C102.218 546.018 102.213 546.013 102.208 546.009L97.1271 541.361L97.6236 540.413C97.6999 540.268 97.6951 540.093 97.6112 539.952C97.5272 539.81 97.3759 539.723 97.2116 539.72L96.0011 539.702L97.2346 537.228C97.321 537.055 97.2931 536.846 97.1644 536.702C97.0358 536.557 96.8319 536.505 96.6499 536.571L90.7419 538.709C89.6341 539.109 88.8264 540.08 88.6339 541.243L88.0232 544.93C87.9401 545.433 88.0813 545.944 88.4106 546.332C88.74 546.72 89.221 546.943 89.7301 546.943H102C102.192 546.943 102.364 546.827 102.437 546.65C102.511 546.473 102.47 546.269 102.334 546.134ZM89.7302 545.996C89.4996 545.996 89.2818 545.895 89.1327 545.72C88.9837 545.544 88.9198 545.312 88.9574 545.085L89.5681 541.397C89.7047 540.572 90.2778 539.883 91.064 539.599L95.8593 537.864L94.8182 539.952C94.7456 540.097 94.7528 540.27 94.8374 540.409C94.9219 540.548 95.0719 540.634 95.2346 540.636L96.4282 540.655L96.1194 541.245C96.0197 541.435 96.0607 541.669 96.2192 541.814L100.792 545.996H89.7302Z" fill="#4B5D6B"/>
<path d="M103.611 540.304C103.646 540.167 103.617 540.022 103.534 539.909L102.382 538.34C102.261 538.175 102.047 538.109 101.853 538.173C101.748 538.208 101.661 538.277 101.604 538.366L100.473 539.9C100.457 539.922 100.442 539.946 100.43 539.97C100.352 540.125 100.366 540.31 100.465 540.452L100.947 541.144L100.433 544.378C100.417 544.482 100.436 544.588 100.486 544.68L101.585 546.679C101.668 546.83 101.828 546.924 102 546.924C102.173 546.924 102.332 546.83 102.415 546.679L103.522 544.666C103.561 544.596 103.581 544.517 103.581 544.438V544.437C103.581 544.412 103.579 544.388 103.575 544.363L103.064 541.144L103.541 540.46C103.573 540.413 103.597 540.36 103.611 540.304ZM102 545.468L101.394 544.366L101.911 541.104C101.931 540.983 101.902 540.86 101.832 540.76L101.436 540.19L102.001 539.422L102.57 540.197L102.178 540.76C102.108 540.86 102.08 540.983 102.099 541.104L102.614 544.351L102 545.468Z" fill="#4B5D6B"/>
</g>
<g clip-path="url(#clip4)">
<path d="M387.589 417.956C387.72 418.047 387.859 418.127 388.003 418.196C388.177 418.285 388.467 418.433 388.487 418.536C388.512 418.673 388.496 418.814 388.44 418.941C388.38 419.069 388.318 419.178 388.264 419.274C388.117 419.533 387.872 419.966 388.242 420.267C388.328 420.347 388.477 420.463 388.613 420.568C388.513 420.743 388.468 420.944 388.483 421.145C388.505 421.303 388.591 421.446 388.721 421.539C388.809 421.601 388.904 421.656 388.998 421.709C389.235 421.843 389.327 421.906 389.358 422.031C389.38 422.192 389.366 422.356 389.318 422.511C389.294 422.619 389.271 422.726 389.258 422.831C389.218 423.196 389.263 423.565 389.389 423.909C389.569 424.544 390.144 424.987 390.804 424.999C390.914 424.999 391.024 424.987 391.132 424.964C392.275 424.694 393.401 424.357 394.504 423.955C395.406 424.484 395.975 426.092 396.123 426.695C396.168 426.874 396.328 426.999 396.512 426.999L406.552 426.971C406.679 426.971 406.799 426.91 406.874 426.807C406.949 426.705 406.971 426.572 406.933 426.451C406.834 426.18 406.698 425.924 406.528 425.691C406.432 425.553 406.345 425.408 406.269 425.257C406.087 424.891 405.936 424.51 405.817 424.119C405.589 423.346 405.43 422.554 405.344 421.753C405.26 421.064 405.287 420.367 405.424 419.687C405.466 419.471 405.326 419.261 405.11 419.218C404.894 419.174 404.683 419.314 404.639 419.53C404.487 420.294 404.456 421.077 404.55 421.85C404.642 422.7 404.811 423.54 405.054 424.359C405.185 424.789 405.351 425.208 405.55 425.611C405.642 425.793 405.745 425.968 405.861 426.135C405.87 426.148 405.878 426.161 405.887 426.175L396.814 426.199C396.549 425.25 396.067 424.376 395.406 423.645L395.781 423.514C396.042 423.423 396.239 423.354 396.341 423.321C398.055 422.78 398.911 422.001 398.888 421.001C398.879 420.782 398.699 420.61 398.48 420.611C398.374 420.614 398.273 420.658 398.2 420.735C398.126 420.812 398.087 420.915 398.089 421.021C398.099 421.432 397.762 422.033 396.098 422.558C395.992 422.593 395.789 422.663 395.519 422.758C395.219 422.863 394.836 422.998 394.413 423.141C393.287 423.553 392.138 423.901 390.973 424.181C390.598 424.254 390.233 424.018 390.147 423.647C390.061 423.419 390.029 423.175 390.053 422.933C390.063 422.85 390.082 422.766 390.101 422.683C390.182 422.406 390.194 422.114 390.135 421.831C390.019 421.464 389.749 421.166 389.395 421.013L389.312 420.966C389.355 420.878 389.407 420.796 389.466 420.718C389.533 420.633 389.563 420.525 389.548 420.417C389.534 420.31 389.476 420.213 389.389 420.149C389.293 420.078 389.067 419.909 388.901 419.775C388.921 419.741 388.941 419.702 388.961 419.668C389.024 419.557 389.096 419.428 389.166 419.281C389.292 419.001 389.33 418.689 389.273 418.386C389.177 417.898 388.709 417.659 388.368 417.484C388.253 417.43 388.142 417.366 388.038 417.293C387.952 417.235 387.872 417.17 387.798 417.099C387.798 417.038 387.863 416.891 388.168 416.52C388.884 415.598 389.499 414.6 390 413.545C390.093 413.38 390.146 413.195 390.154 413.006C390.112 412.604 389.899 412.239 389.569 412.006C389.409 411.857 389.255 411.717 389.237 411.587C389.24 411.493 389.261 411.4 389.3 411.313C389.365 411.142 389.44 410.974 389.516 410.805C389.68 410.467 389.811 410.114 389.907 409.751L389.947 409.581C390.032 409.181 390.142 408.786 390.275 408.399C390.59 407.529 391.078 406.731 391.71 406.055C392.476 405.245 393.68 404.672 395.296 404.351C396.531 404.08 397.785 403.899 399.047 403.811C399.458 403.792 399.87 403.802 400.28 403.839C398.686 404.462 397.406 405.695 396.723 407.265C395.83 407.933 395.013 408.697 394.288 409.545C394.168 409.692 394.168 409.902 394.288 410.049C395.013 410.897 395.83 411.661 396.723 412.329C397.415 413.945 398.743 415.204 400.394 415.808C402.045 416.412 403.872 416.309 405.443 415.521L406.453 417.271L406.107 417.471C405.724 417.692 405.593 418.181 405.814 418.563L407.814 422.027C408.025 422.396 408.375 422.664 408.786 422.773C408.922 422.809 409.062 422.828 409.203 422.828C409.774 422.827 410.301 422.521 410.586 422.027C410.871 421.532 410.871 420.922 410.585 420.428L408.585 416.964C408.479 416.78 408.305 416.646 408.1 416.591C407.894 416.536 407.676 416.565 407.492 416.671L407.146 416.871L406.138 415.125C407.169 414.437 407.981 413.467 408.474 412.329C409.367 411.661 410.184 410.897 410.91 410.049C411.029 409.902 411.029 409.692 410.91 409.545C410.184 408.697 409.367 407.933 408.474 407.265C407.461 404.921 405.153 403.402 402.6 403.399C402.48 403.399 402.367 403.41 402.251 403.417C401.203 403.087 400.104 402.949 399.007 403.011C397.705 403.102 396.412 403.287 395.138 403.567C393.335 403.927 392.024 404.559 391.129 405.505C390.423 406.26 389.877 407.15 389.524 408.122C389.38 408.54 389.262 408.967 389.17 409.399L389.13 409.567C389.045 409.881 388.93 410.187 388.787 410.479C388.707 410.661 388.625 410.843 388.553 411.033C388.461 411.243 388.425 411.473 388.447 411.701C388.528 412.06 388.735 412.377 389.03 412.595C389.226 412.774 389.354 412.901 389.356 413.011C389.341 413.072 389.318 413.13 389.288 413.185C388.809 414.193 388.222 415.147 387.538 416.029C387.248 416.382 386.944 416.793 387.008 417.206C387.093 417.524 387.302 417.794 387.589 417.956ZM407.892 417.367L409.892 420.831C410.046 421.079 410.052 421.39 409.909 421.644C409.766 421.898 409.496 422.054 409.204 422.051C408.912 422.049 408.646 421.887 408.507 421.631L406.507 418.167L407.199 417.767L407.892 417.367ZM395.13 409.799C395.502 409.391 395.896 409.004 396.311 408.639C396.163 409.405 396.163 410.193 396.311 410.959C395.896 410.594 395.502 410.207 395.13 409.799ZM410.069 409.799C409.697 410.207 409.303 410.594 408.889 410.959C409.036 410.193 409.036 409.405 408.889 408.639C409.303 409.004 409.697 409.391 410.069 409.799ZM408.2 409.799C408.2 412.892 405.693 415.399 402.6 415.399C399.507 415.399 397 412.892 397 409.799C397 406.706 399.507 404.199 402.6 404.199C405.691 404.202 408.196 406.708 408.2 409.799Z" fill="#4B5D6B"/>
<path d="M391.467 410.12L391.507 409.946C391.577 409.612 391.666 409.282 391.774 408.958C392.015 408.291 392.389 407.678 392.872 407.158C393.39 406.669 394.025 406.321 394.716 406.146C394.852 406.104 394.957 405.993 394.989 405.854C395.021 405.715 394.977 405.569 394.873 405.471C394.768 405.373 394.62 405.339 394.483 405.38C393.659 405.595 392.904 406.018 392.29 406.609C391.733 407.207 391.303 407.911 391.024 408.68C390.905 409.035 390.806 409.396 390.728 409.762L390.688 409.936C390.64 410.15 390.774 410.363 390.987 410.413C391.201 410.463 391.415 410.332 391.467 410.118L391.467 410.12Z" fill="#4B5D6B"/>
<path d="M390.6 411.8C390.821 411.8 391 411.621 391 411.4C391 411.179 390.821 411 390.6 411C390.379 411 390.2 411.179 390.2 411.4C390.2 411.621 390.379 411.8 390.6 411.8Z" fill="#4B5D6B"/>
<path d="M397.8 409.8C397.804 412.322 399.758 414.411 402.274 414.584C402.284 414.584 402.292 414.591 402.302 414.592C402.355 414.596 402.408 414.598 402.462 414.597C402.508 414.6 402.556 414.6 402.6 414.6C402.645 414.6 402.693 414.6 402.739 414.597C402.784 414.598 402.828 414.596 402.872 414.592H402.876C402.89 414.59 402.903 414.587 402.916 414.584C405.433 414.419 407.391 412.332 407.397 409.81C407.402 407.288 405.453 405.193 402.937 405.017C402.928 405.017 402.921 405.011 402.912 405.01C402.875 405.006 402.838 405.004 402.801 405.005C402.675 404.997 402.549 404.997 402.423 405.005C402.383 405.005 402.341 405.005 402.3 405.009C402.289 405.009 402.279 405.016 402.268 405.018C399.755 405.193 397.804 407.281 397.8 409.8ZM402.6 405.8C404.809 405.8 406.6 407.591 406.6 409.8C406.6 412.009 404.809 413.8 402.6 413.8C400.391 413.8 398.6 412.009 398.6 409.8C398.602 407.592 400.392 405.802 402.6 405.8Z" fill="#4B5D6B"/>
<path d="M399.8 410.2C400.021 410.2 400.2 410.021 400.2 409.8C400.201 408.475 401.275 407.401 402.6 407.4C402.821 407.4 403 407.221 403 407C403 406.779 402.821 406.6 402.6 406.6C400.834 406.602 399.402 408.033 399.4 409.8C399.4 410.021 399.579 410.2 399.8 410.2Z" fill="#4B5D6B"/>
<path d="M401.4 409.8C401.4 410.463 401.937 411 402.6 411C403.263 411 403.8 410.463 403.8 409.8C403.8 409.137 403.263 408.6 402.6 408.6C401.937 408.6 401.4 409.137 401.4 409.8ZM403 409.8C403 410.021 402.821 410.2 402.6 410.2C402.379 410.2 402.2 410.021 402.2 409.8C402.2 409.579 402.379 409.4 402.6 409.4C402.821 409.4 403 409.579 403 409.8Z" fill="#4B5D6B"/>
<path d="M404.2 407.8C404.421 407.8 404.6 407.621 404.6 407.4C404.6 407.179 404.421 407 404.2 407C403.979 407 403.8 407.179 403.8 407.4C403.8 407.621 403.979 407.8 404.2 407.8Z" fill="#4B5D6B"/>
</g>
<path d="M63.1953 351.404C63.2715 351.404 63.3445 351.374 63.3983 351.32C63.4522 351.266 63.4824 351.193 63.4824 351.117V349.805C63.4824 349.729 63.4522 349.656 63.3983 349.602C63.3445 349.548 63.2715 349.518 63.1953 349.518H45.8047C45.7285 349.518 45.6555 349.548 45.6017 349.602C45.5478 349.656 45.5176 349.729 45.5176 349.805V351.117C45.5176 351.193 45.5478 351.266 45.6017 351.32C45.6555 351.374 45.7285 351.404 45.8047 351.404H46.502V360.236H45.8047C45.7285 360.236 45.6555 360.267 45.6017 360.32C45.5478 360.374 45.5176 360.447 45.5176 360.523V361.836C45.5176 361.912 45.5478 361.985 45.6017 362.039C45.6555 362.093 45.7285 362.123 45.8047 362.123H46.9297C46.0562 363.134 45.5762 364.426 45.5776 365.762V367.195C45.5776 367.271 45.6079 367.344 45.6617 367.398C45.7156 367.452 45.7886 367.482 45.8647 367.482C45.9409 367.482 46.0139 367.452 46.0678 367.398C46.1216 367.344 46.1518 367.271 46.1518 367.195V365.762C46.1506 364.93 46.3579 364.111 46.755 363.379C47.152 362.647 47.726 362.027 48.4246 361.574L50.098 363.019C50.154 363.067 50.2265 363.092 50.3004 363.089C50.3742 363.085 50.4438 363.053 50.4946 362.999L50.8806 362.589L51.1912 363.21L50.4313 367.141C50.4168 367.216 50.4327 367.293 50.4753 367.356C50.5179 367.419 50.5839 367.463 50.6586 367.477C50.6767 367.481 50.695 367.482 50.7134 367.482C50.7801 367.482 50.8446 367.459 50.8959 367.417C50.9473 367.374 50.9823 367.315 50.995 367.25L51.4919 364.681L51.9887 367.25C52.0031 367.325 52.0467 367.391 52.1098 367.433C52.1729 367.476 52.2503 367.492 52.3251 367.477C52.3999 367.463 52.4659 367.419 52.5085 367.356C52.5512 367.293 52.567 367.216 52.5526 367.141L51.792 363.211L52.1024 362.59L52.4883 362.999C52.539 363.053 52.6086 363.085 52.6825 363.089C52.7564 363.092 52.8288 363.067 52.8848 363.019L54.5911 361.546L57.3757 363.312C57.4679 363.37 57.5709 363.41 57.6786 363.427C57.7863 363.445 57.8965 363.44 58.0025 363.414C58.1084 363.388 58.2081 363.341 58.2953 363.276C58.3826 363.21 58.4557 363.128 58.5103 363.033L60.2697 359.985L61.2881 360.573L59.3101 363.999C59.1851 364.216 59.0184 364.406 58.8197 364.558C58.6211 364.71 58.3943 364.821 58.1525 364.885C57.9107 364.949 57.6586 364.965 57.4106 364.932C57.1627 364.898 56.9239 364.816 56.7078 364.69L55.9047 364.256C55.8608 364.232 55.8114 364.221 55.7615 364.222C55.7115 364.223 55.6628 364.237 55.62 364.263C55.5772 364.289 55.5419 364.325 55.5175 364.369C55.4932 364.412 55.4806 364.461 55.4811 364.511L55.5049 367.198C55.5056 367.274 55.5361 367.346 55.5899 367.399C55.6437 367.453 55.7163 367.482 55.792 367.482H55.7946C55.8323 367.482 55.8696 367.474 55.9043 367.46C55.939 367.445 55.9705 367.423 55.9969 367.396C56.0233 367.37 56.0441 367.338 56.0583 367.303C56.0724 367.268 56.0794 367.23 56.0791 367.193L56.0596 364.992L56.4276 365.191C56.7089 365.354 57.0195 365.459 57.3416 365.502C57.6637 365.544 57.991 365.523 58.3049 365.439C58.6187 365.355 58.9129 365.21 59.1707 365.012C59.4285 364.814 59.6448 364.567 59.8073 364.286L61.0561 362.123H63.1953C63.2715 362.123 63.3445 362.093 63.3983 362.039C63.4522 361.985 63.4824 361.912 63.4824 361.836V360.523C63.4824 360.447 63.4522 360.374 63.3983 360.32C63.3445 360.266 63.2715 360.236 63.1953 360.236H62.498V351.404H63.1953ZM46.0918 350.092H62.9082V350.83H46.0918V350.092ZM47.0762 357.855C47.1288 358.092 47.2476 358.31 47.4186 358.482C47.5897 358.655 47.8062 358.776 48.043 358.83V359.068C48.0434 359.472 48.1339 359.871 48.3078 360.236H47.0762V357.855ZM59.4617 360.236H58.1914V359.812H59.7064L59.4617 360.236ZM59.1302 360.81L58.7036 361.549H55.6666L54.5018 360.81H59.1302ZM54.94 356.931C55.0659 356.986 55.1729 357.077 55.248 357.192C55.3232 357.307 55.3632 357.442 55.3632 357.579C55.3632 357.717 55.3232 357.851 55.248 357.967C55.1729 358.082 55.0659 358.172 54.94 358.228V356.931ZM54.3658 359.068C54.3651 359.643 54.1365 360.194 53.7302 360.601C53.3238 361.007 52.7728 361.236 52.198 361.236H50.785C50.2103 361.236 49.6593 361.007 49.2529 360.601C48.8465 360.194 48.6179 359.643 48.6172 359.068V356.062C48.617 355.692 48.7005 355.327 48.8613 354.993C49.2991 355.29 49.8195 355.44 50.3479 355.422H51.9488C52.6692 355.42 53.3607 355.705 53.8715 356.212L54.366 356.702L54.3658 359.068ZM54.2752 355.804C53.6572 355.189 52.8203 354.845 51.9487 354.847H50.3479C49.7461 354.847 49.2749 354.666 48.9478 354.308C48.464 353.779 48.3833 352.98 48.376 352.572H51.4916C53.7159 352.572 54.2293 354.647 54.3386 355.866L54.2752 355.804ZM48.043 358.228C47.9171 358.172 47.8101 358.082 47.735 357.967C47.6598 357.851 47.6198 357.717 47.6198 357.579C47.6198 357.442 47.6598 357.307 47.735 357.192C47.8101 357.077 47.9171 356.986 48.043 356.931V358.228ZM46.0918 360.81H48.5947C48.2031 361.013 47.8369 361.26 47.5037 361.549H46.0918V360.81ZM50.2652 362.405L48.9547 361.273C48.9969 361.252 49.0402 361.233 49.0831 361.214C49.5665 361.6 50.1668 361.81 50.7855 361.81H50.8265L50.2652 362.405ZM51.4916 362.527L51.3008 362.145L51.4921 361.942L51.6835 362.145L51.4916 362.527ZM52.7176 362.405L52.1569 361.81H52.198C52.8488 361.81 53.4781 361.578 53.9725 361.155L54.0836 361.225L52.7176 362.405ZM57.8653 362.856C57.8345 362.864 57.8024 362.865 57.7711 362.86C57.7398 362.855 57.7099 362.844 57.6831 362.826L56.5728 362.123H58.3719L58.0124 362.745C57.9967 362.773 57.9756 362.797 57.9503 362.816C57.925 362.835 57.8961 362.849 57.8653 362.857V362.856ZM60.4986 359.454C60.5275 359.36 60.577 359.274 60.6436 359.202C60.7103 359.13 60.7922 359.075 60.8834 359.039C60.9746 359.003 61.0727 358.988 61.1704 358.995C61.2681 359.003 61.3629 359.032 61.4477 359.081C61.5325 359.13 61.6053 359.197 61.6604 359.278C61.7156 359.359 61.7519 359.452 61.7664 359.549C61.781 359.645 61.7736 359.744 61.7447 359.838C61.7158 359.932 61.6661 360.017 61.5995 360.089L60.4986 359.454ZM62.9082 361.549H61.3877L61.8142 360.81H62.9085L62.9082 361.549ZM61.9238 358.719C61.7012 358.525 61.4155 358.418 61.1199 358.418C61.034 358.418 60.9483 358.427 60.8643 358.445L58.6357 354.298C58.599 354.232 58.5379 354.183 58.4655 354.162C58.3932 354.141 58.3154 354.149 58.249 354.184C58.1825 354.22 58.1328 354.28 58.1105 354.353C58.0883 354.425 58.0952 354.502 58.1299 354.569L60.3464 358.693C60.1703 358.836 60.0373 359.024 59.9623 359.238H57.9043C57.8282 359.238 57.7551 359.269 57.7013 359.322C57.6474 359.376 57.6172 359.449 57.6172 359.525V360.236H54.6752C54.8491 359.872 54.9396 359.473 54.94 359.068V358.83C55.2234 358.766 55.4764 358.607 55.6576 358.379C55.8388 358.152 55.9375 357.87 55.9375 357.579C55.9375 357.289 55.8388 357.007 55.6576 356.779C55.4764 356.552 55.2234 356.393 54.94 356.328V356.062C54.9397 356.03 54.9339 355.998 54.9228 355.968C54.7897 353.965 53.8378 351.997 51.4916 351.997H48.0955C48.0239 351.997 47.9549 352.024 47.902 352.072C47.8491 352.12 47.8162 352.187 47.8095 352.258C47.8041 352.317 47.6921 353.656 48.4279 354.579C48.1745 355.032 48.0418 355.543 48.0425 356.062V356.328C47.8057 356.382 47.5892 356.503 47.4181 356.676C47.247 356.848 47.1283 357.066 47.0757 357.303V351.404H61.9233L61.9238 358.719Z" fill="#4B5D6B"/>
<path d="M47.7228 364.564C47.6466 364.564 47.5736 364.594 47.5198 364.648C47.4659 364.702 47.4357 364.775 47.4357 364.851V367.195C47.4357 367.271 47.4659 367.344 47.5198 367.398C47.5736 367.452 47.6466 367.482 47.7228 367.482C47.7989 367.482 47.872 367.452 47.9258 367.398C47.9796 367.344 48.0099 367.271 48.0099 367.195V364.851C48.0099 364.775 47.9796 364.702 47.9258 364.648C47.872 364.594 47.7989 364.564 47.7228 364.564Z" fill="#4B5D6B"/>
<path d="M52.2701 358.527C52.1939 358.527 52.1209 358.557 52.0671 358.611C52.0132 358.665 51.983 358.738 51.983 358.814C51.9769 358.94 51.9224 359.06 51.8309 359.147C51.7394 359.234 51.6178 359.283 51.4914 359.283C51.3649 359.283 51.2434 359.234 51.1518 359.147C51.0603 359.06 51.0059 358.94 50.9998 358.814C50.9998 358.738 50.9695 358.665 50.9157 358.611C50.8618 358.557 50.7888 358.527 50.7126 358.527C50.6365 358.527 50.5635 358.557 50.5096 358.611C50.4558 358.665 50.4255 358.738 50.4255 358.814C50.4346 359.091 50.5509 359.353 50.7498 359.545C50.9487 359.738 51.2146 359.846 51.4914 359.846C51.7681 359.846 52.0341 359.738 52.233 359.545C52.4318 359.353 52.5481 359.091 52.5572 358.814C52.5572 358.738 52.527 358.665 52.4731 358.611C52.4193 358.557 52.3462 358.527 52.2701 358.527Z" fill="#4B5D6B"/>
<path d="M50.7238 357.095C50.7238 357.002 50.696 356.91 50.644 356.833C50.592 356.755 50.5181 356.694 50.4317 356.658C50.3452 356.623 50.25 356.613 50.1583 356.631C50.0665 356.65 49.9822 356.695 49.916 356.761C49.8498 356.827 49.8048 356.911 49.7865 357.003C49.7683 357.095 49.7777 357.19 49.8135 357.277C49.8494 357.363 49.91 357.437 49.9879 357.489C50.0657 357.541 50.1572 357.569 50.2508 357.569C50.3762 357.568 50.4964 357.518 50.5851 357.43C50.6737 357.341 50.7236 357.221 50.7238 357.095Z" fill="#4B5D6B"/>
<path d="M52.7324 356.622C52.6389 356.622 52.5474 356.65 52.4696 356.702C52.3918 356.754 52.3311 356.828 52.2953 356.915C52.2595 357.001 52.2501 357.096 52.2684 357.188C52.2866 357.28 52.3317 357.364 52.3979 357.43C52.464 357.496 52.5483 357.541 52.6401 357.56C52.7319 357.578 52.827 357.569 52.9135 357.533C53 357.497 53.0739 357.436 53.1258 357.358C53.1778 357.281 53.2056 357.189 53.2056 357.096C53.2055 356.97 53.1556 356.85 53.0669 356.761C52.9782 356.672 52.8579 356.623 52.7324 356.622Z" fill="#4B5D6B"/>
<path d="M403.947 170.342C402.37 163.437 398.976 157.079 394.118 151.926C389.259 146.772 383.112 143.01 376.312 141.029L376.113 141.714C382.791 143.659 388.828 147.353 393.599 152.415C398.37 157.476 401.703 163.72 403.251 170.501L403.947 170.342Z" fill="white"/>
<path d="M419.502 412.295C418.554 408.144 416.515 404.322 413.594 401.224C410.674 398.126 406.978 395.865 402.891 394.674L402.771 395.086C406.785 396.255 410.414 398.476 413.282 401.518C416.15 404.561 418.154 408.314 419.085 412.391L419.502 412.295Z" fill="white"/>
<path d="M128.768 529.309C127.494 523.73 124.753 518.593 120.827 514.43C116.902 510.266 111.936 507.227 106.442 505.626L106.281 506.179C111.676 507.751 116.553 510.736 120.408 514.825C124.263 518.914 126.955 523.959 128.207 529.437L128.768 529.309Z" fill="white"/>
<path d="M400.353 172.753C398.168 163.184 392.521 154.762 384.498 149.108L384.181 149.558C392.093 155.133 397.662 163.439 399.817 172.875L400.353 172.753Z" fill="white"/>
<path d="M418.91 415.296C417.596 409.543 414.201 404.481 409.379 401.082L409.188 401.352C413.944 404.704 417.292 409.697 418.587 415.369L418.91 415.296Z" fill="white"/>
<path d="M124.767 531.309C123.002 523.579 118.439 516.774 111.957 512.206L111.701 512.569C118.093 517.074 122.593 523.785 124.333 531.408L124.767 531.309Z" fill="white"/>
<path d="M173.971 160.788C172.759 155.48 170.15 150.593 166.416 146.631C162.681 142.67 157.956 139.778 152.729 138.256L152.576 138.782C157.709 140.277 162.349 143.117 166.017 147.007C169.685 150.898 172.246 155.698 173.437 160.91L173.971 160.788Z" fill="white"/>
<path d="M70.7162 355.455C69.9652 352.166 68.3493 349.139 66.0356 346.684C63.7218 344.23 60.7944 342.438 57.556 341.495L57.4611 341.821C60.6413 342.747 63.5163 344.507 65.7885 346.917C68.0607 349.327 69.6477 352.301 70.3852 355.53L70.7162 355.455Z" fill="white"/>
<path d="M103.481 271.477C103.136 269.966 102.394 268.576 101.331 267.448C100.269 266.321 98.9239 265.498 97.4364 265.065L97.3928 265.214C98.8536 265.64 100.174 266.448 101.218 267.555C102.261 268.662 102.99 270.028 103.329 271.511L103.481 271.477Z" fill="white"/>
<path d="M239.481 210.477C239.136 208.966 238.394 207.576 237.331 206.448C236.269 205.321 234.924 204.498 233.436 204.065L233.393 204.214C234.854 204.64 236.174 205.448 237.218 206.555C238.261 207.662 238.99 209.028 239.329 210.511L239.481 210.477Z" fill="white"/>
<path d="M400.481 318.477C400.136 316.966 399.394 315.576 398.331 314.448C397.269 313.321 395.924 312.498 394.436 312.065L394.393 312.214C395.854 312.64 397.174 313.448 398.218 314.555C399.261 315.662 399.99 317.028 400.329 318.511L400.481 318.477Z" fill="white"/>
<path d="M171.378 162.789C169.699 155.433 165.357 148.959 159.19 144.613L158.947 144.959C165.028 149.245 169.309 155.629 170.965 162.883L171.378 162.789Z" fill="white"/>
<path d="M69.1236 356.455C68.0833 351.898 65.3938 347.887 61.573 345.195L61.4221 345.409C65.1899 348.064 67.8422 352.02 68.8681 356.514L69.1236 356.455Z" fill="white"/>
<path d="M101.889 272.475C101.411 270.382 100.176 268.54 98.4209 267.303L98.3515 267.402C100.082 268.621 101.3 270.438 101.772 272.502L101.889 272.475Z" fill="white"/>
<path d="M237.889 211.475C237.411 209.382 236.176 207.54 234.421 206.303L234.352 206.402C236.082 207.621 237.3 209.438 237.772 211.502L237.889 211.475Z" fill="white"/>
<path d="M398.889 319.475C398.411 317.382 397.176 315.54 395.421 314.303L395.352 314.402C397.082 315.621 398.3 317.438 398.772 319.502L398.889 319.475Z" fill="white"/>
</g>
<defs>
<clipPath id="clip0">
<rect width="447" height="580" fill="white"/>
</clipPath>
<clipPath id="clip1">
<rect width="45" height="45" fill="white" transform="translate(348 153)"/>
</clipPath>
<clipPath id="clip2">
<rect width="32" height="32" fill="white" transform="translate(130 147)"/>
</clipPath>
<clipPath id="clip3">
<rect width="28" height="28" fill="white" transform="translate(88 519)"/>
</clipPath>
<clipPath id="clip4">
<rect width="24" height="24" fill="white" transform="translate(387 403)"/>
</clipPath>
</defs>
</svg>
