<svg width="112" height="135" viewBox="0 0 112 135" fill="none" xmlns="http://www.w3.org/2000/svg">
<path d="M101.839 59.6279C98.1412 59.5566 94.9569 61.8778 93.7589 65.1707C92.1075 66.0059 88.4371 66.5781 80.2875 65.1725C76.3045 64.4856 74.7023 61.9718 74.0836 60.4254C73.7596 58.0277 73.146 55.681 72.262 53.4392C72.1548 52.1494 72.1801 49.5064 73.9446 48.1631C77.4712 45.4784 78.9389 44.987 79.5472 45.0112C79.6812 45.105 79.8234 45.184 79.9713 45.2478L79.9735 45.2516L79.9728 45.2484C80.719 45.5696 81.609 45.5033 82.3165 44.9953C83.3929 44.2224 83.6393 42.7196 82.867 41.6388C82.0946 40.558 80.5959 40.3085 79.5195 41.0814C78.7533 41.6316 78.4076 42.5516 78.5507 43.426C78.2052 44.0787 76.9149 45.2287 72.722 46.9989C70.8581 47.7859 69.0041 46.7393 67.9831 45.9625C65.8566 43.2484 63.2335 40.8733 60.1686 38.9899C59.4677 37.6659 58.9252 35.9278 59.5004 34.2101C60.901 30.0272 62.1478 28.2011 63.0499 27.4236C65.4796 28.0232 68.0552 26.8002 69.0821 24.4243C70.2285 21.7719 69.0106 18.687 66.3617 17.534C63.7129 16.3809 60.6363 17.5964 59.4899 20.2488C58.5839 22.3449 59.1545 24.7111 60.741 26.1805C60.8271 27.3329 60.2853 29.5824 57.5638 33.9302C56.7058 35.3009 55.3553 35.9 54.1054 36.1399C48.8552 34.3551 43.3779 34.1295 38.2348 35.2622C35.8001 35.4772 30.2488 35.4942 27.3092 31.7037C22.7469 25.8206 21.3271 22.3432 21.062 20.3283C24.1882 17.4493 24.8756 12.6416 22.4821 8.94779C19.8131 4.82894 14.3241 3.65472 10.2221 6.32509C6.11998 8.99546 4.95819 14.4992 7.62712 18.6181C9.74031 21.8793 13.6214 23.2945 17.1822 22.4169C18.8889 23.3981 21.5423 26.2954 25.1047 34.1851C26.5316 37.3453 25.4933 40.462 24.272 42.625C21.6315 45.1091 19.4042 48.1233 17.7645 51.605C13.2836 61.1204 14.2784 71.8209 19.4697 80.1351L19.3051 79.9835C19.3051 79.9835 22.1535 85.5921 19.4441 89.3734C16.2028 93.8971 14.0212 95.635 12.6444 96.2364C9.93542 94.6108 6.37616 95.1269 4.25705 97.6089C1.89036 100.381 2.21625 104.555 4.98493 106.932C7.75361 109.31 11.9166 108.99 14.2833 106.218C16.1547 104.026 16.3426 100.957 14.9705 98.5936C15.2947 97.1714 16.7833 94.6605 21.6771 90.4323C24.0068 88.4193 27.0389 88.9447 28.8373 89.5378C29.8329 90.164 30.876 90.738 31.9647 91.2542C33.6064 92.0327 35.2832 92.6474 36.9766 93.1049C37.4793 94.0215 38.436 96.3785 37.5723 99.9694C35.6314 108.039 34.722 109.909 34.3571 110.315C34.2962 110.342 34.2361 110.372 34.1767 110.405L34.1492 110.401C34.1492 110.401 34.1504 110.402 34.1528 110.404C34.1552 110.407 34.1588 110.41 34.1637 110.412C33.492 110.789 32.9297 111.499 32.7414 112.302C32.4672 113.471 33.0908 114.394 34.1344 114.364C35.1779 114.333 36.2462 113.36 36.5204 112.191C36.7285 111.303 36.4194 110.557 35.8019 110.263C35.7815 109.37 36.2587 106.783 38.857 99.3725C39.9498 96.2559 41.6483 94.7283 42.6567 94.0571C45.6684 94.2627 48.6685 94.0022 51.5563 93.3119C54.5289 94.0239 57.8247 95.5214 59.7189 98.6349C64.5366 106.554 65.8049 111.055 65.8502 113.584C61.5784 116.702 60.053 122.552 62.4957 127.458C65.2191 132.928 71.8434 135.155 77.2915 132.432C82.7397 129.708 84.9486 123.066 82.2252 117.596C80.0694 113.266 75.4693 110.968 70.9431 111.549C68.9698 110.096 66.0937 106.139 62.7935 95.8775C61.6782 92.4095 62.73 89.2277 64.1757 86.8149C66.2728 84.9862 68.1355 82.8394 69.6841 80.4029C70.5205 80.2363 71.4151 80.2494 72.2547 80.6348C76.2428 82.465 77.39 83.5269 77.6732 84.081C77.5534 85.0685 78.0578 86.0684 78.9996 86.5327C80.1896 87.1193 81.6273 86.6289 82.2108 85.4373C82.7943 84.2457 82.3026 82.8042 81.1126 82.2175C80.2627 81.7985 79.2864 81.9289 78.5852 82.4718C77.8398 82.4648 76.2149 81.8538 72.6978 79.0062C72.0584 78.4885 71.6851 77.83 71.4804 77.1456L71.5075 77.0882C71.7752 76.5198 72.0233 75.9471 72.2522 75.371C73.1566 73.6178 76.1807 68.5509 81.0635 68.2293C88.1831 67.7603 91.6598 68.5172 93.3564 69.3947C93.9858 73.3672 97.3864 76.4408 101.542 76.5209C106.201 76.6107 110.045 72.9019 110.128 68.237C110.21 63.5722 106.499 59.7177 101.839 59.6279Z" fill="#4B5D6B"/>
<path d="M44.8686 21.812C45.0534 23.1286 44.1402 24.3446 42.8289 24.528C41.5177 24.7113 40.305 23.7925 40.1202 22.4759C39.9355 21.1592 40.8487 19.9432 42.1599 19.7599C43.4712 19.5766 44.6839 20.4953 44.8686 21.812Z" fill="#4B5D6B"/>
<path d="M16.8028 86.582C17.6417 86.4647 18.2259 85.6867 18.1077 84.8443C17.9895 84.002 17.2137 83.4142 16.3747 83.5314C15.5358 83.6487 14.9516 84.4267 15.0698 85.2691C15.188 86.1115 15.9638 86.6993 16.8028 86.582Z" fill="#4B5D6B"/>
<path d="M72.4862 90.292C72.5439 90.703 72.2588 91.0826 71.8495 91.1398C71.4402 91.197 71.0617 90.9102 71.004 90.4992C70.9464 90.0882 71.2314 89.7087 71.6407 89.6515C72.05 89.5942 72.4285 89.881 72.4862 90.292Z" fill="#4B5D6B"/>
<path d="M69.9153 132.12C71.8253 132.543 73.8126 132.447 75.6718 131.842C77.5309 131.237 79.1944 130.145 80.4901 128.68L80.3426 128.549C79.0702 129.988 77.4366 131.06 75.6108 131.654C73.7849 132.248 71.8332 132.342 69.9576 131.927L69.9153 132.12Z" fill="white"/>
<path d="M7.70667 107.409C8.85479 107.663 10.0494 107.606 11.1671 107.242C12.2847 106.879 13.2846 106.222 14.0635 105.341L13.9748 105.263C13.21 106.128 12.2279 106.772 11.1304 107.129C10.0328 107.486 8.85958 107.543 7.73206 107.293L7.70667 107.409Z" fill="white"/>
<path d="M12.7906 20.8347C14.3337 21.1763 15.9393 21.0989 17.4414 20.6102C18.9435 20.1216 20.2874 19.2397 21.3342 18.0555L21.2151 17.9498C20.1871 19.1127 18.8672 19.9789 17.3921 20.4587C15.917 20.9385 14.3401 21.0146 12.8247 20.6791L12.7906 20.8347Z" fill="white"/>
<path d="M69.7377 130.936C72.3843 131.522 75.1527 131.107 77.5095 129.77L77.4345 129.637C75.1103 130.956 72.3803 131.365 69.7703 130.787L69.7377 130.936Z" fill="white"/>
<path d="M7.02794 106.906C8.61895 107.258 10.2831 107.009 11.6998 106.205L11.6548 106.126C10.2576 106.918 8.61652 107.164 7.04754 106.817L7.02794 106.906Z" fill="white"/>
<path d="M12.7633 19.5972C14.9016 20.0708 17.1382 19.7353 19.0424 18.6554L18.9818 18.5483C17.104 19.6133 14.8984 19.9442 12.7896 19.4771L12.7633 19.5972Z" fill="white"/>
<path d="M99.4139 75.7129C100.882 76.0379 102.41 75.9642 103.839 75.4993C105.268 75.0344 106.547 74.1953 107.542 73.0687L107.429 72.9681C106.451 74.0745 105.195 74.8986 103.792 75.3551C102.388 75.8117 100.888 75.8841 99.4464 75.5649L99.4139 75.7129Z" fill="white"/>
<path d="M63.0134 26.8666C63.923 27.068 64.8694 27.0224 65.7548 26.7343C66.6402 26.4463 67.4324 25.9265 68.0494 25.2285L67.9792 25.1662C67.3732 25.8516 66.5953 26.3622 65.7258 26.645C64.8562 26.9279 63.9268 26.9727 63.0336 26.7749L63.0134 26.8666Z" fill="white"/>
<path d="M80.1028 44.994C80.5206 45.0865 80.9553 45.0656 81.362 44.9333C81.7686 44.801 82.1325 44.5622 82.4159 44.2416L82.3837 44.213C82.1053 44.5278 81.748 44.7623 81.3486 44.8922C80.9492 45.0222 80.5223 45.0428 80.112 44.9519L80.1028 44.994Z" fill="white"/>
<path d="M79.2881 86.2318C79.7058 86.3243 80.1406 86.3033 80.5472 86.1711C80.9539 86.0388 81.3178 85.8 81.6012 85.4794L81.569 85.4508C81.2906 85.7656 80.9333 86.0001 80.5339 86.13C80.1345 86.2599 79.7076 86.2805 79.2973 86.1897L79.2881 86.2318Z" fill="white"/>
<path d="M33.3567 113.744C33.7745 113.837 34.2092 113.816 34.6158 113.684C35.0225 113.551 35.3864 113.312 35.6698 112.992L35.6376 112.963C35.3592 113.278 35.0019 113.513 34.6025 113.642C34.2031 113.772 33.7762 113.793 33.3659 113.702L33.3567 113.744Z" fill="white"/>
<path d="M99.2205 74.8275C101.255 75.2781 103.383 74.9589 105.195 73.9314L105.137 73.8296C103.35 74.8429 101.252 75.1576 99.2456 74.7132L99.2205 74.8275Z" fill="white"/>
<path d="M62.9516 26.3498C64.2121 26.629 65.5304 26.4312 66.6528 25.7947L66.6171 25.7316C65.5102 26.3593 64.2102 26.5543 62.9672 26.279L62.9516 26.3498Z" fill="white"/>
<path d="M80.0414 44.4776C80.6204 44.6058 81.2259 44.515 81.7415 44.2226L81.7251 44.1936C81.2167 44.482 80.6195 44.5715 80.0486 44.4451L80.0414 44.4776Z" fill="white"/>
<path d="M79.2267 85.7153C79.8056 85.8435 80.4112 85.7527 80.9267 85.4603L80.9103 85.4313C80.4019 85.7196 79.8048 85.8092 79.2338 85.6828L79.2267 85.7153Z" fill="white"/>
<path d="M33.2954 113.228C33.8743 113.356 34.4798 113.265 34.9954 112.973L34.979 112.944C34.4706 113.232 33.8734 113.322 33.3025 113.195L33.2954 113.228Z" fill="white"/>
<ellipse cx="45.1406" cy="64.7835" rx="25.2753" ry="25.3433" fill="#F8F8F8"/>
<g clip-path="url(#clip0)">
<path d="M55.1086 68.9589L53.3323 68.4373L49.4678 65.9132V65.3348C50.5867 64.4909 51.355 63.2009 51.4978 61.7222C52.059 61.6318 52.4889 61.1442 52.4889 60.5581V58.9676C52.4889 58.9615 52.4883 58.9555 52.488 58.9493V56.9347C52.7115 56.7746 52.8534 56.5138 52.8534 56.2214V54.3776L55.5204 53.9234C55.9587 53.8487 56.2739 53.5006 56.3049 53.0571C56.3357 52.6136 56.0719 52.2251 55.6482 52.0903L46.6574 49.2306C46.4698 49.1709 46.2717 49.171 46.0842 49.2306L37.0933 52.0903C36.6696 52.2251 36.4057 52.6136 36.4366 53.057C36.4563 53.3388 36.5909 53.5818 36.7988 53.7409V56.1519H36.7768C36.2705 56.1519 35.8586 56.5638 35.8586 57.0701V58.2669L35.2659 61.7457C35.1634 62.3475 35.6269 62.8982 36.2387 62.8982H38.2455C38.8559 62.8982 39.321 62.3488 39.2183 61.7457L38.6256 58.2669V57.0701C38.6256 56.5638 38.2137 56.1519 37.7074 56.1519H37.6854V54.0024L39.89 54.3779V56.2214C39.89 56.5126 40.0312 56.7729 40.2537 56.9332L40.2545 58.9678V60.5581C40.2545 61.1443 40.6844 61.6318 41.2456 61.7222C41.3883 63.2 42.1559 64.4894 43.2737 65.3335V65.9145L39.41 68.4382L37.6351 68.9592C35.7359 69.5166 34.3949 71.2602 34.3949 73.2871V74.6083C34.3949 74.8532 34.5933 75.0517 34.8382 75.0517C35.0831 75.0517 35.2816 74.8532 35.2816 74.6083V73.2871C35.2816 71.6896 36.352 70.2598 37.8849 69.8099L39.5386 69.3245L46.1453 73.2503C46.2795 73.33 46.4569 73.3342 46.5983 73.2503L53.2054 69.3242L54.859 69.8097C56.3916 70.2596 57.462 71.6894 57.462 73.2868V77.5687C57.462 78.118 57.0152 78.5648 56.466 78.5648H54.5119V76.6538C54.5119 76.409 54.3135 76.2105 54.0686 76.2105C53.8237 76.2105 53.6252 76.4089 53.6252 76.6538V78.5648H39.1162V76.6538C39.1162 76.409 38.9178 76.2105 38.6729 76.2105C38.428 76.2105 38.2296 76.4089 38.2296 76.6538V78.5648H36.2775C35.7283 78.5648 35.2815 78.118 35.2815 77.5687V76.6808C35.2815 76.4359 35.083 76.2374 34.8381 76.2374C34.5932 76.2374 34.3948 76.4359 34.3948 76.6808V77.5687C34.3948 78.6068 35.2393 79.4514 36.2774 79.4514H56.4659C57.504 79.4514 58.3485 78.6068 58.3485 77.5687V73.2867C58.3485 71.3076 57.0533 69.5298 55.1086 68.9589ZM38.2454 62.0115H36.2387C36.1767 62.0115 36.1294 61.9561 36.1399 61.8946L36.676 58.7477H37.808L38.3442 61.8945C38.3546 61.956 38.3077 62.0115 38.2454 62.0115ZM37.7389 57.0701V57.8611H36.7451V57.0701C36.7451 57.0526 36.7593 57.0385 36.7767 57.0385H37.7072C37.7247 57.0385 37.7389 57.0526 37.7389 57.0701ZM44.7861 71.2449L44.9626 71.5161L40.4364 68.8266L43.3093 66.9501C43.4396 68.4788 43.9435 69.9498 44.7861 71.2449ZM44.783 69.3311C45.8266 69.4793 46.9162 69.4795 47.9603 69.3311C47.7586 69.8275 47.51 70.3066 47.2141 70.7614L46.3717 72.0562L45.5293 70.7614C45.2334 70.3066 44.9848 69.8275 44.783 69.3311ZM47.9573 71.2449C48.7999 69.9498 49.3038 68.4788 49.434 66.9501L52.3069 68.8266L47.7808 71.5161L47.9573 71.2449ZM50.5506 57.0998H51.6014V58.5242H51.0798C50.788 58.5242 50.5505 58.2869 50.5505 57.995V57.0998H50.5506ZM37.362 52.9353L46.353 50.0754C46.3645 50.0718 46.377 50.0717 46.3887 50.0755L55.3796 52.9353C55.3982 52.9412 55.4237 52.9493 55.4204 52.9954C55.4172 53.0415 55.3909 53.046 55.3716 53.0493L52.399 53.5556L51.2829 53.4175C51.0401 53.3874 50.8186 53.5602 50.7886 53.8031C50.7585 54.0461 50.9312 54.2675 51.1742 54.2975L51.9668 54.3956V56.2131L40.7766 56.2127V54.3955L45.3641 53.8278C46.0323 53.7453 46.7098 53.7453 47.3775 53.8278L49.1138 54.0426C49.3567 54.0727 49.5781 53.9 49.6082 53.6571C49.6383 53.4141 49.4656 53.1927 49.2227 53.1626L47.4864 52.9479C46.7465 52.8563 45.9957 52.8563 45.2553 52.9479L40.3434 53.5557L37.3699 53.0493C37.3506 53.046 37.3243 53.0415 37.3211 52.9954C37.3179 52.9493 37.3434 52.9412 37.362 52.9353ZM41.1409 58.5242L41.1403 57.0998H42.1928V57.9951C42.1928 58.2869 41.9554 58.5243 41.6635 58.5243H41.1409V58.5242ZM42.1167 61.4943C42.0939 61.1333 41.7938 60.8505 41.4336 60.8505C41.2723 60.8505 41.1411 60.7193 41.1411 60.558V59.4109H41.6635C42.4442 59.4109 43.0794 58.7758 43.0794 57.9951V57.0998H49.6639V57.9951C49.6639 58.7758 50.2991 59.4109 51.0798 59.4109H51.6022V60.558C51.6022 60.7193 51.471 60.8505 51.3097 60.8505C50.9495 60.8505 50.6495 61.1333 50.6266 61.4943C50.4854 63.7329 48.6164 65.4864 46.3716 65.4864C44.1268 65.4864 42.2579 63.7329 42.1167 61.4943ZM46.3717 66.3731C47.1602 66.3731 47.9096 66.1928 48.5812 65.8722V66.1532C48.5812 66.9112 48.4789 67.6589 48.282 68.38C47.0772 68.6097 45.7151 68.619 44.4614 68.38C44.2645 67.6589 44.1622 66.9112 44.1622 66.1532C44.1622 66.1438 44.1609 66.1346 44.1603 66.1253C44.1602 66.1235 44.1604 66.1217 44.1602 66.1198V65.8713C44.8323 66.1924 45.5824 66.3731 46.3717 66.3731Z" fill="#4B5D6B"/>
</g>
<defs>
<clipPath id="clip0">
<rect width="30.2655" height="30.2655" fill="white" transform="translate(31.239 49.1859)"/>
</clipPath>
</defs>
</svg>
