<svg width="112" height="135" viewBox="0 0 112 135" fill="none" xmlns="http://www.w3.org/2000/svg">
<path d="M101.839 59.2959C98.1413 59.2246 94.9569 61.5458 93.759 64.8387C92.1076 65.6739 88.4371 66.2461 80.2876 64.8405C76.3045 64.1535 74.7023 61.6398 74.0837 60.0934C73.7597 57.6956 73.1461 55.349 72.2621 53.1072C72.1548 51.8174 72.1802 49.1744 73.9446 47.8311C77.4712 45.1464 78.939 44.655 79.5473 44.6792C79.6813 44.773 79.8235 44.852 79.9714 44.9157L79.9735 44.9196L79.9728 44.9164C80.7191 45.2376 81.6091 45.1713 82.3166 44.6633C83.393 43.8903 83.6394 42.3876 82.867 41.3068C82.0946 40.226 80.5959 39.9764 79.5196 40.7493C78.7533 41.2996 78.4077 42.2196 78.5507 43.094C78.2052 43.7466 76.9149 44.8967 72.7221 46.6669C70.8582 47.4538 69.0042 46.4073 67.9831 45.6305C65.8567 42.9164 63.2336 40.5412 60.1687 38.6579C59.4677 37.3339 58.9253 35.5958 59.5004 33.8781C60.9011 29.6952 62.1478 27.8691 63.05 27.0916C65.4796 27.6911 68.0553 26.4682 69.0822 24.0923C70.2286 21.4399 69.0106 18.355 66.3618 17.2019C63.713 16.0489 60.6363 17.2644 59.4899 19.9168C58.584 22.0129 59.1546 24.3791 60.7411 25.8485C60.8272 27.0009 60.2854 29.2503 57.5639 33.5982C56.7059 34.9689 55.3553 35.568 54.1055 35.8079C48.8553 34.023 43.3779 33.7975 38.2349 34.9301C35.8001 35.1452 30.2488 35.1622 27.3093 31.3717C22.7469 25.4886 21.3271 22.0111 21.0621 19.9963C24.1882 17.1173 24.8757 12.3096 22.4821 8.61576C19.8132 4.49691 14.3242 3.32268 10.2221 5.99306C6.12005 8.66343 4.95825 14.1672 7.62718 18.286C9.74037 21.5472 13.6215 22.9624 17.1823 22.0849C18.889 23.0661 21.5424 25.9634 25.1047 33.8531C26.5317 37.0133 25.4934 40.13 24.272 42.293C21.6316 44.7771 19.4042 47.7912 17.7646 51.273C13.2836 60.7883 14.2784 71.4889 19.4697 79.803L19.3052 79.6515C19.3052 79.6515 22.1536 85.2601 19.4442 89.0414C16.2028 93.5651 14.0213 95.303 12.6445 95.9044C9.93548 94.2787 6.37622 94.7949 4.25711 97.2769C1.89042 100.049 2.21631 104.223 4.98499 106.6C7.75367 108.978 11.9167 108.658 14.2834 105.886C16.1548 103.694 16.3427 100.625 14.9706 98.2616C15.2948 96.8394 16.7833 94.3285 21.6771 90.1002C24.0069 88.0873 27.0389 88.6126 28.8374 89.2058C29.8329 89.832 30.876 90.4059 31.9648 90.9222C33.6065 91.7006 35.2832 92.3153 36.9766 92.7729C37.4794 93.6895 38.4361 96.0465 37.5724 99.6374C35.6315 107.707 34.7221 109.577 34.3571 109.983C34.2963 110.01 34.2361 110.04 34.1768 110.073L34.1493 110.069C34.1493 110.069 34.1505 110.07 34.1529 110.072C34.1553 110.075 34.1589 110.078 34.1638 110.08C33.4921 110.457 32.9297 111.167 32.7415 111.97C32.4673 113.139 33.0909 114.062 34.1344 114.032C35.178 114.001 36.2462 113.028 36.5204 111.859C36.7286 110.971 36.4194 110.225 35.8019 109.931C35.7816 109.038 36.2588 106.451 38.8571 99.0404C39.9498 95.9239 41.6484 94.3963 42.6568 93.7251C45.6685 93.9306 48.6686 93.6702 51.5563 92.9798C54.529 93.6919 57.8248 95.1894 59.7189 98.3028C64.5366 106.222 65.805 110.723 65.8503 113.252C61.5784 116.37 60.053 122.22 62.4958 127.126C65.2191 132.596 71.8434 134.823 77.2916 132.1C82.7397 129.376 84.9486 122.734 82.2253 117.264C80.0695 112.934 75.4694 110.636 70.9432 111.217C68.9698 109.764 66.0938 105.807 62.7936 95.5454C61.6783 92.0775 62.73 88.8957 64.1758 86.4829C66.2728 84.6542 68.1355 82.5073 69.6841 80.0709C70.5205 79.9042 71.4151 79.9174 72.2548 80.3027C76.2429 82.133 77.3901 83.1949 77.6733 83.7489C77.5535 84.7365 78.0579 85.7363 78.9997 86.2006C80.1897 86.7873 81.6274 86.2969 82.2109 85.1053C82.7944 83.9137 82.3027 82.4721 81.1127 81.8855C80.2627 81.4664 79.2864 81.5969 78.5853 82.1398C77.8398 82.1327 76.2149 81.5218 72.6978 78.6741C72.0585 78.1565 71.6852 77.498 71.4805 76.8136L71.5076 76.7561C71.7752 76.1877 72.0234 75.6151 72.2522 75.039C73.1567 73.2857 76.1807 68.2189 81.0635 67.8973C88.1831 67.4283 91.6599 68.1851 93.3564 69.0627C93.9858 73.0351 97.3865 76.1087 101.542 76.1889C106.201 76.2787 110.046 72.5699 110.128 67.905C110.21 63.2401 106.499 59.3857 101.839 59.2959Z" fill="#4B5D6B"/>
<path d="M44.8687 21.4799C45.0534 22.7966 44.1402 24.0126 42.829 24.1959C41.5178 24.3793 40.305 23.4605 40.1203 22.1438C39.9356 20.8272 40.8488 19.6112 42.16 19.4279C43.4712 19.2445 44.684 20.1633 44.8687 21.4799Z" fill="#4B5D6B"/>
<path d="M16.8028 86.25C17.6417 86.1327 18.226 85.3547 18.1078 84.5123C17.9896 83.6699 17.2137 83.0821 16.3748 83.1994C15.5359 83.3167 14.9516 84.0947 15.0698 84.9371C15.188 85.7794 15.9639 86.3672 16.8028 86.25Z" fill="#4B5D6B"/>
<path d="M72.4863 89.96C72.5439 90.371 72.2589 90.7505 71.8496 90.8078C71.4403 90.865 71.0617 90.5782 71.0041 90.1672C70.9464 89.7562 71.2315 89.3767 71.6408 89.3194C72.05 89.2622 72.4286 89.549 72.4863 89.96Z" fill="#4B5D6B"/>
<path d="M69.9153 131.788C71.8253 132.211 73.8126 132.115 75.6718 131.51C77.5309 130.905 79.1944 129.813 80.4901 128.348L80.3426 128.217C79.0702 129.656 77.4366 130.728 75.6108 131.322C73.7849 131.916 71.8332 132.01 69.9576 131.595L69.9153 131.788Z" fill="white"/>
<path d="M7.70667 107.077C8.85479 107.331 10.0494 107.274 11.1671 106.91C12.2847 106.547 13.2846 105.89 14.0635 105.009L13.9748 104.931C13.21 105.796 12.2279 106.44 11.1304 106.797C10.0328 107.154 8.85958 107.211 7.73206 106.961L7.70667 107.077Z" fill="white"/>
<path d="M12.7906 20.5027C14.3337 20.8443 15.9393 20.7668 17.4414 20.2782C18.9435 19.7896 20.2874 18.9076 21.3342 17.7235L21.2151 17.6178C20.1871 18.7807 18.8672 19.6468 17.3921 20.1267C15.917 20.6065 14.3401 20.6826 12.8247 20.3471L12.7906 20.5027Z" fill="white"/>
<path d="M69.7377 130.604C72.3843 131.19 75.1527 130.775 77.5095 129.438L77.4345 129.305C75.1103 130.624 72.3803 131.033 69.7703 130.455L69.7377 130.604Z" fill="white"/>
<path d="M7.02794 106.574C8.61895 106.926 10.2831 106.677 11.6998 105.873L11.6548 105.794C10.2576 106.586 8.61652 106.832 7.04754 106.485L7.02794 106.574Z" fill="white"/>
<path d="M12.7633 19.2651C14.9016 19.7388 17.1382 19.4033 19.0424 18.3233L18.9818 18.2163C17.104 19.2813 14.8984 19.6121 12.7896 19.145L12.7633 19.2651Z" fill="white"/>
<path d="M99.4139 75.3808C100.882 75.7059 102.41 75.6322 103.839 75.1673C105.268 74.7024 106.547 73.8633 107.542 72.7367L107.429 72.6361C106.451 73.7425 105.195 74.5666 103.792 75.0231C102.388 75.4796 100.888 75.552 99.4464 75.2328L99.4139 75.3808Z" fill="white"/>
<path d="M63.0134 26.5346C63.923 26.736 64.8694 26.6903 65.7548 26.4023C66.6402 26.1143 67.4324 25.5944 68.0494 24.8965L67.9792 24.8341C67.3732 25.5196 66.5953 26.0301 65.7258 26.313C64.8562 26.5958 63.9268 26.6407 63.0336 26.4429L63.0134 26.5346Z" fill="white"/>
<path d="M80.1028 44.662C80.5206 44.7545 80.9553 44.7335 81.362 44.6012C81.7686 44.4689 82.1325 44.2302 82.4159 43.9096L82.3837 43.8809C82.1053 44.1958 81.748 44.4303 81.3486 44.5602C80.9492 44.6901 80.5223 44.7107 80.112 44.6199L80.1028 44.662Z" fill="white"/>
<path d="M79.2881 85.8998C79.7058 85.9923 80.1406 85.9713 80.5472 85.839C80.9539 85.7067 81.3178 85.4679 81.6012 85.1473L81.569 85.1187C81.2906 85.4336 80.9333 85.6681 80.5339 85.798C80.1345 85.9279 79.7076 85.9485 79.2973 85.8577L79.2881 85.8998Z" fill="white"/>
<path d="M33.3567 113.412C33.7745 113.505 34.2092 113.484 34.6158 113.351C35.0225 113.219 35.3864 112.98 35.6698 112.66L35.6376 112.631C35.3592 112.946 35.0019 113.181 34.6025 113.31C34.2031 113.44 33.7762 113.461 33.3659 113.37L33.3567 113.412Z" fill="white"/>
<path d="M99.2205 74.4955C101.255 74.9461 103.383 74.6269 105.195 73.5994L105.137 73.4976C103.35 74.5108 101.252 74.8256 99.2456 74.3812L99.2205 74.4955Z" fill="white"/>
<path d="M62.9516 26.0178C64.2121 26.2969 65.5304 26.0992 66.6528 25.4626L66.6171 25.3995C65.5102 26.0273 64.2102 26.2223 62.9672 25.947L62.9516 26.0178Z" fill="white"/>
<path d="M80.0414 44.1455C80.6204 44.2738 81.2259 44.183 81.7415 43.8906L81.7251 43.8616C81.2167 44.1499 80.6195 44.2395 80.0486 44.113L80.0414 44.1455Z" fill="white"/>
<path d="M79.2267 85.3832C79.8056 85.5115 80.4112 85.4206 80.9267 85.1282L80.9103 85.0993C80.4019 85.3876 79.8048 85.4772 79.2338 85.3507L79.2267 85.3832Z" fill="white"/>
<path d="M33.2954 112.896C33.8743 113.024 34.4798 112.933 34.9954 112.641L34.979 112.612C34.4706 112.9 33.8734 112.99 33.3025 112.863L33.2954 112.896Z" fill="white"/>
<ellipse cx="45.1405" cy="64.4514" rx="25.2753" ry="25.3433" fill="#F8F8F8"/>
<g clip-path="url(#clip0)">
<path d="M34.5125 61.9648C34.7559 61.9648 34.9532 61.7675 34.9532 61.524V60.5026C34.9532 60.2591 34.7559 60.0618 34.5125 60.0618C34.2691 60.0618 34.0717 60.2591 34.0717 60.5026V61.524C34.0717 61.7675 34.269 61.9648 34.5125 61.9648Z" fill="#4B5D6B"/>
<path d="M38.9281 61.9648C39.1715 61.9648 39.3688 61.7675 39.3688 61.524V60.5026C39.3688 60.2591 39.1715 60.0618 38.9281 60.0618C38.6847 60.0618 38.4874 60.2591 38.4874 60.5026V61.524C38.4874 61.7675 38.6847 61.9648 38.9281 61.9648Z" fill="#4B5D6B"/>
<path d="M38.9031 64.6154C39.0727 64.5638 39.1949 64.4157 39.2132 64.2393C39.2174 64.199 39.3086 63.2421 38.6619 62.5247C38.2178 62.032 37.5573 61.7822 36.6988 61.7822C35.8404 61.7822 35.1799 62.032 34.7357 62.5247C34.089 63.2421 34.1802 64.199 34.1844 64.2393C34.2027 64.4157 34.3249 64.5638 34.4946 64.6154C35.0158 64.7739 36.0233 64.8453 36.6988 64.238C37.1103 64.6079 37.6448 64.7261 38.1176 64.7261C38.4211 64.726 38.6993 64.6774 38.9031 64.6154ZM37.0957 63.3327C37.0897 63.3203 37.0831 63.3081 37.0759 63.2961C36.996 63.1643 36.8531 63.0839 36.699 63.0839H36.6987C36.5446 63.0839 36.4017 63.1643 36.3218 63.2961C36.3146 63.3081 36.3079 63.3203 36.302 63.3327C36.026 63.8458 35.4434 63.8747 35.0756 63.8335C35.1056 63.6223 35.1856 63.3422 35.3905 63.1149C35.6604 62.8155 36.1006 62.6637 36.6989 62.6637C37.2935 62.6637 37.732 62.8136 38.0022 63.1094C38.21 63.3368 38.291 63.6202 38.3214 63.8335C37.9532 63.8745 37.3715 63.8452 37.0957 63.3327Z" fill="#4B5D6B"/>
<path d="M58.5592 73.9598C58.8027 73.9598 58.9999 73.7625 58.9999 73.5191V72.0732C58.9999 70.6202 58.4853 69.2852 57.6288 68.2405C58.8869 67.3873 58.9945 66.0824 58.9988 66.021C59.0128 65.8219 58.8951 65.6398 58.7064 65.5749C58.704 65.5739 58.4535 65.4804 58.2409 65.2451C57.9717 64.9473 57.8779 64.5486 57.9621 64.06C58.5024 60.9243 58.6615 56.6107 56.3516 53.8688C55.1186 52.4052 53.3173 51.5992 51.2796 51.5992C49.8526 51.5992 48.5255 51.9951 47.4416 52.7441C47.2414 52.8824 47.1912 53.1569 47.3296 53.3572C47.4678 53.5574 47.7425 53.6077 47.9427 53.4692C48.8786 52.8225 50.0325 52.4807 51.2796 52.4807C52.5341 52.4807 54.3155 52.82 55.6774 54.4368C57.333 56.4019 57.8226 59.6779 57.0935 63.9104C56.8794 65.1523 57.512 65.897 58.0632 66.2368C57.9652 66.5828 57.7012 67.1739 57.0096 67.5892C56.1761 66.833 55.1315 66.3057 53.9761 66.1066C55.3585 65.2168 56.2767 63.6655 56.2767 61.9028V59.549C56.2767 59.3742 56.1734 59.216 56.0135 59.1456C54.2366 58.3633 53.3113 55.9247 53.3022 55.9001C53.244 55.7436 53.1024 55.6333 52.9363 55.6153C52.7703 55.5979 52.608 55.675 52.5178 55.8158C50.7608 58.5596 46.8173 59.1803 46.6662 59.2029C46.4497 59.2308 46.2823 59.4159 46.2823 59.64V61.9028C46.2823 63.6655 47.2006 65.2168 48.583 66.1066C47.4276 66.3057 46.383 66.833 45.5495 67.5892C44.8572 67.1735 44.5933 66.5818 44.4956 66.237C45.0469 65.8972 45.6796 65.1526 45.4656 63.9104C44.7563 59.7927 45.2025 56.57 46.7564 54.5907C46.9067 54.3993 46.8734 54.1222 46.6819 53.9719C46.4906 53.8216 46.2134 53.855 46.0631 54.0464C44.3511 56.2272 43.8441 59.6899 44.597 64.06C44.6812 64.5486 44.5873 64.9473 44.3182 65.2451C44.1061 65.4799 43.8563 65.5734 43.8564 65.5734C43.6678 65.6384 43.5462 65.8219 43.5602 66.0209C43.5645 66.0823 43.6721 67.3873 44.9302 68.2405C44.546 68.7091 44.2309 69.2362 43.9999 69.8061C43.2252 67.8948 41.5017 66.4658 39.4167 66.1066C40.3472 65.5076 41.0667 64.6092 41.4379 63.5477C42.5168 63.5455 43.3937 62.6672 43.3937 61.5878C43.3937 61.2978 43.3299 61.0226 43.2165 60.7748C44.0407 58.3432 43.9982 56.4278 43.0886 55.0799C42.1972 53.7591 40.7435 53.396 40.0954 53.2978C39.9727 52.9572 39.6913 52.4359 39.0564 52.0159C37.6478 51.0843 35.2861 51.1088 32.0366 52.0887C30.8226 52.4551 29.9907 53.1335 29.564 54.1055C28.919 55.5747 29.2301 57.6752 30.4878 60.3509C30.2123 60.6885 30.0467 61.1192 30.0467 61.588C30.0467 62.6674 30.9237 63.5456 32.0026 63.5479C32.374 64.6098 33.094 65.5086 34.0252 66.1076C32.9399 66.2947 31.9195 66.7745 31.0799 67.5058C30.8963 67.6657 30.8772 67.944 31.037 68.1276C31.1969 68.3112 31.4752 68.3303 31.6588 68.1706C32.4435 67.4871 33.413 67.061 34.4378 66.9381C34.4956 67.3798 34.6612 68.0272 35.1292 68.509C35.531 68.9227 36.0663 69.1324 36.7203 69.1324C37.3746 69.1324 37.9102 68.9223 38.3121 68.5082C38.7803 68.0257 38.9456 67.3786 39.0031 66.937C41.5657 67.2431 43.5591 69.4296 43.5591 72.0733V77.1193H41.5648V72.7674C41.5648 72.5239 41.3674 72.3266 41.124 72.3266C40.8806 72.3266 40.6833 72.5239 40.6833 72.7674V77.1193H32.7573V72.7674C32.7573 72.5239 32.5599 72.3266 32.3165 72.3266C32.0731 72.3266 31.8758 72.5239 31.8758 72.7674V77.1193H29.8814V72.0733C29.8814 71.1338 30.1357 70.214 30.6166 69.4134C30.7419 69.2048 30.6744 68.934 30.4658 68.8087C30.257 68.6833 29.9864 68.7509 29.861 68.9595C29.2977 69.8971 28.9999 70.9739 28.9999 72.0732V77.5599C28.9999 77.8034 29.1973 78.0007 29.4407 78.0007H58.5592C58.8027 78.0007 58.9999 77.8034 58.9999 77.5599V75.282C58.9999 75.0385 58.8027 74.8412 58.5592 74.8412C58.3157 74.8412 58.1185 75.0385 58.1185 75.282V77.1192H56.124V72.7672C56.124 72.5238 55.9268 72.3265 55.6833 72.3265C55.4398 72.3265 55.2426 72.5238 55.2426 72.7672V77.1192H47.3165V72.7672C47.3165 72.5238 47.1192 72.3265 46.8758 72.3265C46.6323 72.3265 46.435 72.5238 46.435 72.7672V77.1192H44.4407V72.0732C44.4407 72.0724 44.4407 72.0717 44.4407 72.0709C44.4418 69.4306 46.4313 67.2467 48.9899 66.9377C49.0477 67.3796 49.2133 68.0274 49.6815 68.5091C50.0833 68.9225 50.6186 69.1322 51.2723 69.1322C51.9268 69.1322 52.4625 68.9221 52.8645 68.5077C53.333 68.0247 53.4981 67.3775 53.5553 66.936C56.1214 67.2389 58.1185 69.427 58.1185 72.0731V73.5189C58.1185 73.7625 58.3157 73.9598 58.5592 73.9598ZM41.6625 62.6416C41.6984 62.4004 41.7174 62.1539 41.7174 61.9029V60.5472C42.176 60.6717 42.5124 61.0912 42.5124 61.588C42.5124 62.1042 42.1477 62.5364 41.6625 62.6416ZM30.3711 54.4599C30.6939 53.7246 31.322 53.2251 32.2911 52.9328C35.9789 51.8206 37.7261 52.2103 38.5423 52.7332C39.2029 53.1563 39.3028 53.7008 39.311 53.7536C39.3301 53.9727 39.5081 54.132 39.7282 54.143C39.7454 54.144 41.4675 54.2451 42.3628 55.5802C43.0451 56.5977 43.1057 58.0743 42.5458 59.9751C42.3034 59.8075 42.0217 59.693 41.7174 59.6487V58.8705C41.7174 58.7023 41.6217 58.5487 41.4706 58.4747C40.104 57.8051 39.1982 55.5624 39.1893 55.5401C39.0896 55.267 38.7164 55.1717 38.498 55.3635C35.2779 58.0391 32.2365 57.788 32.2075 57.7858C31.9562 57.7549 31.7175 57.9712 31.7231 58.2243V59.6487C31.5409 59.6752 31.3668 59.7271 31.2043 59.8004C30.142 57.4808 29.8532 55.6395 30.3711 54.4599ZM30.9282 61.588C30.9282 61.0912 31.2648 60.6716 31.7231 60.5471V61.9029C31.7231 62.1539 31.7422 62.4005 31.7781 62.6416C31.2929 62.5364 30.9282 62.1042 30.9282 61.588ZM32.6046 61.9029V58.6756C33.6043 58.6558 36.0085 58.378 38.6119 56.399C38.9791 57.143 39.7494 58.4701 40.836 59.1308V61.9029C40.836 64.1722 38.9897 66.0186 36.7203 66.0186C34.4509 66.0186 32.6046 64.1722 32.6046 61.9029ZM36.7203 68.2508C36.3079 68.2508 35.9943 68.1343 35.7614 67.8947C35.4864 67.6116 35.3714 67.2053 35.3234 66.9H38.1174C38.0696 67.2049 37.9547 67.6108 37.6795 67.8942C37.4468 68.1342 37.1329 68.2508 36.7203 68.2508ZM47.1638 61.9028V60.0064C48.2415 59.7915 51.0485 59.0443 52.7983 56.9242C53.2251 57.7648 54.079 59.1271 55.3952 59.8248V61.9028C55.3952 64.1722 53.5489 66.0186 51.2795 66.0186C49.0102 66.0186 47.1638 64.1722 47.1638 61.9028ZM51.2723 68.2508C50.86 68.2508 50.5464 68.1344 50.3137 67.8949C50.0387 67.6119 49.9235 67.2055 49.8755 66.9H52.6696C52.6218 67.2048 52.507 67.6104 52.2318 67.8941C51.9989 68.1342 51.685 68.2508 51.2723 68.2508Z" fill="#4B5D6B"/>
<path d="M49.0717 60.0618C48.8283 60.0618 48.631 60.2591 48.631 60.5026V61.524C48.631 61.7675 48.8283 61.9648 49.0717 61.9648C49.3152 61.9648 49.5125 61.7675 49.5125 61.524V60.5026C49.5124 60.2591 49.3151 60.0618 49.0717 60.0618Z" fill="#4B5D6B"/>
<path d="M53.4874 61.9648C53.7308 61.9648 53.9281 61.7675 53.9281 61.524V60.5026C53.9281 60.2591 53.7308 60.0618 53.4874 60.0618C53.2439 60.0618 53.0466 60.2591 53.0466 60.5026V61.524C53.0467 61.7675 53.244 61.9648 53.4874 61.9648Z" fill="#4B5D6B"/>
<path d="M52.6727 63.5289C52.9202 62.9824 52.1351 62.6177 51.8743 63.1526C51.8607 63.1801 51.7283 63.4215 51.2795 63.4215C50.8308 63.4215 50.6984 63.1801 50.6848 63.1526C50.424 62.6177 49.6389 62.9824 49.8864 63.5289C50.0236 63.8297 50.4561 64.3046 51.2795 64.3046C52.103 64.3046 52.5355 63.8297 52.6727 63.5289Z" fill="#4B5D6B"/>
</g>
<defs>
<clipPath id="clip0">
<rect width="30" height="30" fill="white" transform="translate(28.9999 49.668)"/>
</clipPath>
</defs>
</svg>
