<svg width="254" height="254" viewBox="0 0 254 254" fill="none" xmlns="http://www.w3.org/2000/svg">
<path fill-rule="evenodd" clip-rule="evenodd" d="M0.5 127C0.5 76.17 41.67 35 92.5 35C143.33 35 184.5 76.17 184.5 127C184.5 177.83 143.33 219 92.5 219C41.67 219 0.5 177.83 0.5 127ZM253.5 46.5L221.875 32.125L207.5 0.5L193.125 32.125L161.5 46.5L193.125 60.875L207.5 92.5L221.875 60.875L253.5 46.5ZM253.5 207.5L221.875 193.125L207.5 161.5L193.125 193.125L161.5 207.5L193.125 221.875L207.5 253.5L221.875 221.875L253.5 207.5ZM47.369 129.963L72.9474 155.569L145.298 83.14C148.148 80.2867 152.679 80.2867 155.529 83.14C158.379 85.9932 158.379 90.5292 155.529 93.3825L78.0631 170.86C75.2129 173.713 70.6088 173.713 67.7586 170.86L37.1376 140.206C34.2875 137.352 34.2875 132.816 37.1376 129.963C39.9878 127.11 44.5188 127.11 47.369 129.963Z" fill="#D8DCE0"/>
</svg>
