<svg width="18" height="18" viewBox="0 0 18 18" fill="none" xmlns="http://www.w3.org/2000/svg">
<path fill-rule="evenodd" clip-rule="evenodd" d="M0.75 9C0.75 5.685 3.435 3 6.75 3C10.065 3 12.75 5.685 12.75 9C12.75 12.315 10.065 15 6.75 15C3.435 15 0.75 12.315 0.75 9ZM17.25 3.75L15.1875 2.8125L14.25 0.75L13.3125 2.8125L11.25 3.75L13.3125 4.6875L14.25 6.75L15.1875 4.6875L17.25 3.75ZM17.25 14.25L15.1875 13.3125L14.25 11.25L13.3125 13.3125L11.25 14.25L13.3125 15.1875L14.25 17.25L15.1875 15.1875L17.25 14.25ZM3.80667 9.19324L5.47483 10.8632L10.1933 6.13956C10.3792 5.95348 10.6747 5.95348 10.8606 6.13956C11.0465 6.32565 11.0465 6.62147 10.8606 6.80755L5.80846 11.8604C5.62258 12.0465 5.32231 12.0465 5.13643 11.8604L3.13941 9.86123C2.95353 9.67515 2.95353 9.37932 3.13941 9.19324C3.32529 9.00716 3.62079 9.00716 3.80667 9.19324Z" fill="white"/>
</svg>
