<svg width="18" height="18" viewBox="0 0 18 18" fill="none" xmlns="http://www.w3.org/2000/svg">
<path d="M8.99199 0.666992C4.39199 0.666992 0.666992 4.40033 0.666992 9.00033C0.666992 13.6003 4.39199 17.3337 8.99199 17.3337C13.6003 17.3337 17.3337 13.6003 17.3337 9.00033C17.3337 4.40033 13.6003 0.666992 8.99199 0.666992ZM14.767 5.66699H12.3087C12.042 4.62533 11.6587 3.62533 11.1587 2.70033C12.692 3.22533 13.967 4.29199 14.767 5.66699ZM9.00033 2.36699C9.69199 3.36699 10.2337 4.47533 10.592 5.66699H7.40866C7.76699 4.47533 8.30866 3.36699 9.00033 2.36699ZM2.55033 10.667C2.41699 10.1337 2.33366 9.57533 2.33366 9.00033C2.33366 8.42533 2.41699 7.86699 2.55033 7.33366H5.36699C5.30033 7.88366 5.25033 8.43366 5.25033 9.00033C5.25033 9.56699 5.30033 10.117 5.36699 10.667H2.55033ZM3.23366 12.3337H5.69199C5.95866 13.3753 6.34199 14.3753 6.84199 15.3003C5.30866 14.7753 4.03366 13.717 3.23366 12.3337ZM5.69199 5.66699H3.23366C4.03366 4.28366 5.30866 3.22533 6.84199 2.70033C6.34199 3.62533 5.95866 4.62533 5.69199 5.66699ZM9.00033 15.6337C8.30866 14.6337 7.76699 13.5253 7.40866 12.3337H10.592C10.2337 13.5253 9.69199 14.6337 9.00033 15.6337ZM10.9503 10.667H7.05033C6.97533 10.117 6.91699 9.56699 6.91699 9.00033C6.91699 8.43366 6.97533 7.87533 7.05033 7.33366H10.9503C11.0253 7.87533 11.0837 8.43366 11.0837 9.00033C11.0837 9.56699 11.0253 10.117 10.9503 10.667ZM11.1587 15.3003C11.6587 14.3753 12.042 13.3753 12.3087 12.3337H14.767C13.967 13.7087 12.692 14.7753 11.1587 15.3003ZM12.6337 10.667C12.7003 10.117 12.7503 9.56699 12.7503 9.00033C12.7503 8.43366 12.7003 7.88366 12.6337 7.33366H15.4503C15.5837 7.86699 15.667 8.42533 15.667 9.00033C15.667 9.57533 15.5837 10.1337 15.4503 10.667H12.6337Z" fill="#4B5D6B"/>
</svg>
