<svg width="44" height="44" viewBox="0 0 44 44" fill="none" xmlns="http://www.w3.org/2000/svg">
<path d="M21.978 0C9.834 0 0 9.856 0 22C0 34.144 9.834 44 21.978 44C34.144 44 44 34.144 44 22C44 9.856 34.144 0 21.978 0ZM22 39.6C12.276 39.6 4.4 31.724 4.4 22C4.4 12.276 12.276 4.4 22 4.4C31.724 4.4 39.6 12.276 39.6 22C39.6 31.724 31.724 39.6 22 39.6ZM29.7 19.8C31.526 19.8 33 18.326 33 16.5C33 14.674 31.526 13.2 29.7 13.2C27.874 13.2 26.4 14.674 26.4 16.5C26.4 18.326 27.874 19.8 29.7 19.8ZM14.3 19.8C16.126 19.8 17.6 18.326 17.6 16.5C17.6 14.674 16.126 13.2 14.3 13.2C12.474 13.2 11 14.674 11 16.5C11 18.326 12.474 19.8 14.3 19.8ZM22 34.1C26.466 34.1 30.36 31.658 32.45 28.05C32.868 27.324 32.34 26.4 31.482 26.4H12.518C11.682 26.4 11.132 27.324 11.55 28.05C13.64 31.658 17.534 34.1 22 34.1Z" fill="#4B5D6B"/>
</svg>
