<svg width="15" height="14" viewBox="0 0 15 14" fill="none" xmlns="http://www.w3.org/2000/svg">
<path d="M4.37942 7.1399L1.59514 4.35562C0.499021 5.55053 0.0836509 6.7476 0.0764396 6.77212L0 7L0.0757186 7.22788C0.0915834 7.27619 1.74585 12.0479 7.25023 12.0479C7.92016 12.0479 8.53024 11.9743 9.09055 11.851L7.11033 9.87081C6.39734 9.83586 5.72285 9.53692 5.21808 9.03215C4.71331 8.52739 4.41437 7.85289 4.37942 7.1399ZM7.25023 1.9521C5.91254 1.9521 4.81642 2.24343 3.90275 2.67178L1.74081 0.509838C1.45923 0.228262 1.0027 0.228262 0.721129 0.509838C0.439553 0.791414 0.439553 1.24794 0.721129 1.52951L12.6818 13.4902C12.9633 13.7717 13.4199 13.7717 13.7015 13.4902C13.983 13.2086 13.983 12.7521 13.7015 12.4705L11.833 10.602C13.7353 9.19367 14.4139 7.25816 14.424 7.22788L14.4997 7L14.424 6.77212C14.4082 6.72381 12.7546 1.9521 7.25023 1.9521ZM8.6247 7.39373C8.75955 6.90553 8.6449 6.35603 8.26991 5.98032C7.89492 5.60461 7.3447 5.49068 6.8565 5.62553L5.76903 4.53806C6.21466 4.26402 6.72709 4.11783 7.25023 4.11548C8.84104 4.11548 10.1347 5.40919 10.1347 7C10.1326 7.52305 9.98613 8.03536 9.71144 8.48048L8.6247 7.39373Z" fill="#E9E9E9"/>
</svg>
