<svg width="26" height="24" viewBox="0 0 26 24" fill="none" xmlns="http://www.w3.org/2000/svg">
<path d="M8.10718 12.2398L3.33413 7.46678C1.45507 9.51519 0.743011 11.5673 0.730649 11.6094L0.599609 12L0.729413 12.3906C0.756609 12.4735 3.5925 20.6535 13.0286 20.6535C14.177 20.6535 15.2229 20.5275 16.1834 20.3161L12.7888 16.9214C11.5665 16.8615 10.4102 16.349 9.54489 15.4837C8.67957 14.6184 8.1671 13.4621 8.10718 12.2398ZM13.0286 3.34645C10.7354 3.34645 8.85633 3.84588 7.29004 4.5802L3.41695 0.707106C3.02642 0.316582 2.39326 0.316582 2.00273 0.707107L1.66893 1.04091C1.2784 1.43143 1.2784 2.0646 1.66893 2.45512L22.5067 23.2929C22.8972 23.6834 23.5304 23.6834 23.9209 23.2929L24.2547 22.9591C24.6452 22.5686 24.6452 21.9354 24.2547 21.5449L20.8848 18.1749C24.1459 15.7606 25.3092 12.4426 25.3265 12.3906L25.4563 12L25.3265 11.6094C25.2993 11.5265 22.4647 3.34645 13.0286 3.34645ZM15.3848 12.675C15.616 11.8381 15.4194 10.8961 14.7766 10.252C14.1338 9.60791 13.1905 9.41259 12.3536 9.64376L10.4894 7.77954C11.2533 7.30975 12.1318 7.05914 13.0286 7.05511C15.7557 7.05511 17.9735 9.27289 17.9735 12C17.9698 12.8967 17.7187 13.7749 17.2478 14.538L15.3848 12.675Z" fill="white"/>
</svg>
