<svg width="47" height="41" viewBox="0 0 47 41" fill="none" xmlns="http://www.w3.org/2000/svg">
<path d="M15 19H29C30.1046 19 31 18.1046 31 17V3C31 1.89543 30.1046 1 29 1H15C13.8954 1 13 1.89543 13 3V17C13 18.1046 13.8954 19 15 19ZM15 19L26 8L31 13M20 6.5C20 7.32843 19.3284 8 18.5 8C17.6716 8 17 7.32843 17 6.5C17 5.67157 17.6716 5 18.5 5C19.3284 5 20 5.67157 20 6.5Z" stroke="white" stroke-width="2" stroke-linecap="round" stroke-linejoin="round"/>
<path d="M1.316 28.2H3.136V38H1.316V28.2ZM15.0547 30.44C15.9974 30.44 16.744 30.7153 17.2947 31.266C17.8454 31.8073 18.1207 32.624 18.1207 33.716V38H16.3707V33.94C16.3707 33.2867 16.226 32.7967 15.9367 32.47C15.6474 32.134 15.232 31.966 14.6907 31.966C14.1027 31.966 13.6314 32.162 13.2767 32.554C12.922 32.9367 12.7447 33.4873 12.7447 34.206V38H10.9947V33.94C10.9947 33.2867 10.85 32.7967 10.5607 32.47C10.2714 32.134 9.85604 31.966 9.3147 31.966C8.71737 31.966 8.24137 32.1573 7.8867 32.54C7.54137 32.9227 7.3687 33.478 7.3687 34.206V38H5.6187V30.524H7.2847V31.476C7.5647 31.14 7.9147 30.8833 8.3347 30.706C8.7547 30.5287 9.22137 30.44 9.7347 30.44C10.2947 30.44 10.7894 30.5473 11.2187 30.762C11.6574 30.9673 12.0027 31.2753 12.2547 31.686C12.5627 31.294 12.9594 30.9907 13.4447 30.776C13.93 30.552 14.4667 30.44 15.0547 30.44ZM23.213 30.44C24.3143 30.44 25.1543 30.706 25.733 31.238C26.321 31.7607 26.615 32.554 26.615 33.618V38H24.963V37.09C24.7483 37.4167 24.4403 37.6687 24.039 37.846C23.647 38.014 23.171 38.098 22.611 38.098C22.051 38.098 21.561 38.0047 21.141 37.818C20.721 37.622 20.3943 37.356 20.161 37.02C19.937 36.6747 19.825 36.2873 19.825 35.858C19.825 35.186 20.0723 34.6493 20.567 34.248C21.071 33.8373 21.8597 33.632 22.933 33.632H24.865V33.52C24.865 32.9973 24.7063 32.596 24.389 32.316C24.081 32.036 23.619 31.896 23.003 31.896C22.583 31.896 22.1677 31.9613 21.757 32.092C21.3557 32.2227 21.015 32.4047 20.735 32.638L20.049 31.364C20.441 31.0653 20.9123 30.8367 21.463 30.678C22.0137 30.5193 22.597 30.44 23.213 30.44ZM22.975 36.824C23.4137 36.824 23.801 36.726 24.137 36.53C24.4823 36.3247 24.725 36.0353 24.865 35.662V34.794H23.059C22.051 34.794 21.547 35.1253 21.547 35.788C21.547 36.1053 21.673 36.3573 21.925 36.544C22.177 36.7307 22.527 36.824 22.975 36.824ZM36.3493 30.524V36.866C36.3493 39.498 35.0053 40.814 32.3173 40.814C31.5986 40.814 30.9173 40.7207 30.2733 40.534C29.6293 40.3567 29.0973 40.0953 28.6773 39.75L29.4613 38.434C29.7879 38.7047 30.1986 38.9193 30.6933 39.078C31.1973 39.246 31.7059 39.33 32.2193 39.33C33.0406 39.33 33.6426 39.1433 34.0253 38.77C34.4079 38.3967 34.5993 37.8273 34.5993 37.062V36.67C34.3006 36.9967 33.9366 37.244 33.5073 37.412C33.0779 37.58 32.6066 37.664 32.0933 37.664C31.3839 37.664 30.7399 37.5147 30.1613 37.216C29.5919 36.908 29.1393 36.4787 28.8033 35.928C28.4766 35.3773 28.3133 34.7473 28.3133 34.038C28.3133 33.3287 28.4766 32.7033 28.8033 32.162C29.1393 31.6113 29.5919 31.1867 30.1613 30.888C30.7399 30.5893 31.3839 30.44 32.0933 30.44C32.6346 30.44 33.1246 30.5287 33.5633 30.706C34.0113 30.8833 34.3846 31.154 34.6833 31.518V30.524H36.3493ZM32.3593 36.18C33.0219 36.18 33.5633 35.984 33.9833 35.592C34.4126 35.1907 34.6273 34.6727 34.6273 34.038C34.6273 33.4127 34.4126 32.904 33.9833 32.512C33.5633 32.12 33.0219 31.924 32.3593 31.924C31.6873 31.924 31.1366 32.12 30.7073 32.512C30.2873 32.904 30.0773 33.4127 30.0773 34.038C30.0773 34.6727 30.2873 35.1907 30.7073 35.592C31.1366 35.984 31.6873 36.18 32.3593 36.18ZM45.678 34.304C45.678 34.4253 45.6686 34.598 45.65 34.822H39.784C39.8866 35.3727 40.1526 35.8113 40.582 36.138C41.0206 36.4553 41.562 36.614 42.206 36.614C43.0273 36.614 43.704 36.3433 44.236 35.802L45.174 36.88C44.838 37.2813 44.4133 37.5847 43.9 37.79C43.3866 37.9953 42.808 38.098 42.164 38.098C41.3426 38.098 40.6193 37.9347 39.994 37.608C39.3686 37.2813 38.8833 36.8287 38.538 36.25C38.202 35.662 38.034 34.9993 38.034 34.262C38.034 33.534 38.1973 32.8807 38.524 32.302C38.86 31.714 39.322 31.2567 39.91 30.93C40.498 30.6033 41.1606 30.44 41.898 30.44C42.626 30.44 43.2746 30.6033 43.844 30.93C44.4226 31.2473 44.8706 31.7 45.188 32.288C45.5146 32.8667 45.678 33.5387 45.678 34.304ZM41.898 31.84C41.338 31.84 40.862 32.008 40.47 32.344C40.0873 32.6707 39.854 33.1093 39.77 33.66H44.012C43.9373 33.1187 43.7086 32.68 43.326 32.344C42.9433 32.008 42.4673 31.84 41.898 31.84Z" fill="white"/>
</svg>
