<svg width="123" height="128" viewBox="0 0 123 128" fill="none" xmlns="http://www.w3.org/2000/svg">
<path d="M54.3225 2.43294C58.5599 -0.81098 64.4496 -0.81098 68.687 2.43294L118.988 40.8835C125.395 45.7798 121.958 55.9982 113.909 56.0387H9.09009C1.05125 55.9982 -2.39542 45.7798 4.02146 40.8835L54.3225 2.43294ZM61.4997 38.2985C63.5161 38.2985 65.4499 37.4975 66.8757 36.0717C68.3016 34.6459 69.1026 32.712 69.1026 30.6956C69.1026 28.6792 68.3016 26.7453 66.8757 25.3195C65.4499 23.8937 63.5161 23.0927 61.4997 23.0927C59.4832 23.0927 57.5494 23.8937 56.1236 25.3195C54.6977 26.7453 53.8967 28.6792 53.8967 30.6956C53.8967 32.712 54.6977 34.6459 56.1236 36.0717C57.5494 37.4975 59.4832 38.2985 61.4997 38.2985Z" fill="#B6B6B6"/>
<path d="M15.8821 66.1765V96.5883H31.088V66.1765H15.8821Z" fill="#B6B6B6"/>
<path d="M41.2252 66.1765V96.5883H56.431V66.1765H41.2252Z" fill="#B6B6B6"/>
<path d="M66.5682 66.1765V96.5883H81.7741V66.1765H66.5682Z" fill="#B6B6B6"/>
<path d="M91.9114 66.1765V96.5883H107.117V66.1765H91.9114Z" fill="#B6B6B6"/>
<path d="M0.676147 119.398C0.676147 112.404 6.35301 106.727 13.3477 106.727H109.652C116.646 106.727 122.323 112.404 122.323 119.398V121.933C122.323 123.277 121.789 124.566 120.839 125.517C119.888 126.467 118.599 127.001 117.255 127.001H5.74477C4.40049 127.001 3.11127 126.467 2.16071 125.517C1.21016 124.566 0.676147 123.277 0.676147 121.933V119.398Z" fill="#B6B6B6"/>
</svg>
