<svg width="28" height="24" viewBox="0 0 28 24" fill="none" xmlns="http://www.w3.org/2000/svg">
<path d="M18.6663 21.9995V19.7774C18.6663 18.5986 18.1981 17.4682 17.3646 16.6347C16.5311 15.8013 15.4007 15.333 14.222 15.333H6.44435C5.26564 15.333 4.1352 15.8013 3.30172 16.6347C2.46824 17.4682 2 18.5986 2 19.7774V21.9995" stroke="#545454" stroke-width="2.22218" stroke-linecap="round" stroke-linejoin="round"/>
<path d="M10.333 10.8887C12.7876 10.8887 14.7774 8.8989 14.7774 6.44435C14.7774 3.98981 12.7876 2 10.333 2C7.87848 2 5.88867 3.98981 5.88867 6.44435C5.88867 8.8989 7.87848 10.8887 10.333 10.8887Z" stroke="#545454" stroke-width="2.22218" stroke-linecap="round" stroke-linejoin="round"/>
<path d="M23.1105 7.55469V14.2212" stroke="#545454" stroke-width="2.22218" stroke-linecap="round" stroke-linejoin="round"/>
<path d="M26.4438 10.8887H19.7772" stroke="#545454" stroke-width="2.22218" stroke-linecap="round" stroke-linejoin="round"/>
</svg>
