<svg width="24" height="24" viewBox="0 0 24 24" fill="none" xmlns="http://www.w3.org/2000/svg">
<g clip-path="url(#clip0)">
<path d="M7.79968 3.08936H7.79865H3.25872C3.20655 4.39023 4.24647 5.45476 5.5292 5.45476C6.81188 5.45476 7.85185 4.39013 7.79968 3.08936Z" fill="#4B5D6B"/>
<path d="M9.92472 8.29138C9.91905 7.16108 8.99332 6.23877 7.8618 6.23877H3.18205C2.0503 6.23877 1.1248 7.15953 1.11913 8.29133C1.11791 8.52875 1.08819 14.4496 1.08693 14.6955C1.08449 15.1769 1.4728 15.5691 1.95425 15.5715C1.95575 15.5715 1.95725 15.5715 1.95875 15.5715C2.43809 15.5715 2.82791 15.1841 2.83034 14.7042C2.83166 14.4487 2.86138 8.52495 2.86255 8.30005C2.86255 8.29944 2.86255 8.29873 2.86255 8.29813C2.86358 8.20555 2.93923 8.13116 3.03181 8.13167C3.12439 8.13219 3.19916 8.20742 3.19916 8.3C3.1992 10.4787 3.19958 22.9538 3.19958 22.9538C3.19958 23.5315 3.66795 23.9999 4.24564 23.9999C4.82332 23.9999 5.2917 23.5315 5.2917 22.9538V14.5926H5.74334V22.9538C5.74334 23.5315 6.21171 23.9999 6.7894 23.9999C7.36708 23.9999 7.83546 23.5315 7.83546 22.9538C7.83546 8.60187 7.81647 17.5344 7.81647 8.29344C7.81647 8.1927 7.89813 8.111 7.99891 8.111C8.09965 8.111 8.18135 8.19266 8.1814 8.29339C8.1814 8.29564 8.1814 8.29784 8.18135 8.30014C8.18135 8.30014 8.21008 14.0157 8.21355 14.7043C8.21594 15.1842 8.60575 15.5716 9.08514 15.5716C9.0866 15.5716 9.08819 15.5716 9.08964 15.5716C9.57105 15.5692 9.95941 15.177 9.95697 14.6956C9.95566 14.4496 9.92589 8.52866 9.92472 8.29138Z" fill="#4B5D6B"/>
<path d="M9.11009 1.72757C8.82654 1.72757 7.95827 1.72757 7.64482 1.72757C7.35757 0.986904 6.6942 0.434155 5.88875 0.304078C5.8699 0.133078 5.72506 0 5.549 0C5.37565 0 5.23278 0.12914 5.21042 0.29639C4.10197 0.448921 3.24805 1.39936 3.24805 2.54967C3.24805 2.54967 8.43654 2.53523 9.11009 2.53523C9.33312 2.53523 9.51391 2.35448 9.51391 2.1314C9.51396 1.90837 9.33316 1.72757 9.11009 1.72757Z" fill="#4B5D6B"/>
<path d="M22.8591 13.6582C22.4832 12.6294 21.4467 9.65684 20.728 7.59397C20.4064 6.67081 19.5353 6.05099 18.5577 6.05061C17.6658 6.05028 16.7787 6.05005 15.8984 6.05005C14.9249 6.05005 14.0576 6.66298 13.7318 7.58023C12.8396 10.0917 11.8696 12.8023 11.5568 13.6583C11.3896 14.1153 11.6247 14.6214 12.0818 14.7886C12.5385 14.9556 13.0448 14.7209 13.212 14.2635C13.6313 13.1171 14.5655 10.5153 14.9633 9.40503C14.6839 10.967 14.0594 14.1718 13.7117 15.9673C13.6529 16.2704 13.8867 16.5505 14.1922 16.5505C14.3819 16.5505 14.6101 16.5505 14.8647 16.5505V22.9426C14.8647 23.5267 15.3381 24.0001 15.9222 24.0001C16.5062 24.0001 16.9796 23.5267 16.9796 22.9426V16.5504C17.1316 16.5504 17.2842 16.5504 17.4362 16.5504V22.9426C17.4362 23.5267 17.9097 24.0001 18.4937 24.0001C19.0777 24.0001 19.5511 23.5267 19.5511 22.9426V16.5504C19.8057 16.5504 20.0341 16.5504 20.2236 16.5504C20.5309 16.5504 20.7628 16.2699 20.7042 15.9672C19.6655 10.6092 19.4989 9.78359 19.4525 9.40498C20.1583 11.403 21.1916 14.2299 21.2038 14.2635C21.3709 14.7205 21.8768 14.9556 22.3341 14.7885C22.7912 14.6214 23.0263 14.1153 22.8591 13.6582Z" fill="#4B5D6B"/>
<path d="M22.1423 5.33989C21.6415 4.31038 21.0547 3.93922 20.6986 3.76138C20.4286 3.62647 20.1405 3.60702 19.8849 3.77516L19.9208 3.69102C19.9792 3.55396 19.9154 3.39547 19.7783 3.33707C19.6609 3.28705 19.5282 3.32722 19.4558 3.42575C19.608 2.0654 18.5433 0.897461 17.1976 0.897461C15.8495 0.897461 14.7875 2.06788 14.9394 3.42571C14.8669 3.32718 14.7344 3.2871 14.6169 3.33707C14.4798 3.39547 14.416 3.55391 14.4744 3.69102L14.5103 3.77516C14.2548 3.60697 13.9668 3.62642 13.6967 3.76133C13.3406 3.93922 12.7537 4.31033 12.253 5.33984C12.1981 5.45281 12.3062 5.57642 12.4252 5.53733C13.3109 5.2468 14.2075 5.50419 14.5569 5.32967C14.7501 5.23316 14.8996 5.06173 14.9635 4.83936C14.9969 4.91773 15.0488 5.09581 15.2512 5.09581C15.4436 5.09581 15.5752 4.89847 15.4993 4.72025L15.4657 4.64136C15.8826 5.13177 16.5036 5.44325 17.1977 5.44325C17.8918 5.44325 18.5128 5.13172 18.9297 4.64131L18.8961 4.7202C18.8202 4.89842 18.9517 5.09577 19.1442 5.09577C19.3463 5.09577 19.3987 4.91722 19.4319 4.83936C19.4957 5.06094 19.6447 5.23278 19.8385 5.32962C20.1879 5.50419 21.0845 5.24675 21.9702 5.53728C22.0891 5.57637 22.1972 5.45276 22.1423 5.33989Z" fill="#4B5D6B"/>
</g>
<defs>
<clipPath id="clip0">
<rect width="24" height="24" fill="white"/>
</clipPath>
</defs>
</svg>
