<svg width="18" height="18" viewBox="0 0 18 18" fill="none" xmlns="http://www.w3.org/2000/svg">
<path d="M11.25 12L8.25 15H14.25C15.075 15 15.75 14.325 15.75 13.5C15.75 12.675 15.075 12 14.25 12H11.25Z" fill="#4B5D6B"/>
<path d="M9.045 5.39258L2.4675 11.9701C2.3325 12.1051 2.25 12.3001 2.25 12.4951V14.2501C2.25 14.6626 2.5875 15.0001 3 15.0001H4.755C4.9575 15.0001 5.145 14.9176 5.2875 14.7826L11.865 8.20508L9.045 5.39258Z" fill="#4B5D6B"/>
<path d="M14.0327 6.02992C14.3252 5.73742 14.3252 5.26492 14.0327 4.97242L12.2777 3.21742C11.9852 2.92492 11.5127 2.92492 11.2202 3.21742L9.84766 4.58992L12.6602 7.40242L14.0327 6.02992Z" fill="#4B5D6B"/>
</svg>
