<svg width="294" height="294" viewBox="0 0 294 294" fill="none" xmlns="http://www.w3.org/2000/svg">
<path d="M294 224.851H0V224.998H294V224.851Z" fill="#EBEBEB"/>
<path d="M264.541 234.312H251.793V234.459H264.541V234.312Z" fill="#EBEBEB"/>
<path d="M202.666 231.266H182.609V231.413H202.666V231.266Z" fill="#EBEBEB"/>
<path d="M259.378 228.855H233.195V229.002H259.378V228.855Z" fill="#EBEBEB"/>
<path d="M101.736 231.819H95.1855V231.966H101.736V231.819Z" fill="#EBEBEB"/>
<path d="M89.9464 231.819H67.373V231.966H89.9464V231.819Z" fill="#EBEBEB"/>
<path d="M55.2778 229.338H38.9902V229.485H55.2778V229.338Z" fill="#EBEBEB"/>
<path d="M139.356 198.626H25.8191C24.9297 198.625 24.0772 198.27 23.4488 197.641C22.8205 197.011 22.4675 196.158 22.4675 195.269V35.668C22.4753 34.7837 22.8316 33.9381 23.4592 33.315C24.0867 32.6919 24.9348 32.3415 25.8191 32.34H139.356C140.247 32.34 141.101 32.6937 141.73 33.3233C142.36 33.953 142.714 34.807 142.714 35.6974V195.269C142.714 196.159 142.36 197.013 141.73 197.643C141.101 198.273 140.247 198.626 139.356 198.626ZM25.8191 32.4576C24.9687 32.4591 24.1536 32.7981 23.5528 33.4C22.952 34.0019 22.6145 34.8176 22.6145 35.668V195.269C22.6145 196.119 22.952 196.935 23.5528 197.537C24.1536 198.139 24.9687 198.478 25.8191 198.479H139.356C140.207 198.478 141.023 198.139 141.624 197.537C142.226 196.936 142.565 196.12 142.567 195.269V35.668C142.565 34.8171 142.226 34.0014 141.624 33.3996C141.023 32.7979 140.207 32.4591 139.356 32.4576H25.8191Z" fill="#EBEBEB"/>
<path d="M266.546 198.626H153.003C152.113 198.625 151.26 198.271 150.631 197.641C150.002 197.012 149.648 196.159 149.646 195.269V35.668C149.655 34.7832 150.013 33.9376 150.641 33.3146C151.27 32.6917 152.119 32.3415 153.003 32.34H266.546C267.43 32.343 268.276 32.6941 268.902 33.3171C269.529 33.94 269.884 34.7847 269.892 35.668V195.269C269.892 196.157 269.54 197.01 268.913 197.639C268.286 198.268 267.435 198.623 266.546 198.626ZM153.003 32.4576C152.152 32.4591 151.337 32.7979 150.735 33.3996C150.133 34.0014 149.795 34.8171 149.793 35.668V195.269C149.795 196.12 150.133 196.936 150.735 197.537C151.337 198.139 152.152 198.478 153.003 198.479H266.546C267.397 198.478 268.213 198.139 268.815 197.537C269.416 196.936 269.755 196.12 269.757 195.269V35.668C269.755 34.8171 269.416 34.0014 268.815 33.3996C268.213 32.7979 267.397 32.4591 266.546 32.4576H153.003Z" fill="#EBEBEB"/>
<path d="M67.62 102.682C70.8809 102.682 74.0082 101.387 76.314 99.0813C78.6198 96.7755 79.9151 93.6482 79.9151 90.3874C79.9151 87.1265 78.6198 83.9992 76.314 81.6934C74.0082 79.3877 70.8809 78.0923 67.62 78.0923H66.1089V102.682H67.62Z" fill="#E0E0E0"/>
<path d="M66.0971 102.682C72.8875 102.682 78.3922 97.1778 78.3922 90.3874C78.3922 83.597 72.8875 78.0923 66.0971 78.0923C59.3067 78.0923 53.802 83.597 53.802 90.3874C53.802 97.1778 59.3067 102.682 66.0971 102.682Z" fill="#F5F5F5"/>
<path d="M65.5326 91.9278C61.1661 91.9278 56.9784 90.1932 53.8908 87.1056C50.8032 84.018 49.0686 79.8304 49.0686 75.4638V65.6384C49.0686 65.2282 49.2315 64.8349 49.5215 64.5449C49.8116 64.2548 50.2049 64.0919 50.615 64.0919C51.0252 64.0919 51.4185 64.2548 51.7085 64.5449C51.9986 64.8349 52.1615 65.2282 52.1615 65.6384V75.4697C52.1646 79.014 53.5735 82.4123 56.0792 84.919C58.5848 87.4257 61.9825 88.8362 65.5267 88.8408C65.7374 88.8278 65.9486 88.8581 66.1471 88.9298C66.3457 89.0015 66.5275 89.113 66.6813 89.2576C66.8351 89.4022 66.9577 89.5768 67.0415 89.7706C67.1253 89.9644 67.1685 90.1732 67.1685 90.3843C67.1685 90.5954 67.1253 90.8043 67.0415 90.9981C66.9577 91.1919 66.8351 91.3664 66.6813 91.511C66.5275 91.6556 66.3457 91.7672 66.1471 91.8389C65.9486 91.9106 65.7374 91.9408 65.5267 91.9278H65.5326Z" fill="#E0E0E0"/>
<path d="M36.9441 74.2938H64.2978C64.7353 74.2939 65.1669 74.1935 65.5595 74.0005C65.952 73.8074 66.295 73.5268 66.562 73.1803C66.829 72.8338 67.0129 72.4306 67.0995 72.0018C67.1861 71.5729 67.1731 71.13 67.0614 70.707L64.68 61.74C64.5193 61.1308 64.1618 60.5919 63.663 60.2069C63.1643 59.822 62.5523 59.6126 61.9223 59.6115H39.3196C38.6888 59.6123 38.076 59.8215 37.5763 60.2064C37.0766 60.5913 36.7179 61.1304 36.556 61.74L34.204 70.6953C34.0895 71.1172 34.0736 71.5597 34.1574 71.9888C34.2412 72.4178 34.4225 72.8219 34.6874 73.1697C34.9522 73.5175 35.2935 73.7998 35.6848 73.9947C36.0761 74.1896 36.5069 74.2919 36.9441 74.2938Z" fill="#F5F5F5"/>
<path d="M241.245 102.682C244.505 102.682 247.633 101.387 249.939 99.0813C252.244 96.7755 253.54 93.6482 253.54 90.3874C253.54 87.1265 252.244 83.9992 249.939 81.6934C247.633 79.3877 244.505 78.0923 241.245 78.0923H239.733V102.682H241.245Z" fill="#E0E0E0"/>
<path d="M239.734 102.682C246.524 102.682 252.029 97.1778 252.029 90.3874C252.029 83.597 246.524 78.0923 239.734 78.0923C232.943 78.0923 227.438 83.597 227.438 90.3874C227.438 97.1778 232.943 102.682 239.734 102.682Z" fill="#F5F5F5"/>
<path d="M239.169 91.9278C234.803 91.9278 230.615 90.1932 227.527 87.1056C224.44 84.018 222.705 79.8304 222.705 75.4638V65.6384C222.705 65.2282 222.868 64.8349 223.158 64.5449C223.448 64.2548 223.841 64.0919 224.252 64.0919C224.662 64.0919 225.055 64.2548 225.345 64.5449C225.635 64.8349 225.798 65.2282 225.798 65.6384V75.4697C225.801 79.014 227.21 82.4123 229.716 84.919C232.221 87.4257 235.619 88.8362 239.163 88.8408C239.374 88.8278 239.585 88.8581 239.784 88.9298C239.982 89.0015 240.164 89.113 240.318 89.2576C240.472 89.4022 240.594 89.5768 240.678 89.7706C240.762 89.9644 240.805 90.1732 240.805 90.3843C240.805 90.5954 240.762 90.8043 240.678 90.9981C240.594 91.1919 240.472 91.3664 240.318 91.511C240.164 91.6556 239.982 91.7672 239.784 91.8389C239.585 91.9106 239.374 91.9408 239.163 91.9278H239.169Z" fill="#E0E0E0"/>
<path d="M210.58 74.2938H237.934C238.372 74.2938 238.803 74.1935 239.196 74.0004C239.588 73.8074 239.931 73.5268 240.198 73.1802C240.465 72.8337 240.649 72.4305 240.736 72.0017C240.822 71.5729 240.809 71.1299 240.698 70.707L238.346 61.7517C238.185 61.1426 237.827 60.6036 237.329 60.2186C236.83 59.8337 236.218 59.6244 235.588 59.6232H212.956C212.325 59.6241 211.712 59.8332 211.213 60.2181C210.713 60.603 210.354 61.1421 210.192 61.7517L207.84 70.707C207.728 71.1281 207.714 71.5694 207.798 71.9969C207.883 72.4245 208.065 72.8269 208.33 73.1732C208.594 73.5196 208.935 73.8007 209.325 73.9949C209.715 74.1892 210.144 74.2914 210.58 74.2938Z" fill="#F5F5F5"/>
<path d="M78.7801 185.726H87.7236V151.075H78.7801V185.726Z" fill="#E6E6E6"/>
<path d="M54.5371 185.72H84.2135L88.694 145.165H59.0177L54.5371 185.72Z" fill="#F0F0F0"/>
<path d="M51.3206 185.72H81.9789L86.4594 145.165H55.807L51.3206 185.72Z" fill="#F5F5F5"/>
<path d="M79.7621 182.527L83.5371 148.364H58.0179L54.2429 182.527H79.7621Z" fill="white"/>
<path d="M74.4938 174.242L74.6761 172.872C75.6227 164.299 70.2719 156.661 63.3218 156.661L63.163 158.054C62.2163 166.621 67.5671 174.26 74.5232 174.26L74.4938 174.242Z" fill="#F5F5F5"/>
<path d="M34.7449 224.851H61.1108L61.1108 185.72H34.7449V224.851Z" fill="#E6E6E6"/>
<path d="M37.3909 224.851H34.739V217.307H40.1721L37.3909 224.851Z" fill="#F0F0F0"/>
<path d="M108.639 224.851H135.005V185.72H108.639V224.851Z" fill="#E6E6E6"/>
<path d="M34.739 220.224H110.95V185.726H34.739V220.224Z" fill="#F0F0F0"/>
<path d="M108.298 224.851H110.95V217.307H105.517L108.298 224.851Z" fill="#F0F0F0"/>
<path d="M36.7969 201.802H108.892V187.878H36.7969V201.802Z" fill="#E6E6E6"/>
<path d="M68.0375 196.98H77.6513C79.7183 196.981 81.7638 196.56 83.6625 195.743C85.5612 194.926 87.2733 193.73 88.694 192.229H56.9949C58.4162 193.73 60.1284 194.925 62.027 195.742C63.9255 196.558 65.9707 196.98 68.0375 196.98Z" fill="#F0F0F0"/>
<path d="M36.7969 217.972H108.892V204.048H36.7969V217.972Z" fill="#E6E6E6"/>
<path d="M68.0375 213.126H77.6513C79.7183 213.127 81.7638 212.706 83.6625 211.889C85.5612 211.073 87.2733 209.877 88.694 208.375H56.9949C58.4162 209.876 60.1284 211.071 62.027 211.888C63.9255 212.705 65.9707 213.126 68.0375 213.126Z" fill="#F0F0F0"/>
<path d="M106.122 184.126H106.804C106.804 182.721 106.804 179.164 106.875 171.008C106.998 156.22 107.234 155.32 107.234 155.32L105.611 162.147C104.582 169.703 105.911 177.3 106.122 184.126Z" fill="#E6E6E6"/>
<path d="M104.776 161.112C102.424 158.331 97.4552 157.519 92.3514 156.825C90.3463 156.555 97.614 161.135 101.171 164.387C103.935 166.915 105.699 167.615 106.463 170.132C106.851 166.992 106.787 163.529 104.776 161.112Z" fill="#E6E6E6"/>
<path d="M107.874 166.098C110.226 163.317 115.195 162.511 120.299 161.818C122.304 161.547 115.007 166.128 111.479 169.379C108.715 171.908 106.951 172.607 106.187 175.124C105.799 171.984 105.84 168.497 107.874 166.098Z" fill="#E6E6E6"/>
<path d="M106.875 154.644C108.639 151.316 113.025 148.176 117.97 147C119.911 146.535 113.472 153.139 111.026 157.402C109.127 160.706 106.61 164.599 106.216 167.398C105.628 161.882 105.123 157.99 106.875 154.644Z" fill="#E6E6E6"/>
<path d="M106.663 185.72C104.582 185.72 102.859 184.679 102.735 183.338L102.388 181.057H110.944L110.591 183.338C110.473 184.679 108.78 185.72 106.663 185.72Z" fill="#F0F0F0"/>
<path d="M111.497 181.933H101.836L101.559 179.387H111.773L111.497 181.933Z" fill="#F0F0F0"/>
<path d="M99.6896 133.311H193.893V47.3868L99.6896 47.3868L99.6896 133.311Z" fill="#E6E6E6"/>
<path d="M97.5726 133.311H192.97V47.3868L97.5726 47.3868L97.5726 133.311Z" fill="#F5F5F5"/>
<path d="M189.16 129.466V51.2383L101.371 51.2383V129.466H189.16Z" fill="#FAFAFA"/>
<path d="M178.393 129.466L143.842 51.2383H132.106L166.657 129.466H178.393Z" fill="white"/>
<path d="M163.329 129.466L128.778 51.2383H120.699L155.25 129.466H163.329Z" fill="white"/>
<path d="M133.97 129.46V51.2324H129.431V129.46H133.97Z" fill="#E6E6E6"/>
<path d="M164.146 129.46V51.2324H159.607V129.46H164.146Z" fill="#E6E6E6"/>
<path d="M133.153 131.906V48.3748H127.414V131.906H133.153Z" fill="#F5F5F5"/>
<path d="M163.329 131.906V48.3748H157.59V131.906H163.329Z" fill="#F5F5F5"/>
<path d="M101.783 129.466V51.2383H101.377V129.466H101.783Z" fill="#E6E6E6"/>
<path d="M95.9734 42.4359H198.027C198.157 42.4374 198.282 42.49 198.374 42.5823C198.467 42.6746 198.519 42.7993 198.521 42.9298C198.519 43.0598 198.466 43.1839 198.374 43.2753C198.281 43.3667 198.157 43.4179 198.027 43.4179H95.9734C95.8434 43.4179 95.7187 43.3667 95.6262 43.2753C95.5338 43.1839 95.481 43.0598 95.4795 42.9298C95.481 42.7993 95.5335 42.6746 95.6258 42.5823C95.7181 42.49 95.8429 42.4374 95.9734 42.4359Z" fill="#E6E6E6"/>
<path d="M193.893 45.6758C194.068 45.6742 194.236 45.6035 194.359 45.4791C194.482 45.3547 194.552 45.1866 194.552 45.0114V43.5884C194.552 43.5014 194.536 43.4151 194.503 43.3346C194.47 43.254 194.422 43.1807 194.361 43.1189C194.299 43.0571 194.227 43.0081 194.146 42.9746C194.066 42.9412 193.98 42.9239 193.893 42.924C193.718 42.9239 193.55 42.9931 193.425 43.1165C193.301 43.2398 193.23 43.4073 193.229 43.5825V45.0055C193.229 45.1822 193.298 45.3519 193.423 45.4774C193.547 45.6029 193.716 45.6742 193.893 45.6758Z" fill="#E6E6E6"/>
<path d="M103.371 45.6758C103.546 45.6743 103.714 45.6038 103.839 45.4795C103.963 45.3552 104.033 45.1871 104.035 45.0114V43.5884C104.035 43.4122 103.965 43.2432 103.84 43.1186C103.716 42.994 103.547 42.924 103.371 42.924C103.196 42.924 103.028 42.9933 102.905 43.1168C102.781 43.2403 102.712 43.4079 102.712 43.5825V45.0055C102.711 45.0927 102.728 45.1793 102.76 45.2602C102.793 45.3411 102.841 45.4148 102.902 45.477C102.964 45.5393 103.036 45.5889 103.117 45.623C103.197 45.6571 103.283 45.675 103.371 45.6758Z" fill="#E6E6E6"/>
<path opacity="0.6" d="M96.1263 110.215L191.459 110.215V42.924L96.1263 42.924L96.1263 110.215Z" fill="#E0E0E0"/>
<path d="M200.09 152.862H183.65C181.903 152.862 180.487 154.279 180.487 156.026V163.634C180.487 165.382 181.903 166.798 183.65 166.798H200.09C201.838 166.798 203.254 165.382 203.254 163.634V156.026C203.254 154.279 201.838 152.862 200.09 152.862Z" fill="#FAFAFA"/>
<path d="M202.19 150.287H181.551C180.963 150.287 180.487 150.763 180.487 151.351V152.21C180.487 152.797 180.963 153.274 181.551 153.274H202.19C202.777 153.274 203.254 152.797 203.254 152.21V151.351C203.254 150.763 202.777 150.287 202.19 150.287Z" fill="#E6E6E6"/>
<path d="M180.822 182.28C180.822 182.28 181.122 192.082 192.541 192.082C203.96 192.082 204.259 182.28 204.259 182.28H180.822Z" fill="#F0F0F0"/>
<path d="M206.858 182.28C206.858 182.28 207.158 192.082 218.577 192.082C229.996 192.082 230.296 182.28 230.296 182.28H206.858Z" fill="#F0F0F0"/>
<path d="M224.64 146.553H202.06C199.657 146.553 197.709 148.501 197.709 150.904V162.453C197.709 164.856 199.657 166.804 202.06 166.804H224.64C227.043 166.804 228.991 164.856 228.991 162.453V150.904C228.991 148.501 227.043 146.553 224.64 146.553Z" fill="#F0F0F0"/>
<path d="M227.533 143.013H199.167C198.362 143.013 197.709 143.666 197.709 144.472V145.659C197.709 146.465 198.362 147.118 199.167 147.118H227.533C228.338 147.118 228.991 146.465 228.991 145.659V144.472C228.991 143.666 228.338 143.013 227.533 143.013Z" fill="#F5F5F5"/>
<path d="M172.219 224.851H175.183V176.259H172.219V224.851Z" fill="#E6E6E6"/>
<path d="M257.791 166.798H241.744V176.253H257.791V166.798Z" fill="#E6E6E6"/>
<path d="M161.959 176.259H241.739V166.804H161.959V176.259Z" fill="#F5F5F5"/>
<path d="M257.791 192.052H241.744V201.508H257.791V192.052Z" fill="#E6E6E6"/>
<path d="M161.959 201.508H241.739V192.053H161.959V201.508Z" fill="#F5F5F5"/>
<path d="M251.999 224.851H254.963V176.259H251.999V224.851Z" fill="#E6E6E6"/>
<path d="M238.781 224.851H241.744V176.259H238.781V224.851Z" fill="#F5F5F5"/>
<path d="M161.959 224.851H164.922V176.259H161.959V224.851Z" fill="#F5F5F5"/>
<path d="M147 251.405C209.964 251.405 261.007 248.425 261.007 244.749C261.007 241.073 209.964 238.093 147 238.093C84.0355 238.093 32.9927 241.073 32.9927 244.749C32.9927 248.425 84.0355 251.405 147 251.405Z" fill="#F5F5F5"/>
<path d="M153.121 214.914H78.1098C76.9036 214.897 75.7484 214.424 74.876 213.591C74.0036 212.758 73.4784 211.626 73.4058 210.422L66.6791 80.1503C66.6418 79.5709 66.7246 78.9899 66.9223 78.444C67.1201 77.898 67.4284 77.3988 67.8281 76.9776C68.2278 76.5564 68.7102 76.2223 69.245 75.9962C69.7798 75.7701 70.3556 75.657 70.9362 75.6639H145.947C147.153 75.6795 148.308 76.1507 149.181 76.983C150.053 77.8152 150.579 78.9467 150.651 80.1503L157.366 210.422C157.404 211 157.321 211.581 157.124 212.126C156.927 212.672 156.62 213.171 156.222 213.592C155.823 214.014 155.342 214.348 154.809 214.576C154.275 214.803 153.701 214.918 153.121 214.914Z" fill="#2B2A29"/>
<path opacity="0.8" d="M153.121 214.914H78.1098C76.9036 214.897 75.7484 214.424 74.876 213.591C74.0036 212.758 73.4784 211.626 73.4058 210.422L66.6791 80.1503C66.6418 79.5709 66.7246 78.9899 66.9223 78.444C67.1201 77.898 67.4284 77.3988 67.8281 76.9776C68.2278 76.5564 68.7102 76.2223 69.245 75.9962C69.7798 75.7701 70.3556 75.657 70.9362 75.6639H145.947C147.153 75.6795 148.308 76.1507 149.181 76.983C150.053 77.8152 150.579 78.9467 150.651 80.1503L157.366 210.422C157.404 211 157.321 211.581 157.124 212.126C156.927 212.672 156.62 213.171 156.222 213.592C155.823 214.014 155.342 214.348 154.809 214.576C154.275 214.803 153.701 214.918 153.121 214.914Z" fill="white"/>
<path d="M138.544 71.4185H130.248V72.0065H138.544V71.4185Z" fill="#2B2A29"/>
<path d="M127.372 71.4185H124.333V72.0065H127.372V71.4185Z" fill="#2B2A29"/>
<path d="M156.349 206.647H84.6131C83.4579 206.635 82.3498 206.187 81.5119 205.392C80.674 204.596 80.1686 203.513 80.0973 202.36L73.6763 77.7629C73.6406 77.2084 73.7199 76.6524 73.9092 76.13C74.0985 75.6075 74.3936 75.1298 74.7762 74.7268C75.1588 74.3237 75.6206 74.0041 76.1325 73.7879C76.6444 73.5718 77.1955 73.4637 77.7511 73.4705H149.487C150.642 73.4833 151.75 73.9331 152.586 74.7296C153.423 75.526 153.927 76.6098 153.997 77.7629L160.418 202.36C160.454 202.914 160.375 203.469 160.186 203.991C159.997 204.513 159.702 204.99 159.32 205.392C158.938 205.795 158.477 206.114 157.966 206.33C157.454 206.546 156.904 206.653 156.349 206.647Z" fill="#2B2A29"/>
<path d="M156.349 203.783H84.6132C84.1925 203.769 83.7917 203.6 83.4871 203.31C83.1825 203.019 82.9952 202.627 82.9609 202.207L76.534 77.6159C76.5195 77.4502 76.5403 77.2833 76.595 77.1262C76.6497 76.9691 76.7372 76.8253 76.8516 76.7045C76.9663 76.584 77.1053 76.4892 77.2593 76.4263C77.4134 76.3635 77.579 76.3341 77.7453 76.34H149.481C149.901 76.3558 150.3 76.525 150.604 76.8154C150.907 77.1057 151.094 77.4972 151.128 77.9158L157.584 202.507C157.598 202.672 157.577 202.839 157.523 202.995C157.468 203.152 157.381 203.295 157.267 203.415C157.153 203.536 157.015 203.631 156.862 203.694C156.709 203.758 156.544 203.788 156.379 203.783H156.349ZM77.7453 76.487C77.5991 76.4823 77.4536 76.508 77.3179 76.5627C77.1823 76.6174 77.0595 76.6997 76.9574 76.8045C76.8592 76.9131 76.7841 77.0405 76.7366 77.1789C76.6891 77.3174 76.6702 77.4641 76.681 77.6101L83.102 202.201C83.1347 202.583 83.3058 202.939 83.5831 203.204C83.8603 203.468 84.2246 203.622 84.6073 203.636H156.343C156.489 203.642 156.634 203.616 156.769 203.562C156.903 203.507 157.025 203.424 157.125 203.319C157.226 203.212 157.303 203.084 157.35 202.946C157.398 202.807 157.415 202.659 157.402 202.513L150.987 77.9217C150.955 77.5406 150.785 77.1842 150.509 76.9198C150.233 76.6555 149.869 76.5015 149.487 76.487H77.7453Z" fill="white"/>
<path opacity="0.3" d="M131.257 121.749C139.416 113.376 138.885 99.6253 130.07 91.0355C121.256 82.4457 107.496 82.2697 99.3367 90.6424C91.1775 99.0151 91.7089 112.766 100.523 121.356C109.338 129.945 123.098 130.121 131.257 121.749Z" fill="white"/>
<path d="M132.888 106.199C133.052 109.088 132.471 111.971 131.2 114.572C129.824 117.361 127.689 119.704 125.039 121.332C122.389 122.96 119.334 123.807 116.224 123.774C113.001 123.745 109.841 122.882 107.051 121.27C104.26 119.657 101.935 117.35 100.301 114.572C98.778 112.032 97.9017 109.156 97.749 106.199C97.604 103.93 97.9288 101.656 98.7029 99.5193C99.4771 97.3822 100.684 95.428 102.248 93.7788C103.812 92.1296 105.7 90.821 107.793 89.9349C109.887 89.0488 112.14 88.6043 114.413 88.6292C119.143 88.6785 123.679 90.5184 127.108 93.7785C130.536 97.0386 132.601 101.477 132.888 106.199Z" fill="white"/>
<path d="M131.183 114.572C129.807 117.361 127.671 119.704 125.021 121.332C122.372 122.96 119.316 123.807 116.206 123.774C112.984 123.745 109.823 122.882 107.033 121.27C104.243 119.657 101.917 117.35 100.283 114.572C104.752 111.486 110.059 109.844 115.489 109.868C121.064 109.889 126.515 111.522 131.183 114.572Z" fill="#2B2A29"/>
<path d="M120.744 105.79C123.684 102.774 123.491 97.8185 120.314 94.7225C117.137 91.6266 112.179 91.5622 109.239 94.5787C106.3 97.5952 106.492 102.55 109.669 105.646C112.846 108.742 117.805 108.807 120.744 105.79Z" fill="#2B2A29"/>
<path d="M146.065 158.172H89.8933C89.4041 158.167 88.9349 157.977 88.5803 157.64C88.2257 157.302 88.012 156.843 87.9823 156.355L87.559 148.123C87.5444 147.889 87.5783 147.654 87.6585 147.434C87.7388 147.213 87.8637 147.012 88.0254 146.842C88.1871 146.672 88.3822 146.537 88.5983 146.446C88.8145 146.355 89.0472 146.309 89.2818 146.312H145.453C145.942 146.317 146.41 146.506 146.765 146.842C147.119 147.178 147.333 147.636 147.364 148.123L147.788 156.355C147.803 156.59 147.77 156.825 147.69 157.046C147.61 157.267 147.485 157.47 147.324 157.64C147.162 157.811 146.967 157.946 146.75 158.038C146.533 158.129 146.3 158.175 146.065 158.172Z" fill="white"/>
<path opacity="0.3" d="M128.866 141.767H105.405C104.914 141.763 104.442 141.573 104.086 141.234C103.73 140.896 103.516 140.434 103.488 139.944L103.4 138.18C103.384 137.945 103.418 137.71 103.497 137.489C103.577 137.268 103.702 137.065 103.864 136.895C104.026 136.724 104.221 136.589 104.438 136.497C104.654 136.406 104.887 136.36 105.123 136.363H128.578C129.067 136.368 129.536 136.558 129.891 136.895C130.245 137.233 130.459 137.692 130.489 138.18L130.583 139.944C130.597 140.178 130.564 140.413 130.484 140.634C130.404 140.854 130.28 141.056 130.119 141.227C129.958 141.398 129.764 141.534 129.548 141.627C129.333 141.72 129.101 141.767 128.866 141.767Z" fill="black"/>
<path opacity="0.3" d="M137.592 197.75H102.447C101.615 197.74 100.817 197.416 100.214 196.842C99.6114 196.268 99.2475 195.488 99.1956 194.657L98.9898 190.6C98.9691 190.201 99.0297 189.803 99.1682 189.428C99.3066 189.054 99.5198 188.711 99.7949 188.422C100.07 188.132 100.401 187.902 100.768 187.745C101.135 187.588 101.531 187.507 101.93 187.507H137.063C137.895 187.518 138.693 187.842 139.296 188.416C139.899 188.989 140.263 189.77 140.314 190.6L140.52 194.657C140.541 195.055 140.481 195.453 140.343 195.827C140.205 196.2 139.993 196.542 139.719 196.832C139.445 197.121 139.116 197.351 138.75 197.509C138.384 197.667 137.99 197.749 137.592 197.75Z" fill="black"/>
<path d="M147.094 178.082H90.9165C90.4277 178.075 89.9593 177.885 89.605 177.548C89.2507 177.211 89.0366 176.753 89.0055 176.265L88.5821 168.033C88.5676 167.798 88.6015 167.563 88.6817 167.343C88.7619 167.122 88.8867 166.92 89.0483 166.75C89.2099 166.579 89.4049 166.444 89.6211 166.352C89.8373 166.26 90.0701 166.214 90.305 166.216H146.477C146.966 166.221 147.435 166.411 147.79 166.748C148.144 167.085 148.358 167.544 148.388 168.033L148.817 176.265C148.831 176.499 148.796 176.734 148.716 176.954C148.635 177.174 148.51 177.376 148.349 177.546C148.187 177.716 147.993 177.852 147.777 177.944C147.561 178.036 147.329 178.083 147.094 178.082Z" fill="white"/>
<path d="M97.0199 152.239C97.0361 152.499 96.9985 152.759 96.9095 153.004C96.8205 153.249 96.682 153.472 96.5027 153.661C96.3233 153.85 96.107 154 95.8672 154.101C95.6273 154.202 95.3692 154.253 95.1089 154.25C94.568 154.244 94.0497 154.033 93.6581 153.66C93.2664 153.287 93.0306 152.779 92.9979 152.239C92.9809 151.98 93.0177 151.719 93.106 151.475C93.1943 151.23 93.3323 151.006 93.5112 150.817C93.69 150.629 93.906 150.479 94.1456 150.377C94.3851 150.276 94.643 150.225 94.9031 150.228C95.4445 150.234 95.9635 150.445 96.3561 150.818C96.7487 151.191 96.9858 151.699 97.0199 152.239Z" fill="#263238"/>
<path d="M103.212 152.239C103.229 152.499 103.192 152.759 103.103 153.004C103.015 153.248 102.877 153.472 102.698 153.661C102.519 153.85 102.303 153.999 102.064 154.101C101.824 154.202 101.566 154.253 101.306 154.25C100.765 154.245 100.246 154.034 99.8541 153.661C99.4622 153.288 99.2267 152.779 99.1955 152.239C99.1784 151.98 99.2152 151.719 99.3035 151.475C99.3919 151.23 99.5298 151.006 99.7087 150.817C99.8876 150.629 100.104 150.479 100.343 150.377C100.583 150.276 100.84 150.225 101.101 150.228C101.642 150.233 102.161 150.444 102.553 150.817C102.945 151.19 103.18 151.699 103.212 152.239Z" fill="#263238"/>
<path d="M109.368 152.239C109.385 152.499 109.348 152.759 109.26 153.004C109.171 153.248 109.034 153.472 108.855 153.661C108.676 153.85 108.46 153.999 108.22 154.101C107.981 154.202 107.723 154.253 107.463 154.25C106.921 154.244 106.402 154.033 106.01 153.66C105.617 153.287 105.38 152.78 105.346 152.239C105.33 151.979 105.367 151.719 105.456 151.474C105.545 151.23 105.684 151.006 105.863 150.817C106.043 150.628 106.259 150.479 106.499 150.377C106.738 150.276 106.997 150.225 107.257 150.228C107.798 150.235 108.316 150.446 108.708 150.819C109.099 151.192 109.335 151.699 109.368 152.239Z" fill="#263238"/>
<path d="M115.571 152.239C115.587 152.498 115.55 152.758 115.461 153.003C115.373 153.247 115.235 153.47 115.056 153.659C114.877 153.847 114.662 153.997 114.423 154.099C114.183 154.201 113.926 154.252 113.666 154.25C113.125 154.244 112.606 154.033 112.213 153.66C111.82 153.287 111.583 152.779 111.549 152.239C111.533 151.98 111.571 151.72 111.659 151.476C111.748 151.231 111.886 151.008 112.065 150.819C112.243 150.631 112.459 150.481 112.698 150.379C112.937 150.277 113.195 150.226 113.454 150.228C113.996 150.234 114.515 150.445 114.907 150.818C115.3 151.191 115.537 151.699 115.571 152.239Z" fill="#263238"/>
<path d="M98.0607 172.137C98.0778 172.396 98.041 172.657 97.9527 172.901C97.8644 173.146 97.7264 173.37 97.5475 173.559C97.3687 173.747 97.1527 173.897 96.9131 173.999C96.6736 174.1 96.4157 174.151 96.1556 174.148C95.6142 174.142 95.0951 173.931 94.7026 173.558C94.31 173.185 94.0729 172.677 94.0388 172.137C94.0226 171.877 94.0602 171.617 94.1492 171.372C94.2382 171.127 94.3767 170.904 94.556 170.715C94.7354 170.526 94.9517 170.377 95.1915 170.275C95.4314 170.174 95.6895 170.123 95.9498 170.126C96.4907 170.132 97.009 170.343 97.4006 170.716C97.7922 171.09 98.0281 171.597 98.0607 172.137Z" fill="#263238"/>
<path d="M104.241 172.137C104.257 172.396 104.219 172.656 104.131 172.9C104.042 173.145 103.904 173.368 103.725 173.557C103.547 173.745 103.331 173.895 103.092 173.997C102.853 174.099 102.595 174.15 102.335 174.148C101.794 174.142 101.275 173.931 100.882 173.558C100.49 173.185 100.253 172.677 100.219 172.137C100.202 171.877 100.238 171.617 100.327 171.372C100.415 171.128 100.553 170.904 100.732 170.715C100.911 170.526 101.127 170.377 101.366 170.275C101.606 170.174 101.864 170.123 102.124 170.126C102.665 170.132 103.184 170.343 103.577 170.716C103.969 171.089 104.206 171.597 104.241 172.137Z" fill="#263238"/>
<path d="M110.421 172.137C110.437 172.397 110.399 172.657 110.31 172.902C110.221 173.147 110.083 173.37 109.903 173.559C109.724 173.748 109.508 173.897 109.268 173.999C109.028 174.1 108.77 174.151 108.51 174.148C107.968 174.143 107.449 173.932 107.057 173.559C106.665 173.186 106.43 172.677 106.399 172.137C106.382 171.877 106.418 171.617 106.507 171.372C106.595 171.128 106.733 170.904 106.912 170.715C107.091 170.526 107.307 170.377 107.546 170.275C107.786 170.174 108.044 170.123 108.304 170.126C108.845 170.132 109.364 170.343 109.757 170.716C110.149 171.089 110.386 171.597 110.421 172.137Z" fill="#263238"/>
<path d="M116.594 172.137C116.611 172.396 116.575 172.657 116.486 172.901C116.398 173.146 116.26 173.37 116.081 173.559C115.902 173.747 115.686 173.897 115.447 173.999C115.207 174.1 114.949 174.151 114.689 174.148C114.148 174.142 113.629 173.931 113.236 173.558C112.844 173.185 112.607 172.677 112.573 172.137C112.556 171.877 112.594 171.617 112.683 171.372C112.772 171.127 112.91 170.904 113.09 170.715C113.269 170.526 113.485 170.377 113.725 170.275C113.965 170.174 114.223 170.123 114.484 170.126C115.025 170.131 115.544 170.342 115.936 170.715C116.328 171.088 116.563 171.597 116.594 172.137Z" fill="#263238"/>
<path d="M122.774 172.137C122.791 172.397 122.755 172.657 122.666 172.901C122.578 173.146 122.44 173.37 122.261 173.559C122.082 173.748 121.866 173.897 121.627 173.999C121.387 174.1 121.129 174.151 120.869 174.148C120.328 174.142 119.809 173.931 119.416 173.558C119.024 173.185 118.787 172.677 118.752 172.137C118.736 171.878 118.774 171.618 118.862 171.373C118.951 171.129 119.089 170.906 119.268 170.717C119.446 170.529 119.662 170.379 119.901 170.277C120.14 170.175 120.398 170.124 120.658 170.126C121.199 170.132 121.718 170.343 122.111 170.716C122.503 171.089 122.74 171.597 122.774 172.137Z" fill="#263238"/>
<path d="M128.954 172.137C128.97 172.397 128.933 172.657 128.844 172.902C128.755 173.147 128.616 173.37 128.437 173.559C128.258 173.748 128.041 173.897 127.801 173.999C127.562 174.1 127.304 174.151 127.043 174.148C126.502 174.141 125.984 173.93 125.592 173.557C125.201 173.184 124.965 172.677 124.932 172.137C124.915 171.877 124.952 171.617 125.04 171.372C125.129 171.128 125.267 170.904 125.445 170.715C125.624 170.526 125.84 170.377 126.08 170.275C126.319 170.174 126.577 170.123 126.837 170.126C127.379 170.132 127.898 170.343 128.29 170.716C128.683 171.089 128.92 171.597 128.954 172.137Z" fill="#263238"/>
<path d="M195.804 103.853C195.951 104.076 196.027 104.194 196.121 104.352L196.386 104.788C196.557 105.082 196.709 105.376 196.856 105.664C197.15 106.252 197.444 106.84 197.68 107.428C198.173 108.596 198.597 109.791 198.95 111.009C199.662 113.413 200.13 115.884 200.349 118.382L200.39 118.847C200.395 118.941 200.395 119.035 200.39 119.129V119.441C200.4 119.849 200.376 120.259 200.32 120.664C200.207 121.414 200.01 122.15 199.732 122.857C199.215 124.119 198.531 125.306 197.697 126.385C196.142 128.376 194.297 130.122 192.223 131.565L190.6 129.666C192.077 127.998 193.385 126.188 194.504 124.262C195.008 123.389 195.403 122.456 195.68 121.487C195.793 121.076 195.858 120.654 195.874 120.228C195.893 120.047 195.893 119.863 195.874 119.682V119.558C195.88 119.503 195.88 119.448 195.874 119.394L195.804 118.982C195.426 116.791 194.891 114.629 194.205 112.514C193.863 111.461 193.446 110.444 193.029 109.45C192.823 108.951 192.588 108.463 192.352 107.992L191.988 107.298L191.806 106.975L191.653 106.716L195.804 103.853Z" fill="#803E3C"/>
<path d="M190.335 131.577L192.464 136.075L194.152 132.271C194.152 132.271 192.652 128.978 190.624 129.284L190.335 131.577Z" fill="#7F3E3B"/>
<path d="M193.987 136.298L195.68 133.523L194.152 132.271L192.464 136.075L193.987 136.298Z" fill="#7F3E3B"/>
<path d="M184.414 240.033C184.855 240.022 185.292 239.963 185.72 239.857C185.741 239.85 185.761 239.838 185.776 239.822C185.792 239.805 185.803 239.785 185.808 239.763C185.812 239.74 185.809 239.717 185.799 239.696C185.79 239.675 185.774 239.658 185.755 239.645C185.585 239.534 184.091 238.569 183.515 238.828C183.451 238.858 183.396 238.904 183.356 238.962C183.316 239.02 183.291 239.087 183.285 239.157C183.268 239.264 183.276 239.373 183.31 239.475C183.344 239.578 183.402 239.67 183.48 239.745C183.746 239.951 184.078 240.054 184.414 240.033ZM185.385 239.687C184.532 239.863 183.885 239.833 183.621 239.604C183.567 239.551 183.527 239.484 183.505 239.411C183.484 239.338 183.481 239.261 183.497 239.187C183.497 239.087 183.556 239.057 183.597 239.04C183.915 238.899 184.779 239.316 185.385 239.687Z" fill="#2B2A29"/>
<path d="M185.69 239.857H185.749C185.767 239.845 185.782 239.83 185.792 239.811C185.802 239.793 185.808 239.772 185.808 239.751C185.808 239.692 185.808 238.275 185.267 237.799C185.201 237.739 185.122 237.695 185.037 237.668C184.952 237.642 184.862 237.634 184.773 237.646C184.68 237.647 184.591 237.679 184.519 237.738C184.447 237.797 184.398 237.879 184.379 237.969C184.267 238.528 185.161 239.587 185.632 239.857H185.69ZM184.85 237.864C184.897 237.862 184.945 237.87 184.989 237.888C185.033 237.905 185.074 237.931 185.108 237.964C185.419 238.421 185.579 238.963 185.567 239.516C185.097 239.14 184.538 238.34 184.609 238.005C184.609 237.952 184.65 237.881 184.797 237.864H184.85Z" fill="#2B2A29"/>
<path d="M178.864 237.634C178.878 237.617 178.886 237.596 178.89 237.575C178.893 237.553 178.89 237.53 178.882 237.51C178.873 237.49 178.859 237.472 178.842 237.459C178.824 237.445 178.803 237.437 178.781 237.434C178.54 237.434 176.429 237.334 175.947 237.852V237.887C175.907 237.938 175.882 237.998 175.872 238.062C175.863 238.126 175.871 238.192 175.894 238.252C175.926 238.353 175.981 238.445 176.056 238.519C176.131 238.594 176.223 238.65 176.324 238.681C177.006 238.893 178.211 238.122 178.87 237.646L178.864 237.634ZM176.124 238.005C176.388 237.723 177.552 237.646 178.423 237.658C177.511 238.281 176.753 238.575 176.371 238.458C176.304 238.437 176.243 238.401 176.194 238.352C176.145 238.303 176.109 238.242 176.088 238.175C176.077 238.153 176.07 238.127 176.07 238.102C176.07 238.076 176.077 238.051 176.088 238.028L176.124 238.005Z" fill="#2B2A29"/>
<path d="M178.864 237.634C178.872 237.616 178.877 237.596 178.877 237.576C178.877 237.555 178.872 237.535 178.864 237.517C178.834 237.47 178.176 236.341 177.399 236.106C177.288 236.073 177.171 236.063 177.056 236.078C176.941 236.092 176.829 236.129 176.729 236.188C176.447 236.353 176.429 236.547 176.465 236.67C176.617 237.217 178.117 237.699 178.764 237.693C178.784 237.693 178.804 237.687 178.821 237.677C178.839 237.667 178.853 237.652 178.864 237.634ZM176.753 236.458C176.786 236.426 176.823 236.398 176.864 236.376C176.937 236.33 177.019 236.3 177.104 236.289C177.19 236.278 177.276 236.285 177.358 236.311C177.87 236.447 178.346 237.105 178.564 237.429C177.864 237.352 176.8 236.923 176.712 236.594C176.704 236.569 176.704 236.542 176.711 236.517C176.719 236.492 176.733 236.47 176.753 236.452V236.458Z" fill="#2B2A29"/>
<path d="M185.337 86.6301C184.749 89.5701 183.479 95.9264 185.52 97.8786C185.52 97.8786 184.72 100.819 179.293 100.819C173.319 100.819 176.441 97.8786 176.441 97.8786C179.699 97.1024 179.616 94.6798 179.046 92.4102L185.337 86.6301Z" fill="#7F3E3B"/>
<path d="M175.389 79.7387C175.422 79.7441 175.455 79.7441 175.489 79.7387C175.516 79.7249 175.541 79.7058 175.562 79.6823C175.582 79.6589 175.598 79.6316 175.608 79.602C175.618 79.5725 175.622 79.5413 175.619 79.5102C175.617 79.4792 175.608 79.4489 175.594 79.4212C175.436 79.0857 175.2 78.7932 174.905 78.5681C174.611 78.343 174.266 78.1919 173.901 78.1275C173.84 78.1224 173.779 78.1409 173.731 78.1791C173.683 78.2174 173.651 78.2725 173.642 78.3334C173.636 78.3949 173.653 78.4565 173.692 78.505C173.731 78.5534 173.787 78.5847 173.848 78.5921C174.136 78.6474 174.407 78.7707 174.638 78.9517C174.869 79.1327 175.054 79.3662 175.177 79.6328C175.2 79.6676 175.231 79.6957 175.268 79.7143C175.306 79.7329 175.347 79.7413 175.389 79.7387Z" fill="#263238"/>
<path d="M173.607 82.3201C173.144 83.1784 172.566 83.9697 171.89 84.6721C172.073 84.8396 172.29 84.9653 172.527 85.0405C172.764 85.1156 173.014 85.1384 173.26 85.1072L173.607 82.3201Z" fill="#630F0F"/>
<path d="M174.048 81.6556C174.001 82.0496 173.748 82.3436 173.495 82.3142C173.242 82.2848 173.066 81.9378 173.113 81.5439C173.16 81.1499 173.413 80.8559 173.701 80.8853C173.989 80.9147 174.089 81.2616 174.048 81.6556Z" fill="#263238"/>
<path d="M173.777 80.9206L172.872 80.556C172.872 80.556 173.254 81.3322 173.777 80.9206Z" fill="#263238"/>
<path d="M184.056 236.517L179.258 237.634L176.341 226.604L181.139 225.486L184.056 236.517Z" fill="#7F3E3B"/>
<path d="M191.417 239.739H186.496L186.878 228.338H191.805L191.417 239.739Z" fill="#7F3E3B"/>
<path d="M186.102 239.169H191.635C191.731 239.168 191.824 239.202 191.896 239.265C191.969 239.328 192.016 239.415 192.029 239.51L192.658 243.885C192.671 243.995 192.66 244.107 192.626 244.214C192.592 244.32 192.535 244.417 192.461 244.5C192.387 244.583 192.295 244.649 192.194 244.694C192.092 244.739 191.982 244.762 191.87 244.761C189.942 244.732 189.013 244.614 186.578 244.614C185.079 244.614 182.891 244.773 180.828 244.773C178.764 244.773 178.646 242.726 179.51 242.544C183.368 241.709 183.979 240.569 185.279 239.475C185.508 239.279 185.8 239.17 186.102 239.169Z" fill="#263238"/>
<path d="M178.834 236.899L183.862 234.589C183.947 234.548 184.044 234.54 184.135 234.566C184.226 234.592 184.305 234.65 184.356 234.73L186.761 238.446C186.817 238.541 186.852 238.648 186.865 238.758C186.877 238.868 186.867 238.98 186.833 239.086C186.8 239.191 186.745 239.289 186.672 239.372C186.598 239.456 186.509 239.523 186.408 239.569C184.644 240.345 183.75 240.633 181.539 241.65C180.181 242.274 177.423 243.708 175.553 244.59C173.683 245.472 172.719 243.644 173.425 243.115C176.582 240.763 177.488 239.075 178.211 237.54C178.333 237.258 178.555 237.03 178.834 236.899Z" fill="#263238"/>
<path opacity="0.2" d="M176.341 226.604L177.905 232.519L182.644 231.172L181.145 225.486L176.341 226.604Z" fill="black"/>
<path opacity="0.2" d="M191.806 228.338H186.878L186.684 234.218H191.612L191.806 228.338Z" fill="black"/>
<path d="M194.04 98.9958C196.086 99.4485 198.273 106.804 198.273 106.804L192.488 112.961C192.488 112.961 187.684 106.046 188.666 103.506C189.659 100.854 191.6 98.4666 194.04 98.9958Z" fill="#263238"/>
<path opacity="0.4" d="M190.771 103.682C189.736 102.735 189.036 103.018 188.56 103.77C188.089 105.958 190.877 110.538 192 112.273C192.517 110.203 193.111 105.84 190.771 103.682Z" fill="black"/>
<path d="M168.115 99.1428C168.115 99.1428 165.763 99.966 170.467 128.866H190.459C190.124 120.728 190.112 115.707 193.987 98.9958C191.186 98.4178 188.346 98.0444 185.491 97.8786C182.468 97.6608 179.434 97.6608 176.412 97.8786C172.537 98.2372 168.115 99.1428 168.115 99.1428Z" fill="#263238"/>
<path opacity="0.4" d="M167.933 110.232C168.062 111.638 168.232 113.219 168.456 115.007C170.096 113.531 171.437 109.333 170.943 106.887C169.771 107.838 168.755 108.967 167.933 110.232Z" fill="black"/>
<path d="M170.073 105.84C168.994 108.555 167.779 111.214 166.433 113.807C165.103 116.494 163.528 119.053 161.729 121.451L161.353 121.916L161.165 122.145C161.1 122.222 161.047 122.292 160.947 122.398C160.593 122.784 160.199 123.131 159.771 123.433C159.015 123.957 158.187 124.368 157.313 124.656C155.79 125.143 154.208 125.423 152.609 125.491C149.616 125.61 146.62 125.343 143.695 124.697L144.019 122.228C145.371 122.228 146.788 122.228 148.135 122.116C149.487 122.049 150.834 121.9 152.168 121.669C153.408 121.476 154.619 121.136 155.779 120.658C156.247 120.458 156.684 120.192 157.078 119.87C157.228 119.744 157.365 119.602 157.484 119.446C157.484 119.446 157.554 119.352 157.602 119.288L157.737 119.094L158.013 118.705C159.489 116.426 160.803 114.047 161.947 111.585C163.123 109.086 164.299 106.493 165.375 103.941L170.073 105.84Z" fill="#803E3C"/>
<path d="M168.115 99.1427C165.663 99.7307 162.653 106.457 162.653 106.457L167.733 113.925C167.733 113.925 174.501 105.405 173.695 102.806C172.872 100.095 171.108 98.4136 168.115 99.1427Z" fill="#263238"/>
<path d="M145.43 122.604L141.19 120.646L140.767 124.862C140.767 124.862 144.295 125.903 146.059 124.862L145.43 122.604Z" fill="#7F3E3B"/>
<path d="M138.656 120.223L138.25 123.433L140.767 124.862L141.19 120.646L138.656 120.223Z" fill="#7F3E3B"/>
<path d="M187.466 81.9437C186.566 86.7477 186.29 88.8057 183.538 90.9872C179.422 94.2682 173.689 92.1161 173.136 87.1416C172.631 82.6611 174.183 75.558 179.163 74.2056C180.261 73.903 181.417 73.8864 182.522 74.1575C183.627 74.4286 184.645 74.9783 185.477 75.7542C186.31 76.5301 186.93 77.5064 187.278 78.5899C187.626 79.6734 187.691 80.8281 187.466 81.9437Z" fill="#7F3E3B"/>
<path d="M176.912 82.9551C176.635 85.4071 176.529 91.7751 181.915 91.975C188.507 92.2161 190.483 86.5831 189.895 84.331C193.329 81.538 193.822 76.7341 189.965 73.0591C186.108 69.3841 177.617 71.4362 175.265 75.0171C172.284 79.4565 176.912 82.9551 176.912 82.9551Z" fill="#263238"/>
<path d="M183.515 74.4879C183.197 71.9007 183.444 70.119 185.867 70.119C188.289 70.119 191.594 70.9951 192.805 73.4706C194.016 75.9461 194.116 79.821 190.735 79.4271C187.354 79.0331 183.897 77.5807 183.515 74.4879Z" fill="#2B2A29"/>
<path d="M187.266 73.8646C186.678 70.7835 189.436 62.1046 196.133 61.5166C199.238 61.252 200.672 64.5918 199.073 65.1446C202.013 65.1093 203.895 68.996 201.155 69.5781C203.318 70.9658 202.783 73.8117 199.696 75.2111C197.397 76.2695 188.06 78.1335 187.266 73.8646Z" fill="#263238"/>
<path d="M194.422 77.1751C192.264 77.1751 190.012 76.8576 188.613 75.9226C188.221 75.6868 187.892 75.3611 187.652 74.9725C187.411 74.5839 187.267 74.1437 187.231 73.6882C187.229 73.6496 187.242 73.6117 187.267 73.5822C187.292 73.5528 187.328 73.5339 187.366 73.5295C187.386 73.527 187.405 73.5287 187.424 73.5343C187.443 73.5399 187.46 73.5493 187.475 73.5621C187.49 73.5748 187.502 73.5905 187.511 73.6082C187.519 73.6258 187.524 73.6451 187.525 73.6647C187.56 74.0757 187.692 74.4726 187.91 74.823C188.127 75.1734 188.425 75.4676 188.777 75.6816C191.441 77.4456 197.597 76.8576 199.514 76.2696C201.172 75.7286 202.295 74.6761 202.519 73.4648C202.589 73.0203 202.534 72.5652 202.36 72.15C202.187 71.7348 201.902 71.3758 201.537 71.1128C201.523 71.0996 201.512 71.0837 201.504 71.066C201.496 71.0483 201.492 71.0292 201.492 71.0099C201.492 70.9906 201.496 70.9715 201.504 70.9538C201.512 70.9361 201.523 70.9202 201.537 70.907C201.564 70.8801 201.601 70.865 201.64 70.865C201.678 70.865 201.715 70.8801 201.743 70.907C202.153 71.2065 202.472 71.6142 202.664 72.0846C202.856 72.5549 202.914 73.0695 202.831 73.5707C202.589 74.8937 201.396 76.0226 199.632 76.5989C197.93 77.0279 196.177 77.2218 194.422 77.1751Z" fill="#263238"/>
<path d="M175.412 82.3201C174.865 83.0882 174.639 84.0398 174.783 84.972C174.977 86.2068 176.177 86.2891 177.047 85.5012C177.917 84.7132 178.676 83.2903 178.035 82.2672C177.892 82.0462 177.696 81.8653 177.463 81.7418C177.231 81.6182 176.971 81.5562 176.709 81.5615C176.446 81.5668 176.189 81.6393 175.962 81.7721C175.735 81.9048 175.546 82.0935 175.412 82.3201Z" fill="#7F3E3B"/>
<path d="M175.747 128.866C175.747 128.866 178.605 162.67 181.574 181.721C183.968 197.109 185.861 233.077 185.861 233.077H192.576C192.576 233.077 194.963 198.185 193.752 182.968C190.677 144.454 197.539 141.314 190.477 128.872L175.747 128.866Z" fill="#2B2A29"/>
<path opacity="0.4" d="M184.203 141.643C181.542 144.436 179.394 147.677 177.858 151.216C178.64 158.813 179.569 167.245 180.557 174.63C184.611 164.136 185.867 152.769 184.203 141.643Z" fill="black"/>
<path d="M171.049 128.654C171.049 128.654 164.846 165.575 163.87 182.215C166.304 197.603 176.265 230.131 176.265 230.131L182.374 227.915C182.374 227.915 178.993 192.447 175.318 182.739C183.591 154.885 189.671 147.841 187.901 128.866C183.662 128.866 171.049 128.654 171.049 128.654Z" fill="#2B2A29"/>
<path d="M175.447 231.754L183.703 229.514L183.232 226.221L174.395 228.614L175.447 231.754Z" fill="#263238"/>
<path d="M184.938 233.213H193.493L193.94 230.214L184.891 229.908L184.938 233.213Z" fill="#263238"/>
<path d="M190.771 127.69L191.67 129.484C191.741 129.625 191.576 129.766 191.347 129.766H170.367C170.191 129.766 170.038 129.678 170.026 129.56L169.844 127.796C169.844 127.672 169.991 127.567 170.185 127.567H190.441C190.502 127.558 190.564 127.565 190.622 127.587C190.679 127.608 190.73 127.644 190.771 127.69Z" fill="#2B2A29"/>
<path opacity="0.5" d="M190.771 127.69L191.67 129.484C191.741 129.625 191.576 129.766 191.347 129.766H170.367C170.191 129.766 170.038 129.678 170.026 129.56L169.844 127.796C169.844 127.672 169.991 127.567 170.185 127.567H190.441C190.502 127.558 190.564 127.565 190.622 127.587C190.679 127.608 190.73 127.644 190.771 127.69Z" fill="black"/>
<path d="M188.048 129.948H188.589C188.701 129.948 188.783 129.889 188.777 129.825L188.519 127.473C188.519 127.402 188.419 127.349 188.313 127.349H187.766C187.66 127.349 187.578 127.402 187.584 127.473L187.837 129.825C187.848 129.901 187.942 129.948 188.048 129.948Z" fill="#2B2A29"/>
<path d="M180.769 112.825C180.704 112.825 180.641 112.803 180.589 112.764C180.537 112.725 180.499 112.67 180.481 112.608C178.564 105.517 174.601 99.6719 172.678 98.7899C172.529 98.6982 172.349 98.6686 172.178 98.7076C172.143 98.7263 172.104 98.7376 172.064 98.7407C172.024 98.7437 171.983 98.7386 171.945 98.7256C171.908 98.7125 171.873 98.6918 171.843 98.6648C171.813 98.6377 171.79 98.6049 171.773 98.5683C171.757 98.5317 171.748 98.4921 171.747 98.452C171.746 98.4119 171.754 98.372 171.769 98.335C171.785 98.2979 171.808 98.2643 171.836 98.2364C171.865 98.2085 171.9 98.1868 171.937 98.1726C172.098 98.1135 172.269 98.0903 172.44 98.1045C172.611 98.1188 172.776 98.1701 172.925 98.2549C174.959 99.2192 178.981 104.982 180.992 112.232C182.433 112.232 184.655 112.038 185.196 111.991C185.867 111.191 190.794 105.029 188.954 98.2843C188.943 98.2472 188.94 98.2084 188.945 98.1701C188.949 98.1318 188.962 98.0948 188.981 98.0614C189 98.0279 189.026 97.9987 189.056 97.9754C189.087 97.952 189.122 97.9351 189.16 97.9256C189.234 97.9057 189.314 97.9162 189.381 97.9548C189.448 97.9933 189.498 98.0568 189.518 98.1314C191.57 105.634 185.62 112.402 185.555 112.467C185.532 112.495 185.504 112.519 185.471 112.536C185.439 112.553 185.403 112.564 185.367 112.567C185.338 112.567 182.403 112.825 180.769 112.825Z" fill="#2B2A29"/>
<path d="M190.512 116.977C187.307 110.973 185.996 110.55 185.426 108.621C185.858 107.543 186.475 106.548 187.249 105.681C186.861 105.57 186.026 105.405 185.485 105.305C185.543 105.04 185.608 104.782 185.667 104.529C185.078 104.463 184.483 104.491 183.903 104.611V104.023C183.156 103.861 182.389 103.811 181.627 103.876C181.694 104.154 181.759 104.437 181.821 104.723C181.233 104.835 180.34 105.017 179.91 105.14C180.744 106.085 181.357 107.204 181.704 108.415C179.975 111.385 173.26 130.471 184.185 131.935C195.11 133.4 193.711 122.986 190.512 116.977Z" fill="#2B2A29"/>
<path opacity="0.4" d="M190.512 116.977C187.307 110.973 185.996 110.55 185.426 108.621C185.858 107.543 186.475 106.548 187.249 105.681C186.861 105.57 186.026 105.405 185.485 105.305C185.543 105.04 185.608 104.782 185.667 104.529C185.078 104.463 184.483 104.491 183.903 104.611V104.023C183.156 103.861 182.389 103.811 181.627 103.876C181.694 104.154 181.759 104.437 181.821 104.723C181.233 104.835 180.34 105.017 179.91 105.14C180.744 106.085 181.357 107.204 181.704 108.415C179.975 111.385 173.26 130.471 184.185 131.935C195.11 133.4 193.711 122.986 190.512 116.977Z" fill="white"/>
<path d="M181.257 107.845C181.189 108.148 181.159 108.458 181.169 108.768C181.169 108.986 181.757 109.133 182.409 109.198C183.062 109.262 185.802 109.368 185.714 109.062C185.626 108.757 185.849 108.339 185.861 108.08C185.873 107.822 184.773 107.81 183.85 107.845C182.927 107.88 181.439 107.516 181.257 107.845Z" fill="#2B2A29"/>
<path d="M174.901 129.948H175.442C175.547 129.948 175.63 129.889 175.624 129.825L175.371 127.473C175.371 127.402 175.271 127.349 175.159 127.349H174.636C174.53 127.349 174.448 127.402 174.454 127.473L174.707 129.825C174.695 129.901 174.789 129.948 174.901 129.948Z" fill="#2B2A29"/>
</svg>
