<svg width="30" height="30" viewBox="0 0 30 30" fill="none" xmlns="http://www.w3.org/2000/svg">
<g clip-path="url(#clip0)">
<path d="M18.7498 16.2507C18.0586 16.2507 17.4999 16.8108 17.4999 17.5007V22.5008C17.4999 23.1895 16.9398 23.7507 16.2498 23.7507H12.4998V5.00085C12.4998 3.93336 11.8198 2.97962 10.7974 2.62462L10.4273 2.5008H16.2498C16.9398 2.5008 17.4999 3.06201 17.4999 3.75094V7.5009C17.4999 8.19075 18.0586 8.75082 18.7498 8.75082C19.441 8.75082 19.9997 8.19075 19.9997 7.5009V3.75094C19.9997 1.68347 18.3172 0.000976562 16.2498 0.000976562H2.81247C2.76486 0.000976562 2.72504 0.0222624 2.6788 0.0284421C2.61861 0.0234068 2.56116 0.000976562 2.50005 0.000976562C1.12128 0.000976562 0 1.12203 0 2.5008V25.0006C0 26.0681 0.680001 27.0218 1.70241 27.3768L9.22499 29.8844C9.47996 29.9632 9.73356 30.0007 9.99997 30.0007C11.3787 30.0007 12.4998 28.8794 12.4998 27.5006V26.2507H16.2498C18.3172 26.2507 19.9997 24.5682 19.9997 22.5008V17.5007C19.9997 16.8108 19.441 16.2507 18.7498 16.2507V16.2507Z" fill="black"/>
<path d="M29.6335 11.6165L24.6334 6.61659C24.2761 6.25908 23.7385 6.1515 23.2711 6.34513C22.8049 6.539 22.4998 6.99515 22.4998 7.50029V11.2503H17.4999C16.8098 11.2503 16.2498 11.8101 16.2498 12.5002C16.2498 13.1902 16.8098 13.7501 17.4999 13.7501H22.4998V17.5C22.4998 18.0052 22.8049 18.4613 23.2711 18.6552C23.7385 18.8488 24.2761 18.7412 24.6334 18.384L29.6335 13.3839C30.1221 12.8952 30.1221 12.1051 29.6335 11.6165V11.6165Z" fill="black"/>
</g>
<defs>
<clipPath id="clip0">
<rect width="30" height="30" fill="white"/>
</clipPath>
</defs>
</svg>
