<svg width="44" height="44" viewBox="0 0 44 44" fill="none" xmlns="http://www.w3.org/2000/svg">
<path d="M17.05 29.7H26.95C27.852 29.7 28.6 28.952 28.6 28.05C28.6 27.148 27.852 26.4 26.95 26.4H17.05C16.148 26.4 15.4 27.148 15.4 28.05C15.4 28.952 16.148 29.7 17.05 29.7Z" fill="#4B5D6B"/>
<path d="M29.7 19.8C31.5225 19.8 33 18.3225 33 16.5C33 14.6775 31.5225 13.2 29.7 13.2C27.8775 13.2 26.4 14.6775 26.4 16.5C26.4 18.3225 27.8775 19.8 29.7 19.8Z" fill="#4B5D6B"/>
<path d="M14.3 19.8C16.1225 19.8 17.6 18.3225 17.6 16.5C17.6 14.6775 16.1225 13.2 14.3 13.2C12.4775 13.2 11 14.6775 11 16.5C11 18.3225 12.4775 19.8 14.3 19.8Z" fill="#4B5D6B"/>
<path d="M21.978 0C9.834 0 0 9.856 0 22C0 34.144 9.834 44 21.978 44C34.144 44 44 34.144 44 22C44 9.856 34.144 0 21.978 0ZM22 39.6C12.276 39.6 4.4 31.724 4.4 22C4.4 12.276 12.276 4.4 22 4.4C31.724 4.4 39.6 12.276 39.6 22C39.6 31.724 31.724 39.6 22 39.6Z" fill="#4B5D6B"/>
</svg>
