<svg width="40" height="40" viewBox="0 0 40 40" fill="none" xmlns="http://www.w3.org/2000/svg">
<path d="M36.5625 6.48438C36.7075 6.48438 36.8466 6.42676 36.9492 6.3242C37.0518 6.22164 37.1094 6.08254 37.1094 5.9375V3.4375C37.1094 3.29246 37.0518 3.15336 36.9492 3.0508C36.8466 2.94824 36.7075 2.89062 36.5625 2.89062H3.4375C3.29246 2.89062 3.15336 2.94824 3.0508 3.0508C2.94824 3.15336 2.89062 3.29246 2.89062 3.4375V5.9375C2.89062 6.08254 2.94824 6.22164 3.0508 6.3242C3.15336 6.42676 3.29246 6.48438 3.4375 6.48438H4.76562V23.3072H3.4375C3.29246 23.3072 3.15336 23.3648 3.0508 23.4674C2.94824 23.5699 2.89062 23.709 2.89062 23.8541V26.3541C2.89062 26.4991 2.94824 26.6382 3.0508 26.7408C3.15336 26.8433 3.29246 26.9009 3.4375 26.9009H5.58031C3.91651 28.827 3.00225 31.288 3.005 33.8331V36.5625C3.005 36.7075 3.06262 36.8466 3.16518 36.9492C3.26773 37.0518 3.40683 37.1094 3.55188 37.1094C3.69692 37.1094 3.83601 37.0518 3.93857 36.9492C4.04113 36.8466 4.09875 36.7075 4.09875 36.5625V33.8331C4.09634 32.2476 4.4913 30.6868 5.24754 29.2933C6.00377 27.8998 7.09717 26.718 8.42781 25.8559L11.6153 28.6078C11.7219 28.6999 11.86 28.7474 12.0007 28.7402C12.1414 28.733 12.2739 28.6718 12.3706 28.5694L13.1059 27.7881L13.6975 28.9713L12.25 36.4587C12.2225 36.6011 12.2527 36.7486 12.3339 36.8688C12.4151 36.9889 12.5407 37.0718 12.6831 37.0994C12.7175 37.1061 12.7525 37.1095 12.7875 37.1094C12.9144 37.1092 13.0373 37.0648 13.1351 36.984C13.2329 36.9032 13.2996 36.7908 13.3238 36.6663L14.2703 31.7738L15.2166 36.6663C15.2441 36.8087 15.327 36.9343 15.4472 37.0156C15.5674 37.0969 15.7149 37.127 15.8573 37.0995C15.9998 37.072 16.1254 36.989 16.2067 36.8689C16.288 36.7487 16.3181 36.6012 16.2906 36.4587L14.8419 28.9725L15.4331 27.79L16.1681 28.5694C16.2648 28.6718 16.3974 28.733 16.5381 28.7402C16.6788 28.7474 16.8168 28.6999 16.9234 28.6078L20.1734 25.8028L25.4775 29.1656C25.6531 29.2769 25.8494 29.3515 26.0545 29.385C26.2597 29.4185 26.4695 29.4102 26.6713 29.3606C26.8732 29.311 27.063 29.2211 27.2292 29.0963C27.3955 28.9715 27.5348 28.8144 27.6388 28.6344L30.99 22.8288L32.9297 23.9484L29.1622 30.4744C28.9239 30.8871 28.6065 31.2486 28.2281 31.5383C27.8496 31.8279 27.4177 32.04 26.9571 32.1622C26.4965 32.2845 26.0163 32.3145 25.5441 32.2507C25.0718 32.1868 24.6169 32.0302 24.2053 31.79L22.6756 30.9641C22.5919 30.9188 22.4979 30.8962 22.4028 30.8984C22.3077 30.9007 22.2148 30.9277 22.1333 30.9768C22.0518 31.0259 21.9846 31.0954 21.9382 31.1784C21.8918 31.2615 21.8679 31.3552 21.8688 31.4503L21.9141 36.5675C21.9154 36.7117 21.9736 36.8495 22.076 36.951C22.1784 37.0524 22.3168 37.1094 22.4609 37.1094H22.4659C22.5378 37.1087 22.6087 37.0939 22.6748 37.0658C22.7409 37.0378 22.8009 36.9969 22.8512 36.9457C22.9015 36.8944 22.9412 36.8338 22.9681 36.7672C22.995 36.7006 23.0085 36.6293 23.0078 36.5575L22.9706 32.3662L23.6716 32.7447C24.2074 33.0543 24.799 33.2553 25.4126 33.3363C26.0261 33.4172 26.6496 33.3765 27.2474 33.2164C27.8452 33.0563 28.4056 32.78 28.8966 32.4033C29.3876 32.0266 29.7996 31.5569 30.1091 31.0209L32.4878 26.9006H36.5625C36.7075 26.9006 36.8466 26.843 36.9492 26.7404C37.0518 26.6379 37.1094 26.4988 37.1094 26.3538V23.8538C37.1094 23.7087 37.0518 23.5696 36.9492 23.4671C36.8466 23.3645 36.7075 23.3069 36.5625 23.3069H35.2344V6.48438H36.5625ZM3.98438 3.98438H36.0156V5.39062H3.98438V3.98438ZM5.85938 18.7712C5.95965 19.2232 6.18581 19.6375 6.5117 19.9663C6.8376 20.295 7.24991 20.5248 7.70094 20.6291V21.0825C7.70178 21.8522 7.87408 22.6121 8.20531 23.3069H5.85938V18.7712ZM29.4509 23.3072H27.0312V22.5H29.9169L29.4509 23.3072ZM28.8194 24.4009L28.0069 25.8072H22.2222L20.0034 24.4009H28.8194ZM20.8381 17.0113C21.0779 17.1167 21.2817 17.2896 21.4248 17.509C21.568 17.7283 21.6442 17.9845 21.6442 18.2464C21.6442 18.5083 21.568 18.7645 21.4248 18.9839C21.2817 19.2032 21.0779 19.3761 20.8381 19.4816V17.0113ZM19.7444 21.0828C19.7431 22.1775 19.3077 23.2271 18.5336 24.0011C17.7596 24.7752 16.71 25.2106 15.6153 25.2119H12.9237C11.8291 25.2106 10.7796 24.7751 10.0055 24.001C9.23146 23.227 8.79601 22.1775 8.79469 21.0828V15.3569C8.79437 14.6517 8.95333 13.9555 9.25969 13.3203C10.0936 13.8848 11.0848 14.1707 12.0913 14.1372H15.1406C16.5127 14.1337 17.83 14.6752 18.8028 15.6428L19.7447 16.5747L19.7444 21.0828ZM19.5719 14.8641C18.3947 13.6933 16.8006 13.0379 15.1403 13.0422H12.0913C10.945 13.0422 10.0475 12.6969 9.42438 12.015C8.50281 11.0072 8.34906 9.48562 8.33531 8.70781H14.2697C18.5066 8.70781 19.4844 12.6603 19.6925 14.9831L19.5719 14.8641ZM7.70094 19.4816C7.46121 19.3761 7.25735 19.2032 7.11423 18.9839C6.9711 18.7645 6.89489 18.5083 6.89489 18.2464C6.89489 17.9845 6.9711 17.7283 7.11423 17.509C7.25735 17.2896 7.46121 17.1167 7.70094 17.0113V19.4816ZM3.98438 24.4009H8.75187C8.00599 24.7859 7.30841 25.2579 6.67375 25.8072H3.98438V24.4009ZM11.9338 27.4375L9.4375 25.2812C9.51781 25.2422 9.60031 25.2062 9.68219 25.1691C10.6028 25.9046 11.7463 26.3052 12.9247 26.305H13.0028L11.9338 27.4375ZM14.2697 27.6706L13.9062 26.9422L14.2706 26.5559L14.6353 26.9425L14.2697 27.6706ZM16.605 27.4375L15.5369 26.305H15.6153C16.8548 26.3053 18.0536 25.8625 18.9953 25.0566L19.2069 25.1906L16.605 27.4375ZM26.41 28.2978C26.3513 28.3124 26.2903 28.3149 26.2307 28.3051C26.1711 28.2953 26.1141 28.2735 26.0631 28.2409L23.9481 26.9003H27.375L26.6903 28.0863C26.6604 28.1388 26.6202 28.1847 26.572 28.2212C26.5238 28.2577 26.4687 28.2839 26.41 28.2984V28.2978ZM31.4259 21.8166C31.4809 21.6382 31.5753 21.4746 31.7022 21.3377C31.8291 21.2009 31.9852 21.0944 32.1588 21.0262C32.3325 20.958 32.5194 20.9298 32.7055 20.9437C32.8916 20.9577 33.0721 21.0133 33.2337 21.1066C33.3953 21.1999 33.5338 21.3285 33.6389 21.4827C33.744 21.6369 33.813 21.8128 33.8408 21.9973C33.8686 22.1818 33.8544 22.3702 33.7994 22.5485C33.7443 22.7268 33.6498 22.8904 33.5228 23.0272L31.4259 21.8166ZM36.0156 25.8072H33.1194L33.9319 24.4009H36.0163L36.0156 25.8072ZM34.1406 20.4178C33.7166 20.0474 33.1725 19.8434 32.6094 19.8438C32.4457 19.8441 32.2825 19.8615 32.1225 19.8956L27.8775 11.9956C27.8076 11.8701 27.6912 11.7772 27.5534 11.7368C27.4156 11.6964 27.2674 11.7119 27.1409 11.7799C27.0144 11.8478 26.9197 11.9628 26.8772 12.1C26.8348 12.2372 26.848 12.3856 26.9141 12.5131L31.1359 20.3672C30.8005 20.6391 30.5472 20.9988 30.4044 21.4062H26.4844C26.3393 21.4062 26.2002 21.4639 26.0977 21.5664C25.9951 21.669 25.9375 21.8081 25.9375 21.9531V23.3072H20.3337C20.665 22.6124 20.8373 21.8525 20.8381 21.0828V20.6294C21.3779 20.5061 21.8598 20.2031 22.2049 19.7702C22.5501 19.3373 22.738 18.8001 22.738 18.2464C22.738 17.6927 22.5501 17.1555 22.2049 16.7226C21.8598 16.2897 21.3779 15.9868 20.8381 15.8634V15.3569C20.8375 15.2953 20.8264 15.2344 20.8053 15.1766C20.5519 11.3619 18.7387 7.61406 14.2697 7.61406H7.80094C7.66463 7.61402 7.53323 7.66489 7.43247 7.75668C7.33171 7.84848 7.26887 7.97459 7.25625 8.11031C7.24594 8.2225 7.0325 10.7728 8.43406 12.5319C7.95149 13.3947 7.69872 14.367 7.7 15.3556V15.8622C7.24894 15.9665 6.83663 16.1963 6.51073 16.5252C6.18484 16.854 5.95869 17.2683 5.85844 17.7203V6.48438H34.1397L34.1406 20.4178Z" fill="#DEE5EE"/>
<path d="M7.09094 31.5503C6.9459 31.5503 6.8068 31.6079 6.70424 31.7105C6.60168 31.813 6.54407 31.9521 6.54407 32.0972V36.5625C6.54407 36.7075 6.60168 36.8466 6.70424 36.9492C6.8068 37.0517 6.9459 37.1094 7.09094 37.1094C7.23598 37.1094 7.37508 37.0517 7.47764 36.9492C7.5802 36.8466 7.63782 36.7075 7.63782 36.5625V32.0972C7.63782 31.9521 7.5802 31.813 7.47764 31.7105C7.37508 31.6079 7.23598 31.5503 7.09094 31.5503Z" fill="#DEE5EE"/>
<path d="M15.7524 20.0516C15.6074 20.0516 15.4683 20.1092 15.3657 20.2118C15.2632 20.3143 15.2056 20.4534 15.2056 20.5985C15.1939 20.839 15.0902 21.0658 14.9159 21.2319C14.7415 21.398 14.51 21.4907 14.2692 21.4907C14.0284 21.4907 13.7968 21.398 13.6225 21.2319C13.4481 21.0658 13.3444 20.839 13.3328 20.5985C13.3328 20.4534 13.2751 20.3143 13.1726 20.2118C13.07 20.1092 12.9309 20.0516 12.7859 20.0516C12.6408 20.0516 12.5017 20.1092 12.3992 20.2118C12.2966 20.3143 12.239 20.4534 12.239 20.5985C12.2563 21.1253 12.4778 21.6249 12.8566 21.9915C13.2355 22.3581 13.742 22.5631 14.2692 22.5631C14.7963 22.5631 15.3029 22.3581 15.6817 21.9915C16.0606 21.6249 16.282 21.1253 16.2993 20.5985C16.2993 20.4534 16.2417 20.3143 16.1391 20.2118C16.0366 20.1092 15.8975 20.0516 15.7524 20.0516Z" fill="#DEE5EE"/>
<path d="M12.8072 17.3247C12.8072 17.1464 12.7543 16.9722 12.6553 16.824C12.5562 16.6758 12.4155 16.5602 12.2508 16.492C12.0861 16.4238 11.9048 16.406 11.73 16.4408C11.5552 16.4756 11.3946 16.5615 11.2686 16.6875C11.1425 16.8136 11.0567 16.9742 11.022 17.1491C10.9872 17.3239 11.0051 17.5051 11.0734 17.6698C11.1417 17.8345 11.2572 17.9752 11.4055 18.0742C11.5537 18.1732 11.728 18.226 11.9063 18.226C12.1451 18.2255 12.3741 18.1305 12.543 17.9615C12.7119 17.7926 12.8069 17.5636 12.8072 17.3247Z" fill="#DEE5EE"/>
<path d="M16.6331 16.4238C16.4549 16.4238 16.2806 16.4766 16.1324 16.5757C15.9842 16.6747 15.8687 16.8154 15.8005 16.9801C15.7323 17.1448 15.7144 17.326 15.7492 17.5008C15.784 17.6757 15.8698 17.8363 15.9958 17.9623C16.1219 18.0883 16.2825 18.1742 16.4573 18.209C16.6321 18.2437 16.8133 18.2259 16.978 18.1577C17.1427 18.0895 17.2835 17.9739 17.3825 17.8257C17.4815 17.6775 17.5344 17.5033 17.5344 17.325C17.5341 17.0861 17.4391 16.857 17.2701 16.688C17.1012 16.519 16.8721 16.424 16.6331 16.4238Z" fill="#DEE5EE"/>
</svg>
