<svg width="112" height="135" viewBox="0 0 112 135" fill="none" xmlns="http://www.w3.org/2000/svg">
<path d="M101.839 59.6278C98.1413 59.5565 94.9569 61.8777 93.759 65.1706C92.1076 66.0058 88.4371 66.578 80.2876 65.1724C76.3045 64.4854 74.7023 61.9717 74.0837 60.4253C73.7597 58.0275 73.1461 55.6809 72.2621 53.4391C72.1548 52.1493 72.1802 49.5063 73.9446 48.163C77.4712 45.4783 78.939 44.9869 79.5473 45.0111C79.6813 45.1049 79.8235 45.1839 79.9714 45.2476L79.9735 45.2515L79.9728 45.2483C80.7191 45.5695 81.6091 45.5032 82.3166 44.9952C83.393 44.2222 83.6394 42.7195 82.867 41.6387C82.0946 40.5579 80.5959 40.3083 79.5196 41.0813C78.7533 41.6315 78.4077 42.5515 78.5507 43.4259C78.2052 44.0785 76.9149 45.2286 72.7221 46.9988C70.8582 47.7857 69.0041 46.7392 67.9831 45.9624C65.8567 43.2483 63.2336 40.8731 60.1687 38.9898C59.4677 37.6658 58.9253 35.9277 59.5004 34.21C60.9011 30.0271 62.1478 28.201 63.05 27.4235C65.4796 28.023 68.0553 26.8001 69.0822 24.4242C70.2286 21.7718 69.0106 18.6869 66.3618 17.5339C63.713 16.3808 60.6363 17.5963 59.4899 20.2487C58.584 22.3448 59.1546 24.711 60.7411 26.1804C60.8272 27.3328 60.2854 29.5823 57.5639 33.9301C56.7059 35.3008 55.3553 35.8999 54.1055 36.1398C48.8553 34.355 43.3779 34.1294 38.2349 35.262C35.8001 35.4771 30.2488 35.4941 27.3093 31.7036C22.7469 25.8205 21.3271 22.343 21.0621 20.3282C24.1882 17.4492 24.8757 12.6415 22.4821 8.94767C19.8132 4.82881 14.3242 3.65459 10.2221 6.32497C6.12004 8.99534 4.95825 14.4991 7.62718 18.6179C9.74037 21.8791 13.6215 23.2943 17.1823 22.4168C18.889 23.398 21.5424 26.2953 25.1047 34.185C26.5317 37.3452 25.4934 40.4619 24.272 42.6249C21.6316 45.109 19.4042 48.1231 17.7646 51.6049C13.2836 61.1202 14.2784 71.8208 19.4697 80.1349L19.3052 79.9834C19.3052 79.9834 22.1536 85.592 19.4442 89.3733C16.2028 93.897 14.0213 95.6349 12.6445 96.2363C9.93548 94.6107 6.37622 95.1268 4.25711 97.6088C1.89042 100.381 2.21631 104.555 4.98499 106.932C7.75367 109.309 11.9167 108.989 14.2834 106.218C16.1548 104.026 16.3427 100.957 14.9706 98.5935C15.2948 97.1713 16.7833 94.6604 21.6771 90.4321C24.0069 88.4192 27.0389 88.9445 28.8374 89.5377C29.8329 90.1639 30.876 90.7378 31.9648 91.2541C33.6065 92.0325 35.2832 92.6472 36.9766 93.1048C37.4794 94.0214 38.4361 96.3784 37.5724 99.9693C35.6315 108.039 34.7221 109.909 34.3571 110.315C34.2963 110.342 34.2361 110.372 34.1768 110.405L34.1493 110.4C34.1493 110.4 34.1505 110.402 34.1529 110.404C34.1553 110.407 34.1589 110.409 34.1638 110.412C33.4921 110.789 32.9297 111.499 32.7415 112.301C32.4673 113.471 33.0909 114.394 34.1344 114.364C35.178 114.333 36.2462 113.36 36.5204 112.191C36.7286 111.303 36.4194 110.557 35.8019 110.263C35.7816 109.37 36.2588 106.783 38.8571 99.3723C39.9498 96.2558 41.6484 94.7282 42.6568 94.057C45.6685 94.2625 48.6686 94.0021 51.5563 93.3117C54.529 94.0238 57.8248 95.5213 59.7189 98.6347C64.5366 106.554 65.805 111.054 65.8503 113.584C61.5784 116.702 60.053 122.552 62.4958 127.458C65.2191 132.928 71.8434 135.155 77.2916 132.432C82.7397 129.708 84.9486 123.066 82.2252 117.596C80.0695 113.266 75.4694 110.968 70.9432 111.549C68.9698 110.096 66.0938 106.139 62.7936 95.8774C61.6783 92.4094 62.73 89.2276 64.1758 86.8148C66.2728 84.9861 68.1355 82.8392 69.6841 80.4028C70.5205 80.2361 71.4151 80.2493 72.2548 80.6346C76.2429 82.4649 77.3901 83.5268 77.6733 84.0808C77.5535 85.0684 78.0579 86.0682 78.9997 86.5326C80.1897 87.1192 81.6274 86.6288 82.2109 85.4372C82.7944 84.2456 82.3027 82.804 81.1127 82.2174C80.2627 81.7984 79.2864 81.9288 78.5853 82.4717C77.8398 82.4646 76.2149 81.8537 72.6978 79.006C72.0585 78.4884 71.6851 77.8299 71.4805 77.1455L71.5076 77.088C71.7752 76.5196 72.0234 75.947 72.2522 75.3709C73.1567 73.6176 76.1807 68.5508 81.0635 68.2292C88.1831 67.7602 91.6599 68.517 93.3564 69.3946C93.9858 73.367 97.3865 76.4407 101.542 76.5208C106.201 76.6106 110.046 72.9018 110.128 68.2369C110.21 63.572 106.499 59.7176 101.839 59.6278Z" fill="#DEE5EE"/>
<path d="M44.8687 21.8118C45.0534 23.1285 44.1402 24.3445 42.829 24.5278C41.5178 24.7112 40.305 23.7924 40.1203 22.4757C39.9356 21.1591 40.8488 19.9431 42.16 19.7598C43.4712 19.5764 44.684 20.4952 44.8687 21.8118Z" fill="#DEE5EE"/>
<path d="M16.8028 86.5819C17.6417 86.4646 18.226 85.6866 18.1078 84.8442C17.9896 84.0018 17.2137 83.414 16.3748 83.5313C15.5359 83.6486 14.9516 84.4266 15.0698 85.269C15.188 86.1114 15.9639 86.6991 16.8028 86.5819Z" fill="#DEE5EE"/>
<path d="M72.4863 90.2919C72.5439 90.7029 72.2589 91.0824 71.8496 91.1397C71.4403 91.1969 71.0617 90.9101 71.0041 90.4991C70.9464 90.0881 71.2315 89.7086 71.6408 89.6513C72.05 89.5941 72.4286 89.8809 72.4863 90.2919Z" fill="#DEE5EE"/>
<path d="M69.9153 132.12C71.8253 132.542 73.8126 132.447 75.6718 131.842C77.5309 131.237 79.1944 130.145 80.4901 128.68L80.3426 128.549C79.0702 129.988 77.4366 131.06 75.6108 131.654C73.7849 132.248 71.8332 132.342 69.9576 131.927L69.9153 132.12Z" fill="#4B5D6B"/>
<path d="M7.70679 107.409C8.85491 107.663 10.0496 107.606 11.1672 107.242C12.2848 106.879 13.2847 106.222 14.0636 105.341L13.975 105.263C13.2101 106.128 12.2281 106.772 11.1305 107.129C10.0329 107.486 8.85971 107.543 7.73218 107.293L7.70679 107.409Z" fill="#4B5D6B"/>
<path d="M12.7907 20.8346C14.3338 21.1763 15.9394 21.0988 17.4414 20.6102C18.9435 20.1216 20.2875 19.2396 21.3343 18.0555L21.2151 17.9498C20.1871 19.1126 18.8673 19.9788 17.3922 20.4586C15.917 20.9385 14.3402 21.0146 12.8248 20.6791L12.7907 20.8346Z" fill="#4B5D6B"/>
<path d="M69.7375 130.935C72.3842 131.522 75.1525 131.107 77.5094 129.77L77.4344 129.637C75.1102 130.956 72.3802 131.365 69.7701 130.787L69.7375 130.935Z" fill="#4B5D6B"/>
<path d="M7.02787 106.906C8.61889 107.258 10.283 107.009 11.6998 106.205L11.6547 106.126C10.2575 106.918 8.61646 107.164 7.04748 106.817L7.02787 106.906Z" fill="#4B5D6B"/>
<path d="M12.7633 19.597C14.9016 20.0707 17.1382 19.7352 19.0424 18.6552L18.9818 18.5482C17.104 19.6132 14.8984 19.944 12.7896 19.477L12.7633 19.597Z" fill="#4B5D6B"/>
<path d="M99.414 75.7128C100.882 76.0379 102.41 75.9641 103.839 75.4993C105.268 75.0344 106.547 74.1952 107.543 73.0687L107.429 72.9681C106.451 74.0745 105.195 74.8985 103.792 75.3551C102.388 75.8116 100.888 75.884 99.4465 75.5648L99.414 75.7128Z" fill="#4B5D6B"/>
<path d="M63.0136 26.8665C63.9231 27.0679 64.8695 27.0222 65.7549 26.7342C66.6403 26.4462 67.4325 25.9263 68.0495 25.2284L67.9793 25.166C67.3733 25.8515 66.5954 26.3621 65.7259 26.6449C64.8564 26.9277 63.9269 26.9726 63.0337 26.7748L63.0136 26.8665Z" fill="#4B5D6B"/>
<path d="M80.1029 44.994C80.5207 45.0865 80.9554 45.0655 81.3621 44.9332C81.7688 44.8009 82.1326 44.5621 82.416 44.2415L82.3838 44.2129C82.1055 44.5277 81.7481 44.7623 81.3487 44.8922C80.9493 45.0221 80.5224 45.0427 80.1121 44.9519L80.1029 44.994Z" fill="#4B5D6B"/>
<path d="M79.2879 86.2318C79.7057 86.3243 80.1404 86.3033 80.5471 86.171C80.9538 86.0387 81.3177 85.7999 81.6011 85.4793L81.5688 85.4507C81.2905 85.7655 80.9332 86 80.5338 86.13C80.1344 86.2599 79.7075 86.2805 79.2972 86.1896L79.2879 86.2318Z" fill="#4B5D6B"/>
<path d="M33.3568 113.744C33.7746 113.837 34.2093 113.816 34.616 113.683C35.0226 113.551 35.3865 113.312 35.6699 112.992L35.6377 112.963C35.3594 113.278 35.002 113.513 34.6026 113.642C34.2032 113.772 33.7763 113.793 33.366 113.702L33.3568 113.744Z" fill="#4B5D6B"/>
<path d="M99.2204 74.8273C101.255 75.2779 103.383 74.9588 105.194 73.9312L105.137 73.8294C103.35 74.8427 101.252 75.1574 99.2455 74.7131L99.2204 74.8273Z" fill="#4B5D6B"/>
<path d="M62.9515 26.3497C64.212 26.6289 65.5303 26.4311 66.6527 25.7945L66.617 25.7314C65.5101 26.3592 64.21 26.5542 62.9671 26.2789L62.9515 26.3497Z" fill="#4B5D6B"/>
<path d="M80.0415 44.4775C80.6204 44.6057 81.226 44.5149 81.7415 44.2225L81.7251 44.1935C81.2167 44.4818 80.6196 44.5714 80.0486 44.4449L80.0415 44.4775Z" fill="#4B5D6B"/>
<path d="M79.2266 85.7151C79.8055 85.8434 80.4111 85.7526 80.9266 85.4602L80.9102 85.4312C80.4018 85.7195 79.8046 85.8091 79.2337 85.6826L79.2266 85.7151Z" fill="#4B5D6B"/>
<path d="M33.2954 113.228C33.8744 113.356 34.4799 113.265 34.9955 112.973L34.979 112.944C34.4706 113.232 33.8735 113.322 33.3026 113.195L33.2954 113.228Z" fill="#4B5D6B"/>
<ellipse cx="45.1405" cy="64.7835" rx="25.2753" ry="25.3433" fill="white"/>
<path d="M59.1641 54.3496C59.2837 54.3496 59.3985 54.3021 59.4831 54.2175C59.5677 54.1329 59.6152 54.0181 59.6152 53.8984V51.8359C59.6152 51.7163 59.5677 51.6015 59.4831 51.5169C59.3985 51.4323 59.2837 51.3848 59.1641 51.3848H31.8359C31.7163 51.3848 31.6015 51.4323 31.5169 51.5169C31.4323 51.6015 31.3848 51.7163 31.3848 51.8359V53.8984C31.3848 54.0181 31.4323 54.1329 31.5169 54.2175C31.6015 54.3021 31.7163 54.3496 31.8359 54.3496H32.9316V68.2284H31.8359C31.7163 68.2284 31.6015 68.276 31.5169 68.3606C31.4323 68.4452 31.3848 68.5599 31.3848 68.6796V70.7421C31.3848 70.8618 31.4323 70.9765 31.5169 71.0611C31.6015 71.1457 31.7163 71.1933 31.8359 71.1933H33.6038C32.2311 72.7823 31.4769 74.8126 31.4791 76.9123V79.1641C31.4791 79.2837 31.5267 79.3985 31.6113 79.4831C31.6959 79.5677 31.8106 79.6152 31.9303 79.6152C32.05 79.6152 32.1647 79.5677 32.2493 79.4831C32.3339 79.3985 32.3815 79.2837 32.3815 79.1641V76.9123C32.3795 75.6043 32.7053 74.3166 33.3292 73.167C33.9531 72.0173 34.8552 71.0424 35.9529 70.3311L38.5826 72.6014C38.6706 72.6774 38.7845 72.7166 38.9006 72.7107C39.0167 72.7048 39.126 72.6543 39.2058 72.5697L39.8124 71.9252L40.3004 72.9013L39.1063 79.0785C39.0836 79.1959 39.1085 79.3176 39.1755 79.4167C39.2425 79.5158 39.3461 79.5843 39.4636 79.607C39.4919 79.6126 39.5208 79.6153 39.5497 79.6152C39.6544 79.615 39.7558 79.5785 39.8365 79.5118C39.9172 79.4451 39.9722 79.3524 39.9921 79.2497L40.773 75.2133L41.5537 79.2497C41.5764 79.3672 41.6448 79.4708 41.744 79.5379C41.8431 79.6049 41.9648 79.6298 42.0823 79.6071C42.1998 79.5844 42.3035 79.516 42.3705 79.4168C42.4376 79.3177 42.4625 79.196 42.4398 79.0785L41.2445 72.9023L41.7323 71.9267L42.3387 72.5697C42.4185 72.6543 42.5278 72.7048 42.6439 72.7107C42.76 72.7166 42.8739 72.6774 42.9618 72.6014L45.6431 70.2873L50.0189 73.0616C50.1638 73.1534 50.3257 73.215 50.495 73.2426C50.6642 73.2703 50.8373 73.2634 51.0039 73.2225C51.1704 73.1816 51.3269 73.1074 51.4641 73.0044C51.6012 72.9015 51.7162 72.7718 51.802 72.6234L54.5667 67.8337L56.167 68.7575L53.0588 74.1414C52.8622 74.4818 52.6003 74.7801 52.2881 75.0191C51.976 75.2581 51.6196 75.433 51.2396 75.5338C50.8596 75.6347 50.4635 75.6595 50.0739 75.6068C49.6843 75.5541 49.3089 75.4249 48.9694 75.2267L47.7074 74.5453C47.6383 74.508 47.5608 74.4894 47.4823 74.4912C47.4038 74.493 47.3272 74.5153 47.26 74.5558C47.1928 74.5963 47.1373 74.6537 47.099 74.7222C47.0607 74.7907 47.041 74.868 47.0417 74.9465L47.0791 79.1682C47.0802 79.2871 47.1282 79.4008 47.2127 79.4845C47.2972 79.5683 47.4113 79.6152 47.5303 79.6152H47.5344C47.5936 79.6147 47.6522 79.6025 47.7067 79.5793C47.7613 79.5561 47.8107 79.5225 47.8522 79.4802C47.8937 79.4379 47.9265 79.3879 47.9487 79.3329C47.9709 79.278 47.982 79.2192 47.9814 79.1599L47.9508 75.7022L48.529 76.0144C48.9711 76.2698 49.4592 76.4356 49.9654 76.5024C50.4715 76.5692 50.9859 76.5356 51.4791 76.4035C51.9723 76.2715 52.4346 76.0435 52.8397 75.7327C53.2448 75.422 53.5847 75.0344 53.84 74.5923L55.8024 71.193H59.1641C59.2837 71.193 59.3985 71.1455 59.4831 71.0609C59.5677 70.9763 59.6152 70.8615 59.6152 70.7418V68.6793C59.6152 68.5597 59.5677 68.4449 59.4831 68.3603C59.3985 68.2757 59.2837 68.2282 59.1641 68.2282H58.0684V54.3496H59.1641ZM32.2871 52.2871H58.7129V53.4473H32.2871V52.2871ZM33.834 64.4863C33.9167 64.8591 34.1033 65.2009 34.3722 65.4722C34.641 65.7434 34.9812 65.933 35.3533 66.019V66.3931C35.354 67.0281 35.4961 67.655 35.7694 68.2282H33.834V64.4863ZM53.297 68.2284H51.3008V67.5625H53.6814L53.297 68.2284ZM52.776 69.1308L52.1057 70.2909H47.3333L45.5028 69.1308H52.776ZM46.1915 63.0343C46.3892 63.1213 46.5574 63.2639 46.6755 63.4449C46.7936 63.6258 46.8564 63.8372 46.8564 64.0533C46.8564 64.2693 46.7936 64.4807 46.6755 64.6617C46.5574 64.8426 46.3892 64.9853 46.1915 65.0723V63.0343ZM45.2891 66.3933C45.2881 67.2965 44.9289 68.1623 44.2902 68.8009C43.6516 69.4395 42.7858 69.7988 41.8826 69.7998H39.6621C38.759 69.7987 37.8932 69.4395 37.2546 68.8009C36.616 68.1623 36.2567 67.2964 36.2556 66.3933V61.6694C36.2554 61.0876 36.3865 60.5133 36.6392 59.9893C37.3272 60.4549 38.145 60.6909 38.9753 60.6632H41.491C42.623 60.6603 43.7097 61.1071 44.5123 61.9053L45.2894 62.6741L45.2891 66.3933ZM45.1468 61.2629C44.1756 60.2969 42.8605 59.7563 41.4908 59.7598H38.9753C38.0296 59.7598 37.2892 59.4749 36.7751 58.9124C36.0148 58.0809 35.888 56.8256 35.8766 56.1839H40.7725C44.2679 56.1839 45.0746 59.4448 45.2463 61.3611L45.1468 61.2629ZM35.3533 65.0723C35.1555 64.9853 34.9873 64.8426 34.8692 64.6617C34.7512 64.4807 34.6883 64.2693 34.6883 64.0533C34.6883 63.8372 34.7512 63.6258 34.8692 63.4449C34.9873 63.2639 35.1555 63.1213 35.3533 63.0343V65.0723ZM32.2871 69.1308H36.2203C35.6049 69.4483 35.0294 69.8378 34.5058 70.2909H32.2871V69.1308ZM38.8453 71.6359L36.7859 69.857C36.8522 69.8248 36.9203 69.7952 36.9878 69.7645C37.7473 70.3713 38.6907 70.7018 39.6629 70.7016H39.7273L38.8453 71.6359ZM40.7725 71.8283L40.4727 71.2273L40.7733 70.9086L41.0741 71.2276L40.7725 71.8283ZM42.6991 71.6359L41.8179 70.7016H41.8826C42.9052 70.7019 43.8942 70.3366 44.6711 69.6717L44.8457 69.7823L42.6991 71.6359ZM50.7883 72.3457C50.7399 72.3577 50.6895 72.3598 50.6403 72.3517C50.5911 72.3436 50.5441 72.3256 50.5021 72.2988L48.7572 71.1928H51.5844L51.0195 72.1712C50.9949 72.2145 50.9616 72.2524 50.9219 72.2825C50.8821 72.3126 50.8367 72.3343 50.7883 72.3462V72.3457ZM54.9264 66.9987C54.9717 66.8515 55.0496 66.7165 55.1543 66.6036C55.259 66.4907 55.3877 66.4029 55.531 66.3466C55.6743 66.2903 55.8285 66.2671 55.982 66.2786C56.1355 66.2901 56.2845 66.336 56.4178 66.413C56.5511 66.49 56.6654 66.596 56.7521 66.7232C56.8388 66.8504 56.8958 66.9955 56.9187 67.1478C56.9416 67.3 56.9299 67.4554 56.8845 67.6025C56.8391 67.7496 56.7611 67.8846 56.6563 67.9974L54.9264 66.9987ZM58.7129 70.2909H56.3235L56.9938 69.1308H58.7134L58.7129 70.2909ZM57.166 65.8447C56.8162 65.5391 56.3673 65.3708 55.9027 65.3711C55.7677 65.3714 55.6331 65.3857 55.5011 65.4139L51.9989 58.8964C51.9413 58.7929 51.8453 58.7162 51.7316 58.6829C51.6179 58.6496 51.4956 58.6623 51.3912 58.7184C51.2869 58.7744 51.2087 58.8693 51.1737 58.9825C51.1387 59.0957 51.1496 59.2181 51.2041 59.3233L54.6871 65.8029C54.4104 66.0272 54.2015 66.324 54.0836 66.6602H50.8496C50.73 66.6602 50.6152 66.7077 50.5306 66.7923C50.446 66.8769 50.3984 66.9917 50.3984 67.1113V68.2284H45.7753C46.0486 67.6552 46.1908 67.0283 46.1915 66.3933V66.0192C46.6367 65.9175 47.0343 65.6676 47.3191 65.3104C47.6038 64.9533 47.7589 64.5101 47.7589 64.0533C47.7589 63.5965 47.6038 63.1533 47.3191 62.7961C47.0343 62.439 46.6367 62.1891 46.1915 62.0873V61.6694C46.1909 61.6187 46.1818 61.5684 46.1644 61.5207C45.9553 58.3735 44.4595 55.2816 40.7725 55.2816H35.4358C35.3233 55.2816 35.2149 55.3235 35.1318 55.3993C35.0487 55.475 34.9968 55.579 34.9864 55.691C34.9779 55.7836 34.8018 57.8876 35.9581 59.3388C35.56 60.0506 35.3514 60.8528 35.3525 61.6684V62.0863C34.9804 62.1723 34.6402 62.362 34.3714 62.6333C34.1025 62.9045 33.9159 63.2464 33.8332 63.6193V54.3496H57.1652L57.166 65.8447Z" fill="#4B5D6B"/>
<path d="M34.8501 75.0291C34.7304 75.0291 34.6157 75.0766 34.5311 75.1612C34.4465 75.2458 34.3989 75.3606 34.3989 75.4802V79.1641C34.3989 79.2838 34.4465 79.3985 34.5311 79.4831C34.6157 79.5678 34.7304 79.6153 34.8501 79.6153C34.9698 79.6153 35.0845 79.5678 35.1691 79.4831C35.2537 79.3985 35.3013 79.2838 35.3013 79.1641V75.4802C35.3013 75.3606 35.2537 75.2458 35.1691 75.1612C35.0845 75.0766 34.9698 75.0291 34.8501 75.0291Z" fill="#4B5D6B"/>
<path d="M41.9958 65.5425C41.8761 65.5425 41.7613 65.59 41.6767 65.6746C41.5921 65.7592 41.5446 65.874 41.5446 65.9937C41.535 66.1921 41.4494 66.3792 41.3056 66.5163C41.1618 66.6533 40.9707 66.7297 40.772 66.7297C40.5734 66.7297 40.3823 66.6533 40.2385 66.5163C40.0947 66.3792 40.0091 66.1921 39.9995 65.9937C39.9995 65.874 39.952 65.7592 39.8674 65.6746C39.7828 65.59 39.668 65.5425 39.5483 65.5425C39.4287 65.5425 39.3139 65.59 39.2293 65.6746C39.1447 65.7592 39.0972 65.874 39.0972 65.9937C39.1114 66.4283 39.2941 66.8405 39.6067 67.1429C39.9192 67.4454 40.3371 67.6144 40.772 67.6144C41.207 67.6144 41.6249 67.4454 41.9374 67.1429C42.2499 66.8405 42.4327 66.4283 42.4469 65.9937C42.4469 65.874 42.3994 65.7592 42.3148 65.6746C42.2302 65.59 42.1154 65.5425 41.9958 65.5425V65.5425Z" fill="#4B5D6B"/>
<path d="M39.5659 63.2928C39.5659 63.1458 39.5223 63.002 39.4406 62.8797C39.3589 62.7575 39.2427 62.6622 39.1069 62.6059C38.971 62.5496 38.8215 62.5349 38.6772 62.5636C38.533 62.5923 38.4005 62.6632 38.2965 62.7672C38.1926 62.8712 38.1218 63.0037 38.0931 63.1479C38.0645 63.2922 38.0792 63.4417 38.1355 63.5776C38.1918 63.7134 38.2872 63.8295 38.4095 63.9112C38.5318 63.9929 38.6756 64.0364 38.8226 64.0364C39.0197 64.036 39.2086 63.9576 39.3479 63.8182C39.4873 63.6788 39.5656 63.4899 39.5659 63.2928V63.2928Z" fill="#4B5D6B"/>
<path d="M42.7223 62.5496C42.5752 62.5496 42.4315 62.5932 42.3092 62.6749C42.1869 62.7566 42.0916 62.8727 42.0354 63.0086C41.9791 63.1444 41.9644 63.2939 41.993 63.4381C42.0217 63.5824 42.0926 63.7149 42.1965 63.8188C42.3005 63.9228 42.433 63.9936 42.5772 64.0223C42.7215 64.051 42.871 64.0363 43.0068 63.98C43.1427 63.9237 43.2588 63.8284 43.3405 63.7062C43.4222 63.5839 43.4658 63.4401 43.4658 63.2931C43.4656 63.096 43.3872 62.907 43.2478 62.7676C43.1084 62.6282 42.9194 62.5498 42.7223 62.5496V62.5496Z" fill="#4B5D6B"/>
</svg>
