<svg width="38" height="38" viewBox="0 0 38 38" fill="none" xmlns="http://www.w3.org/2000/svg">
<path d="M28.5 6.3335L31.3817 12.0968C31.5083 12.3502 31.3183 12.6668 31.0333 12.6668H27.8983C27.2967 12.6668 26.7425 12.3343 26.4892 11.796L23.75 6.3335H20.5833L23.465 12.0968C23.5917 12.3502 23.4017 12.6668 23.1167 12.6668H19.9817C19.38 12.6668 18.8258 12.3343 18.5725 11.796L15.8333 6.3335H12.6667L15.5483 12.0968C15.675 12.3502 15.485 12.6668 15.2 12.6668H12.065C11.4633 12.6668 10.9092 12.3343 10.64 11.796L7.91666 6.3335H6.33332C4.59166 6.3335 3.16666 7.7585 3.16666 9.50016V28.5002C3.16666 30.2418 4.59166 31.6668 6.33332 31.6668H31.6667C33.4083 31.6668 34.8333 30.2418 34.8333 28.5002V7.91683C34.8333 7.046 34.1208 6.3335 33.25 6.3335H28.5Z" fill="#909090"/>
</svg>
