<svg width="18" height="20" viewBox="0 0 18 20" fill="none" xmlns="http://www.w3.org/2000/svg">
<path d="M10.3692 17.484C10.23 17.736 10.0303 17.9452 9.78989 18.0906C9.54953 18.236 9.27701 18.3125 8.99963 18.3125C8.72225 18.3125 8.44973 18.236 8.20937 18.0906C7.969 17.9452 7.76923 17.736 7.63005 17.484M13.75 6.67588C13.75 5.35288 13.2496 4.08407 12.3588 3.14856C11.468 2.21306 10.2598 1.6875 9 1.6875C7.74022 1.6875 6.53204 2.21306 5.64124 3.14856C4.75045 4.08407 4.25 5.35288 4.25 6.67588C4.25 12.4957 1.875 14.1585 1.875 14.1585H16.125C16.125 14.1585 13.75 12.4957 13.75 6.67588Z" stroke="white" stroke-width="2" stroke-linecap="round" stroke-linejoin="round"/>
</svg>
