<svg width="112" height="135" viewBox="0 0 112 135" fill="none" xmlns="http://www.w3.org/2000/svg">
<path d="M101.839 59.6279C98.1413 59.5566 94.9569 61.8778 93.759 65.1707C92.1076 66.0059 88.4371 66.5781 80.2876 65.1725C76.3045 64.4856 74.7023 61.9718 74.0837 60.4254C73.7597 58.0277 73.1461 55.681 72.2621 53.4392C72.1548 52.1494 72.1802 49.5064 73.9446 48.1631C77.4712 45.4784 78.939 44.987 79.5473 45.0112C79.6813 45.105 79.8235 45.184 79.9714 45.2478L79.9735 45.2516L79.9728 45.2484C80.7191 45.5696 81.6091 45.5033 82.3166 44.9953C83.393 44.2224 83.6394 42.7196 82.867 41.6388C82.0946 40.558 80.5959 40.3085 79.5196 41.0814C78.7533 41.6316 78.4077 42.5516 78.5507 43.426C78.2052 44.0787 76.9149 45.2287 72.7221 46.9989C70.8582 47.7859 69.0041 46.7393 67.9831 45.9625C65.8567 43.2484 63.2336 40.8733 60.1687 38.9899C59.4677 37.6659 58.9253 35.9278 59.5004 34.2101C60.9011 30.0272 62.1478 28.2011 63.05 27.4236C65.4796 28.0232 68.0553 26.8002 69.0822 24.4243C70.2286 21.7719 69.0106 18.687 66.3618 17.534C63.713 16.3809 60.6363 17.5964 59.4899 20.2488C58.584 22.3449 59.1546 24.7111 60.7411 26.1805C60.8272 27.3329 60.2854 29.5824 57.5639 33.9302C56.7059 35.3009 55.3553 35.9 54.1055 36.1399C48.8553 34.3551 43.3779 34.1295 38.2349 35.2622C35.8001 35.4772 30.2488 35.4942 27.3093 31.7037C22.7469 25.8206 21.3271 22.3432 21.0621 20.3283C24.1882 17.4493 24.8757 12.6416 22.4821 8.94779C19.8132 4.82894 14.3242 3.65472 10.2221 6.32509C6.12005 8.99546 4.95825 14.4992 7.62718 18.6181C9.74037 21.8793 13.6215 23.2945 17.1823 22.4169C18.889 23.3981 21.5424 26.2954 25.1047 34.1851C26.5317 37.3453 25.4934 40.462 24.272 42.625C21.6316 45.1091 19.4042 48.1233 17.7646 51.605C13.2836 61.1204 14.2784 71.8209 19.4697 80.1351L19.3052 79.9835C19.3052 79.9835 22.1536 85.5921 19.4442 89.3734C16.2028 93.8971 14.0213 95.635 12.6445 96.2364C9.93548 94.6108 6.37622 95.1269 4.25711 97.6089C1.89042 100.381 2.21631 104.555 4.98499 106.932C7.75367 109.31 11.9167 108.99 14.2834 106.218C16.1548 104.026 16.3427 100.957 14.9706 98.5936C15.2948 97.1714 16.7833 94.6605 21.6771 90.4323C24.0069 88.4193 27.0389 88.9447 28.8374 89.5378C29.8329 90.164 30.876 90.738 31.9648 91.2542C33.6065 92.0327 35.2832 92.6474 36.9766 93.1049C37.4794 94.0215 38.4361 96.3785 37.5724 99.9694C35.6315 108.039 34.7221 109.909 34.3571 110.315C34.2963 110.342 34.2361 110.372 34.1768 110.405L34.1493 110.401C34.1493 110.401 34.1505 110.402 34.1529 110.404C34.1553 110.407 34.1589 110.41 34.1638 110.412C33.4921 110.789 32.9297 111.499 32.7415 112.302C32.4673 113.471 33.0909 114.394 34.1344 114.364C35.178 114.333 36.2462 113.36 36.5204 112.191C36.7286 111.303 36.4194 110.557 35.8019 110.263C35.7816 109.37 36.2588 106.783 38.8571 99.3725C39.9498 96.2559 41.6484 94.7283 42.6568 94.0571C45.6685 94.2627 48.6686 94.0022 51.5563 93.3119C54.529 94.0239 57.8248 95.5214 59.7189 98.6349C64.5366 106.554 65.805 111.055 65.8503 113.584C61.5784 116.702 60.053 122.552 62.4958 127.458C65.2191 132.928 71.8434 135.155 77.2916 132.432C82.7397 129.708 84.9486 123.066 82.2253 117.596C80.0695 113.266 75.4694 110.968 70.9432 111.549C68.9698 110.096 66.0938 106.139 62.7936 95.8775C61.6783 92.4095 62.73 89.2277 64.1758 86.8149C66.2728 84.9862 68.1355 82.8394 69.6841 80.4029C70.5205 80.2363 71.4151 80.2494 72.2548 80.6348C76.2429 82.465 77.3901 83.5269 77.6733 84.081C77.5535 85.0685 78.0579 86.0684 78.9997 86.5327C80.1897 87.1193 81.6274 86.6289 82.2109 85.4373C82.7944 84.2457 82.3027 82.8042 81.1127 82.2175C80.2627 81.7985 79.2864 81.9289 78.5853 82.4718C77.8398 82.4648 76.2149 81.8538 72.6978 79.0062C72.0585 78.4885 71.6851 77.83 71.4805 77.1456L71.5076 77.0882C71.7752 76.5198 72.0234 75.9471 72.2522 75.371C73.1567 73.6178 76.1807 68.5509 81.0635 68.2293C88.1831 67.7603 91.6599 68.5172 93.3564 69.3947C93.9858 73.3672 97.3865 76.4408 101.542 76.5209C106.201 76.6107 110.046 72.9019 110.128 68.237C110.21 63.5722 106.499 59.7177 101.839 59.6279Z" fill="#DEE5EE"/>
<path d="M44.8687 21.812C45.0534 23.1286 44.1402 24.3446 42.829 24.528C41.5178 24.7113 40.305 23.7925 40.1203 22.4759C39.9356 21.1592 40.8488 19.9432 42.16 19.7599C43.4712 19.5766 44.684 20.4953 44.8687 21.812Z" fill="#DEE5EE"/>
<path d="M16.8028 86.582C17.6417 86.4647 18.226 85.6867 18.1078 84.8443C17.9896 84.002 17.2137 83.4142 16.3748 83.5314C15.5359 83.6487 14.9516 84.4267 15.0698 85.2691C15.188 86.1115 15.9639 86.6993 16.8028 86.582Z" fill="#DEE5EE"/>
<path d="M72.4863 90.292C72.5439 90.703 72.2589 91.0826 71.8496 91.1398C71.4403 91.197 71.0617 90.9102 71.0041 90.4992C70.9464 90.0882 71.2315 89.7087 71.6408 89.6515C72.05 89.5942 72.4286 89.881 72.4863 90.292Z" fill="#DEE5EE"/>
<path d="M69.9153 132.12C71.8253 132.543 73.8126 132.447 75.6718 131.842C77.5309 131.237 79.1944 130.145 80.4901 128.68L80.3426 128.549C79.0702 129.988 77.4366 131.06 75.6108 131.654C73.7849 132.248 71.8332 132.342 69.9576 131.927L69.9153 132.12Z" fill="#4B5D6B"/>
<path d="M7.70667 107.409C8.85479 107.663 10.0494 107.606 11.1671 107.242C12.2847 106.879 13.2846 106.222 14.0635 105.341L13.9748 105.263C13.21 106.128 12.2279 106.772 11.1304 107.129C10.0328 107.486 8.85958 107.543 7.73206 107.293L7.70667 107.409Z" fill="#4B5D6B"/>
<path d="M12.7907 20.8348C14.3338 21.1764 15.9394 21.0989 17.4414 20.6103C18.9435 20.1217 20.2875 19.2397 21.3343 18.0556L21.2151 17.9499C20.1871 19.1128 18.8673 19.9789 17.3922 20.4588C15.917 20.9386 14.3402 21.0147 12.8248 20.6792L12.7907 20.8348Z" fill="#4B5D6B"/>
<path d="M69.7377 130.936C72.3843 131.522 75.1527 131.107 77.5095 129.77L77.4345 129.637C75.1103 130.956 72.3803 131.365 69.7703 130.787L69.7377 130.936Z" fill="#4B5D6B"/>
<path d="M7.02787 106.906C8.61889 107.259 10.283 107.009 11.6998 106.205L11.6547 106.126C10.2575 106.918 8.61646 107.164 7.04748 106.817L7.02787 106.906Z" fill="#4B5D6B"/>
<path d="M12.7633 19.5972C14.9016 20.0708 17.1382 19.7353 19.0424 18.6554L18.9818 18.5483C17.104 19.6133 14.8984 19.9442 12.7896 19.4771L12.7633 19.5972Z" fill="#4B5D6B"/>
<path d="M99.4139 75.7129C100.882 76.038 102.41 75.9643 103.839 75.4994C105.268 75.0345 106.547 74.1954 107.542 73.0688L107.429 72.9682C106.451 74.0746 105.195 74.8987 103.792 75.3552C102.388 75.8117 100.888 75.8841 99.4464 75.5649L99.4139 75.7129Z" fill="#4B5D6B"/>
<path d="M63.0134 26.8666C63.923 27.068 64.8694 27.0224 65.7548 26.7343C66.6402 26.4463 67.4324 25.9265 68.0494 25.2285L67.9792 25.1662C67.3732 25.8516 66.5953 26.3622 65.7258 26.645C64.8562 26.9279 63.9268 26.9727 63.0336 26.7749L63.0134 26.8666Z" fill="#4B5D6B"/>
<path d="M80.1028 44.9941C80.5206 45.0866 80.9553 45.0656 81.362 44.9333C81.7686 44.801 82.1325 44.5622 82.4159 44.2417L82.3837 44.213C82.1053 44.5279 81.748 44.7624 81.3486 44.8923C80.9492 45.0222 80.5223 45.0428 80.112 44.952L80.1028 44.9941Z" fill="#4B5D6B"/>
<path d="M79.2881 86.2319C79.7058 86.3244 80.1406 86.3034 80.5472 86.1711C80.9539 86.0388 81.3178 85.8 81.6012 85.4794L81.569 85.4508C81.2906 85.7657 80.9333 86.0002 80.5339 86.1301C80.1345 86.26 79.7076 86.2806 79.2973 86.1898L79.2881 86.2319Z" fill="#4B5D6B"/>
<path d="M33.3567 113.744C33.7745 113.837 34.2092 113.816 34.6158 113.684C35.0225 113.551 35.3864 113.312 35.6698 112.992L35.6376 112.963C35.3592 113.278 35.0019 113.513 34.6025 113.643C34.2031 113.772 33.7762 113.793 33.3659 113.702L33.3567 113.744Z" fill="#4B5D6B"/>
<path d="M99.2205 74.8274C101.255 75.278 103.383 74.9589 105.195 73.9314L105.137 73.8295C103.35 74.8428 101.252 75.1576 99.2456 74.7132L99.2205 74.8274Z" fill="#4B5D6B"/>
<path d="M62.9516 26.3498C64.2121 26.629 65.5304 26.4312 66.6528 25.7947L66.6171 25.7316C65.5102 26.3593 64.2102 26.5543 62.9672 26.279L62.9516 26.3498Z" fill="#4B5D6B"/>
<path d="M80.0414 44.4776C80.6203 44.6058 81.2259 44.515 81.7414 44.2226L81.725 44.1936C81.2166 44.482 80.6194 44.5715 80.0485 44.4451L80.0414 44.4776Z" fill="#4B5D6B"/>
<path d="M79.2267 85.7153C79.8056 85.8435 80.4112 85.7527 80.9267 85.4603L80.9103 85.4313C80.4019 85.7196 79.8048 85.8092 79.2338 85.6828L79.2267 85.7153Z" fill="#4B5D6B"/>
<path d="M33.2953 113.228C33.8742 113.356 34.4798 113.265 34.9953 112.973L34.9789 112.944C34.4705 113.232 33.8734 113.322 33.3024 113.195L33.2953 113.228Z" fill="#4B5D6B"/>
<ellipse cx="45.1406" cy="64.7835" rx="25.2753" ry="25.3433" fill="white"/>
<g clip-path="url(#clip0)">
<path d="M29.7601 68.3179C29.9299 68.4358 30.1091 68.5395 30.2959 68.6279C30.5196 68.7426 30.8942 68.9337 30.9205 69.0675C30.9528 69.2438 30.9316 69.4258 30.8596 69.5899C30.7826 69.7552 30.702 69.8968 30.6322 70.0203C30.4431 70.3546 30.1259 70.9146 30.6038 71.3037C30.7154 71.407 30.9081 71.5563 31.0838 71.6917C30.9545 71.9178 30.896 72.1775 30.9159 72.4372C30.9435 72.6418 31.0544 72.826 31.2223 72.9462C31.337 73.0262 31.4594 73.097 31.5803 73.1652C31.8862 73.3393 32.005 73.4205 32.0453 73.5822C32.0741 73.7901 32.0565 74.0019 31.9937 74.2022C31.9632 74.3406 31.9337 74.4791 31.9162 74.6155C31.8648 75.0864 31.923 75.5627 32.0861 76.0074C32.3181 76.8282 33.0603 77.4001 33.9131 77.4153C34.0556 77.4151 34.1978 77.4001 34.3373 77.3704C35.8132 77.021 37.2675 76.5859 38.6928 76.0673C39.8573 76.7504 40.5925 78.8274 40.7842 79.6065C40.8415 79.837 41.0484 79.9988 41.2859 79.9987L54.2542 79.9625C54.4186 79.9622 54.573 79.8837 54.6701 79.7511C54.7672 79.6185 54.7954 79.4476 54.7461 79.2908C54.6187 78.9407 54.4427 78.6102 54.2232 78.3092C54.0991 78.1303 53.9872 77.9431 53.8884 77.7491C53.6544 77.2756 53.4593 76.7838 53.3051 76.2787C53.01 75.2802 52.8055 74.2572 52.6939 73.2221C52.5862 72.333 52.6211 71.4325 52.7972 70.5545C52.8524 70.2751 52.6711 70.0037 52.3919 69.9478C52.1127 69.8918 51.8408 70.0724 51.7841 70.3515C51.5867 71.3379 51.5478 72.3495 51.6688 73.3481C51.788 74.4456 52.0057 75.5302 52.3193 76.5887C52.4889 77.1442 52.7033 77.685 52.9605 78.2058C53.0785 78.4404 53.2127 78.6666 53.362 78.8827C53.3733 78.8992 53.3842 78.9162 53.3955 78.9343L41.6765 78.9653C41.3335 77.7397 40.711 76.6103 39.8578 75.6659L40.3414 75.4969C40.6793 75.3791 40.9341 75.2903 41.0648 75.2479C43.2787 74.5489 44.3854 73.5429 44.3554 72.2512C44.344 71.9686 44.1107 71.7459 43.8279 71.7475C43.6909 71.7507 43.5607 71.8083 43.4662 71.9075C43.3716 72.0068 43.3203 72.1395 43.3236 72.2766C43.336 72.8082 42.9005 73.5837 40.7517 74.2626C40.6142 74.3071 40.3518 74.3985 40.003 74.521C39.616 74.6563 39.1211 74.831 38.5744 75.0149C37.1205 75.5481 35.6369 75.9966 34.1311 76.3582C33.6479 76.4532 33.1762 76.1485 33.0642 75.669C32.9538 75.3751 32.9123 75.0597 32.9428 74.7473C32.9562 74.6393 32.981 74.5313 33.0048 74.4233C33.11 74.0661 33.1255 73.6884 33.0497 73.3238C32.8994 72.8493 32.5502 72.4637 32.0929 72.2673L31.9859 72.2058C32.0418 72.0929 32.1086 71.9858 32.1853 71.886C32.2718 71.7761 32.31 71.6359 32.2914 71.4974C32.2727 71.3588 32.1986 71.2338 32.0861 71.1507C31.9621 71.0593 31.6702 70.8407 31.4558 70.6682C31.4806 70.6232 31.5075 70.5736 31.5333 70.5292C31.6144 70.3866 31.7069 70.2192 31.7973 70.0301C31.9608 69.6679 32.009 69.2642 31.9353 68.8738C31.8113 68.2429 31.2073 67.934 30.7666 67.7087C30.6177 67.6385 30.4751 67.5557 30.3403 67.4612C30.2298 67.3869 30.1261 67.3031 30.0303 67.2106C30.0303 67.1326 30.1145 66.9425 30.5082 66.4635C31.4336 65.2719 32.2272 63.9836 32.8751 62.6211C32.9956 62.4078 33.0636 62.1689 33.0735 61.9241C33.0201 61.4048 32.7449 60.9338 32.3186 60.6324C32.112 60.4408 31.9131 60.2599 31.8898 60.092C31.8933 59.9697 31.9206 59.8493 31.9704 59.7376C32.0546 59.5164 32.1518 59.2994 32.2494 59.0819C32.4613 58.6453 32.6305 58.1892 32.7547 57.72L32.8064 57.5004C32.9165 56.9834 33.058 56.4735 33.23 55.9737C33.6373 54.8497 34.2679 53.8198 35.0838 52.946C36.0727 51.8992 37.6279 51.1599 39.7152 50.745C41.3114 50.3947 42.931 50.1614 44.5611 50.047C45.0919 50.0232 45.6237 50.0355 46.1529 50.0837C44.094 50.8886 42.4408 52.481 41.5592 54.5084C40.4056 55.3715 39.3506 56.3592 38.4132 57.4534C38.2588 57.6433 38.2588 57.9155 38.4132 58.1054C39.3506 59.1996 40.4056 60.1873 41.5592 61.0504C42.453 63.1376 44.1686 64.7633 46.3007 65.5438C48.4328 66.3243 50.7925 66.1903 52.8226 65.1734L54.1271 67.4333L53.6792 67.6917C53.1855 67.9772 53.0164 68.6087 53.3015 69.1027L55.8848 73.577C56.1578 74.0526 56.6097 74.3993 57.1398 74.5396C57.3154 74.5867 57.4964 74.6106 57.6782 74.6109C58.4159 74.6095 59.0969 74.2151 59.4652 73.5759C59.8335 72.9367 59.8332 72.1497 59.4643 71.5109L56.881 67.037C56.744 66.7995 56.5183 66.6261 56.2534 66.5551C55.9886 66.484 55.7064 66.5212 55.4689 66.6583L55.0215 66.9167L53.7195 64.6609C55.052 63.7729 56.0999 62.5193 56.7373 61.0504C57.891 60.1873 58.946 59.1996 59.8833 58.1054C60.0378 57.9155 60.0378 57.6433 59.8833 57.4534C58.946 56.3592 57.891 55.3715 56.7373 54.5084C55.4288 51.4809 52.4477 49.5193 49.1496 49.5153C48.9946 49.5153 48.8489 49.5298 48.6985 49.5381C47.3451 49.112 45.9256 48.9346 44.5089 49.0147C42.8277 49.1313 41.1573 49.3712 39.5112 49.7323C37.182 50.1973 35.4889 51.0131 34.3326 52.2351C33.4209 53.2108 32.716 54.3609 32.2603 55.6161C32.074 56.1559 31.9211 56.7067 31.8025 57.2653L31.7508 57.4828C31.6408 57.8884 31.4927 58.2826 31.3086 58.6603C31.2052 58.8959 31.0983 59.131 31.0058 59.3754C30.8869 59.6468 30.8399 59.9444 30.8694 60.2393C30.9735 60.702 31.2407 61.1117 31.6222 61.3935C31.8748 61.625 32.0407 61.7887 32.0427 61.9308C32.0239 62.0094 31.9943 62.085 31.9549 62.1556C31.3361 63.458 30.5782 64.6896 29.6945 65.8291C29.3199 66.2853 28.9272 66.8164 29.0099 67.3491C29.12 67.7595 29.3903 68.1086 29.7601 68.3179ZM55.9856 67.5568L58.5689 72.0311C58.7671 72.3514 58.7753 72.7541 58.5903 73.0822C58.4054 73.4103 58.0566 73.6118 57.68 73.6081C57.3035 73.6044 56.9587 73.3961 56.7802 73.0645L54.1969 68.5901L55.0907 68.0735L55.9856 67.5568ZM39.5013 57.782C39.9818 57.255 40.4908 56.7548 41.026 56.2837C40.8355 57.2735 40.8355 58.2905 41.026 59.2803C40.4908 58.8091 39.9818 58.3089 39.5013 57.782ZM58.7978 57.782C58.3174 58.3089 57.8084 58.8091 57.2731 59.2803C57.4637 58.2905 57.4637 57.2735 57.2731 56.2837C57.8084 56.7548 58.3174 57.255 58.7978 57.782ZM56.3829 57.782C56.3829 61.7768 53.1444 65.0153 49.1496 65.0153C45.1547 65.0153 41.9162 61.7768 41.9162 57.782C41.9162 53.7871 45.1547 50.5487 49.1496 50.5487C53.1427 50.5529 56.3786 53.7889 56.3829 57.782Z" fill="#4B5D6B"/>
<path d="M34.7696 58.1967L34.8213 57.972C34.9118 57.5404 35.0272 57.1145 35.1669 56.6963C35.4782 55.8338 35.9604 55.043 36.5847 54.3713C37.2541 53.7397 38.0738 53.2896 38.966 53.0636C39.1426 53.0099 39.2772 52.866 39.319 52.6862C39.3608 52.5064 39.3035 52.3179 39.1687 52.1918C39.0338 52.0656 38.8419 52.021 38.6653 52.0747C37.6007 52.3515 36.6254 52.898 35.8334 53.6614C35.1139 54.4341 34.5577 55.344 34.1982 56.3367C34.0434 56.7948 33.9157 57.2617 33.8158 57.7348L33.7642 57.9585C33.7019 58.2351 33.8742 58.5102 34.1502 58.5749C34.4262 58.6397 34.7028 58.47 34.7701 58.1946L34.7696 58.1967Z" fill="#4B5D6B"/>
<path d="M33.65 60.3667C33.9353 60.3667 34.1666 60.1354 34.1666 59.85C34.1666 59.5647 33.9353 59.3334 33.65 59.3334C33.3646 59.3334 33.1333 59.5647 33.1333 59.85C33.1333 60.1354 33.3646 60.3667 33.65 60.3667Z" fill="#4B5D6B"/>
<path d="M42.95 57.7834C42.9551 61.0409 45.479 63.7394 48.7289 63.9622C48.7413 63.9622 48.7516 63.9715 48.7645 63.9725C48.8332 63.9783 48.9022 63.9806 48.9712 63.9792C49.0306 63.9829 49.0926 63.9834 49.1505 63.9834C49.2083 63.9834 49.2703 63.9834 49.3298 63.9792C49.3872 63.9809 49.4446 63.9788 49.5018 63.973H49.507C49.5244 63.9706 49.5416 63.9671 49.5586 63.9627C52.8092 63.7492 55.3386 61.054 55.3455 57.7965C55.3525 54.5389 52.8346 51.8329 49.585 51.6056C49.5741 51.6056 49.5643 51.5973 49.553 51.5958C49.5054 51.5907 49.4576 51.5887 49.4098 51.5896C49.2472 51.5792 49.0842 51.5792 48.9216 51.5896C48.8699 51.5896 48.8157 51.5896 48.763 51.5952C48.748 51.5952 48.7356 51.604 48.7211 51.6061C45.4748 51.8324 42.9554 54.5292 42.95 57.7834ZM49.15 52.6167C52.0034 52.6167 54.3166 54.9299 54.3166 57.7834C54.3166 60.6368 52.0034 62.95 49.15 62.95C46.2965 62.95 43.9833 60.6368 43.9833 57.7834C43.9864 54.9312 46.2978 52.6198 49.15 52.6167Z" fill="#4B5D6B"/>
<path d="M45.5334 58.3C45.8187 58.3 46.0501 58.0687 46.0501 57.7834C46.0518 56.072 47.4387 54.6851 49.1501 54.6834C49.4354 54.6834 49.6667 54.452 49.6667 54.1667C49.6667 53.8813 49.4354 53.65 49.1501 53.65C46.8683 53.6526 45.0193 55.5016 45.0167 57.7834C45.0167 58.0687 45.248 58.3 45.5334 58.3Z" fill="#4B5D6B"/>
<path d="M47.6 57.7834C47.6 58.6394 48.2939 59.3334 49.15 59.3334C50.006 59.3334 50.7 58.6394 50.7 57.7834C50.7 56.9274 50.006 56.2334 49.15 56.2334C48.2939 56.2334 47.6 56.9274 47.6 57.7834ZM49.6666 57.7834C49.6666 58.0687 49.4353 58.3001 49.15 58.3001C48.8646 58.3001 48.6333 58.0687 48.6333 57.7834C48.6333 57.4981 48.8646 57.2667 49.15 57.2667C49.4353 57.2667 49.6666 57.4981 49.6666 57.7834Z" fill="#4B5D6B"/>
<path d="M51.2167 55.2001C51.5021 55.2001 51.7334 54.9688 51.7334 54.6834C51.7334 54.3981 51.5021 54.1667 51.2167 54.1667C50.9314 54.1667 50.7001 54.3981 50.7001 54.6834C50.7001 54.9688 50.9314 55.2001 51.2167 55.2001Z" fill="#4B5D6B"/>
</g>
<defs>
<clipPath id="clip0">
<rect width="31" height="31" fill="white" transform="translate(29 49)"/>
</clipPath>
</defs>
</svg>
