<svg width="40" height="40" viewBox="0 0 40 40" fill="none" xmlns="http://www.w3.org/2000/svg">
<g clip-path="url(#clip0)">
<path d="M0.980898 24.9264C1.19993 25.0785 1.43116 25.2123 1.67223 25.3264C1.9609 25.4744 2.44423 25.7211 2.47823 25.8937C2.5199 26.1212 2.4925 26.356 2.39956 26.5677C2.30023 26.7811 2.19623 26.9637 2.10623 27.1231C1.86223 27.5544 1.4529 28.2771 2.06956 28.7791C2.21356 28.9124 2.46223 29.1051 2.6889 29.2797C2.522 29.5715 2.44652 29.9066 2.47223 30.2417C2.50789 30.5057 2.65093 30.7433 2.86756 30.8984C3.01556 31.0017 3.17356 31.0931 3.32956 31.1811C3.72423 31.4057 3.87756 31.5104 3.92956 31.7191C3.96672 31.9874 3.94395 32.2606 3.8629 32.5191C3.82356 32.6977 3.78556 32.8764 3.7629 33.0524C3.69667 33.66 3.77174 34.2746 3.98223 34.8484C4.28158 35.9074 5.23922 36.6454 6.33956 36.6651C6.52353 36.6648 6.70697 36.6454 6.8869 36.6071C8.79129 36.1562 10.6678 35.5948 12.5069 34.9257C14.0096 35.8071 14.9582 38.4871 15.2056 39.4924C15.2794 39.7898 15.5465 39.9985 15.8529 39.9984L32.5862 39.9517C32.7983 39.9513 32.9975 39.85 33.1228 39.679C33.2481 39.5079 33.2845 39.2874 33.2209 39.0851C33.0565 38.6333 32.8294 38.2069 32.5462 37.8184C32.386 37.5876 32.2417 37.3461 32.1142 37.0957C31.8122 36.4848 31.5605 35.8502 31.3616 35.1984C30.9808 33.9101 30.7168 32.5901 30.5729 31.2544C30.4339 30.1073 30.4789 28.9453 30.7062 27.8124C30.7775 27.4519 30.5435 27.1017 30.1832 27.0295C29.8229 26.9573 29.4721 27.1903 29.3989 27.5504C29.1442 28.8232 29.0941 30.1285 29.2502 31.4171C29.404 32.8332 29.6849 34.2326 30.0896 35.5984C30.3083 36.3152 30.585 37.0131 30.9169 37.6851C31.0692 37.9878 31.2423 38.2796 31.4349 38.5584C31.4496 38.5797 31.4636 38.6017 31.4782 38.6251L16.3569 38.6651C15.9143 37.0836 15.1111 35.6263 14.0102 34.4077L14.6342 34.1897C15.0702 34.0377 15.3989 33.9231 15.5676 33.8684C18.4242 32.9664 19.8522 31.6684 19.8136 30.0017C19.7988 29.6371 19.4978 29.3496 19.1329 29.3517C18.9561 29.3559 18.7882 29.4302 18.6661 29.5583C18.5441 29.6863 18.4779 29.8576 18.4822 30.0344C18.4982 30.7204 17.9362 31.7211 15.1636 32.5971C14.9862 32.6544 14.6476 32.7724 14.1976 32.9304C13.6982 33.1051 13.0596 33.3304 12.3542 33.5677C10.4782 34.2558 8.56388 34.8345 6.6209 35.3011C5.99741 35.4236 5.38882 35.0305 5.24423 34.4117C5.10178 34.0325 5.04819 33.6256 5.08756 33.2224C5.1049 33.0831 5.1369 32.9437 5.16756 32.8044C5.30338 32.3435 5.3233 31.8562 5.22556 31.3857C5.03165 30.7735 4.581 30.2759 3.9909 30.0224L3.8529 29.9431C3.92502 29.7974 4.0112 29.6592 4.11023 29.5304C4.22178 29.3886 4.27113 29.2077 4.24701 29.029C4.22289 28.8502 4.12736 28.6888 3.98223 28.5817C3.82223 28.4637 3.44556 28.1817 3.1689 27.9591C3.2009 27.9011 3.23556 27.8371 3.2689 27.7797C3.37356 27.5957 3.4929 27.3797 3.60956 27.1357C3.82053 26.6684 3.88267 26.1475 3.78756 25.6437C3.62756 24.8297 2.84823 24.4311 2.27956 24.1404C2.0875 24.0498 1.9035 23.9429 1.72956 23.8211C1.58701 23.7252 1.45316 23.617 1.32956 23.4977C1.32956 23.3971 1.43823 23.1517 1.94623 22.5337C3.14026 20.9962 4.16423 19.3338 5.00023 17.5757C5.15576 17.3005 5.24351 16.9922 5.25623 16.6764C5.18737 16.0063 4.83226 15.3986 4.28223 15.0097C4.01556 14.7624 3.7589 14.5291 3.7289 14.3124C3.73335 14.1546 3.76869 13.9992 3.8329 13.8551C3.94156 13.5697 4.0669 13.2897 4.1929 13.0091C4.46626 12.4456 4.6846 11.8571 4.8449 11.2517L4.91156 10.9684C5.05367 10.3012 5.23623 9.64337 5.45823 8.99839C5.98376 7.54809 6.79743 6.21918 7.85023 5.09173C9.12623 3.74106 11.1329 2.78706 13.8262 2.25172C15.8857 1.7997 17.9755 1.49867 20.0789 1.35106C20.7638 1.32043 21.4501 1.33625 22.1329 1.39839C19.4762 2.43709 17.343 4.4918 16.2056 7.10772C14.717 8.22147 13.3557 9.49583 12.1462 10.9077C11.9469 11.1528 11.9469 11.504 12.1462 11.7491C13.3557 13.161 14.717 14.4353 16.2056 15.5491C17.3589 18.2422 19.5724 20.3399 22.3236 21.347C25.0747 22.3541 28.1195 22.1811 30.7389 20.8691L32.4222 23.7851L31.8442 24.1184C31.2072 24.4868 30.9891 25.3017 31.3569 25.9391L34.6902 31.7124C35.0424 32.3261 35.6255 32.7734 36.3096 32.9544C36.5361 33.0152 36.7697 33.0461 37.0042 33.0464C37.9561 33.0447 38.8349 32.5358 39.3101 31.711C39.7853 30.8863 39.7848 29.8707 39.3089 29.0464L35.9756 23.2737C35.7989 22.9672 35.5076 22.7435 35.1658 22.6518C34.8241 22.5602 34.4599 22.6081 34.1536 22.7851L33.5762 23.1184L31.8962 20.2077C33.6156 19.062 34.9677 17.4444 35.7902 15.5491C37.2788 14.4353 38.6401 13.161 39.8496 11.7491C40.0489 11.504 40.0489 11.1528 39.8496 10.9077C38.6401 9.49583 37.2788 8.22147 35.7902 7.10772C34.1018 3.20132 30.2553 0.670148 25.9996 0.665057C25.7996 0.665057 25.6116 0.683724 25.4176 0.694391C23.6711 0.144607 21.8396 -0.0841997 20.0116 0.0190571C17.8423 0.169579 15.6869 0.479076 13.5629 0.945057C10.5576 1.54506 8.3729 2.59772 6.8809 4.17439C5.70449 5.43341 4.79491 6.91739 4.2069 8.53706C3.96655 9.23361 3.76929 9.94428 3.61623 10.6651L3.54956 10.9457C3.4076 11.469 3.21653 11.9777 2.9789 12.4651C2.84556 12.7691 2.70756 13.0724 2.58823 13.3877C2.43477 13.738 2.37415 14.1219 2.41223 14.5024C2.5465 15.0994 2.89132 15.6281 3.38356 15.9917C3.70956 16.2904 3.92356 16.5017 3.92623 16.6851C3.90186 16.7864 3.86373 16.884 3.8129 16.9751C3.01439 18.6556 2.03648 20.2448 0.896231 21.7151C0.412898 22.3037 -0.0937686 22.9891 0.012898 23.6764C0.154907 24.206 0.503679 24.6564 0.980898 24.9264ZM34.8202 23.9444L38.1536 29.7177C38.4092 30.131 38.4198 30.6506 38.1812 31.0739C37.9426 31.4973 37.4925 31.7572 37.0066 31.7525C36.5207 31.7477 36.0758 31.479 35.8456 31.0511L32.5122 25.2777L33.6656 24.6111L34.8202 23.9444ZM13.5502 11.3317C14.1702 10.6518 14.8269 10.0064 15.5176 9.39839C15.2717 10.6756 15.2717 11.9879 15.5176 13.2651C14.8269 12.6571 14.1702 12.0117 13.5502 11.3317ZM38.4489 11.3317C37.829 12.0117 37.1722 12.6571 36.4816 13.2651C36.7274 11.9879 36.7274 10.6756 36.4816 9.39839C37.1722 10.0064 37.829 10.6518 38.4489 11.3317ZM35.3329 11.3317C35.3329 16.4864 31.1542 20.6651 25.9996 20.6651C20.8449 20.6651 16.6662 16.4864 16.6662 11.3317C16.6662 6.17707 20.8449 1.99839 25.9996 1.99839C31.1519 2.0039 35.3274 6.17935 35.3329 11.3317Z" fill="#DEE5EE"/>
<path d="M7.44471 11.8667L7.51138 11.5767C7.62815 11.0199 7.77707 10.4703 7.95738 9.93067C8.35903 8.81774 8.98124 7.79736 9.78671 6.93067C10.6505 6.11569 11.7082 5.53488 12.8594 5.24333C13.0873 5.17402 13.261 4.98838 13.3149 4.75632C13.3688 4.52427 13.2949 4.28107 13.1209 4.11832C12.9469 3.95558 12.6993 3.89802 12.4714 3.96733C11.0977 4.3245 9.83925 5.02962 8.81738 6.01467C7.889 7.01168 7.17134 8.18578 6.70738 9.46667C6.50765 10.0578 6.34292 10.6602 6.21405 11.2707L6.14738 11.5593C6.06709 11.9162 6.28934 12.2711 6.64545 12.3547C7.00156 12.4383 7.35851 12.2193 7.44538 11.864L7.44471 11.8667Z" fill="#DEE5EE"/>
<path d="M6.00004 14.6666C6.36823 14.6666 6.66671 14.3682 6.66671 14C6.66671 13.6318 6.36823 13.3333 6.00004 13.3333C5.63185 13.3333 5.33337 13.6318 5.33337 14C5.33337 14.3682 5.63185 14.6666 6.00004 14.6666Z" fill="#DEE5EE"/>
<path d="M18.0001 11.3333C18.0067 15.5365 21.2634 19.0186 25.4567 19.306C25.4727 19.306 25.4861 19.318 25.5027 19.3193C25.5914 19.3269 25.6804 19.3298 25.7694 19.328C25.8461 19.3327 25.9261 19.3333 26.0007 19.3333C26.0754 19.3333 26.1554 19.3333 26.2321 19.328C26.3062 19.3302 26.3803 19.3275 26.4541 19.32H26.4607C26.4832 19.3168 26.5054 19.3124 26.5274 19.3067C30.7216 19.0312 33.9854 15.5535 33.9943 11.3502C34.0033 7.14698 30.7544 3.65537 26.5614 3.362C26.5474 3.362 26.5347 3.35134 26.5201 3.34934C26.4587 3.34285 26.3971 3.34018 26.3354 3.34134C26.1256 3.32795 25.9152 3.32795 25.7054 3.34134C25.6387 3.34134 25.5687 3.34134 25.5007 3.34867C25.4814 3.34867 25.4654 3.36 25.4467 3.36267C21.2579 3.65472 18.007 7.13437 18.0001 11.3333ZM26.0001 4.66667C29.682 4.66667 32.6667 7.65144 32.6667 11.3333C32.6667 15.0152 29.682 18 26.0001 18C22.3182 18 19.3334 15.0152 19.3334 11.3333C19.3374 7.65311 22.3198 4.67071 26.0001 4.66667Z" fill="#DEE5EE"/>
<path d="M21.3334 12C21.7015 12 22 11.7015 22 11.3333C22.0022 9.12511 23.7918 7.33554 26 7.33333C26.3682 7.33333 26.6667 7.03486 26.6667 6.66667C26.6667 6.29848 26.3682 6 26 6C23.0559 6.00331 20.67 8.38919 20.6667 11.3333C20.6667 11.7015 20.9652 12 21.3334 12Z" fill="#DEE5EE"/>
<path d="M24.0001 11.3333C24.0001 12.4379 24.8955 13.3333 26.0001 13.3333C27.1046 13.3333 28.0001 12.4379 28.0001 11.3333C28.0001 10.2287 27.1046 9.33331 26.0001 9.33331C24.8955 9.33331 24.0001 10.2287 24.0001 11.3333ZM26.6667 11.3333C26.6667 11.7015 26.3682 12 26.0001 12C25.6319 12 25.3334 11.7015 25.3334 11.3333C25.3334 10.9651 25.6319 10.6666 26.0001 10.6666C26.3682 10.6666 26.6667 10.9651 26.6667 11.3333Z" fill="#DEE5EE"/>
<path d="M28.6667 7.99996C29.0349 7.99996 29.3334 7.70148 29.3334 7.33329C29.3334 6.9651 29.0349 6.66663 28.6667 6.66663C28.2985 6.66663 28.0001 6.9651 28.0001 7.33329C28.0001 7.70148 28.2985 7.99996 28.6667 7.99996Z" fill="#DEE5EE"/>
</g>
<defs>
<clipPath id="clip0">
<rect width="40" height="40" fill="white"/>
</clipPath>
</defs>
</svg>
