<svg width="103" height="111" viewBox="0 0 103 111" fill="none" xmlns="http://www.w3.org/2000/svg">
<g clip-path="url(#clip0)">
<path fill-rule="evenodd" clip-rule="evenodd" d="M93.9486 39.1213C90.3837 39.0526 87.314 41.2902 86.1592 44.4644C84.5672 45.2696 81.029 45.8212 73.1727 44.4662C69.3332 43.804 67.7886 41.3809 67.1922 39.8901C66.8799 37.5786 66.2883 35.3163 65.4361 33.1551C65.3327 31.9117 65.3573 29.3642 67.0581 28.0694C70.4579 25.4812 71.8727 25.0075 72.4591 25.031C72.5882 25.1213 72.7253 25.1974 72.8678 25.2589L72.8699 25.2627L72.8693 25.2595C73.5886 25.5692 74.4466 25.5053 75.1286 25.0155C76.1663 24.2704 76.4038 22.8218 75.6592 21.7799C74.9147 20.738 73.4699 20.4974 72.4323 21.2425C71.6936 21.7729 71.3604 22.6599 71.4983 23.5028C71.1653 24.132 69.9215 25.2406 65.8795 26.9471C64.0829 27.7056 62.2958 26.697 61.3115 25.9482C59.2616 23.3317 56.7329 21.0421 53.7783 19.2265C53.1026 17.9502 52.5795 16.2745 53.134 14.6185C54.4842 10.5862 55.6861 8.82587 56.5558 8.07633C58.8979 8.65428 61.3808 7.47537 62.3707 5.18503C63.4759 2.62813 62.3017 -0.345717 59.7483 -1.45724C57.1948 -2.56877 54.229 -1.39706 53.1238 1.15984C52.2505 3.18049 52.8006 5.46155 54.33 6.87805C54.413 7.98896 53.8907 10.1575 51.2672 14.3487C50.44 15.6702 49.1379 16.2477 47.9329 16.4789C42.8721 14.7585 37.5923 14.5411 32.6346 15.6327C30.2879 15.8401 24.9357 15.8569 22.1018 12.2025C17.7036 6.53113 16.335 3.17888 16.0795 1.23654C19.0931 -1.53874 19.7558 -6.17341 17.4485 -9.7343C14.8756 -13.7049 9.58425 -14.8368 5.62986 -12.2626C1.67546 -9.68834 0.555494 -4.38274 3.12834 -0.412174C5.16541 2.73156 8.90668 4.09581 12.3392 3.24997C13.9845 4.19573 16.5424 6.98872 19.9766 14.5945C21.3522 17.6411 20.3512 20.6457 19.1737 22.7308C16.6284 25.1254 14.4813 28.031 12.9008 31.3874C8.58116 40.5601 9.54009 50.8753 14.5445 58.8901L14.3858 58.7441C14.3858 58.7441 17.1317 64.1507 14.5199 67.7959C11.3952 72.1567 9.29218 73.832 7.96492 74.4118C5.35347 72.8447 1.92235 73.3423 -0.12045 75.7349C-2.40193 78.407 -2.08778 82.431 0.58122 84.7227C3.25023 87.0143 7.26338 86.7059 9.54486 84.0337C11.3489 81.9208 11.53 78.9627 10.2073 76.6841C10.5198 75.3131 11.9548 72.8927 16.6724 68.8166C18.9182 66.8762 21.8409 67.3825 23.5747 67.9543C24.5344 68.5581 25.5401 69.1114 26.5897 69.6091C28.1723 70.3595 29.7887 70.9521 31.4211 71.3932C31.9058 72.2768 32.8279 74.5489 31.9953 78.0103C30.1242 85.7898 29.2475 87.5927 28.8958 87.9832C28.8372 88.0097 28.7792 88.0387 28.722 88.0703L28.6955 88.0659C28.6955 88.0659 28.6999 88.072 28.7095 88.0773C28.062 88.44 27.5198 89.1246 27.3383 89.8986C27.074 91.026 27.6752 91.916 28.6811 91.8866C29.6871 91.8571 30.7169 90.9193 30.9812 89.7918C31.1819 88.9361 30.8839 88.217 30.2886 87.9331C30.269 87.0729 30.729 84.5788 33.2338 77.4349C34.2871 74.4308 35.9244 72.9581 36.8965 72.311C39.7999 72.5092 42.6921 72.2581 45.476 71.5926C48.3416 72.279 51.5187 73.7226 53.3446 76.724C57.9888 84.3578 59.2115 88.6964 59.2552 91.1344C55.1371 94.1408 53.6666 99.7796 56.0214 104.51C58.6467 109.783 65.0325 111.929 70.2845 109.304C75.5366 106.679 77.6659 100.276 75.0406 95.0025C72.9624 90.8283 68.5279 88.6133 64.1647 89.1735C62.2624 87.7723 59.4899 83.9579 56.3086 74.0658C55.2334 70.7228 56.2473 67.6556 57.6409 65.3297C59.6625 63.5668 61.4582 61.4972 62.9511 59.1484C63.7574 58.9878 64.6198 59.0004 65.4292 59.3719C69.2736 61.1362 70.3796 62.1599 70.6526 62.694C70.5371 63.646 71.0234 64.6098 71.9313 65.0574C73.0784 65.6229 74.4644 65.1502 75.0269 64.0015C75.5893 62.8528 75.1153 61.4631 73.9682 60.8976C73.1488 60.4936 72.2076 60.6194 71.5317 61.1428C70.813 61.1359 69.2466 60.5469 65.8563 57.8019C65.24 57.3029 64.8801 56.6681 64.6828 56.0083L64.7089 55.953C64.9671 55.4047 65.2064 54.8524 65.4271 54.2966C66.2996 52.6057 69.2146 47.7229 73.9208 47.4129C80.784 46.9608 84.1356 47.6905 85.7711 48.5364C86.3778 52.3659 89.656 55.3289 93.6617 55.4061C98.1537 55.4927 101.859 51.9174 101.939 47.4205C102.018 42.9235 98.4406 39.2079 93.9486 39.1213ZM39.029 2.66687C39.2071 3.93613 38.3267 5.10834 37.0627 5.28507C35.7987 5.4618 34.6296 4.57613 34.4515 3.30687C34.2735 2.0376 35.1538 0.865395 36.4178 0.688663C37.6818 0.511935 38.8509 1.39761 39.029 2.66687ZM11.9737 65.105C12.7824 64.9919 13.3456 64.2419 13.2316 63.4299C13.1177 62.6178 12.3698 62.0512 11.5611 62.1642C10.7524 62.2773 10.1891 63.0273 10.3031 63.8393C10.417 64.6514 11.1649 65.218 11.9737 65.105ZM65.6522 68.6815C65.7078 69.0777 65.433 69.4436 65.0385 69.4988C64.6439 69.5539 64.279 69.2775 64.2234 68.8813C64.1678 68.4851 64.4426 68.1192 64.8372 68.064C65.2317 68.0089 65.5966 68.2853 65.6522 68.6815Z" fill="#4B5D6B"/>
<path d="M63.1741 109.003C65.0152 109.411 66.931 109.318 68.7233 108.735C70.5155 108.152 72.1191 107.1 73.3681 105.687L73.2259 105.561C71.9993 106.949 70.4245 107.982 68.6644 108.555C66.9044 109.127 65.0229 109.218 63.2148 108.818L63.1741 109.003Z" fill="white"/>
<path d="M3.20495 85.1822C4.31173 85.4272 5.46338 85.3716 6.54075 85.0212C7.61811 84.6707 8.58207 84.0381 9.33289 83.1888L9.24746 83.113C8.5101 83.947 7.56344 84.5683 6.50539 84.9125C5.44735 85.2566 4.31636 85.3112 3.22942 85.0706L3.20495 85.1822Z" fill="white"/>
<path d="M8.10585 1.72467C9.59337 2.05403 11.1412 1.97933 12.5892 1.50831C14.0372 1.0373 15.3327 0.187067 16.3418 -0.954414L16.227 -1.05633C15.236 0.0646775 13.9637 0.899657 12.5417 1.36223C11.1196 1.8248 9.59958 1.89815 8.13874 1.57471L8.10585 1.72467Z" fill="white"/>
<path d="M63.0026 107.862C65.554 108.427 68.2227 108.026 70.4947 106.738L70.4224 106.61C68.1819 107.881 65.5502 108.276 63.0341 107.718L63.0026 107.862Z" fill="white"/>
<path d="M2.5506 84.6972C4.08433 85.0369 5.68854 84.7963 7.05431 84.0217L7.01086 83.9449C5.66399 84.7088 4.082 84.9461 2.5695 84.611L2.5506 84.6972Z" fill="white"/>
<path d="M8.07948 0.531795C10.1408 0.988375 12.2969 0.664987 14.1325 -0.376097L14.0741 -0.479286C12.2639 0.547385 10.1377 0.866296 8.10488 0.416037L8.07948 0.531795Z" fill="white"/>
<path d="M91.6106 54.6271C93.0258 54.9405 94.4985 54.8694 95.8761 54.4213C97.2538 53.9732 98.4864 53.1642 99.4465 52.0782L99.3372 51.9812C98.3944 53.0478 97.1839 53.8422 95.8309 54.2823C94.478 54.7224 93.0318 54.7922 91.6419 54.4845L91.6106 54.6271Z" fill="white"/>
<path d="M56.5206 7.53932C57.3975 7.73346 58.3098 7.68943 59.1633 7.41179C60.0168 7.13415 60.7805 6.63299 61.3753 5.96015L61.3076 5.90007C60.7235 6.56085 59.9735 7.05302 59.1353 7.32568C58.2971 7.59834 57.4011 7.64158 56.54 7.45092L56.5206 7.53932Z" fill="white"/>
<path d="M72.9947 25.0142C73.3974 25.1034 73.8165 25.0832 74.2085 24.9556C74.6005 24.8281 74.9513 24.5979 75.2245 24.2889L75.1934 24.2613C74.9251 24.5648 74.5807 24.7909 74.1956 24.9161C73.8106 25.0413 73.3991 25.0612 73.0036 24.9736L72.9947 25.0142Z" fill="white"/>
<path d="M72.2093 64.7674C72.6121 64.8566 73.0311 64.8363 73.4232 64.7088C73.8152 64.5813 74.166 64.3511 74.4392 64.042L74.4081 64.0144C74.1398 64.318 73.7953 64.544 73.4103 64.6693C73.0253 64.7945 72.6137 64.8144 72.2182 64.7268L72.2093 64.7674Z" fill="white"/>
<path d="M27.9315 91.2894C28.3343 91.3785 28.7533 91.3583 29.1454 91.2308C29.5374 91.1033 29.8882 90.8731 30.1614 90.564L30.1303 90.5364C29.862 90.8399 29.5175 91.066 29.1325 91.1912C28.7475 91.3165 28.336 91.3363 27.9404 91.2488L27.9315 91.2894Z" fill="white"/>
<path d="M91.4242 53.7737C93.3854 54.2081 95.4368 53.9004 97.1832 52.9099L97.1277 52.8117C95.4054 53.7885 93.3825 54.0919 91.4484 53.6635L91.4242 53.7737Z" fill="white"/>
<path d="M56.461 7.04117C57.6761 7.3103 58.9469 7.11968 60.0289 6.50602L59.9945 6.4452C58.9275 7.05036 57.6742 7.23834 56.476 6.97294L56.461 7.04117Z" fill="white"/>
<path d="M72.9355 24.5164C73.4936 24.64 74.0773 24.5525 74.5743 24.2706L74.5585 24.2426C74.0684 24.5206 73.4927 24.607 72.9424 24.4851L72.9355 24.5164Z" fill="white"/>
<path d="M72.1502 64.2693C72.7083 64.3929 73.292 64.3054 73.789 64.0235L73.7732 63.9956C73.2831 64.2735 72.7074 64.3599 72.157 64.238L72.1502 64.2693Z" fill="white"/>
<path d="M27.8724 90.7913C28.4305 90.9149 29.0143 90.8274 29.5113 90.5455L29.4955 90.5176C29.0054 90.7955 28.4297 90.8819 27.8793 90.76L27.8724 90.7913Z" fill="white"/>
<ellipse cx="39.2913" cy="44.091" rx="24.3653" ry="24.4309" fill="#F8F8F8"/>
<g clip-path="url(#clip1)">
<path d="M24.7601 48.3177C24.9299 48.4356 25.1091 48.5393 25.2959 48.6277C25.5196 48.7424 25.8942 48.9336 25.9205 49.0674C25.9528 49.2437 25.9316 49.4256 25.8596 49.5898C25.7826 49.7551 25.702 49.8967 25.6322 50.0201C25.4431 50.3544 25.1259 50.9145 25.6038 51.3035C25.7154 51.4069 25.9081 51.5562 26.0838 51.6916C25.9545 51.9177 25.896 52.1774 25.9159 52.4371C25.9435 52.6417 26.0544 52.8259 26.2223 52.946C26.337 53.0261 26.4594 53.0969 26.5803 53.1651C26.8862 53.3392 27.005 53.4203 27.0453 53.5821C27.0741 53.79 27.0565 54.0017 26.9937 54.202C26.9632 54.3405 26.9337 54.479 26.9162 54.6154C26.8648 55.0863 26.923 55.5626 27.0861 56.0073C27.3181 56.828 28.0603 57.4 28.9131 57.4152C29.0556 57.415 29.1978 57.3999 29.3373 57.3702C30.8132 57.0208 32.2675 56.5858 33.6928 56.0672C34.8573 56.7502 35.5925 58.8273 35.7842 59.6064C35.8415 59.8369 36.0484 59.9986 36.2859 59.9985L49.2542 59.9624C49.4186 59.962 49.573 59.8836 49.6701 59.751C49.7672 59.6184 49.7954 59.4475 49.7461 59.2907C49.6187 58.9406 49.4427 58.6101 49.2232 58.309C49.0991 58.1301 48.9872 57.943 48.8884 57.749C48.6544 57.2755 48.4593 56.7837 48.3051 56.2785C48.01 55.2801 47.8055 54.2571 47.6939 53.2219C47.5862 52.3329 47.6211 51.4324 47.7972 50.5544C47.8524 50.275 47.6711 50.0036 47.3919 49.9477C47.1127 49.8917 46.8408 50.0722 46.7841 50.3513C46.5867 51.3378 46.5478 52.3493 46.6688 53.348C46.788 54.4455 47.0057 55.5301 47.3193 56.5885C47.4889 57.1441 47.7033 57.6849 47.9605 58.2057C48.0785 58.4403 48.2127 58.6665 48.362 58.8825C48.3733 58.8991 48.3842 58.9161 48.3955 58.9342L36.6765 58.9652C36.3335 57.7396 35.711 56.6102 34.8578 55.6658L35.3414 55.4968C35.6793 55.379 35.9341 55.2902 36.0648 55.2478C38.2787 54.5487 39.3854 53.5428 39.3554 52.2511C39.344 51.9685 39.1107 51.7457 38.8279 51.7474C38.6909 51.7506 38.5607 51.8082 38.4662 51.9074C38.3716 52.0066 38.3203 52.1394 38.3236 52.2764C38.336 52.8081 37.9005 53.5836 35.7517 54.2625C35.6142 54.3069 35.3518 54.3984 35.003 54.5208C34.616 54.6562 34.1211 54.8308 33.5744 55.0148C32.1205 55.548 30.6369 55.9965 29.1311 56.3581C28.6479 56.4531 28.1762 56.1484 28.0642 55.6689C27.9538 55.3749 27.9123 55.0596 27.9428 54.7471C27.9562 54.6391 27.981 54.5312 28.0048 54.4232C28.11 54.066 28.1255 53.6883 28.0497 53.3237C27.8994 52.8492 27.5502 52.4636 27.0929 52.2671L26.9859 52.2056C27.0418 52.0928 27.1086 51.9857 27.1853 51.8858C27.2718 51.776 27.31 51.6358 27.2914 51.4972C27.2727 51.3587 27.1986 51.2336 27.0861 51.1506C26.9621 51.0592 26.6702 50.8406 26.4558 50.6681C26.4806 50.6231 26.5075 50.5735 26.5333 50.5291C26.6144 50.3865 26.7069 50.2191 26.7973 50.03C26.9608 49.6678 27.009 49.2641 26.9353 48.8737C26.8113 48.2428 26.2073 47.9338 25.7666 47.7086C25.6177 47.6383 25.4751 47.5555 25.3403 47.4611C25.2298 47.3868 25.1261 47.303 25.0303 47.2105C25.0303 47.1325 25.1145 46.9424 25.5082 46.4634C26.4336 45.2718 27.2272 43.9835 27.8751 42.621C27.9956 42.4077 28.0636 42.1688 28.0735 41.924C28.0201 41.4046 27.7449 40.9337 27.3186 40.6323C27.112 40.4406 26.9131 40.2598 26.8898 40.0919C26.8933 39.9696 26.9206 39.8492 26.9704 39.7374C27.0546 39.5163 27.1518 39.2993 27.2494 39.0818C27.4613 38.6451 27.6305 38.189 27.7547 37.7199L27.8064 37.5003C27.9165 36.9832 28.058 36.4734 28.23 35.9735C28.6373 34.8495 29.2679 33.8196 30.0838 32.9459C31.0727 31.8991 32.6279 31.1597 34.7152 30.7449C36.3114 30.3945 37.931 30.1612 39.5611 30.0468C40.0919 30.0231 40.6237 30.0354 41.1529 30.0835C39.094 30.8885 37.4408 32.4809 36.5592 34.5083C35.4056 35.3714 34.3506 36.359 33.4132 37.4533C33.2588 37.6432 33.2588 37.9154 33.4132 38.1053C34.3506 39.1995 35.4056 40.1871 36.5592 41.0503C37.453 43.1374 39.1686 44.7632 41.3007 45.5437C43.4328 46.3242 45.7925 46.1902 47.8226 45.1733L49.1271 47.4332L48.6792 47.6915C48.1855 47.9771 48.0164 48.6086 48.3015 49.1025L50.8848 53.5769C51.1578 54.0525 51.6097 54.3991 52.1398 54.5394C52.3154 54.5866 52.4964 54.6105 52.6782 54.6107C53.4159 54.6094 54.0969 54.215 54.4652 53.5758C54.8335 52.9366 54.8332 52.1496 54.4643 51.5107L51.881 47.0369C51.744 46.7994 51.5183 46.626 51.2534 46.5549C50.9886 46.4839 50.7064 46.5211 50.4689 46.6582L50.0215 46.9165L48.7195 44.6608C50.052 43.7728 51.0999 42.5192 51.7373 41.0503C52.891 40.1871 53.946 39.1995 54.8833 38.1053C55.0378 37.9154 55.0378 37.6432 54.8833 37.4533C53.946 36.359 52.891 35.3714 51.7373 34.5083C50.4288 31.4808 47.4477 29.5191 44.1496 29.5152C43.9946 29.5152 43.8489 29.5297 43.6985 29.5379C42.3451 29.1118 40.9256 28.9345 39.5089 29.0145C37.8277 29.1312 36.1573 29.3711 34.5112 29.7322C32.182 30.1972 30.4889 31.013 29.3326 32.2349C28.4209 33.2107 27.716 34.3608 27.2603 35.616C27.074 36.1558 26.9211 36.7066 26.8025 37.2652L26.7508 37.4827C26.6408 37.8883 26.4927 38.2825 26.3086 38.6602C26.2052 38.8958 26.0983 39.1309 26.0058 39.3753C25.8869 39.6467 25.8399 39.9442 25.8694 40.2391C25.9735 40.7018 26.2407 41.1116 26.6222 41.3934C26.8748 41.6248 27.0407 41.7886 27.0427 41.9307C27.0239 42.0093 26.9943 42.0849 26.9549 42.1554C26.3361 43.4579 25.5782 44.6895 24.6945 45.8289C24.3199 46.2852 23.9272 46.8163 24.0099 47.349C24.12 47.7594 24.3903 48.1085 24.7601 48.3177ZM50.9856 47.5567L53.5689 52.031C53.7671 52.3513 53.7753 52.754 53.5903 53.0821C53.4054 53.4102 53.0566 53.6116 52.68 53.608C52.3035 53.6043 51.9587 53.396 51.7802 53.0643L49.1969 48.59L50.0907 48.0733L50.9856 47.5567ZM34.5013 37.7819C34.9818 37.2549 35.4908 36.7547 36.026 36.2835C35.8355 37.2733 35.8355 38.2904 36.026 39.2802C35.4908 38.809 34.9818 38.3088 34.5013 37.7819ZM53.7978 37.7819C53.3174 38.3088 52.8084 38.809 52.2731 39.2802C52.4637 38.2904 52.4637 37.2733 52.2731 36.2835C52.8084 36.7547 53.3174 37.2549 53.7978 37.7819ZM51.3829 37.7819C51.3829 41.7767 48.1444 45.0152 44.1496 45.0152C40.1547 45.0152 36.9162 41.7767 36.9162 37.7819C36.9162 33.787 40.1547 30.5485 44.1496 30.5485C48.1427 30.5528 51.3786 33.7888 51.3829 37.7819Z" fill="#4B5D6B"/>
<path d="M29.7697 38.1966L29.8213 37.9718C29.9118 37.5403 30.0272 37.1144 30.167 36.6962C30.4783 35.8337 30.9605 35.0429 31.5847 34.3712C32.2542 33.7396 33.0738 33.2895 33.966 33.0635C34.1427 33.0098 34.2773 32.8659 34.3191 32.6861C34.3609 32.5062 34.3036 32.3178 34.1687 32.1916C34.0339 32.0655 33.842 32.0209 33.6653 32.0746C32.6007 32.3514 31.6254 32.8979 30.8335 33.6613C30.114 34.434 29.5578 35.3439 29.1982 36.3366C29.0434 36.7947 28.9158 37.2616 28.8159 37.7347L28.7642 37.9584C28.702 38.235 28.8743 38.51 29.1502 38.5748C29.4262 38.6396 29.7029 38.4699 29.7702 38.1945L29.7697 38.1966Z" fill="#4B5D6B"/>
<path d="M28.65 40.3666C28.9353 40.3666 29.1666 40.1353 29.1666 39.8499C29.1666 39.5646 28.9353 39.3333 28.65 39.3333C28.3646 39.3333 28.1333 39.5646 28.1333 39.8499C28.1333 40.1353 28.3646 40.3666 28.65 40.3666Z" fill="#4B5D6B"/>
<path d="M37.95 37.7834C37.9551 41.0409 40.4791 43.7394 43.7289 43.9622C43.7413 43.9622 43.7517 43.9715 43.7646 43.9725C43.8333 43.9783 43.9023 43.9806 43.9712 43.9792C44.0307 43.9829 44.0927 43.9834 44.1505 43.9834C44.2084 43.9834 44.2704 43.9834 44.3298 43.9792C44.3872 43.9809 44.4447 43.9788 44.5019 43.973H44.507C44.5244 43.9706 44.5417 43.9671 44.5587 43.9627C47.8092 43.7492 50.3386 41.054 50.3456 37.7965C50.3525 34.5389 47.8346 31.8329 44.585 31.6056C44.5742 31.6056 44.5644 31.5973 44.553 31.5958C44.5055 31.5907 44.4577 31.5887 44.4099 31.5896C44.2473 31.5792 44.0842 31.5792 43.9216 31.5896C43.87 31.5896 43.8157 31.5896 43.763 31.5952C43.748 31.5952 43.7356 31.604 43.7212 31.6061C40.4749 31.8324 37.9554 34.5292 37.95 37.7834ZM44.15 32.6167C47.0035 32.6167 49.3167 34.9299 49.3167 37.7834C49.3167 40.6368 47.0035 42.95 44.15 42.95C41.2965 42.95 38.9833 40.6368 38.9833 37.7834C38.9865 34.9312 41.2978 32.6198 44.15 32.6167Z" fill="#4B5D6B"/>
<path d="M40.5334 38.2999C40.8187 38.2999 41.0501 38.0686 41.0501 37.7832C41.0518 36.0719 42.4387 34.6849 44.1501 34.6832C44.4354 34.6832 44.6667 34.4519 44.6667 34.1666C44.6667 33.8812 44.4354 33.6499 44.1501 33.6499C41.8683 33.6525 40.0193 35.5015 40.0167 37.7832C40.0167 38.0686 40.248 38.2999 40.5334 38.2999Z" fill="#4B5D6B"/>
<path d="M42.6 37.7834C42.6 38.6394 43.2939 39.3334 44.15 39.3334C45.006 39.3334 45.7 38.6394 45.7 37.7834C45.7 36.9274 45.006 36.2334 44.15 36.2334C43.2939 36.2334 42.6 36.9274 42.6 37.7834ZM44.6666 37.7834C44.6666 38.0687 44.4353 38.3001 44.15 38.3001C43.8646 38.3001 43.6333 38.0687 43.6333 37.7834C43.6333 37.4981 43.8646 37.2667 44.15 37.2667C44.4353 37.2667 44.6666 37.4981 44.6666 37.7834Z" fill="#4B5D6B"/>
<path d="M46.2167 35.1998C46.502 35.1998 46.7333 34.9685 46.7333 34.6832C46.7333 34.3978 46.502 34.1665 46.2167 34.1665C45.9313 34.1665 45.7 34.3978 45.7 34.6832C45.7 34.9685 45.9313 35.1998 46.2167 35.1998Z" fill="#4B5D6B"/>
</g>
</g>
<defs>
<clipPath id="clip0">
<rect width="103" height="111" fill="white"/>
</clipPath>
<clipPath id="clip1">
<rect width="31" height="31" fill="white" transform="translate(24 29)"/>
</clipPath>
</defs>
</svg>
