<svg width="21" height="36" viewBox="0 0 21 36" fill="none" xmlns="http://www.w3.org/2000/svg">
<path fill-rule="evenodd" clip-rule="evenodd" d="M9.36999 6.06574C-0.23921 7.16154 -3.28021 19.1526 4.14399 24.7531C5.47409 25.7564 10.4441 28.1776 12.0098 26.0735C13.3162 24.3179 11.3155 23.4849 11.3005 22.321C11.2607 19.2199 16.4781 22.1796 19.3645 19.6937C20.3365 18.8567 20.9123 17.6342 20.8243 15.7905C20.5602 10.2533 15.441 5.37344 9.36999 6.06574Z" fill="black"/>
<path fill-rule="evenodd" clip-rule="evenodd" d="M4.4909 7.8577C-3.7647 13.7101 0.261894 26.447 9.68119 26.8975C11.7889 26.9992 16.1303 26.4449 16.4507 24.1133C16.7486 21.9454 11.8954 22.9852 11.3211 21.9729C11.2176 21.7903 7.5932 22.7973 7.5548 22.6385C7.0265 20.4465 18.5778 18.3059 19.8179 14.9779C20.2659 13.7759 20.1808 12.4274 19.2148 10.8545C16.3135 6.1309 9.4758 4.324 4.4909 7.8577Z" fill="black"/>
<path d="M7.55489 12.244C8.72944 12.244 9.68159 11.2918 9.68159 10.1173C9.68159 8.94276 8.72944 7.9906 7.55489 7.9906C6.38035 7.9906 5.42819 8.94276 5.42819 10.1173C5.42819 11.2918 6.38035 12.244 7.55489 12.244Z" fill="#44A13B"/>
<path d="M13.156 12.1638C14.3305 12.1638 15.2827 11.2116 15.2827 10.0371C15.2827 8.86256 14.3305 7.9104 13.156 7.9104C11.9815 7.9104 11.0293 8.86256 11.0293 10.0371C11.0293 11.2116 11.9815 12.1638 13.156 12.1638Z" fill="#FBAE45"/>
<path d="M16.617 16.7865C17.7915 16.7865 18.7437 15.8343 18.7437 14.6598C18.7437 13.4852 17.7915 12.5331 16.617 12.5331C15.4425 12.5331 14.4903 13.4852 14.4903 14.6598C14.4903 15.8343 15.4425 16.7865 16.617 16.7865Z" fill="#B62931"/>
<path d="M4.04079 16.8568C5.21534 16.8568 6.16749 15.9046 6.16749 14.7301C6.16749 13.5555 5.21534 12.6034 4.04079 12.6034C2.86625 12.6034 1.91409 13.5555 1.91409 14.7301C1.91409 15.9046 2.86625 16.8568 4.04079 16.8568Z" fill="#6C67F2"/>
</svg>
