<svg width="111" height="135" viewBox="0 0 111 135" fill="none" xmlns="http://www.w3.org/2000/svg">
<path d="M101.255 59.2959C97.5568 59.2246 94.3725 61.5458 93.1745 64.8387C91.5231 65.6739 87.8527 66.2461 79.7031 64.8405C75.72 64.1535 74.1179 61.6398 73.4992 60.0934C73.1752 57.6956 72.5616 55.349 71.6776 53.1072C71.5704 51.8174 71.5957 49.1744 73.3602 47.8311C76.8868 45.1464 78.3545 44.655 78.9628 44.6792C79.0968 44.773 79.239 44.852 79.3869 44.9157L79.3891 44.9196L79.3884 44.9164C80.1346 45.2376 81.0246 45.1713 81.7321 44.6633C82.8085 43.8903 83.0549 42.3876 82.2825 41.3068C81.5102 40.226 80.0114 39.9764 78.9351 40.7493C78.1689 41.2996 77.8232 42.2196 77.9662 43.094C77.6208 43.7466 76.3305 44.8967 72.1376 46.6669C70.2737 47.4538 68.4197 46.4073 67.3987 45.6305C65.2722 42.9164 62.6491 40.5412 59.5842 38.6579C58.8833 37.3339 58.3408 35.5958 58.916 33.8781C60.3166 29.6952 61.5633 27.8691 62.4655 27.0916C64.8952 27.6911 67.4708 26.4682 68.4977 24.0923C69.6441 21.4399 68.4261 18.355 65.7773 17.2019C63.1285 16.0489 60.0519 17.2644 58.9055 19.9168C57.9995 22.0129 58.5701 24.3791 60.1566 25.8485C60.2427 27.0009 59.7009 29.2503 56.9794 33.5982C56.1214 34.9689 54.7708 35.568 53.521 35.8079C48.2708 34.023 42.7935 33.7975 37.6504 34.9301C35.2157 35.1452 29.6644 35.1622 26.7248 31.3717C22.1624 25.4886 20.7427 22.0111 20.4776 19.9963C23.6038 17.1173 24.2912 12.3096 21.8976 8.61576C19.2287 4.49691 13.7397 3.32268 9.63764 5.99306C5.53557 8.66343 4.37378 14.1672 7.04271 18.286C9.1559 21.5472 13.037 22.9624 16.5978 22.0849C18.3045 23.0661 20.9579 25.9634 24.5203 33.8531C25.9472 37.0133 24.9089 40.13 23.6876 42.293C21.0471 44.777 18.8198 47.7912 17.1801 51.273C12.6992 60.7883 13.694 71.4889 18.8853 79.803L18.7207 79.6515C18.7207 79.6515 21.5691 85.2601 18.8597 89.0414C15.6184 93.5651 13.4368 95.303 12.06 95.9044C9.351 94.2787 5.79174 94.7949 3.67264 97.2769C1.30595 100.049 1.63184 104.223 4.40052 106.6C7.1692 108.978 11.3322 108.658 13.6989 105.886C15.5703 103.694 15.7582 100.625 14.3861 98.2616C14.7103 96.8394 16.1989 94.3285 21.0927 90.1002C23.4224 88.0873 26.4544 88.6126 28.2529 89.2058C29.2484 89.832 30.2916 90.4059 31.3803 90.9222C33.022 91.7006 34.6987 92.3153 36.3921 92.7729C36.8949 93.6895 37.8516 96.0465 36.9879 99.6374C35.047 107.707 34.1376 109.577 33.7727 109.983C33.7118 110.01 33.6516 110.04 33.5923 110.073L33.5648 110.069C33.5648 110.069 33.566 110.07 33.5684 110.072C33.5708 110.075 33.5744 110.078 33.5793 110.08C32.9076 110.457 32.3452 111.167 32.157 111.97C31.8828 113.139 32.5064 114.062 33.55 114.032C34.5935 114.001 35.6617 113.028 35.936 111.859C36.1441 110.971 35.8349 110.225 35.2175 109.931C35.1971 109.038 35.6743 106.451 38.2726 99.0404C39.3653 95.9239 41.0639 94.3963 42.0723 93.7251C45.084 93.9306 48.0841 93.6702 50.9719 92.9798C53.9445 93.6919 57.2403 95.1894 59.1344 98.3028C63.9522 106.222 65.2205 110.723 65.2658 113.252C60.9939 116.37 59.4685 122.22 61.9113 127.126C64.6347 132.596 71.259 134.823 76.7071 132.1C82.1553 129.376 84.3641 122.734 81.6408 117.264C79.485 112.934 74.8849 110.636 70.3587 111.217C68.3854 109.764 65.5093 105.807 62.2091 95.5454C61.0938 92.0775 62.1455 88.8957 63.5913 86.4829C65.6884 84.6542 67.551 82.5073 69.0997 80.0709C69.9361 79.9042 70.8307 79.9174 71.6703 80.3027C75.6584 82.133 76.8056 83.1949 77.0888 83.7489C76.969 84.7365 77.4734 85.7363 78.4152 86.2006C79.6052 86.7873 81.0429 86.2969 81.6264 85.1053C82.2099 83.9137 81.7182 82.4721 80.5282 81.8855C79.6783 81.4664 78.702 81.5969 78.0008 82.1398C77.2554 82.1327 75.6304 81.5218 72.1134 78.6741C71.474 78.1565 71.1007 77.498 70.896 76.8136L70.9231 76.7561C71.1908 76.1877 71.4389 75.6151 71.6678 75.039C72.5722 73.2857 75.5962 68.2189 80.4791 67.8973C87.5987 67.4283 91.0754 68.1851 92.7719 69.0627C93.4014 73.0351 96.802 76.1088 100.957 76.1889C105.617 76.2787 109.461 72.5699 109.543 67.905C109.625 63.2401 105.915 59.3857 101.255 59.2959Z" fill="#DEE5EE"/>
<path d="M44.2842 21.4799C44.469 22.7966 43.5558 24.0126 42.2445 24.1959C40.9333 24.3793 39.7206 23.4605 39.5358 22.1438C39.3511 20.8272 40.2643 19.6112 41.5755 19.4279C42.8868 19.2445 44.0995 20.1633 44.2842 21.4799Z" fill="#DEE5EE"/>
<path d="M16.2183 86.25C17.0572 86.1327 17.6415 85.3547 17.5233 84.5123C17.4051 83.6699 16.6292 83.0821 15.7903 83.1994C14.9514 83.3167 14.3672 84.0947 14.4854 84.9371C14.6035 85.7794 15.3794 86.3672 16.2183 86.25Z" fill="#DEE5EE"/>
<path d="M71.9018 89.96C71.9594 90.371 71.6744 90.7505 71.2651 90.8078C70.8558 90.865 70.4773 90.5782 70.4196 90.1672C70.3619 89.7562 70.647 89.3767 71.0563 89.3194C71.4656 89.2622 71.8441 89.549 71.9018 89.96Z" fill="#DEE5EE"/>
<path d="M69.3309 131.788C71.2408 132.211 73.2281 132.115 75.0873 131.51C76.9465 130.905 78.6099 129.813 79.9056 128.348L79.7582 128.217C78.4857 129.656 76.8521 130.728 75.0263 131.322C73.2005 131.916 71.2488 132.01 69.3731 131.595L69.3309 131.788Z" fill="#4B5D6B"/>
<path d="M7.12232 107.077C8.27044 107.331 9.4651 107.274 10.5827 106.91C11.7003 106.547 12.7003 105.89 13.4791 105.009L13.3905 104.931C12.6256 105.796 11.6436 106.44 10.546 106.797C9.44846 107.154 8.27523 107.211 7.14771 106.961L7.12232 107.077Z" fill="#4B5D6B"/>
<path d="M12.2062 20.5027C13.7493 20.8443 15.3549 20.7668 16.857 20.2782C18.359 19.7896 19.703 18.9076 20.7498 17.7235L20.6307 17.6178C19.6027 18.7807 18.2828 19.6468 16.8077 20.1267C15.3326 20.6065 13.7557 20.6826 12.2403 20.3471L12.2062 20.5027Z" fill="#4B5D6B"/>
<path d="M69.1531 130.604C71.7997 131.19 74.5681 130.775 76.9249 129.438L76.8499 129.305C74.5257 130.624 71.7957 131.033 69.1857 130.455L69.1531 130.604Z" fill="#4B5D6B"/>
<path d="M6.4434 106.574C8.03441 106.926 9.69853 106.677 11.1153 105.873L11.0702 105.794C9.67307 106.586 8.03199 106.832 6.46301 106.485L6.4434 106.574Z" fill="#4B5D6B"/>
<path d="M12.1788 19.2651C14.3171 19.7388 16.5537 19.4033 18.4579 18.3233L18.3973 18.2163C16.5195 19.2813 14.3139 19.6121 12.2052 19.145L12.1788 19.2651Z" fill="#4B5D6B"/>
<path d="M98.8295 75.3808C100.298 75.7059 101.825 75.6322 103.254 75.1673C104.683 74.7024 105.962 73.8633 106.958 72.7367L106.845 72.6361C105.867 73.7425 104.611 74.5666 103.207 75.0231C101.804 75.4796 100.304 75.552 98.862 75.2328L98.8295 75.3808Z" fill="#4B5D6B"/>
<path d="M62.4291 26.5346C63.3386 26.736 64.2851 26.6903 65.1705 26.4023C66.0558 26.1143 66.848 25.5944 67.465 24.8965L67.3948 24.8341C66.7889 25.5196 66.0109 26.0301 65.1414 26.313C64.2719 26.5958 63.3424 26.6407 62.4492 26.4429L62.4291 26.5346Z" fill="#4B5D6B"/>
<path d="M79.5184 44.662C79.9362 44.7545 80.3709 44.7335 80.7776 44.6012C81.1843 44.4689 81.5481 44.2302 81.8316 43.9096L81.7993 43.8809C81.521 44.1958 81.1636 44.4303 80.7643 44.5602C80.3649 44.6901 79.938 44.7107 79.5277 44.6199L79.5184 44.662Z" fill="#4B5D6B"/>
<path d="M78.7035 85.8998C79.1212 85.9923 79.556 85.9713 79.9626 85.839C80.3693 85.7067 80.7332 85.4679 81.0166 85.1473L80.9844 85.1187C80.706 85.4336 80.3487 85.6681 79.9493 85.798C79.5499 85.9279 79.123 85.9485 78.7127 85.8577L78.7035 85.8998Z" fill="#4B5D6B"/>
<path d="M32.7723 113.412C33.1901 113.505 33.6248 113.484 34.0315 113.351C34.4382 113.219 34.802 112.98 35.0855 112.66L35.0532 112.631C34.7749 112.946 34.4175 113.181 34.0182 113.31C33.6188 113.44 33.1919 113.461 32.7816 113.37L32.7723 113.412Z" fill="#4B5D6B"/>
<path d="M98.6362 74.4955C100.671 74.9461 102.799 74.6269 104.61 73.5994L104.553 73.4976C102.766 74.5108 100.668 74.8256 98.6613 74.3812L98.6362 74.4955Z" fill="#4B5D6B"/>
<path d="M62.3671 26.0178C63.6275 26.2969 64.9458 26.0992 66.0682 25.4626L66.0325 25.3995C64.9257 26.0273 63.6256 26.2223 62.3826 25.947L62.3671 26.0178Z" fill="#4B5D6B"/>
<path d="M79.457 44.1455C80.036 44.2738 80.6415 44.183 81.1571 43.8906L81.1407 43.8616C80.6323 44.1499 80.0351 44.2395 79.4642 44.113L79.457 44.1455Z" fill="#4B5D6B"/>
<path d="M78.6423 85.3832C79.2213 85.5115 79.8268 85.4206 80.3424 85.1282L80.326 85.0993C79.8176 85.3876 79.2204 85.4772 78.6495 85.3507L78.6423 85.3832Z" fill="#4B5D6B"/>
<path d="M32.7109 112.896C33.2899 113.024 33.8954 112.933 34.411 112.641L34.3946 112.612C33.8862 112.9 33.289 112.99 32.7181 112.863L32.7109 112.896Z" fill="#4B5D6B"/>
<ellipse cx="44.556" cy="64.4514" rx="25.2753" ry="25.3433" fill="white"/>
<g clip-path="url(#clip0)">
<path d="M59.7199 68.6443L57.1976 64.6211C57.1924 64.6127 57.1869 64.6046 57.1813 64.5964C56.9109 64.2096 56.494 63.9551 56.0339 63.885C56.3218 63.4624 56.4905 62.9523 56.4905 62.4034C56.4905 60.9492 55.3075 59.7663 53.8533 59.7663C52.3991 59.7663 51.2162 60.9493 51.2162 62.4034C51.2162 62.9523 51.3848 63.4624 51.6728 63.885C51.2133 63.9552 50.7967 64.2094 50.5257 64.5958C50.5 64.6325 50.4786 64.6719 50.4619 64.7134L50.2389 65.2658L47.8651 64.2227C47.8526 64.2173 47.84 64.2122 47.8272 64.2076C47.6202 64.1333 47.4047 64.1032 47.1914 64.1162C47.1617 63.8036 47.053 63.5053 46.8708 63.245L45.6123 61.4473C45.4258 61.1812 45.0592 61.1164 44.793 61.3027C44.5268 61.4891 44.4621 61.8559 44.6484 62.1221L45.9071 63.9199C45.9837 64.0292 46.0242 64.1573 46.0242 64.2901C46.0242 64.5015 45.9209 64.7001 45.748 64.8212C45.4555 65.026 45.0512 64.9545 44.8466 64.6622L42.1535 60.8161C42.0063 60.6058 41.7394 60.5154 41.4948 60.5925C41.2499 60.6697 41.0834 60.8967 41.0834 61.1535V75.6376H39.1881V68.0779C39.1881 67.753 38.9247 67.4896 38.5998 67.4896C38.2749 67.4896 38.0115 67.753 38.0115 68.0779V75.6376H36.1156V61.1547C36.1156 60.898 35.9491 60.6708 35.7042 60.5936C35.4594 60.5165 35.1928 60.6069 35.0455 60.8172L32.353 64.6622C32.232 64.8351 32.0335 64.9383 31.8219 64.9383C31.6892 64.9383 31.5611 64.8978 31.4519 64.8214C31.1595 64.6164 31.088 64.2119 31.2925 63.9198L35.5964 57.7724C35.7451 57.5605 35.988 57.4339 36.2461 57.4339H40.9533C41.2114 57.4339 41.4543 57.5605 41.6026 57.7719L42.7578 59.4219C42.9442 59.6879 43.3109 59.7527 43.5771 59.5664C43.8432 59.38 43.9079 59.0133 43.7216 58.7471L42.566 57.0965C42.2135 56.5942 41.6468 56.2861 41.0376 56.26C41.4662 55.7251 41.7233 55.0474 41.7233 54.3103C41.7233 52.5876 40.3221 51.1861 38.5997 51.1861C36.877 51.1861 35.4755 52.5876 35.4755 54.3103C35.4755 55.0474 35.7327 55.7252 36.1614 56.26C35.5523 56.2864 34.9859 56.5944 34.633 57.0971L30.3288 63.2451C29.7526 64.0683 29.9534 65.2076 30.7769 65.785C31.0852 66.0007 31.4466 66.1148 31.822 66.1148C32.4171 66.1148 32.976 65.824 33.3168 65.3369L34.9391 63.0202V76.2258C34.9391 76.5506 35.2025 76.8141 35.5274 76.8141H41.6718C41.9967 76.8141 42.2601 76.5506 42.2601 76.2258V63.0192L43.8829 65.3369C44.31 65.947 45.0457 66.215 45.7335 66.0789C45.853 66.5818 46.2125 67.0059 46.7052 67.1987L50.7555 69.3393V76.2258C50.7555 76.5506 51.019 76.8141 51.3438 76.8141H56.3623C56.6871 76.8141 56.9505 76.5506 56.9505 76.2258V70.2145L57.0633 70.4147C57.0727 70.4314 57.0828 70.4477 57.0939 70.4633C57.3385 70.813 57.7047 71.0463 58.1249 71.1204C58.5456 71.1947 58.9694 71.1005 59.3178 70.8561C59.7451 70.5579 60.0001 70.0684 60.0001 69.5467C60 69.2228 59.9032 68.9112 59.7199 68.6443ZM38.5999 52.3625C39.6735 52.3625 40.547 53.2364 40.547 54.3103C40.547 55.3839 39.6735 56.2574 38.5999 56.2574C37.5259 56.2574 36.6522 55.3839 36.6522 54.3103C36.6522 53.2364 37.5259 52.3625 38.5999 52.3625ZM53.8533 60.9429C54.6587 60.9429 55.314 61.5982 55.314 62.4035C55.314 63.2092 54.6587 63.8648 53.8533 63.8648C53.048 63.8648 52.3927 63.2092 52.3927 62.4035C52.3927 61.5981 53.048 60.9429 53.8533 60.9429ZM58.6435 69.8921C58.5516 69.9566 58.4401 69.9815 58.3293 69.9619C58.2261 69.9437 58.1354 69.8891 58.0714 69.8072L56.875 67.6822C56.7438 67.4491 56.4719 67.3339 56.2132 67.4018C55.9546 67.4696 55.7742 67.7034 55.7742 67.9708V75.6376H54.4417V71.6539C54.4417 71.329 54.1783 71.0656 53.8534 71.0656C53.5286 71.0656 53.2652 71.329 53.2652 71.6539V75.6376H51.9322V67.9696C51.9322 67.6477 51.6735 67.3857 51.3517 67.3814C51.349 67.3813 51.3464 67.3813 51.3437 67.3813C51.0255 67.3813 50.7642 67.635 50.7558 67.954L50.7544 68.0079L47.2221 66.1412C47.1974 66.1282 47.1719 66.1169 47.1455 66.1076C46.9787 66.0478 46.8667 65.8886 46.8667 65.7113C46.8667 65.6628 46.8749 65.6155 46.8915 65.5694C46.9295 65.4635 47.0065 65.3787 47.1084 65.3306C47.2052 65.2848 47.3132 65.2776 47.4145 65.3098L50.3208 66.587C50.4665 66.651 50.6318 66.6532 50.7792 66.5932C50.9266 66.5332 51.0434 66.416 51.103 66.2685L51.5231 65.2278C51.625 65.1101 51.7738 65.0412 51.931 65.0412H55.7759C55.9478 65.0412 56.1092 65.1231 56.2103 65.2608L58.7304 69.2808C58.7359 69.2896 58.7416 69.2981 58.7475 69.3065C58.8103 69.396 58.8236 69.4865 58.8236 69.5467C58.8236 69.6843 58.7566 69.8131 58.6435 69.8921Z" fill="#4B5D6B"/>
<path d="M44.0583 59.8822C43.3013 59.8822 43.3 61.0588 44.0583 61.0588C44.8153 61.0588 44.8166 59.8822 44.0583 59.8822Z" fill="#4B5D6B"/>
</g>
<defs>
<clipPath id="clip0">
<rect width="30" height="30" fill="white" transform="translate(30 49)"/>
</clipPath>
</defs>
</svg>
