<svg width="40" height="40" viewBox="0 0 40 40" fill="none" xmlns="http://www.w3.org/2000/svg">
<g clip-path="url(#clip0)">
<path d="M7.34998 16.3958C7.67452 16.3958 7.93764 16.1327 7.93764 15.8081V14.4462C7.93764 14.1216 7.67452 13.8585 7.34998 13.8585C7.02545 13.8585 6.76233 14.1216 6.76233 14.4462V15.8081C6.76233 16.1327 7.02538 16.3958 7.34998 16.3958Z" fill="#DEE5EE"/>
<path d="M13.2376 16.3958C13.5621 16.3958 13.8252 16.1327 13.8252 15.8081V14.4462C13.8252 14.1216 13.5621 13.8585 13.2376 13.8585C12.913 13.8585 12.6499 14.1216 12.6499 14.4462V15.8081C12.65 16.1327 12.913 16.3958 13.2376 16.3958Z" fill="#DEE5EE"/>
<path d="M13.2041 19.93C13.4303 19.8612 13.5933 19.6637 13.6177 19.4285C13.6233 19.3748 13.7449 18.0989 12.8825 17.1424C12.2904 16.4855 11.4098 16.1523 10.2651 16.1523C9.12052 16.1523 8.23989 16.4854 7.6477 17.1424C6.78544 18.099 6.907 19.3748 6.91255 19.4285C6.937 19.6637 7.09989 19.8612 7.32614 19.93C8.02114 20.1413 9.36442 20.2366 10.2651 19.4268C10.8137 19.92 11.5265 20.0776 12.1568 20.0776C12.5615 20.0775 12.9325 20.0127 13.2041 19.93ZM10.7943 18.2197C10.7863 18.2031 10.7775 18.1869 10.7679 18.1709C10.6614 17.9952 10.4708 17.888 10.2654 17.888H10.265C10.0595 17.888 9.86903 17.9952 9.76247 18.1709C9.75286 18.1869 9.74395 18.2031 9.73598 18.2197C9.36802 18.9038 8.59122 18.9423 8.10091 18.8874C8.14091 18.6059 8.24747 18.2324 8.52075 17.9293C8.88059 17.5302 9.46755 17.3277 10.2652 17.3277C11.058 17.3277 11.6427 17.5276 12.003 17.922C12.28 18.2252 12.388 18.603 12.4286 18.8874C11.9376 18.9421 11.162 18.903 10.7943 18.2197Z" fill="#DEE5EE"/>
<path d="M39.4123 32.3891C39.737 32.3891 40 32.1261 40 31.8015V29.8737C40 27.9363 39.3138 26.1563 38.1719 24.7634C39.8493 23.6259 39.9928 21.8859 39.9985 21.8041C40.0171 21.5387 39.8602 21.2958 39.6087 21.2092C39.6054 21.208 39.2714 21.0833 38.988 20.7696C38.6291 20.3725 38.504 19.8409 38.6162 19.1895C39.3366 15.0084 39.5487 9.25703 36.4688 5.60117C34.8249 3.64969 32.4231 2.57508 29.7062 2.57508C27.8036 2.57508 26.0341 3.10289 24.5889 4.10148C24.322 4.28594 24.255 4.65195 24.4395 4.91898C24.6238 5.18594 24.9901 5.25297 25.257 5.06836C26.5049 4.20609 28.0434 3.75039 29.7062 3.75039C31.3789 3.75039 33.7541 4.20281 35.57 6.35844C37.7774 8.97867 38.4302 13.3466 37.458 18.9899C37.1727 20.6459 38.0161 21.6388 38.751 22.0919C38.6204 22.5531 38.2683 23.3412 37.3463 23.8951C36.2349 22.8868 34.8421 22.1837 33.3015 21.9183C35.1447 20.7318 36.369 18.6634 36.369 16.3131V13.1747C36.369 12.9417 36.2313 12.7308 36.0181 12.6369C33.6489 11.5938 32.4152 8.34234 32.403 8.30961C32.3255 8.10086 32.1366 7.95383 31.9152 7.92984C31.6938 7.90664 31.4774 8.00945 31.3571 8.19719C29.0145 11.8555 23.7565 12.6831 23.5551 12.7133C23.2663 12.7505 23.0432 12.9973 23.0432 13.2961V16.3131C23.0432 18.6634 24.2675 20.7319 26.1108 21.9183C24.5702 22.1837 23.1774 22.8867 22.066 23.8951C21.143 23.3407 20.7912 22.5519 20.6609 22.092C21.3959 21.6391 22.2396 20.6462 21.9542 18.9899C21.0084 13.4997 21.6034 9.20273 23.6753 6.56367C23.8757 6.30844 23.8313 5.93898 23.5759 5.73859C23.3209 5.53828 22.9513 5.58273 22.7509 5.83797C20.4682 8.7457 19.7922 13.3626 20.7961 19.1895C20.9083 19.8409 20.7832 20.3725 20.4243 20.7696C20.1415 21.0826 19.8084 21.2073 19.8087 21.2073C19.5571 21.2939 19.3951 21.5387 19.4137 21.804C19.4194 21.8858 19.5629 23.6258 21.2404 24.7634C20.7281 25.3882 20.3079 26.091 19.9999 26.8509C18.967 24.3024 16.6691 22.3971 13.8891 21.9182C15.1297 21.1196 16.089 19.9216 16.5839 18.5064C18.0224 18.5034 19.1917 17.3323 19.1917 15.8931C19.1917 15.5065 19.1066 15.1396 18.9554 14.8091C20.0544 11.567 19.9977 9.01312 18.7849 7.21594C17.5964 5.45484 15.6581 4.97078 14.7939 4.83984C14.6303 4.3857 14.2552 3.69063 13.4086 3.13063C11.5305 1.88844 8.38148 1.92117 4.04883 3.22773C2.43023 3.71617 1.32102 4.62078 0.752031 5.9168C-0.107969 7.8757 0.306875 10.6764 1.98383 14.2439C1.61648 14.6941 1.3957 15.2684 1.3957 15.8934C1.3957 17.3326 2.56508 18.5036 4.00359 18.5066C4.49875 19.9225 5.45875 21.1209 6.70031 21.9195C5.25328 22.1691 3.89281 22.8088 2.77328 23.7838C2.52852 23.997 2.50297 24.3681 2.71609 24.6129C2.92922 24.8577 3.30039 24.8832 3.54516 24.6702C4.59141 23.7589 5.88406 23.1908 7.25055 23.0269C7.3275 23.6159 7.54836 24.479 8.17234 25.1214C8.70813 25.673 9.42188 25.9526 10.2937 25.9526C11.1662 25.9526 11.8803 25.6725 12.4162 25.1203C13.0405 24.477 13.2609 23.6142 13.3375 23.0255C16.7544 23.4335 19.4123 26.3489 19.4123 29.8738V36.6018H16.7531V30.7992C16.7531 30.4746 16.49 30.2116 16.1655 30.2116C15.8409 30.2116 15.5778 30.4746 15.5778 30.7992V36.6018H5.00977V30.7992C5.00977 30.4746 4.74664 30.2116 4.42211 30.2116C4.09758 30.2116 3.83445 30.4746 3.83445 30.7992V36.6018H1.17531V29.8738C1.17531 28.6212 1.5143 27.3948 2.15555 26.3273C2.32266 26.0491 2.23266 25.6881 1.95445 25.521C1.67609 25.3538 1.31523 25.4439 1.14813 25.7221C0.397031 26.9723 0 28.408 0 29.8737V37.1893C0 37.5139 0.263125 37.777 0.587656 37.777H39.4123C39.737 37.777 40 37.5139 40 37.1893V34.152C40 33.8274 39.737 33.5644 39.4123 33.5644C39.0877 33.5644 38.8247 33.8274 38.8247 34.152V36.6016H36.1655V30.7991C36.1655 30.4745 35.9024 30.2114 35.5778 30.2114C35.2532 30.2114 34.9902 30.4745 34.9902 30.7991V36.6016H24.4221V30.7991C24.4221 30.4745 24.1591 30.2114 23.8345 30.2114C23.5098 30.2114 23.2468 30.4745 23.2468 30.7991V36.6016H20.5877V29.8737C20.5877 29.8727 20.5877 29.8716 20.5877 29.8706C20.5891 26.3502 23.2419 23.4384 26.6533 23.0263C26.7303 23.6155 26.9512 24.4792 27.5754 25.1215C28.1112 25.6728 28.8248 25.9523 29.6965 25.9523C30.5691 25.9523 31.2834 25.6722 31.8194 25.1197C32.4441 24.4757 32.6642 23.6127 32.7405 23.0241C36.162 23.428 38.8248 26.3454 38.8248 29.8736V31.8013C38.8247 32.1261 39.0877 32.3891 39.4123 32.3891ZM16.8834 17.2982C16.9312 16.9766 16.9566 16.6479 16.9566 16.3133V14.5056C17.568 14.6716 18.0166 15.231 18.0166 15.8934C18.0166 16.5817 17.5303 17.158 16.8834 17.2982ZM1.8282 6.38922C2.25859 5.40891 3.09602 4.74289 4.3882 4.3532C9.30531 2.87016 11.6348 3.38977 12.7231 4.08695C13.6039 4.65109 13.7371 5.37719 13.7481 5.44758C13.7735 5.73969 14.0109 5.95211 14.3043 5.9668C14.3273 5.96805 16.6234 6.10289 17.8171 7.88297C18.7269 9.23969 18.8077 11.2084 18.0611 13.7429C17.7379 13.5194 17.3623 13.3668 16.9566 13.3077V12.2701C16.9566 12.0458 16.829 11.841 16.6276 11.7423C14.8054 10.8495 13.5977 7.85922 13.5859 7.82953C13.4529 7.46547 12.9552 7.33836 12.6641 7.59414C8.37063 11.1615 4.31547 10.8268 4.27672 10.8238C3.94172 10.7826 3.62336 11.071 3.63094 11.4085V13.3077C3.38789 13.343 3.15586 13.4123 2.93914 13.51C1.52281 10.4171 1.13766 7.96211 1.8282 6.38922ZM2.57102 15.8934C2.57102 15.231 3.01977 14.6715 3.63094 14.5055V16.3133C3.63094 16.6479 3.65641 16.9767 3.70422 17.2982C3.05734 17.158 2.57102 16.5817 2.57102 15.8934ZM4.80617 16.3133V12.0102C6.13914 11.9838 9.34469 11.6134 12.8159 8.97469C13.3055 9.9668 14.3326 11.7363 15.7814 12.6172V16.3133C15.7814 19.3391 13.3197 21.8009 10.2937 21.8009C7.26797 21.8009 4.80617 19.3391 4.80617 16.3133ZM10.2937 24.7772C9.74391 24.7772 9.32578 24.6219 9.01531 24.3023C8.64859 23.9249 8.49523 23.3831 8.43125 22.9761H12.1566C12.0929 23.3827 11.9397 23.9237 11.5728 24.3017C11.2624 24.6216 10.844 24.7772 10.2937 24.7772ZM24.2185 16.3132V13.7846C25.6555 13.4981 29.3981 12.5019 31.7312 9.67508C32.3002 10.7958 33.4388 12.6123 35.1937 13.5425V16.3132C35.1937 19.3391 32.732 21.8009 29.7061 21.8009C26.6803 21.8009 24.2185 19.3391 24.2185 16.3132ZM29.6965 24.7772C29.1468 24.7772 28.7287 24.622 28.4183 24.3026C28.0516 23.9253 27.8981 23.3834 27.8341 22.9761H31.5595C31.4959 23.3825 31.3427 23.9233 30.9758 24.3015C30.6652 24.6216 30.2468 24.7772 29.6965 24.7772Z" fill="#DEE5EE"/>
<path d="M26.7623 13.8585C26.4377 13.8585 26.1747 14.1216 26.1747 14.4462V15.8081C26.1747 16.1327 26.4377 16.3958 26.7623 16.3958C27.0869 16.3958 27.35 16.1327 27.35 15.8081V14.4462C27.3499 14.1216 27.0869 13.8585 26.7623 13.8585Z" fill="#DEE5EE"/>
<path d="M32.6499 16.3958C32.9745 16.3958 33.2376 16.1327 33.2376 15.8081V14.4462C33.2376 14.1216 32.9745 13.8585 32.6499 13.8585C32.3253 13.8585 32.0623 14.1216 32.0623 14.4462V15.8081C32.0623 16.1327 32.3254 16.3958 32.6499 16.3958Z" fill="#DEE5EE"/>
<path d="M31.5637 18.4813C31.8937 17.7527 30.8469 17.2664 30.4991 17.9795C30.481 18.0163 30.3045 18.3381 29.7062 18.3381C29.1079 18.3381 28.9313 18.0163 28.9132 17.9795C28.5655 17.2664 27.5186 17.7527 27.8486 18.4813C28.0316 18.8824 28.6082 19.5156 29.7062 19.5156C30.8041 19.5156 31.3808 18.8824 31.5637 18.4813Z" fill="#DEE5EE"/>
</g>
<defs>
<clipPath id="clip0">
<rect width="40" height="40" fill="white"/>
</clipPath>
</defs>
</svg>
