<svg width="103" height="111" viewBox="0 0 103 111" fill="none" xmlns="http://www.w3.org/2000/svg">
<g clip-path="url(#clip0)">
<path fill-rule="evenodd" clip-rule="evenodd" d="M93.9486 39.1213C90.3837 39.0526 87.314 41.2902 86.1592 44.4644C84.5672 45.2696 81.029 45.8212 73.1727 44.4662C69.3332 43.804 67.7886 41.3809 67.1922 39.8901C66.8799 37.5786 66.2883 35.3163 65.4361 33.1551C65.3327 31.9117 65.3573 29.3642 67.0581 28.0694C70.4579 25.4812 71.8727 25.0075 72.4591 25.031C72.5882 25.1213 72.7253 25.1974 72.8678 25.2589L72.8699 25.2627L72.8693 25.2595C73.5886 25.5692 74.4466 25.5053 75.1286 25.0155C76.1663 24.2704 76.4038 22.8218 75.6592 21.7799C74.9147 20.738 73.4699 20.4974 72.4323 21.2425C71.6936 21.7729 71.3604 22.6599 71.4983 23.5028C71.1653 24.132 69.9215 25.2406 65.8795 26.9471C64.0829 27.7056 62.2958 26.697 61.3115 25.9482C59.2616 23.3317 56.7329 21.0421 53.7783 19.2265C53.1026 17.9502 52.5795 16.2745 53.134 14.6185C54.4842 10.5862 55.6861 8.82587 56.5558 8.07633C58.8979 8.65428 61.3808 7.47537 62.3707 5.18503C63.4759 2.62813 62.3017 -0.345717 59.7483 -1.45724C57.1948 -2.56877 54.229 -1.39706 53.1238 1.15984C52.2505 3.18049 52.8006 5.46155 54.33 6.87805C54.413 7.98896 53.8907 10.1575 51.2672 14.3487C50.44 15.6702 49.1379 16.2477 47.9329 16.4789C42.8721 14.7585 37.5923 14.5411 32.6346 15.6327C30.2879 15.8401 24.9357 15.8569 22.1018 12.2025C17.7036 6.53113 16.335 3.17888 16.0795 1.23654C19.0931 -1.53874 19.7558 -6.17341 17.4485 -9.7343C14.8756 -13.7049 9.58425 -14.8368 5.62986 -12.2626C1.67546 -9.68834 0.555494 -4.38274 3.12834 -0.412174C5.16541 2.73156 8.90668 4.09581 12.3392 3.24997C13.9845 4.19573 16.5424 6.98872 19.9766 14.5945C21.3522 17.6411 20.3512 20.6457 19.1737 22.7308C16.6284 25.1254 14.4813 28.031 12.9008 31.3874C8.58116 40.5601 9.54009 50.8753 14.5445 58.8901L14.3858 58.7441C14.3858 58.7441 17.1317 64.1507 14.5199 67.7959C11.3952 72.1567 9.29218 73.832 7.96492 74.4118C5.35347 72.8447 1.92235 73.3423 -0.12045 75.7349C-2.40193 78.407 -2.08778 82.431 0.58122 84.7227C3.25023 87.0143 7.26338 86.7059 9.54486 84.0337C11.3489 81.9208 11.53 78.9627 10.2073 76.6841C10.5198 75.3131 11.9548 72.8927 16.6724 68.8166C18.9182 66.8762 21.8409 67.3825 23.5747 67.9543C24.5344 68.5581 25.5401 69.1114 26.5897 69.6091C28.1723 70.3595 29.7887 70.9521 31.4211 71.3932C31.9058 72.2768 32.8279 74.5489 31.9953 78.0103C30.1242 85.7898 29.2475 87.5927 28.8958 87.9832C28.8372 88.0097 28.7792 88.0387 28.722 88.0703L28.6955 88.0659C28.6955 88.0659 28.6999 88.072 28.7095 88.0773C28.062 88.44 27.5198 89.1246 27.3383 89.8986C27.074 91.026 27.6752 91.916 28.6811 91.8866C29.6871 91.8571 30.7169 90.9193 30.9812 89.7918C31.1819 88.9361 30.8839 88.217 30.2886 87.9331C30.269 87.0729 30.729 84.5788 33.2338 77.4349C34.2871 74.4308 35.9244 72.9581 36.8965 72.311C39.7999 72.5092 42.6921 72.2581 45.476 71.5926C48.3416 72.279 51.5187 73.7226 53.3446 76.724C57.9888 84.3578 59.2115 88.6964 59.2552 91.1344C55.1371 94.1408 53.6666 99.7796 56.0214 104.51C58.6467 109.783 65.0325 111.929 70.2845 109.304C75.5366 106.679 77.6659 100.276 75.0406 95.0025C72.9624 90.8283 68.5279 88.6133 64.1647 89.1735C62.2624 87.7723 59.4899 83.9579 56.3086 74.0658C55.2334 70.7228 56.2473 67.6556 57.6409 65.3297C59.6625 63.5668 61.4582 61.4972 62.9511 59.1484C63.7574 58.9878 64.6198 59.0004 65.4292 59.3719C69.2736 61.1362 70.3796 62.1599 70.6526 62.694C70.5371 63.646 71.0234 64.6098 71.9313 65.0574C73.0784 65.6229 74.4644 65.1502 75.0269 64.0015C75.5893 62.8528 75.1153 61.4631 73.9682 60.8976C73.1488 60.4936 72.2076 60.6194 71.5317 61.1428C70.813 61.1359 69.2466 60.5469 65.8563 57.8019C65.24 57.3029 64.8801 56.6681 64.6828 56.0083L64.7089 55.953C64.9671 55.4047 65.2064 54.8524 65.4271 54.2966C66.2996 52.6057 69.2146 47.7229 73.9208 47.4129C80.784 46.9608 84.1356 47.6905 85.7711 48.5364C86.3778 52.3659 89.656 55.3289 93.6617 55.4061C98.1537 55.4927 101.859 51.9174 101.939 47.4205C102.018 42.9235 98.4406 39.2079 93.9486 39.1213ZM39.029 2.66687C39.2071 3.93613 38.3267 5.10834 37.0627 5.28507C35.7987 5.4618 34.6296 4.57613 34.4515 3.30687C34.2735 2.0376 35.1538 0.865395 36.4178 0.688663C37.6818 0.511935 38.8509 1.39761 39.029 2.66687ZM11.9737 65.105C12.7824 64.9919 13.3456 64.2419 13.2316 63.4299C13.1177 62.6178 12.3698 62.0512 11.5611 62.1642C10.7524 62.2773 10.1891 63.0273 10.3031 63.8393C10.417 64.6514 11.1649 65.218 11.9737 65.105ZM65.6522 68.6815C65.7078 69.0777 65.433 69.4436 65.0385 69.4988C64.6439 69.5539 64.279 69.2775 64.2234 68.8813C64.1678 68.4851 64.4426 68.1192 64.8372 68.064C65.2317 68.0089 65.5966 68.2853 65.6522 68.6815Z" fill="#4B5D6B"/>
<path d="M63.1739 109.003C65.0151 109.411 66.9309 109.318 68.7231 108.735C70.5154 108.152 72.1189 107.1 73.3679 105.687L73.2258 105.561C71.9992 106.949 70.4244 107.982 68.6643 108.555C66.9042 109.127 65.0228 109.218 63.2147 108.818L63.1739 109.003Z" fill="white"/>
<path d="M3.20501 85.1822C4.31179 85.4272 5.46344 85.3716 6.54081 85.0212C7.61818 84.6707 8.58213 84.0381 9.33295 83.1888L9.24752 83.113C8.51016 83.947 7.5635 84.5683 6.50545 84.9125C5.44741 85.2566 4.31642 85.3112 3.22948 85.0706L3.20501 85.1822Z" fill="white"/>
<path d="M8.10591 1.72461C9.59343 2.05396 11.1413 1.97927 12.5892 1.50825C14.0372 1.03724 15.3328 0.187006 16.3419 -0.954475L16.2271 -1.05639C15.2361 0.0646165 13.9637 0.899596 12.5417 1.36217C11.1197 1.82473 9.59965 1.89809 8.1388 1.57465L8.10591 1.72461Z" fill="white"/>
<path d="M63.0025 107.862C65.5539 108.427 68.2226 108.026 70.4946 106.738L70.4223 106.61C68.1817 107.881 65.55 108.276 63.034 107.718L63.0025 107.862Z" fill="white"/>
<path d="M2.55054 84.6972C4.08427 85.0369 5.68848 84.7963 7.05425 84.0217L7.0108 83.9449C5.66393 84.7088 4.08193 84.9461 2.56944 84.6111L2.55054 84.6972Z" fill="white"/>
<path d="M8.07954 0.531673C10.1409 0.988253 12.2969 0.664865 14.1326 -0.37622L14.0742 -0.479408C12.264 0.547263 10.1377 0.866174 8.10494 0.415915L8.07954 0.531673Z" fill="white"/>
<path d="M91.6105 54.6271C93.0258 54.9405 94.4984 54.8694 95.8761 54.4213C97.2537 53.9732 98.4863 53.1642 99.4464 52.0782L99.3372 51.9812C98.3943 53.0478 97.1838 53.8422 95.8309 54.2823C94.4779 54.7224 93.0317 54.7922 91.6418 54.4845L91.6105 54.6271Z" fill="white"/>
<path d="M56.5205 7.53944C57.3973 7.73358 58.3097 7.68955 59.1632 7.41191C60.0167 7.13427 60.7804 6.63311 61.3752 5.96027L61.3075 5.9002C60.7233 6.56097 59.9734 7.05314 59.1352 7.3258C58.297 7.59846 57.401 7.6417 56.5399 7.45105L56.5205 7.53944Z" fill="white"/>
<path d="M72.9947 25.0142C73.3974 25.1034 73.8165 25.0832 74.2085 24.9556C74.6005 24.8281 74.9513 24.5979 75.2245 24.2889L75.1934 24.2613C74.9251 24.5648 74.5807 24.7909 74.1956 24.9161C73.8106 25.0413 73.3991 25.0612 73.0036 24.9736L72.9947 25.0142Z" fill="white"/>
<path d="M72.2092 64.7674C72.612 64.8566 73.0311 64.8363 73.4231 64.7088C73.8151 64.5813 74.1659 64.3511 74.4391 64.042L74.408 64.0144C74.1397 64.318 73.7952 64.544 73.4102 64.6693C73.0252 64.7945 72.6137 64.8144 72.2182 64.7268L72.2092 64.7674Z" fill="white"/>
<path d="M27.9317 91.2894C28.3344 91.3785 28.7535 91.3583 29.1455 91.2308C29.5375 91.1033 29.8883 90.8731 30.1615 90.564L30.1304 90.5364C29.8621 90.8399 29.5176 91.066 29.1326 91.1912C28.7476 91.3165 28.3361 91.3363 27.9406 91.2488L27.9317 91.2894Z" fill="white"/>
<path d="M91.4243 53.7737C93.3855 54.2081 95.4368 53.9004 97.1833 52.9099L97.1277 52.8117C95.4055 53.7885 93.3825 54.0919 91.4485 53.6635L91.4243 53.7737Z" fill="white"/>
<path d="M56.461 7.04123C57.676 7.31036 58.9469 7.11974 60.0289 6.50608L59.9944 6.44526C58.9274 7.05042 57.6742 7.2384 56.4759 6.973L56.461 7.04123Z" fill="white"/>
<path d="M72.9355 24.5164C73.4936 24.64 74.0773 24.5525 74.5743 24.2706L74.5585 24.2426C74.0684 24.5206 73.4927 24.607 72.9424 24.4851L72.9355 24.5164Z" fill="white"/>
<path d="M72.1501 64.2693C72.7082 64.3929 73.2919 64.3054 73.7889 64.0235L73.7731 63.9956C73.283 64.2735 72.7073 64.3599 72.157 64.238L72.1501 64.2693Z" fill="white"/>
<path d="M27.8725 90.7912C28.4306 90.9149 29.0143 90.8273 29.5113 90.5454L29.4955 90.5175C29.0054 90.7955 28.4298 90.8818 27.8794 90.7599L27.8725 90.7912Z" fill="white"/>
<ellipse cx="39.2913" cy="44.091" rx="24.3653" ry="24.4309" fill="#F8F8F8"/>
<g clip-path="url(#clip1)">
<path d="M53.7199 48.6443L51.1976 44.6211C51.1924 44.6127 51.1869 44.6046 51.1813 44.5964C50.9109 44.2096 50.494 43.9551 50.0339 43.885C50.3218 43.4624 50.4905 42.9523 50.4905 42.4034C50.4905 40.9492 49.3075 39.7663 47.8533 39.7663C46.3991 39.7663 45.2162 40.9493 45.2162 42.4034C45.2162 42.9523 45.3848 43.4624 45.6728 43.885C45.2133 43.9552 44.7967 44.2094 44.5257 44.5958C44.5 44.6325 44.4786 44.6719 44.4619 44.7134L44.2389 45.2658L41.8651 44.2227C41.8526 44.2173 41.84 44.2122 41.8272 44.2076C41.6202 44.1333 41.4047 44.1032 41.1914 44.1162C41.1617 43.8036 41.053 43.5053 40.8708 43.245L39.6123 41.4473C39.4258 41.1812 39.0592 41.1164 38.793 41.3027C38.5268 41.4891 38.4621 41.8559 38.6484 42.1221L39.9071 43.9199C39.9837 44.0292 40.0242 44.1573 40.0242 44.2901C40.0242 44.5015 39.9209 44.7001 39.748 44.8212C39.4555 45.026 39.0512 44.9545 38.8466 44.6622L36.1535 40.8161C36.0063 40.6058 35.7394 40.5154 35.4948 40.5925C35.2499 40.6697 35.0834 40.8967 35.0834 41.1535V55.6376H33.1881V48.0779C33.1881 47.753 32.9247 47.4896 32.5998 47.4896C32.2749 47.4896 32.0115 47.753 32.0115 48.0779V55.6376H30.1156V41.1547C30.1156 40.898 29.9491 40.6708 29.7042 40.5936C29.4594 40.5165 29.1928 40.6069 29.0455 40.8172L26.353 44.6622C26.232 44.8351 26.0335 44.9383 25.8219 44.9383C25.6892 44.9383 25.5611 44.8978 25.4519 44.8214C25.1595 44.6164 25.088 44.2119 25.2925 43.9198L29.5964 37.7724C29.7451 37.5605 29.988 37.4339 30.2461 37.4339H34.9533C35.2114 37.4339 35.4543 37.5605 35.6026 37.7719L36.7578 39.4219C36.9442 39.6879 37.3109 39.7527 37.5771 39.5664C37.8432 39.38 37.9079 39.0133 37.7216 38.7471L36.566 37.0965C36.2135 36.5942 35.6468 36.2861 35.0376 36.26C35.4662 35.7251 35.7233 35.0474 35.7233 34.3103C35.7233 32.5876 34.3221 31.1861 32.5997 31.1861C30.877 31.1861 29.4755 32.5876 29.4755 34.3103C29.4755 35.0474 29.7327 35.7252 30.1614 36.26C29.5523 36.2864 28.9859 36.5944 28.633 37.0971L24.3288 43.2451C23.7526 44.0683 23.9534 45.2076 24.7769 45.785C25.0852 46.0007 25.4466 46.1148 25.822 46.1148C26.4171 46.1148 26.976 45.824 27.3168 45.3369L28.9391 43.0202V56.2258C28.9391 56.5506 29.2025 56.8141 29.5274 56.8141H35.6718C35.9967 56.8141 36.2601 56.5506 36.2601 56.2258V43.0192L37.8829 45.3369C38.31 45.947 39.0457 46.215 39.7335 46.0789C39.853 46.5818 40.2125 47.0059 40.7052 47.1987L44.7555 49.3393V56.2258C44.7555 56.5506 45.019 56.8141 45.3438 56.8141H50.3623C50.6871 56.8141 50.9505 56.5506 50.9505 56.2258V50.2145L51.0633 50.4147C51.0727 50.4314 51.0828 50.4477 51.0939 50.4633C51.3385 50.813 51.7047 51.0463 52.1249 51.1204C52.5456 51.1947 52.9694 51.1005 53.3178 50.8561C53.7451 50.5579 54.0001 50.0684 54.0001 49.5467C54 49.2228 53.9032 48.9112 53.7199 48.6443ZM32.5999 32.3625C33.6735 32.3625 34.547 33.2364 34.547 34.3103C34.547 35.3839 33.6735 36.2574 32.5999 36.2574C31.5259 36.2574 30.6522 35.3839 30.6522 34.3103C30.6522 33.2364 31.5259 32.3625 32.5999 32.3625ZM47.8533 40.9429C48.6587 40.9429 49.314 41.5982 49.314 42.4035C49.314 43.2092 48.6587 43.8648 47.8533 43.8648C47.048 43.8648 46.3927 43.2092 46.3927 42.4035C46.3927 41.5981 47.048 40.9429 47.8533 40.9429ZM52.6435 49.8921C52.5516 49.9566 52.4401 49.9815 52.3293 49.9619C52.2261 49.9437 52.1354 49.8891 52.0714 49.8072L50.875 47.6822C50.7438 47.4491 50.4719 47.3339 50.2132 47.4018C49.9546 47.4696 49.7742 47.7034 49.7742 47.9708V55.6376H48.4417V51.6539C48.4417 51.329 48.1783 51.0656 47.8534 51.0656C47.5286 51.0656 47.2652 51.329 47.2652 51.6539V55.6376H45.9322V47.9696C45.9322 47.6477 45.6735 47.3857 45.3517 47.3814C45.349 47.3813 45.3464 47.3813 45.3437 47.3813C45.0255 47.3813 44.7642 47.635 44.7558 47.954L44.7544 48.0079L41.2221 46.1412C41.1974 46.1282 41.1719 46.1169 41.1455 46.1076C40.9787 46.0478 40.8667 45.8886 40.8667 45.7113C40.8667 45.6628 40.8749 45.6155 40.8915 45.5694C40.9295 45.4635 41.0065 45.3787 41.1084 45.3306C41.2052 45.2848 41.3132 45.2776 41.4145 45.3098L44.3208 46.587C44.4665 46.651 44.6318 46.6532 44.7792 46.5932C44.9266 46.5332 45.0434 46.416 45.103 46.2685L45.5231 45.2278C45.625 45.1101 45.7738 45.0412 45.931 45.0412H49.7759C49.9478 45.0412 50.1092 45.1231 50.2103 45.2608L52.7304 49.2808C52.7359 49.2896 52.7416 49.2981 52.7475 49.3065C52.8103 49.396 52.8236 49.4865 52.8236 49.5467C52.8236 49.6843 52.7566 49.8131 52.6435 49.8921Z" fill="#4B5D6B"/>
<path d="M38.0583 39.8822C37.3013 39.8822 37.3 41.0588 38.0583 41.0588C38.8153 41.0588 38.8166 39.8822 38.0583 39.8822Z" fill="#4B5D6B"/>
</g>
</g>
<defs>
<clipPath id="clip0">
<rect width="103" height="111" fill="white"/>
</clipPath>
<clipPath id="clip1">
<rect width="30" height="30" fill="white" transform="translate(24 29)"/>
</clipPath>
</defs>
</svg>
