<svg width="20" height="16" viewBox="0 0 20 16" fill="none" xmlns="http://www.w3.org/2000/svg">
<path d="M14.0909 15V13.4444C14.0909 12.6193 13.7461 11.828 13.1323 11.2446C12.5186 10.6611 11.6862 10.3333 10.8182 10.3333H4.27273C3.40475 10.3333 2.57232 10.6611 1.95856 11.2446C1.3448 11.828 1 12.6193 1 13.4444V15M19 14.9999V13.4444C18.9995 12.755 18.7581 12.0854 18.3138 11.5406C17.8696 10.9958 17.2476 10.6067 16.5455 10.4344M13.2727 1.10102C13.9767 1.27237 14.6007 1.66157 15.0462 2.20726C15.4918 2.75296 15.7337 3.42411 15.7337 4.11491C15.7337 4.80571 15.4918 5.47686 15.0462 6.02256C14.6007 6.56825 13.9767 6.95745 13.2727 7.1288M10.8182 4.11111C10.8182 5.82933 9.35293 7.22222 7.54545 7.22222C5.73798 7.22222 4.27273 5.82933 4.27273 4.11111C4.27273 2.39289 5.73798 1 7.54545 1C9.35293 1 10.8182 2.39289 10.8182 4.11111Z" stroke="#4B5D6B" stroke-width="2" stroke-linecap="round" stroke-linejoin="round"/>
</svg>
