<svg width="37" height="27" viewBox="0 0 37 27" fill="none" xmlns="http://www.w3.org/2000/svg">
<path fill-rule="evenodd" clip-rule="evenodd" d="M12.4845 0C8.52526 0 5.36278 3.13291 5.36278 6.94116C5.36278 10.7494 8.52526 13.8823 12.4845 13.8823C16.4437 13.8823 19.6062 10.7494 19.6062 6.94116C19.6062 3.13291 16.4437 0 12.4845 0ZM8.88063 6.94116C8.88063 4.95365 10.5201 3.38818 12.4845 3.38818C14.4488 3.38818 16.0883 4.95365 16.0883 6.94116C16.0883 8.92867 14.4488 10.4941 12.4845 10.4941C10.5201 10.4941 8.88063 8.92867 8.88063 6.94116Z" fill="#4B5D6B"/>
<path d="M7.1217 15.7412C5.22389 15.7412 3.40951 16.4791 2.07614 17.7837C0.7437 19.0874 0 20.85 0 22.6824V25.3059C0 26.2415 0.787499 27 1.75893 27C2.73036 27 3.51786 26.2415 3.51786 25.3059V22.6824C3.51786 21.7315 3.90417 20.8249 4.58315 20.1606C5.26122 19.4971 6.17492 19.1294 7.1217 19.1294H17.8473C18.794 19.1294 19.7077 19.4971 20.3858 20.1606C21.0648 20.8249 21.4511 21.7315 21.4511 22.6824V25.3059C21.4511 26.2415 22.2386 27 23.21 27C24.1815 27 24.969 26.2415 24.969 25.3059V22.6824C24.969 20.85 24.2253 19.0874 22.8928 17.7837C21.5594 16.4791 19.7451 15.7412 17.8473 15.7412H7.1217Z" fill="#4B5D6B"/>
<path fill-rule="evenodd" clip-rule="evenodd" d="M30.8711 13.8279L24.7422 17.9272V4.80951C24.7422 4.37463 24.9267 3.95756 25.2551 3.65006C25.5835 3.34255 26.0289 3.1698 26.4933 3.1698H35.2489C35.7133 3.1698 36.1587 3.34255 36.4871 3.65006C36.8155 3.95756 37 4.37463 37 4.80951V17.9272L30.8711 13.8279ZM29.2659 11.6016L27.5565 12.7448V5.88034H34.1857V12.7448L32.4764 11.6016C31.5112 10.956 30.2311 10.956 29.2659 11.6016Z" fill="#4B5D6B"/>
</svg>
