<svg width="16" height="16" viewBox="0 0 16 16" fill="none" xmlns="http://www.w3.org/2000/svg">
<path d="M14.9718 11.4817V13.5893C14.9726 13.7849 14.9325 13.9786 14.8542 14.1578C14.7758 14.3371 14.6608 14.498 14.5167 14.6303C14.3725 14.7626 14.2023 14.8633 14.0169 14.9259C13.8316 14.9886 13.6352 15.0119 13.4403 14.9943C11.2786 14.7594 9.20202 14.0207 7.37757 12.8376C5.68016 11.7589 4.24105 10.3198 3.16244 8.62243C1.97517 6.78969 1.2363 4.70306 1.0057 2.53156C0.988146 2.33729 1.01123 2.1415 1.0735 1.95664C1.13576 1.77178 1.23583 1.60191 1.36734 1.45785C1.49885 1.31378 1.65891 1.19868 1.83734 1.11986C2.01577 1.04105 2.20866 1.00025 2.40372 1.00007H4.51128C4.85222 0.996713 5.18275 1.11744 5.44126 1.33976C5.69976 1.56208 5.86861 1.87081 5.91633 2.20841C6.00528 2.88287 6.17025 3.54511 6.40809 4.18249C6.50261 4.43394 6.52307 4.70721 6.46704 4.96993C6.41101 5.23265 6.28084 5.4738 6.09196 5.66481L5.19976 6.55701C6.19983 8.31581 7.65609 9.77206 9.41489 10.7721L10.3071 9.87994C10.4981 9.69106 10.7392 9.56089 11.002 9.50486C11.2647 9.44883 11.538 9.46929 11.7894 9.56381C12.4268 9.80164 13.089 9.96662 13.7635 10.0556C14.1048 10.1037 14.4164 10.2756 14.6392 10.5386C14.862 10.8015 14.9804 11.1372 14.9718 11.4817Z" stroke="#A5AEB5" stroke-width="2" stroke-linecap="round" stroke-linejoin="round"/>
</svg>
