<svg width="40" height="40" viewBox="0 0 40 40" fill="none" xmlns="http://www.w3.org/2000/svg">
<path d="M20.0003 3.33301C13.0003 3.33301 6.66699 8.69967 6.66699 16.9997C6.66699 22.2997 10.7503 28.533 18.9003 35.7163C19.5337 36.2663 20.4837 36.2663 21.117 35.7163C29.2503 28.533 33.3337 22.2997 33.3337 16.9997C33.3337 8.69967 27.0003 3.33301 20.0003 3.33301ZM20.0003 19.9997C18.167 19.9997 16.667 18.4997 16.667 16.6663C16.667 14.833 18.167 13.333 20.0003 13.333C21.8337 13.333 23.3337 14.833 23.3337 16.6663C23.3337 18.4997 21.8337 19.9997 20.0003 19.9997Z" fill="#4B5D6B"/>
</svg>
