<svg width="24" height="24" viewBox="0 0 24 24" fill="none" xmlns="http://www.w3.org/2000/svg">
<path d="M12 8V12M12 16H12.01M2 9.51685V14.4831C2 15.544 2.42143 16.5614 3.17157 17.3116L6.68843 20.8284C7.43857 21.5786 8.45599 22 9.51685 22H14.4831C15.544 22 16.5614 21.5786 17.3116 20.8284L20.8284 17.3116C21.5786 16.5614 22 15.544 22 14.4831V9.51685C22 8.45599 21.5786 7.43857 20.8284 6.68843L17.3116 3.17157C16.5614 2.42143 15.544 2 14.4831 2H9.51685C8.45599 2 7.43857 2.42143 6.68843 3.17157L3.17157 6.68843C2.42143 7.43857 2 8.45599 2 9.51685Z" stroke="#F86D70" stroke-width="2.5" stroke-linecap="round" stroke-linejoin="round"/>
</svg>
