<svg width="255" height="247" viewBox="0 0 255 247" fill="none" xmlns="http://www.w3.org/2000/svg">
<path fill-rule="evenodd" clip-rule="evenodd" d="M220.163 110.844C214.005 110.719 208.71 114.598 206.744 120.098C203.983 121.47 197.888 122.39 184.443 120.054C177.926 118.921 175.246 114.842 174.187 112.264C173.65 108.28 172.634 104.38 171.171 100.653C170.98 98.5545 170.963 94.0315 173.94 91.7572C179.828 87.2592 182.251 86.4676 183.244 86.5234C183.456 86.6708 183.68 86.796 183.913 86.8983L183.927 86.923C183.927 86.923 183.925 86.9153 183.921 86.9019C185.161 87.4441 186.642 87.3376 187.818 86.4906C189.601 85.2065 190.006 82.7066 188.724 80.9069C187.442 79.1073 184.958 78.6893 183.175 79.9734C181.908 80.8865 181.337 82.4142 181.573 83.8678C181.013 84.9507 178.889 86.8661 171.912 89.8177C168.712 91.1712 165.526 89.2487 163.877 87.946C160.4 83.5451 156.137 79.6862 151.173 76.607C149.98 74.3905 149.03 71.4494 149.997 68.5455C152.321 61.5656 154.393 58.5344 155.889 57.2512C159.918 58.2505 164.185 56.2216 165.884 52.2737C167.78 47.8652 165.755 42.7333 161.36 40.8113C156.965 38.8892 151.865 40.9049 149.969 45.3134C148.473 48.7901 149.417 52.7167 152.038 55.164C152.195 57.0714 151.314 60.8127 146.784 68.0766C145.337 70.3972 143.041 71.3852 140.936 71.7669C132.191 68.7918 123.07 68.4289 114.518 70.3405C110.375 70.6737 101.421 70.5787 96.6316 64.3818C89.0907 54.6241 86.7207 48.843 86.2645 45.4843C91.4574 40.7016 92.5963 32.6905 88.6179 26.532C84.1874 19.6738 75.0885 17.7102 68.2948 22.1462C61.5012 26.5822 59.5855 35.738 64.0159 42.5962C67.5256 48.0291 73.9649 50.3904 79.867 48.9321C82.6982 50.5862 87.089 55.425 92.9828 68.5062C95.3106 73.6728 93.6978 78.7652 91.7256 82.3528C87.2723 86.5109 83.5199 91.5771 80.7698 97.4435C73.3196 113.336 75.0408 131.228 83.7745 145.092L83.3422 144.692C83.3422 144.692 88.0747 154.028 83.5893 160.313C78.2022 167.863 74.5811 170.743 72.3009 171.73C67.8085 169.029 61.9156 169.884 58.4098 174.005C54.4911 178.612 55.0388 185.556 59.6329 189.515C64.227 193.474 71.1279 192.949 75.0466 188.343C78.1411 184.705 78.4504 179.609 76.181 175.677C76.7006 173.318 79.1492 169.137 87.2933 162.079C91.2813 158.623 96.5177 159.677 99.4553 160.703C101.03 161.684 102.675 162.586 104.388 163.402C107.081 164.685 109.83 165.701 112.607 166.462C113.433 167.944 115.087 171.891 113.64 177.94C110.436 191.345 108.929 194.462 108.322 195.14C108.22 195.186 108.118 195.237 108.018 195.292L107.976 195.285C107.976 195.285 107.983 195.295 107.998 195.304C106.88 195.928 105.945 197.112 105.633 198.452C105.18 200.399 106.216 201.938 107.948 201.889C109.679 201.84 111.45 200.222 111.903 198.274C112.246 196.802 111.737 195.563 110.719 195.068C110.681 193.591 111.463 189.296 115.772 176.95C117.599 171.716 120.455 169.179 122.121 168.082C127.119 168.43 132.096 168.001 136.887 166.857C141.796 168.053 147.225 170.552 150.355 175.713C158.319 188.846 160.444 196.33 160.539 200.548C153.442 205.724 150.911 215.473 154.973 223.654C159.496 232.763 170.476 236.48 179.5 231.958C188.523 227.435 192.171 216.386 187.649 207.278C184.068 200.067 176.439 196.234 168.939 197.195C165.668 194.752 160.91 188.148 155.444 171.13C153.619 165.447 155.274 160.229 157.608 156.24C161.175 153.154 164.338 149.512 166.955 145.367C168.318 145.108 169.77 145.143 171.136 145.773C177.71 148.805 179.632 150.57 180.117 151.496C179.916 153.141 180.755 154.809 182.32 155.584C184.294 156.562 186.678 155.749 187.643 153.768C188.609 151.788 187.791 149.39 185.816 148.412C184.402 147.711 182.777 147.93 181.615 148.839C180.369 148.815 177.672 147.781 171.868 143.066C170.833 142.225 170.217 141.162 169.872 140.054L169.937 139.915C170.468 138.783 170.952 137.639 171.391 136.488C173.154 133.223 178.054 125.632 185.736 125.133C197.512 124.369 203.282 125.623 206.107 127.079C207.166 133.672 212.81 138.777 219.699 138.917C227.431 139.075 233.803 132.918 233.932 125.166C234.06 117.414 227.895 111.002 220.163 110.844ZM125.735 47.9245C126.043 50.117 124.533 52.1399 122.361 52.4427C120.19 52.7456 118.18 51.2138 117.871 49.0214C117.563 46.829 119.073 44.8061 121.245 44.5032C123.416 44.2003 125.427 45.7321 125.735 47.9245ZM79.2172 155.672C80.6065 155.478 81.5728 154.184 81.3756 152.781C81.1783 151.378 79.8922 150.398 78.5029 150.592C77.1136 150.786 76.1472 152.08 76.3445 153.483C76.5417 154.886 77.8279 155.866 79.2172 155.672ZM171.518 161.842C171.615 162.527 171.143 163.158 170.465 163.253C169.788 163.347 169.16 162.869 169.064 162.185C168.968 161.5 169.439 160.869 170.117 160.774C170.795 160.68 171.422 161.158 171.518 161.842Z" fill="#DEE5EE"/>
<path d="M167.271 231.411C170.44 232.117 173.736 231.961 176.818 230.958C179.901 229.955 182.658 228.142 184.805 225.708L184.561 225.49C182.452 227.881 179.744 229.661 176.717 230.646C173.689 231.631 170.452 231.785 167.341 231.091L167.271 231.411Z" fill="#4B5D6B"/>
<path d="M64.1444 190.309C66.049 190.733 68.0304 190.639 69.8835 190.036C71.7366 189.433 73.3942 188.344 74.6847 186.88L74.5376 186.749C73.2702 188.186 71.6424 189.257 69.8225 189.849C68.0026 190.441 66.0568 190.533 64.1863 190.116L64.1444 190.309Z" fill="#4B5D6B"/>
<path d="M72.5746 46.2845C75.1344 46.8548 77.7974 46.7283 80.288 45.9181C82.7786 45.1079 85.0064 43.6434 86.7409 41.6762L86.5432 41.5002C84.8398 43.4322 82.652 44.8704 80.206 45.666C77.7601 46.4617 75.1449 46.5859 72.631 46.0259L72.5746 46.2845Z" fill="#4B5D6B"/>
<path d="M166.976 229.442C171.367 230.42 175.958 229.734 179.865 227.515L179.74 227.294C175.887 229.483 171.36 230.159 167.03 229.194L166.976 229.442Z" fill="#4B5D6B"/>
<path d="M63.0193 189.473C65.6586 190.061 68.4184 189.648 70.7671 188.314L70.6922 188.182C68.376 189.497 65.6545 189.904 63.0517 189.324L63.0193 189.473Z" fill="#4B5D6B"/>
<path d="M72.529 44.2262C76.0763 45.0167 79.7854 44.4622 82.9421 42.6694L82.8415 42.4913C79.7285 44.2593 76.0707 44.8062 72.5726 44.0265L72.529 44.2262Z" fill="#4B5D6B"/>
<path d="M216.167 137.578C218.603 138.121 221.136 138 223.506 137.23C225.876 136.459 227.995 135.065 229.645 133.194L229.457 133.026C227.837 134.864 225.755 136.233 223.428 136.99C221.101 137.747 218.613 137.865 216.221 137.332L216.167 137.578Z" fill="#4B5D6B"/>
<path d="M155.823 56.3239C157.332 56.6601 158.902 56.5855 160.37 56.1079C161.838 55.6304 163.151 54.7672 164.173 53.6076L164.057 53.5039C163.053 54.6426 161.763 55.4904 160.321 55.9594C158.88 56.4284 157.338 56.5016 155.856 56.1715L155.823 56.3239Z" fill="#4B5D6B"/>
<path d="M184.148 86.4829C184.841 86.6373 185.562 86.603 186.237 86.3836C186.911 86.1643 187.514 85.7678 187.984 85.2352L187.93 85.1875C187.469 85.7106 186.877 86.1 186.214 86.3154C185.552 86.5308 184.844 86.5645 184.163 86.4128L184.148 86.4829Z" fill="#4B5D6B"/>
<path d="M182.798 155.084C183.491 155.239 184.212 155.205 184.886 154.985C185.56 154.766 186.163 154.369 186.633 153.837L186.58 153.789C186.118 154.312 185.526 154.702 184.864 154.917C184.202 155.132 183.493 155.166 182.813 155.014L182.798 155.084Z" fill="#4B5D6B"/>
<path d="M106.658 200.853C107.351 201.007 108.072 200.973 108.747 200.754C109.421 200.534 110.024 200.138 110.494 199.605L110.44 199.558C109.979 200.081 109.387 200.47 108.725 200.685C108.062 200.901 107.354 200.935 106.674 200.783L106.658 200.853Z" fill="#4B5D6B"/>
<path d="M215.846 136.105C219.221 136.857 222.75 136.33 225.754 134.624L225.658 134.454C222.696 136.137 219.216 136.657 215.888 135.915L215.846 136.105Z" fill="#4B5D6B"/>
<path d="M155.721 55.4635C157.812 55.9295 159.998 55.6027 161.859 54.5459L161.799 54.4409C159.964 55.4831 157.808 55.8054 155.746 55.3459L155.721 55.4635Z" fill="#4B5D6B"/>
<path d="M184.047 85.624C185.007 85.838 186.011 85.6879 186.866 85.2025L186.839 85.1543C185.996 85.633 185.005 85.781 184.058 85.5699L184.047 85.624Z" fill="#4B5D6B"/>
<path d="M182.696 154.226C183.656 154.44 184.661 154.289 185.515 153.804L185.488 153.756C184.645 154.235 183.655 154.383 182.708 154.171L182.696 154.226Z" fill="#4B5D6B"/>
<path d="M106.557 199.994C107.517 200.208 108.521 200.058 109.376 199.573L109.349 199.524C108.506 200.003 107.516 200.151 106.569 199.94L106.557 199.994Z" fill="#4B5D6B"/>
</svg>
