<svg width="253" height="242" viewBox="0 0 253 242" fill="none" xmlns="http://www.w3.org/2000/svg">
<path fill-rule="evenodd" clip-rule="evenodd" d="M217.271 110.854C211.383 110.741 206.313 114.436 204.406 119.679C201.777 121.009 195.933 121.92 182.958 119.682C176.616 118.588 174.066 114.586 173.081 112.124C172.565 108.307 171.588 104.571 170.18 101.001C170.01 98.9479 170.05 94.7399 172.859 92.6012C178.474 88.3269 180.811 87.5445 181.779 87.5831C181.993 87.7324 182.219 87.8582 182.454 87.9597L182.458 87.9658L182.457 87.9607C183.645 88.4721 185.062 88.3666 186.188 87.5577C187.902 86.3271 188.294 83.9346 187.065 82.2139C185.835 80.4931 183.449 80.0958 181.735 81.3263C180.515 82.2023 179.965 83.6671 180.193 85.0592C179.643 86.0983 177.588 87.9293 170.913 90.7477C167.945 92.0006 164.993 90.3343 163.368 89.0976C159.982 84.7765 155.806 80.995 150.926 77.9966C149.81 75.8886 148.947 73.1213 149.863 70.3865C152.093 63.7269 154.077 60.8196 155.514 59.5817C159.382 60.5363 163.483 58.5892 165.118 54.8066C166.943 50.5837 165.004 45.6722 160.787 43.8364C156.569 42.0006 151.671 43.9358 149.846 48.1587C148.403 51.4959 149.312 55.2631 151.838 57.6026C151.975 59.4373 151.112 63.0187 146.779 69.941C145.413 72.1233 143.263 73.0771 141.273 73.459C132.914 70.6174 124.194 70.2583 116.005 72.0616C112.129 72.404 103.291 72.431 98.6108 66.3962C91.3471 57.0296 89.0866 51.4932 88.6646 48.2853C93.6418 43.7017 94.7362 36.0473 90.9255 30.1663C86.6762 23.6087 77.9372 21.7392 71.4063 25.9907C64.8753 30.2422 63.0256 39.0048 67.2749 45.5624C70.6393 50.7546 76.8184 53.0077 82.4876 51.6106C85.2048 53.1727 89.4293 57.7856 95.101 70.3467C97.3727 75.3782 95.7197 80.3402 93.7752 83.784C89.5713 87.7389 86.0251 92.5378 83.4147 98.0811C76.2805 113.231 77.8643 130.267 86.1295 143.504L85.8674 143.263C85.8674 143.263 90.4024 152.192 86.0888 158.212C80.9282 165.415 77.455 168.181 75.2629 169.139C70.9499 166.551 65.2832 167.373 61.9093 171.324C58.1413 175.737 58.6602 182.383 63.0682 186.168C67.4762 189.953 74.1042 189.443 77.8722 185.03C80.8516 181.541 81.1508 176.655 78.9663 172.892C79.4825 170.628 81.8524 166.63 89.6439 159.898C93.3531 156.693 98.1804 157.53 101.044 158.474C102.629 159.471 104.289 160.385 106.023 161.207C108.637 162.446 111.306 163.425 114.002 164.153C114.803 165.613 116.326 169.365 114.951 175.082C111.861 187.93 110.413 190.908 109.832 191.553C109.735 191.597 109.639 191.645 109.545 191.697L109.501 191.69C109.501 191.69 109.508 191.7 109.524 191.709C108.455 192.308 107.559 193.438 107.259 194.716C106.823 196.578 107.816 198.048 109.477 198C111.139 197.951 112.839 196.402 113.276 194.54C113.607 193.127 113.115 191.939 112.132 191.47C112.1 190.05 112.859 185.93 116.996 174.132C118.736 169.17 121.44 166.738 123.046 165.669C127.841 165.997 132.617 165.582 137.215 164.483C141.947 165.616 147.195 168.001 150.21 172.958C157.881 185.565 159.9 192.731 159.972 196.758C153.171 201.723 150.742 211.036 154.631 218.847C158.967 227.556 169.514 231.102 178.188 226.766C186.862 222.43 190.379 211.855 186.043 203.146C182.611 196.252 175.287 192.594 168.081 193.519C164.939 191.205 160.36 184.905 155.106 168.568C153.33 163.046 155.004 157.98 157.306 154.139C160.645 151.227 163.611 147.809 166.076 143.93C167.408 143.665 168.832 143.686 170.169 144.299C176.518 147.213 178.345 148.904 178.796 149.786C178.605 151.359 179.408 152.95 180.907 153.69C182.802 154.624 185.091 153.843 186.02 151.946C186.949 150.049 186.166 147.753 184.272 146.819C182.918 146.152 181.364 146.36 180.248 147.224C179.061 147.213 176.474 146.24 170.874 141.707C169.856 140.882 169.262 139.834 168.936 138.744L168.979 138.653C169.405 137.748 169.8 136.836 170.165 135.919C171.605 133.127 176.419 125.061 184.193 124.549C195.528 123.802 201.064 125.007 203.765 126.404C204.767 132.729 210.181 137.622 216.797 137.75C224.215 137.893 230.336 131.988 230.467 124.561C230.597 117.134 224.689 110.997 217.271 110.854ZM126.567 50.6474C126.861 52.7437 125.407 54.6797 123.32 54.9716C121.232 55.2634 119.301 53.8007 119.007 51.7044C118.713 49.6082 120.167 47.6722 122.255 47.3803C124.342 47.0884 126.273 48.5512 126.567 50.6474ZM81.8834 153.768C83.2191 153.581 84.1493 152.343 83.9611 151.002C83.7729 149.66 82.5376 148.725 81.202 148.911C79.8664 149.098 78.9362 150.337 79.1244 151.678C79.3125 153.019 80.5478 153.955 81.8834 153.768ZM170.537 159.675C170.629 160.329 170.175 160.933 169.524 161.025C168.872 161.116 168.269 160.659 168.178 160.005C168.086 159.35 168.54 158.746 169.191 158.655C169.843 158.564 170.446 159.021 170.537 159.675Z" fill="#4B5D6B"/>
<path d="M166.444 226.269C169.485 226.942 172.649 226.79 175.609 225.827C178.569 224.864 181.217 223.126 183.28 220.792L183.045 220.584C181.02 222.876 178.419 224.582 175.512 225.528C172.605 226.474 169.498 226.624 166.511 225.962L166.444 226.269Z" fill="white"/>
<path d="M67.4014 186.928C69.2293 187.332 71.1313 187.24 72.9107 186.662C74.69 186.083 76.2821 185.038 77.5221 183.635L77.381 183.51C76.1632 184.888 74.5997 185.914 72.8523 186.482C71.1048 187.051 69.2369 187.141 67.4418 186.743L67.4014 186.928Z" fill="white"/>
<path d="M75.4956 49.0918C77.9523 49.6358 80.5086 49.5124 82.9001 48.7345C85.2915 47.9566 87.4312 46.5524 89.0978 44.6671L88.9082 44.4988C87.2715 46.3502 85.1701 47.7292 82.8216 48.4932C80.473 49.2572 77.9626 49.3783 75.5499 48.8441L75.4956 49.0918Z" fill="white"/>
<path d="M166.161 224.384C170.375 225.318 174.782 224.656 178.535 222.528L178.415 222.317C174.715 224.416 170.369 225.068 166.213 224.148L166.161 224.384Z" fill="white"/>
<path d="M66.3207 186.127C68.8537 186.688 71.5032 186.29 73.7588 185.011L73.6871 184.884C71.4626 186.146 68.8499 186.538 66.3519 185.984L66.3207 186.127Z" fill="white"/>
<path d="M75.452 47.1214C78.8565 47.8755 82.4174 47.3414 85.449 45.622L85.3525 45.4516C82.3629 47.1472 78.8513 47.6739 75.494 46.9303L75.452 47.1214Z" fill="white"/>
<path d="M213.409 136.463C215.746 136.981 218.178 136.864 220.454 136.123C222.729 135.383 224.765 134.047 226.35 132.254L226.17 132.094C224.613 133.855 222.614 135.167 220.379 135.894C218.145 136.621 215.756 136.736 213.461 136.228L213.409 136.463Z" fill="white"/>
<path d="M155.456 58.6951C156.904 59.0157 158.41 58.943 159.82 58.4845C161.23 58.0259 162.491 57.1982 163.473 56.087L163.362 55.9878C162.397 57.0791 161.158 57.8919 159.774 58.3423C158.389 58.7926 156.91 58.864 155.488 58.5491L155.456 58.6951Z" fill="white"/>
<path d="M182.664 87.5559C183.329 87.7032 184.021 87.6698 184.668 87.4592C185.316 87.2485 185.895 86.8684 186.346 86.3579L186.295 86.3124C185.852 86.8136 185.283 87.187 184.647 87.3938C184.011 87.6007 183.332 87.6335 182.678 87.4888L182.664 87.5559Z" fill="white"/>
<path d="M181.366 153.211C182.032 153.358 182.724 153.325 183.371 153.114C184.019 152.903 184.598 152.523 185.049 152.013L184.998 151.967C184.555 152.468 183.986 152.842 183.35 153.049C182.714 153.255 182.034 153.288 181.381 153.144L181.366 153.211Z" fill="white"/>
<path d="M108.239 197.013C108.904 197.161 109.596 197.127 110.244 196.917C110.891 196.706 111.47 196.326 111.922 195.815L111.87 195.77C111.427 196.271 110.858 196.645 110.222 196.851C109.586 197.058 108.907 197.091 108.254 196.946L108.239 197.013Z" fill="white"/>
<path d="M213.101 135.054C216.34 135.771 219.728 135.263 222.612 133.627L222.521 133.465C219.676 135.078 216.335 135.579 213.141 134.872L213.101 135.054Z" fill="white"/>
<path d="M155.357 57.8723C157.364 58.3168 159.463 58.002 161.25 56.9885L161.193 56.8881C159.431 57.8875 157.361 58.198 155.382 57.7597L155.357 57.8723Z" fill="white"/>
<path d="M182.566 86.7337C183.488 86.9378 184.452 86.7932 185.273 86.3277L185.246 86.2816C184.437 86.7407 183.486 86.8833 182.577 86.6819L182.566 86.7337Z" fill="white"/>
<path d="M181.269 152.388C182.19 152.593 183.155 152.448 183.975 151.983L183.949 151.936C183.14 152.395 182.189 152.538 181.28 152.337L181.269 152.388Z" fill="white"/>
<path d="M108.141 196.191C109.063 196.395 110.027 196.251 110.848 195.785L110.822 195.739C110.012 196.198 109.061 196.341 108.153 196.139L108.141 196.191Z" fill="white"/>
</svg>
