<svg width="27" height="24" viewBox="0 0 27 24" fill="none" xmlns="http://www.w3.org/2000/svg">
<path d="M0 12C0 14.9534 1.08346 17.6449 2.85791 19.7244C3.21728 20.1455 3.22192 20.7781 2.83044 21.1696L1.70711 22.2929C1.07714 22.9229 1.52331 24 2.41421 24H8C8.55229 24 9 23.5523 9 23V17.4142C9 16.5233 7.92286 16.0771 7.29289 16.7071L6.34681 17.6532C5.9564 18.0436 5.3184 18.0468 4.97345 17.6157C3.70421 16.0294 3.00223 14.0511 3 12C2.99993 10.1401 3.57705 8.32598 4.65174 6.80798C5.58968 5.48315 6.86627 4.44084 8.34216 3.78626C8.72994 3.61427 9 3.24122 9 2.81701V1.68071C9 1.02704 8.38136 0.548744 7.76968 0.779212C3.23012 2.4896 0 6.85845 0 12ZM12 18.5C12 19.0523 12.4477 19.5 13 19.5H14C14.5523 19.5 15 19.0523 15 18.5V17.5C15 16.9477 14.5523 16.5 14 16.5H13C12.4477 16.5 12 16.9477 12 17.5V18.5ZM25.2929 1.70711C25.9229 1.07714 25.4767 0 24.5858 0H19C18.4477 0 18 0.447715 18 1V6.58579C18 7.47669 19.0771 7.92286 19.7071 7.29289L20.6532 6.34681C21.0436 5.9564 21.6816 5.95321 22.0265 6.38431C23.2958 7.9706 23.9978 9.94888 24 12C24.0001 13.8599 23.4229 15.674 22.3483 17.192C21.4103 18.5169 20.1337 19.5592 18.6578 20.2137C18.2701 20.3857 18 20.7588 18 21.183V22.3193C18 22.973 18.6186 23.4513 19.2303 23.2208C23.7699 21.5104 27 17.1415 27 12C27 9.04659 25.9165 6.35511 24.1421 4.27562C23.7827 3.85447 23.7781 3.22192 24.1696 2.83044L25.2929 1.70711ZM12 12.5C12 13.0523 12.4477 13.5 13 13.5H14C14.5523 13.5 15 13.0523 15 12.5V5.5C15 4.94772 14.5523 4.5 14 4.5H13C12.4477 4.5 12 4.94772 12 5.5V12.5Z" fill="white"/>
</svg>
