<svg width="25" height="20" viewBox="0 0 25 20" fill="none" xmlns="http://www.w3.org/2000/svg">
<path fill-rule="evenodd" clip-rule="evenodd" d="M9 0.75C6.35816 0.75 4.25 2.92015 4.25 5.55556C4.25 8.19096 6.35816 10.3611 9 10.3611C11.6418 10.3611 13.75 8.19096 13.75 5.55556C13.75 2.92015 11.6418 0.75 9 0.75ZM6.75 5.55556C6.75 4.2636 7.77585 3.25 9 3.25C10.2242 3.25 11.25 4.2636 11.25 5.55556C11.25 6.84751 10.2242 7.86111 9 7.86111C7.77585 7.86111 6.75 6.84751 6.75 5.55556Z" fill="white"/>
<path d="M5.5 11.4167C4.23381 11.4167 3.02354 11.9278 2.13431 12.8312C1.24574 13.7338 0.75 14.954 0.75 16.2222V18C0.75 18.6904 1.30964 19.25 2 19.25C2.69036 19.25 3.25 18.6904 3.25 18V16.2222C3.25 15.6045 3.49176 15.0159 3.91594 14.585C4.33947 14.1547 4.90967 13.9167 5.5 13.9167H12.5C13.0903 13.9167 13.6605 14.1547 14.0841 14.585C14.5082 15.0159 14.75 15.6045 14.75 16.2222V18C14.75 18.6904 15.3096 19.25 16 19.25C16.6904 19.25 17.25 18.6904 17.25 18V16.2222C17.25 14.954 16.7543 13.7338 15.8657 12.8312C14.9765 11.9278 13.7662 11.4167 12.5 11.4167H5.5Z" fill="white"/>
<path fill-rule="evenodd" clip-rule="evenodd" d="M21 10.2222L17 13V4.11111C17 3.81643 17.1204 3.53381 17.3347 3.32544C17.5491 3.11706 17.8398 3 18.1429 3H23.8571C24.1602 3 24.4509 3.11706 24.6653 3.32544C24.8796 3.53381 25 3.81643 25 4.11111V13L21 10.2222ZM19.8592 8.57948L19 9.17616V5H23V9.17616L22.1408 8.57948C21.4549 8.10314 20.5451 8.10314 19.8592 8.57948Z" fill="white"/>
</svg>
