<svg width="14" height="11" viewBox="0 0 14 11" fill="none" xmlns="http://www.w3.org/2000/svg">
<path fill-rule="evenodd" clip-rule="evenodd" d="M4.76289 0C3.2377 0 2.02062 1.29036 2.02062 2.85736C2.02062 4.42435 3.2377 5.71471 4.76289 5.71471C6.28807 5.71471 7.50515 4.42435 7.50515 2.85736C7.50515 1.29036 6.28807 0 4.76289 0ZM3.46392 2.85736C3.46392 2.08917 4.05616 1.48649 4.76289 1.48649C5.46962 1.48649 6.06186 2.08917 6.06186 2.85736C6.06186 3.62555 5.46962 4.22823 4.76289 4.22823C4.05616 4.22823 3.46392 3.62555 3.46392 2.85736Z" fill="white"/>
<path d="M2.74227 6.34234C2.01127 6.34234 1.31256 6.64628 0.79919 7.1834C0.2862 7.72012 0 8.44563 0 9.1997V10.2568C0 10.6672 0.323093 11 0.721649 11C1.12021 11 1.4433 10.6672 1.4433 10.2568V9.1997C1.4433 8.83238 1.58287 8.48242 1.82776 8.22619C2.07227 7.97037 2.40146 7.82883 2.74227 7.82883H6.7835C7.12431 7.82883 7.4535 7.97037 7.69801 8.22619C7.9429 8.48242 8.08247 8.83238 8.08247 9.1997V10.2568C8.08247 10.6672 8.40557 11 8.80412 11C9.20268 11 9.52577 10.6672 9.52577 10.2568V9.1997C9.52577 8.44562 9.23957 7.72012 8.72658 7.1834C8.21321 6.64628 7.5145 6.34234 6.7835 6.34234H2.74227Z" fill="white"/>
<path fill-rule="evenodd" clip-rule="evenodd" d="M11.6907 5.63213L9.38144 7.28378V1.9985C9.38144 1.82328 9.45096 1.65524 9.57469 1.53134C9.69843 1.40744 9.86625 1.33784 10.0412 1.33784H13.3402C13.5152 1.33784 13.683 1.40744 13.8068 1.53134C13.9305 1.65524 14 1.82328 14 1.9985V7.28378L11.6907 5.63213ZM11.0321 4.65537L10.5361 5.01015V2.52703H12.8454V5.01015L12.3493 4.65537C11.9533 4.37214 11.4281 4.37214 11.0321 4.65537Z" fill="white"/>
</svg>
