<svg width="61" height="61" viewBox="0 0 61 61" fill="none" xmlns="http://www.w3.org/2000/svg">
<g filter="url(#filter0_d)">
<circle cx="30.5" cy="28.5" r="22.5" fill="white"/>
</g>
<path d="M40.4296 27.4009L38 29.0881V22.1111C38 22.0909 38.008 22.0656 38.0318 22.0424C38.0566 22.0184 38.096 22 38.1429 22H43.8571C43.904 22 43.9434 22.0184 43.9682 22.0424C43.992 22.0656 44 22.0909 44 22.1111V29.0881L41.5704 27.4009C41.2274 27.1627 40.7726 27.1627 40.4296 27.4009Z" stroke="#4B5D6B" stroke-width="2" stroke-linecap="round" stroke-linejoin="round"/>
<path d="M36 36V34.2222C36 33.2792 35.6313 32.3749 34.9749 31.7081C34.3185 31.0413 33.4283 30.6667 32.5 30.6667H25.5C24.5717 30.6667 23.6815 31.0413 23.0251 31.7081C22.3687 32.3749 22 33.2792 22 34.2222V36M32.5 23.5556C32.5 25.5192 30.933 27.1111 29 27.1111C27.067 27.1111 25.5 25.5192 25.5 23.5556C25.5 21.5919 27.067 20 29 20C30.933 20 32.5 21.5919 32.5 23.5556Z" stroke="#4B5D6B" stroke-width="2.5" stroke-linecap="round" stroke-linejoin="round"/>
<defs>
<filter id="filter0_d" x="0" y="0" width="61" height="61" filterUnits="userSpaceOnUse" color-interpolation-filters="sRGB">
<feFlood flood-opacity="0" result="BackgroundImageFix"/>
<feColorMatrix in="SourceAlpha" type="matrix" values="0 0 0 0 0 0 0 0 0 0 0 0 0 0 0 0 0 0 127 0"/>
<feOffset dy="2"/>
<feGaussianBlur stdDeviation="4"/>
<feColorMatrix type="matrix" values="0 0 0 0 0 0 0 0 0 0 0 0 0 0 0 0 0 0 0.08 0"/>
<feBlend mode="normal" in2="BackgroundImageFix" result="effect1_dropShadow"/>
<feBlend mode="normal" in="SourceGraphic" in2="effect1_dropShadow" result="shape"/>
</filter>
</defs>
</svg>
