<svg width="26" height="26" viewBox="0 0 26 26" fill="none" xmlns="http://www.w3.org/2000/svg">
<path d="M9.88698 9.92521C10.1456 9.19004 10.656 8.57012 11.3279 8.17525C11.9998 7.78038 12.7898 7.63604 13.5579 7.76779C14.326 7.89954 15.0227 8.29888 15.5246 8.89509C16.0264 9.49129 16.3011 10.2459 16.3 11.0252C16.3 13.2252 13 14.3252 13 14.3252V15.7637M13.0879 18.7252H13.0989M24 13C24 19.0751 19.0751 24 13 24C6.92487 24 2 19.0751 2 13C2 6.92484 6.92487 1.99998 13 1.99998C19.0751 1.99998 24 6.92484 24 13Z" stroke="#F86D70" stroke-width="2.5" stroke-linecap="round" stroke-linejoin="round"/>
</svg>
