<svg width="36" height="36" viewBox="0 0 36 36" fill="none" xmlns="http://www.w3.org/2000/svg">
<path fill-rule="evenodd" clip-rule="evenodd" d="M0.0285645 18.3333C0.0285645 13.6478 1.88988 9.15422 5.20304 5.84107C8.51619 2.52791 13.0098 0.666595 17.6953 0.666595C22.3808 0.666595 26.8744 2.52791 30.1876 5.84107C33.5007 9.15422 35.3621 13.6478 35.3621 18.3333C35.3621 23.0189 33.5007 27.5125 30.1876 30.8256C26.8744 34.1388 22.3808 36.0001 17.6953 36.0001C13.0098 36.0001 8.51619 34.1388 5.20304 30.8256C1.88988 27.5125 0.0285645 23.0189 0.0285645 18.3333H0.0285645ZM16.6871 25.8947L26.8585 13.1794L25.0211 11.7095L16.3479 22.5475L10.2046 17.4288L8.69705 19.2379L16.6871 25.8971V25.8947Z" fill="#4ECB71"/>
</svg>
