<svg width="439" height="315" viewBox="0 0 439 315" fill="none" xmlns="http://www.w3.org/2000/svg">
<mask id="mask0" mask-type="alpha" maskUnits="userSpaceOnUse" x="0" y="0" width="439" height="315">
<rect width="439" height="315" fill="white"/>
</mask>
<g mask="url(#mask0)">
<path fill-rule="evenodd" clip-rule="evenodd" d="M439 3.05176e-05H0V205.5C0 205.5 30.7504 191.453 57 183C86.5 173.5 128 179 151.5 183C161 184.617 193 192 211.5 198C219.507 200.597 228.484 202.778 237.743 205.027C239.179 205.376 240.621 205.726 242.068 206.08C238.335 209.55 236 214.502 236 220C236 230.493 244.507 239 255 239C265.493 239 274 230.493 274 220C274 218.291 273.774 216.634 273.351 215.058C285.802 219.596 297.057 225.502 305.194 234.125C304.425 235.93 304 237.915 304 240C304 248.284 310.716 255 319 255C320.751 255 322.432 254.7 323.995 254.148C337.524 267.088 353.079 277.202 373.5 275.5C374.073 275.452 374.648 275.393 375.222 275.322C377.114 291.47 390.844 304 407.5 304C425.449 304 440 289.449 440 271.5C440 261.208 435.216 252.033 427.749 246.078C434.704 239.788 439 235 439 235V3.05176e-05Z" fill="#4B5D6B"/>
<path fill-rule="evenodd" clip-rule="evenodd" d="M478.854 116.574C469.96 116.41 462.294 121.978 459.381 129.878C455.421 131.909 446.576 133.322 426.834 129.936C417.121 128.27 413.283 122.1 411.831 118.386C411.048 112.613 409.566 106.964 407.432 101.568C407.188 98.4208 407.31 92.1879 411.514 88.9957C419.98 82.5672 423.532 81.3573 425.017 81.3991C426.974 82.7743 429.664 82.8391 431.718 81.3673C434.318 79.5051 434.916 75.888 433.053 73.2885C431.191 70.6889 427.574 70.0911 424.974 71.9534C423.122 73.2802 422.286 75.4977 422.632 77.6034C421.784 79.1775 418.654 81.9431 408.565 86.1965C404.174 88.0476 399.809 85.6989 397.312 83.8493C392.131 77.1974 385.712 71.3847 378.192 66.7971C376.534 63.6263 375.279 59.4961 376.652 55.4116C380.03 45.3668 383.034 40.9644 385.21 39.0818C391.072 40.5228 397.291 37.5732 399.773 31.8496C402.545 25.4611 399.612 18.0359 393.224 15.2649C386.835 12.4938 379.41 15.4264 376.639 21.8148C374.446 26.8711 375.825 32.5768 379.663 36.1105C379.856 38.8944 378.529 44.3097 371.981 54.7416C369.937 57.9973 366.74 59.4477 363.76 60.0435C351.142 55.7567 337.975 55.1992 325.599 57.8909C319.869 58.434 306.163 58.63 298.965 49.3726C287.929 35.1798 284.521 26.8057 283.9 21.9636C291.433 15.0269 293.093 3.46957 287.328 -5.40645C280.893 -15.3134 267.646 -18.1285 257.739 -11.6941C247.832 -5.25974 245.017 7.98751 251.452 17.8945C256.544 25.7355 265.904 29.134 274.499 27.0204C278.615 29.3577 285.028 36.3103 293.638 55.3488C297.126 63.0609 294.491 70.6702 291.484 75.8858C285.199 81.8341 279.893 89.0286 275.974 97.3235C265.183 120.159 267.506 145.817 279.897 165.793L279.671 165.586C279.671 165.586 286.533 179.08 279.988 188.186C272.18 199.049 266.921 203.243 263.596 204.705C257.06 200.789 248.462 202.036 243.34 208.018C237.623 214.695 238.401 224.742 245.078 230.459C251.755 236.176 261.802 235.398 267.519 228.721C272.044 223.436 272.5 216.041 269.183 210.352C269.985 206.922 273.598 200.882 285.374 190.73C290.873 185.99 297.986 187.086 302.356 188.467C304.835 190.037 307.437 191.472 310.158 192.757C314.151 194.644 318.23 196.13 322.35 197.231C323.569 199.48 325.808 205.127 323.738 213.69C319.04 233.136 316.844 237.631 315.965 238.602C315.821 238.668 315.677 238.74 315.536 238.818L315.467 238.807C315.467 238.807 315.478 238.823 315.504 238.836C313.887 239.744 312.534 241.45 312.079 243.377C311.415 246.19 312.917 248.409 315.434 248.334C317.951 248.258 320.529 245.917 321.193 243.104C321.698 240.962 320.948 239.165 319.45 238.462C319.407 236.305 320.568 230.068 326.837 212.251C329.457 204.802 333.514 201.121 335.952 199.485C343.215 199.973 350.45 199.341 357.415 197.675C364.609 199.375 372.602 202.972 377.185 210.486C388.836 229.592 391.872 240.428 391.959 246.504C381.667 254.023 377.989 268.082 383.869 279.871C390.433 293.028 406.42 298.374 419.578 291.81C432.736 285.246 438.081 269.259 431.517 256.101C426.322 245.688 415.224 240.168 404.298 241.572C399.536 238.103 392.583 228.602 384.613 203.844C381.894 195.398 384.536 187.653 388.098 181.818C393.055 177.468 397.465 172.381 401.144 166.621C403.189 166.199 405.382 166.216 407.438 167.156C417.105 171.576 419.851 174.134 420.516 175.462C420.23 177.837 421.444 180.238 423.713 181.353C426.583 182.763 430.053 181.579 431.463 178.709C432.873 175.839 431.69 172.369 428.819 170.959C426.775 169.955 424.425 170.266 422.734 171.567C420.946 171.564 417.029 170.113 408.511 163.234C406.939 161.965 406.035 160.344 405.549 158.663L405.591 158.573C406.097 157.502 406.575 156.425 407.023 155.342C408.533 152.222 416.026 138.144 428.7 137.3C445.911 136.153 454.295 137.981 458.375 140.098C459.877 149.675 468.076 157.082 478.104 157.267C489.341 157.475 498.618 148.533 498.826 137.296C499.033 126.059 490.091 116.782 478.854 116.574ZM341.348 25.5654C341.791 28.7322 339.584 31.6591 336.417 32.1026C333.25 32.5462 330.323 30.3385 329.88 27.1717C329.436 24.0048 331.644 21.078 334.811 20.6344C337.978 20.1908 340.904 22.3985 341.348 25.5654ZM273.606 181.465C275.632 181.181 277.045 179.309 276.761 177.283C276.477 175.257 274.605 173.844 272.579 174.128C270.552 174.412 269.14 176.284 269.424 178.31C269.708 180.336 271.58 181.749 273.606 181.465ZM407.998 190.396C408.136 191.385 407.447 192.298 406.459 192.437C405.47 192.575 404.557 191.886 404.418 190.898C404.28 189.909 404.969 188.996 405.957 188.857C406.946 188.719 407.86 189.408 407.998 190.396ZM401.777 291.09C406.384 292.105 411.179 291.871 415.665 290.411C420.151 288.952 424.166 286.321 427.294 282.79L426.938 282.475C423.866 285.943 419.924 288.527 415.518 289.96C411.112 291.393 406.404 291.623 401.88 290.626L401.777 291.09ZM259.995 231.199C257.299 232.076 254.417 232.217 251.647 231.607L251.709 231.328C254.428 231.927 257.259 231.789 259.907 230.928C262.555 230.066 264.926 228.513 266.772 226.428L266.986 226.617C265.105 228.74 262.692 230.322 259.995 231.199ZM263.914 23.2292C267.636 24.0495 271.509 23.8603 275.134 22.6814C278.758 21.5024 282.002 19.3765 284.529 16.5235L284.242 16.2692C281.76 19.0709 278.574 21.1587 275.015 22.3165C271.456 23.4743 267.652 23.6601 263.996 22.8546L263.914 23.2292ZM420.099 285.42C414.411 288.643 407.732 289.647 401.348 288.24L401.427 287.882C407.723 289.27 414.309 288.279 419.919 285.101L420.099 285.42ZM250.009 230.396C253.847 231.242 257.862 230.638 261.281 228.701L261.172 228.509C257.8 230.42 253.841 231.015 250.056 230.181L250.009 230.396ZM278.997 17.9727C274.402 20.5763 269.006 21.3876 263.848 20.2505L263.912 19.9613C268.998 21.0827 274.32 20.2826 278.851 17.7151L278.997 17.9727ZM472.973 155.318C476.515 156.098 480.2 155.918 483.648 154.796C487.097 153.675 490.183 151.652 492.587 148.938L492.314 148.696C489.953 151.361 486.922 153.348 483.535 154.449C480.149 155.551 476.53 155.728 473.052 154.961L472.973 155.318ZM391.741 37.4199C389.605 38.1148 387.322 38.2263 385.128 37.7428L385.177 37.522C387.331 37.9968 389.573 37.8873 391.672 37.2049C393.77 36.5224 395.647 35.2918 397.11 33.6403L397.279 33.7902C395.79 35.4719 393.878 36.725 391.741 37.4199ZM426.376 81.3709C427.383 81.593 428.432 81.5418 429.413 81.2226C430.395 80.9034 431.273 80.3278 431.957 79.5554L431.879 79.4865C431.207 80.2451 430.345 80.8104 429.381 81.1238C428.418 81.4373 427.388 81.4876 426.398 81.2695L426.376 81.3709ZM427.447 180.48C426.466 180.799 425.417 180.85 424.409 180.628L424.432 180.527C425.421 180.745 426.451 180.695 427.415 180.381C428.379 180.068 429.241 179.502 429.913 178.744L429.991 178.813C429.307 179.585 428.428 180.161 427.447 180.48ZM313.557 246.849C314.565 247.071 315.614 247.02 316.595 246.701C317.576 246.382 318.454 245.806 319.139 245.034L319.061 244.965C318.389 245.724 317.527 246.289 316.563 246.602C315.599 246.916 314.569 246.966 313.58 246.748L313.557 246.849ZM486.92 151.019C482.548 153.497 477.414 154.268 472.507 153.187L472.567 152.911C477.407 153.978 482.47 153.217 486.781 150.774L486.92 151.019ZM384.979 36.499C388.019 37.1692 391.2 36.691 393.908 35.1563L393.822 35.0044C391.151 36.5178 388.014 36.9895 385.016 36.3285L384.979 36.499ZM430.329 79.5111C429.085 80.216 427.624 80.4357 426.227 80.1279L426.245 80.0496C427.622 80.3532 429.063 80.1365 430.29 79.4414L430.329 79.5111ZM424.261 179.385C425.658 179.693 427.119 179.473 428.363 178.768L428.323 178.698C427.096 179.393 425.656 179.61 424.278 179.307L424.261 179.385ZM317.511 244.989C316.267 245.694 314.806 245.914 313.409 245.606L313.426 245.528C314.804 245.831 316.244 245.615 317.471 244.92L317.511 244.989Z" fill="#DEE5EE"/>
<circle cx="342" cy="129" r="61" fill="#F8F8F8"/>
<path d="M306.616 134.568C306.248 134.568 305.808 134.264 305.296 133.656C304.784 133.032 304.528 132.528 304.528 132.144C304.528 131.76 304.72 130.968 305.104 129.768C306.288 126.088 306.92 122.864 307 120.096C306.456 119.52 306.184 119.064 306.184 118.728C306.184 118.2 306.808 117.704 308.056 117.24C309.32 116.76 310.52 116.52 311.656 116.52C313.576 116.52 315.088 116.968 316.192 117.864C317.312 118.76 317.872 119.904 317.872 121.296C317.872 123.072 317 124.68 315.256 126.12C313.528 127.56 311.344 128.544 308.704 129.072C307.952 131.776 307.456 133.368 307.216 133.848C306.992 134.328 306.792 134.568 306.616 134.568ZM314.464 121.368C314.464 120.856 314.28 120.44 313.912 120.12C313.544 119.784 313.048 119.616 312.424 119.616C311.8 119.616 310.936 119.912 309.832 120.504C310.152 121.064 310.312 121.568 310.312 122.016C310.312 122.896 310.08 124.2 309.616 125.928C311.056 125.352 312.224 124.664 313.12 123.864C314.016 123.048 314.464 122.216 314.464 121.368ZM327.972 127.896C328.26 128.152 328.404 128.384 328.404 128.592C328.404 128.8 328.308 129.232 328.116 129.888C327.924 130.544 327.796 131.056 327.732 131.424C327.668 131.776 327.612 132.056 327.564 132.264C327.532 132.472 327.508 132.64 327.492 132.768C327.476 132.88 327.444 133.024 327.396 133.2C327.364 133.376 327.332 133.52 327.3 133.632C327.284 133.728 327.252 133.848 327.204 133.992C327.172 134.12 327.132 134.224 327.084 134.304C327.036 134.368 326.98 134.44 326.916 134.52C326.82 134.648 326.66 134.712 326.436 134.712C326.212 134.712 325.932 134.488 325.596 134.04C325.276 133.592 325.036 133.048 324.876 132.408C323.372 133.944 322.108 134.712 321.084 134.712C320.396 134.712 319.652 134.336 318.852 133.584C318.052 132.816 317.652 132.056 317.652 131.304C317.652 130.536 317.996 129.448 318.684 128.04C319.372 126.632 320.308 125.328 321.492 124.128C322.692 122.928 323.876 122.328 325.044 122.328C325.716 122.328 326.492 122.72 327.372 123.504C328.252 124.288 328.692 125.008 328.692 125.664C328.692 126.304 328.452 127.048 327.972 127.896ZM320.988 131.688C321.628 131.688 322.476 131.256 323.532 130.392C324.604 129.512 325.268 128.408 325.524 127.08C325.54 126.888 325.676 126.776 325.932 126.744C325.884 125.832 325.732 125.376 325.476 125.376C324.836 125.376 324.116 125.792 323.316 126.624C322.532 127.456 321.884 128.344 321.372 129.288C320.876 130.232 320.628 130.928 320.628 131.376C320.628 131.504 320.644 131.592 320.676 131.64C320.724 131.672 320.828 131.688 320.988 131.688ZM333.39 115.608C333.774 115.608 334.27 115.96 334.878 116.664C335.486 117.368 335.79 118.04 335.79 118.68C335.79 119.32 335.694 120.464 335.502 122.112C335.31 123.744 335.11 125.048 334.902 126.024C333.574 131.816 332.646 134.712 332.118 134.712C331.766 134.712 331.326 134.432 330.798 133.872C330.286 133.296 330.03 132.824 330.03 132.456C330.03 132.424 330.246 131.592 330.678 129.96C331.11 128.328 331.542 126.232 331.974 123.672C332.422 121.096 332.646 118.64 332.646 116.304C332.646 115.84 332.894 115.608 333.39 115.608ZM347.133 126.816C347.133 127.6 346.597 128.304 345.525 128.928C344.469 129.552 343.381 129.864 342.261 129.864C341.141 129.864 340.221 129.784 339.501 129.624C339.357 130.056 339.285 130.488 339.285 130.92C339.285 131.352 339.357 131.664 339.501 131.856C339.645 132.032 340.005 132.12 340.581 132.12C341.781 132.12 342.805 132.008 343.653 131.784C344.517 131.56 344.965 131.448 344.997 131.448C345.653 131.448 345.981 131.664 345.981 132.096C345.981 132.72 345.461 133.312 344.421 133.872C343.397 134.432 342.205 134.712 340.845 134.712C339.501 134.712 338.421 134.288 337.605 133.44C336.789 132.592 336.381 131.592 336.381 130.44C336.381 129.272 336.717 128.056 337.389 126.792C338.077 125.528 338.933 124.472 339.957 123.624C340.981 122.76 341.997 122.328 343.005 122.328C344.029 122.328 344.973 122.832 345.837 123.84C346.701 124.832 347.133 125.824 347.133 126.816ZM344.349 126.432C344.349 126.272 344.181 126.04 343.845 125.736C343.509 125.432 343.189 125.28 342.885 125.28C342.597 125.28 342.221 125.496 341.757 125.928C341.293 126.344 340.853 126.888 340.437 127.56C340.581 127.576 340.789 127.584 341.061 127.584C343.253 127.584 344.349 127.2 344.349 126.432ZM354.316 125.184C354.188 125.616 353.996 126.224 353.74 127.008C353.5 127.776 353.196 128.744 352.828 129.912C352.476 131.08 352.3 131.704 352.3 131.784C352.3 131.848 352.428 131.88 352.684 131.88C352.956 131.88 353.588 131.704 354.58 131.352C355.572 130.984 356.156 130.8 356.332 130.8C356.732 130.8 356.932 131.072 356.932 131.616C356.932 132.16 356.396 132.816 355.324 133.584C354.252 134.336 353.132 134.712 351.964 134.712C351.452 134.712 350.844 134.432 350.14 133.872C349.436 133.312 349.084 132.744 349.084 132.168C349.084 131.688 349.324 130.68 349.804 129.144C350.3 127.592 350.636 126.528 350.812 125.952C350.188 126.128 349.716 126.216 349.396 126.216C349.076 126.216 348.74 126 348.388 125.568C348.036 125.12 347.86 124.696 347.86 124.296C347.86 123.784 349.1 123.352 351.58 123C351.884 121.512 352.036 120.224 352.036 119.136C352.036 118.656 352.276 118.416 352.756 118.416C353.172 118.416 353.7 118.672 354.34 119.184C354.996 119.68 355.324 120.176 355.324 120.672C355.324 121.152 355.22 121.832 355.012 122.712C355.78 122.68 356.364 122.664 356.764 122.664C357.964 122.664 358.564 122.936 358.564 123.48C358.564 123.832 358.212 124.136 357.508 124.392C356.82 124.632 355.756 124.896 354.316 125.184ZM365.144 125.184C365.016 125.616 364.824 126.224 364.568 127.008C364.328 127.776 364.024 128.744 363.656 129.912C363.304 131.08 363.128 131.704 363.128 131.784C363.128 131.848 363.256 131.88 363.512 131.88C363.784 131.88 364.416 131.704 365.408 131.352C366.4 130.984 366.984 130.8 367.16 130.8C367.56 130.8 367.76 131.072 367.76 131.616C367.76 132.16 367.224 132.816 366.152 133.584C365.08 134.336 363.96 134.712 362.792 134.712C362.28 134.712 361.672 134.432 360.968 133.872C360.264 133.312 359.912 132.744 359.912 132.168C359.912 131.688 360.152 130.68 360.632 129.144C361.128 127.592 361.464 126.528 361.64 125.952C361.016 126.128 360.544 126.216 360.224 126.216C359.904 126.216 359.568 126 359.216 125.568C358.864 125.12 358.688 124.696 358.688 124.296C358.688 123.784 359.928 123.352 362.408 123C362.712 121.512 362.864 120.224 362.864 119.136C362.864 118.656 363.104 118.416 363.584 118.416C364 118.416 364.528 118.672 365.168 119.184C365.824 119.68 366.152 120.176 366.152 120.672C366.152 121.152 366.048 121.832 365.84 122.712C366.608 122.68 367.192 122.664 367.592 122.664C368.792 122.664 369.392 122.936 369.392 123.48C369.392 123.832 369.04 124.136 368.336 124.392C367.648 124.632 366.584 124.896 365.144 125.184ZM380.508 126.816C380.508 127.6 379.972 128.304 378.9 128.928C377.844 129.552 376.756 129.864 375.636 129.864C374.516 129.864 373.596 129.784 372.876 129.624C372.732 130.056 372.66 130.488 372.66 130.92C372.66 131.352 372.732 131.664 372.876 131.856C373.02 132.032 373.38 132.12 373.956 132.12C375.156 132.12 376.18 132.008 377.028 131.784C377.892 131.56 378.34 131.448 378.372 131.448C379.028 131.448 379.356 131.664 379.356 132.096C379.356 132.72 378.836 133.312 377.796 133.872C376.772 134.432 375.58 134.712 374.22 134.712C372.876 134.712 371.796 134.288 370.98 133.44C370.164 132.592 369.756 131.592 369.756 130.44C369.756 129.272 370.092 128.056 370.764 126.792C371.452 125.528 372.308 124.472 373.332 123.624C374.356 122.76 375.372 122.328 376.38 122.328C377.404 122.328 378.348 122.832 379.212 123.84C380.076 124.832 380.508 125.824 380.508 126.816ZM377.724 126.432C377.724 126.272 377.556 126.04 377.22 125.736C376.884 125.432 376.564 125.28 376.26 125.28C375.972 125.28 375.596 125.496 375.132 125.928C374.668 126.344 374.228 126.888 373.812 127.56C373.956 127.576 374.164 127.584 374.436 127.584C376.628 127.584 377.724 127.2 377.724 126.432Z" fill="#4B5D6B"/>
</g>
</svg>
