<svg width="25" height="28" viewBox="0 0 25 28" fill="none" xmlns="http://www.w3.org/2000/svg">
<path d="M8.70811 15.812L16.9041 20.588M16.8921 7.41201L8.70811 12.188M23.6 5.6C23.6 7.58823 21.9882 9.2 20 9.2C18.0118 9.2 16.4 7.58823 16.4 5.6C16.4 3.61177 18.0118 2 20 2C21.9882 2 23.6 3.61177 23.6 5.6ZM9.2 14C9.2 15.9882 7.58823 17.6 5.6 17.6C3.61177 17.6 2 15.9882 2 14C2 12.0118 3.61177 10.4 5.6 10.4C7.58823 10.4 9.2 12.0118 9.2 14ZM23.6 22.4C23.6 24.3882 21.9882 26 20 26C18.0118 26 16.4 24.3882 16.4 22.4C16.4 20.4118 18.0118 18.8 20 18.8C21.9882 18.8 23.6 20.4118 23.6 22.4Z" stroke="white" stroke-width="2.5" stroke-linecap="round" stroke-linejoin="round"/>
</svg>
