<svg width="276" height="276" viewBox="0 0 276 276" fill="none" xmlns="http://www.w3.org/2000/svg">
<path d="M138 92C150.703 92 161 81.7025 161 69C161 56.2975 150.703 46 138 46C125.297 46 115 56.2975 115 69C115 81.7025 125.297 92 138 92Z" fill="#E7DFDF"/>
<path d="M241.5 171.81C241.5 166.06 237.36 161.115 231.725 160.54C210.105 158.125 191.59 147.545 177.1 130.295L161.69 111.895C157.32 106.49 150.88 103.5 144.095 103.5H132.02C125.235 103.5 118.795 106.49 114.425 111.78L99.015 130.18C84.64 147.43 66.01 158.01 44.39 160.425C38.64 161.115 34.5 166.06 34.5 171.81C34.5 178.71 40.595 184.115 47.495 183.31C73.945 180.205 97.175 167.325 115 146.625V172.5L71.76 189.75C64.285 192.74 58.42 199.295 57.615 207.345C56.465 219.65 66.01 230 78.085 230H103.5V224.25C103.5 208.38 116.38 195.5 132.25 195.5H166.75C169.97 195.5 172.5 198.03 172.5 201.25C172.5 204.47 169.97 207 166.75 207H132.25C122.705 207 115 214.705 115 224.25V230H196.65C206.425 230 215.625 223.79 217.925 214.245C220.34 204.01 214.82 194.005 205.505 190.325L161 172.5V146.625C178.94 167.325 202.055 180.09 228.505 183.31C235.405 184 241.5 178.71 241.5 171.81Z" fill="#E7DFDF"/>
</svg>
