<svg width="368" height="355" viewBox="0 0 368 355" fill="none" xmlns="http://www.w3.org/2000/svg">
<path fill-rule="evenodd" clip-rule="evenodd" d="M316.261 162.636C307.617 162.461 300.182 167.903 297.418 175.621C293.544 177.55 284.985 178.848 266.089 175.568C256.92 173.976 253.16 168.231 251.678 164.613C250.924 159.018 249.497 153.542 247.441 148.308C247.176 145.353 247.162 139.027 251.334 135.841C259.597 129.532 263.002 128.416 264.4 128.491C264.699 128.7 265.016 128.877 265.345 129.021L265.363 129.052C265.363 129.052 265.362 129.05 265.361 129.044C265.36 129.042 265.36 129.038 265.358 129.034C265.358 129.031 265.357 129.029 265.356 129.026C267.097 129.785 269.176 129.635 270.827 128.446C273.331 126.643 273.902 123.134 272.101 120.607C270.301 118.081 266.811 117.495 264.307 119.298C262.527 120.58 261.724 122.726 262.056 124.767C261.267 126.287 258.281 128.976 248.486 133.119C244.013 135.01 239.561 132.347 237.235 130.519C232.341 124.319 226.337 118.884 219.343 114.551C217.673 111.442 216.348 107.322 217.704 103.253C220.968 93.4579 223.877 89.201 225.978 87.3976C231.638 88.8003 237.632 85.9508 240.018 80.4074C242.682 74.2174 239.839 67.0126 233.667 64.3148C227.495 61.6171 220.331 64.4481 217.667 70.6381C215.565 75.521 216.891 81.0355 220.574 84.4709C220.791 87.1505 219.552 92.4032 213.193 102.596C211.164 105.846 207.95 107.235 204.999 107.774C192.723 103.598 179.92 103.086 167.911 105.765C162.11 106.238 149.49 106.126 142.749 97.4066C132.153 83.7022 128.827 75.5852 128.19 70.871C135.482 64.1552 137.081 52.9105 131.495 44.2668C125.273 34.6395 112.493 31.8845 102.95 38.1136C93.4066 44.3426 90.7139 57.1968 96.9357 66.8241C101.864 74.4502 110.908 77.7641 119.198 75.7164C123.174 78.0347 129.343 84.8247 137.623 103.198C140.899 110.467 138.615 117.633 135.835 122.672C129.594 128.505 124.334 135.609 120.477 143.831C110.017 166.132 112.421 191.235 124.665 210.693L124.087 210.159C124.087 210.159 130.732 223.264 124.431 232.09C116.867 242.684 111.781 246.73 108.578 248.118C102.269 244.325 93.9904 245.526 89.065 251.313C83.5601 257.781 84.328 267.53 90.7799 273.088C97.2319 278.646 106.925 277.908 112.43 271.439C116.778 266.331 117.212 259.175 114.024 253.654C114.757 250.341 118.2 244.472 129.633 234.567C135.21 229.736 142.525 231.181 146.66 232.615C148.886 234.003 151.213 235.279 153.636 236.433C157.424 238.236 161.291 239.664 165.196 240.733C166.359 242.821 168.669 248.357 166.64 256.837C162.137 275.657 160.02 280.034 159.169 280.986C159.025 281.05 158.882 281.122 158.742 281.199L158.682 281.189C158.682 281.189 158.691 281.203 158.713 281.215C157.144 282.092 155.831 283.754 155.393 285.634C154.756 288.368 156.212 290.528 158.643 290.459C161.075 290.39 163.562 288.117 164.199 285.384C164.68 283.316 163.965 281.576 162.535 280.881C162.481 278.807 163.582 272.775 169.634 255.445C172.197 248.106 176.201 244.544 178.543 243C185.561 243.487 192.552 242.885 199.279 241.278C206.178 242.955 213.81 246.462 218.208 253.711C229.399 272.156 232.379 282.664 232.509 288.584C222.543 295.853 218.988 309.536 224.692 321.019C231.042 333.805 246.466 339.021 259.141 332.671C271.817 326.32 276.944 310.808 270.593 298.022C265.565 287.899 254.85 282.521 244.315 283.871C239.72 280.445 233.036 271.178 225.358 247.276C222.79 239.282 225.13 231.943 228.419 226.339C233.414 222.013 237.843 216.913 241.509 211.11C243.428 210.744 245.474 210.79 247.396 211.676C256.637 215.935 259.332 218.413 260.011 219.713C259.73 222.022 260.907 224.363 263.105 225.45C265.878 226.823 269.225 225.681 270.581 222.9C271.938 220.119 270.79 216.752 268.017 215.38C266.031 214.397 263.75 214.704 262.117 215.979C260.37 215.947 256.581 214.499 248.424 207.875C246.967 206.691 246.102 205.193 245.617 203.632L245.705 203.445C246.437 201.885 247.106 200.311 247.713 198.726C250.152 194.184 257.053 183.405 267.903 182.7C284.449 181.624 292.552 183.386 296.517 185.43C298.002 194.69 305.928 201.858 315.604 202.054C326.463 202.273 335.414 193.627 335.595 182.742C335.777 171.857 327.121 162.855 316.261 162.636ZM183.628 74.3021C184.061 77.3798 181.938 80.2197 178.888 80.6454C175.837 81.071 173.014 78.9211 172.581 75.8434C172.149 72.7657 174.271 69.9257 177.321 69.5001C180.372 69.0745 183.195 71.2244 183.628 74.3021ZM118.289 225.573C120.24 225.3 121.598 223.483 121.321 221.514C121.044 219.545 119.238 218.17 117.286 218.442C115.335 218.714 113.977 220.531 114.254 222.5C114.531 224.469 116.337 225.845 118.289 225.573ZM247.934 234.236C248.069 235.197 247.407 236.083 246.454 236.216C245.502 236.349 244.621 235.678 244.486 234.717C244.351 233.756 245.013 232.87 245.965 232.737C246.918 232.604 247.799 233.275 247.934 234.236Z" fill="#4B5D6B"/>
<path d="M241.965 331.908C246.415 332.898 251.045 332.678 255.374 331.269C259.704 329.861 263.577 327.316 266.593 323.897L266.249 323.591C263.288 326.949 259.484 329.448 255.232 330.832C250.98 332.215 246.434 332.431 242.064 331.458L241.965 331.908Z" fill="white"/>
<path d="M97.1167 274.202C99.7916 274.797 102.574 274.665 105.177 273.818C107.78 272.972 110.108 271.441 111.921 269.386L111.714 269.202C109.934 271.221 107.648 272.724 105.092 273.555C102.535 274.387 99.8026 274.517 97.1756 273.932L97.1167 274.202Z" fill="white"/>
<path d="M108.957 72.0017C112.552 72.8019 116.292 72.6239 119.791 71.486C123.289 70.348 126.418 68.2915 128.854 65.5292L128.576 65.2822C126.184 67.995 123.111 70.0146 119.675 71.1321C116.24 72.2496 112.567 72.4245 109.036 71.6386L108.957 72.0017Z" fill="white"/>
<path d="M241.552 329.143C247.718 330.516 254.166 329.551 259.654 326.435L259.479 326.126C254.067 329.199 247.708 330.15 241.627 328.796L241.552 329.143Z" fill="white"/>
<path d="M95.5366 273.027C99.2434 273.853 103.119 273.273 106.418 271.4L106.313 271.214C103.06 273.061 99.2376 273.633 95.5821 272.819L95.5366 273.027Z" fill="white"/>
<path d="M108.893 69.1116C113.875 70.221 119.085 69.4419 123.519 66.9242L123.377 66.6742C119.005 69.157 113.868 69.9254 108.955 68.8313L108.893 69.1116Z" fill="white"/>
<path d="M310.644 200.172C314.065 200.933 317.623 200.764 320.952 199.681C324.28 198.599 327.257 196.642 329.575 194.014L329.311 193.779C327.034 196.36 324.111 198.281 320.842 199.345C317.574 200.408 314.079 200.574 310.72 199.827L310.644 200.172Z" fill="white"/>
<path d="M225.887 86.0949C228.006 86.5666 230.211 86.4616 232.273 85.7909C234.335 85.1201 236.179 83.9079 237.615 82.2797L237.452 82.1341C236.041 83.7331 234.23 84.9236 232.205 85.5823C230.18 86.241 228.015 86.3441 225.934 85.8808L225.887 86.0949Z" fill="white"/>
<path d="M265.673 128.436C266.646 128.653 267.659 128.605 268.606 128.296C269.553 127.988 270.4 127.432 271.06 126.684L270.985 126.617C270.337 127.351 269.505 127.898 268.575 128.201C267.645 128.503 266.65 128.551 265.694 128.338L265.673 128.436Z" fill="white"/>
<path d="M263.776 224.748C264.749 224.965 265.762 224.917 266.709 224.608C267.656 224.3 268.503 223.744 269.163 222.996L269.088 222.929C268.44 223.663 267.608 224.21 266.678 224.513C265.748 224.815 264.753 224.863 263.797 224.65L263.776 224.748Z" fill="white"/>
<path d="M156.832 289.004C157.806 289.221 158.818 289.172 159.765 288.864C160.713 288.556 161.56 287.999 162.219 287.251L162.144 287.185C161.496 287.919 160.664 288.466 159.734 288.768C158.804 289.071 157.81 289.118 156.854 288.906L156.832 289.004Z" fill="white"/>
<path d="M310.194 198.104C314.934 199.159 319.89 198.418 324.109 196.023L323.974 195.785C319.814 198.147 314.927 198.878 310.252 197.837L310.194 198.104Z" fill="white"/>
<path d="M225.743 84.8879C228.68 85.5418 231.751 85.0825 234.364 83.5985L234.281 83.4512C231.704 84.9146 228.675 85.3675 225.78 84.7227L225.743 84.8879Z" fill="white"/>
<path d="M265.53 127.23C266.879 127.53 268.289 127.319 269.49 126.638L269.451 126.57C268.267 127.242 266.877 127.45 265.546 127.154L265.53 127.23Z" fill="white"/>
<path d="M263.633 223.542C264.982 223.842 266.392 223.631 267.592 222.95L267.554 222.882C266.37 223.554 264.979 223.762 263.649 223.466L263.633 223.542Z" fill="white"/>
<path d="M156.69 287.798C158.038 288.098 159.449 287.887 160.649 287.205L160.611 287.138C159.427 287.81 158.036 288.018 156.706 287.722L156.69 287.798Z" fill="white"/>
<ellipse cx="184.265" cy="174.659" rx="58.8492" ry="59.1899" fill="#F8F8F8"/>
<g clip-path="url(#clip0)">
<path d="M202.109 183.852L198.529 182.801L190.74 177.714V176.548C192.995 174.847 194.544 172.247 194.832 169.267C195.963 169.085 196.829 168.102 196.829 166.921V163.715C196.829 163.703 196.828 163.691 196.827 163.678V159.618C197.278 159.295 197.564 158.77 197.564 158.18V154.464L202.939 153.548C203.823 153.398 204.458 152.696 204.52 151.802C204.582 150.909 204.051 150.126 203.197 149.854L185.076 144.09C184.698 143.97 184.298 143.97 183.92 144.09L165.799 149.854C164.945 150.126 164.414 150.909 164.476 151.802C164.515 152.37 164.787 152.86 165.206 153.181V158.04H165.161C164.141 158.04 163.311 158.87 163.311 159.891V162.303L162.116 169.314C161.91 170.527 162.844 171.637 164.077 171.637H168.122C169.352 171.637 170.289 170.53 170.082 169.314L168.888 162.303V159.891C168.888 158.87 168.057 158.04 167.037 158.04H166.993V153.708L171.436 154.465V158.18C171.436 158.767 171.721 159.292 172.169 159.615L172.171 163.716V166.921C172.171 168.102 173.037 169.085 174.168 169.267C174.456 172.246 176.003 174.844 178.256 176.545V177.717L170.469 182.803L166.891 183.853C163.064 184.977 160.361 188.491 160.361 192.576V195.239C160.361 195.732 160.761 196.133 161.254 196.133C161.748 196.133 162.148 195.733 162.148 195.239V192.576C162.148 189.356 164.305 186.474 167.395 185.568L170.728 184.589L184.044 192.502C184.314 192.662 184.672 192.671 184.957 192.502L198.273 184.589L201.606 185.567C204.695 186.474 206.853 189.356 206.853 192.575V201.206C206.853 202.313 205.952 203.213 204.845 203.213H200.907V199.362C200.907 198.868 200.507 198.468 200.013 198.468C199.52 198.468 199.119 198.868 199.119 199.362V203.213H169.877V199.362C169.877 198.868 169.477 198.468 168.983 198.468C168.489 198.468 168.09 198.868 168.09 199.362V203.213H164.155C163.048 203.213 162.148 202.313 162.148 201.206V199.416C162.148 198.922 161.748 198.522 161.254 198.522C160.76 198.522 160.361 198.922 160.361 199.416V201.206C160.361 203.298 162.063 205 164.155 205H204.845C206.937 205 208.639 203.298 208.639 201.206V192.575C208.639 188.586 206.029 185.003 202.109 183.852ZM168.121 169.85H164.077C163.952 169.85 163.857 169.738 163.878 169.614L164.958 163.272H167.24L168.321 169.614C168.342 169.738 168.247 169.85 168.121 169.85ZM167.101 159.891V161.485H165.098V159.891C165.098 159.856 165.126 159.827 165.161 159.827H167.037C167.072 159.827 167.101 159.856 167.101 159.891ZM181.304 188.46L181.66 189.006L172.537 183.586L178.328 179.804C178.59 182.885 179.606 185.85 181.304 188.46ZM181.298 184.603C183.401 184.901 185.597 184.902 187.702 184.603C187.295 185.603 186.794 186.569 186.198 187.485L184.5 190.095L182.802 187.485C182.206 186.569 181.705 185.603 181.298 184.603ZM187.696 188.46C189.394 185.85 190.41 182.885 190.672 179.804L196.462 183.586L187.34 189.006L187.696 188.46ZM192.922 159.95H195.04V162.822H193.989C193.401 162.822 192.922 162.343 192.922 161.755V159.95H192.922ZM166.341 151.557L184.462 145.793C184.486 145.786 184.511 145.785 184.534 145.793L202.655 151.557C202.693 151.569 202.744 151.585 202.738 151.678C202.731 151.771 202.678 151.78 202.639 151.787L196.648 152.807L194.399 152.529C193.909 152.468 193.463 152.816 193.402 153.306C193.342 153.796 193.69 154.242 194.179 154.302L195.777 154.5V158.163L173.223 158.163V154.5L182.469 153.356C183.816 153.189 185.181 153.189 186.527 153.356L190.027 153.789C190.516 153.849 190.963 153.501 191.023 153.012C191.084 152.522 190.736 152.076 190.246 152.015L186.747 151.582C185.255 151.398 183.742 151.398 182.25 151.582L172.35 152.807L166.357 151.787C166.318 151.78 166.265 151.771 166.258 151.678C166.252 151.585 166.303 151.569 166.341 151.557ZM173.957 162.822L173.956 159.95H176.077V161.755C176.077 162.343 175.599 162.822 175.011 162.822H173.957V162.822ZM175.924 168.808C175.878 168.08 175.273 167.51 174.547 167.51C174.222 167.51 173.958 167.246 173.958 166.921V164.609H175.011C176.584 164.609 177.864 163.328 177.864 161.755V159.95H191.135V161.755C191.135 163.328 192.416 164.609 193.989 164.609H195.042V166.921C195.042 167.246 194.778 167.51 194.452 167.51C193.727 167.51 193.122 168.08 193.076 168.808C192.791 173.319 189.024 176.854 184.5 176.854C179.975 176.854 176.209 173.319 175.924 168.808ZM184.5 178.641C186.089 178.641 187.6 178.277 188.953 177.631V178.198C188.953 179.725 188.747 181.232 188.35 182.686C185.922 183.149 183.177 183.168 180.65 182.686C180.253 181.232 180.047 179.725 180.047 178.198C180.047 178.179 180.044 178.16 180.043 178.141C180.043 178.138 180.043 178.134 180.043 178.13V177.63C181.397 178.277 182.909 178.641 184.5 178.641Z" fill="#4B5D6B"/>
</g>
<defs>
<clipPath id="clip0">
<rect width="61" height="61" fill="white" transform="translate(154 144)"/>
</clipPath>
</defs>
</svg>
