<svg width="276" height="276" viewBox="0 0 276 276" fill="none" xmlns="http://www.w3.org/2000/svg">
<path d="M138 23C74.52 23 23 74.52 23 138C23 201.48 74.52 253 138 253C201.48 253 253 201.48 253 138C253 74.52 201.48 23 138 23ZM149.5 60.95L165.025 50.025C185.955 56.465 203.78 70.265 215.395 88.435L210.91 103.845L195.385 109.135L149.5 77.05V60.95ZM110.975 50.025L126.5 60.95V77.05L80.615 109.135L65.09 103.845L60.605 88.435C72.22 70.38 90.045 56.58 110.975 50.025ZM81.42 196.765L68.31 197.915C54.395 181.815 46 160.885 46 138C46 136.62 46.115 135.355 46.23 133.975L57.73 125.58L73.6 131.1L90.39 181.01L81.42 196.765ZM166.75 225.285C157.665 228.275 148.005 230 138 230C127.995 230 118.335 228.275 109.25 225.285L101.315 208.15L108.675 195.5H167.44L174.8 208.265L166.75 225.285ZM164.105 172.5H111.895L96.37 126.27L138 97.06L179.745 126.27L164.105 172.5ZM207.69 197.915L194.58 196.765L185.495 181.01L202.285 131.1L218.27 125.695L229.77 134.09C229.885 135.355 230 136.62 230 138C230 160.885 221.605 181.815 207.69 197.915Z" fill="#E7DFDF"/>
</svg>
