<svg width="112" height="135" viewBox="0 0 112 135" fill="none" xmlns="http://www.w3.org/2000/svg">
<path d="M101.839 59.6279C98.1413 59.5566 94.9569 61.8778 93.759 65.1707C92.1076 66.0059 88.4371 66.5781 80.2876 65.1725C76.3045 64.4856 74.7023 61.9718 74.0837 60.4254C73.7597 58.0277 73.1461 55.681 72.2621 53.4392C72.1548 52.1494 72.1802 49.5064 73.9446 48.1631C77.4712 45.4784 78.939 44.987 79.5473 45.0112C79.6813 45.105 79.8235 45.184 79.9714 45.2478L79.9735 45.2516L79.9728 45.2484C80.7191 45.5696 81.6091 45.5033 82.3166 44.9953C83.393 44.2224 83.6394 42.7196 82.867 41.6388C82.0946 40.558 80.5959 40.3085 79.5196 41.0814C78.7533 41.6316 78.4077 42.5516 78.5507 43.426C78.2052 44.0787 76.9149 45.2287 72.7221 46.9989C70.8582 47.7859 69.0041 46.7393 67.9831 45.9625C65.8567 43.2484 63.2336 40.8733 60.1687 38.9899C59.4677 37.6659 58.9253 35.9278 59.5004 34.2101C60.9011 30.0272 62.1478 28.2011 63.05 27.4236C65.4796 28.0232 68.0553 26.8002 69.0822 24.4243C70.2286 21.7719 69.0106 18.687 66.3618 17.534C63.713 16.3809 60.6363 17.5964 59.4899 20.2488C58.584 22.3449 59.1546 24.7111 60.7411 26.1805C60.8272 27.3329 60.2854 29.5824 57.5639 33.9302C56.7059 35.3009 55.3553 35.9 54.1055 36.1399C48.8553 34.3551 43.3779 34.1295 38.2349 35.2622C35.8001 35.4772 30.2488 35.4942 27.3093 31.7037C22.7469 25.8206 21.3271 22.3432 21.0621 20.3283C24.1882 17.4493 24.8757 12.6416 22.4821 8.94779C19.8132 4.82894 14.3242 3.65472 10.2221 6.32509C6.12005 8.99546 4.95825 14.4992 7.62718 18.6181C9.74037 21.8793 13.6215 23.2945 17.1823 22.4169C18.889 23.3981 21.5424 26.2954 25.1047 34.1851C26.5317 37.3453 25.4934 40.462 24.272 42.625C21.6316 45.1091 19.4042 48.1233 17.7646 51.605C13.2836 61.1204 14.2784 71.8209 19.4697 80.1351L19.3052 79.9835C19.3052 79.9835 22.1536 85.5921 19.4442 89.3734C16.2028 93.8971 14.0213 95.635 12.6445 96.2364C9.93548 94.6108 6.37622 95.1269 4.25711 97.6089C1.89042 100.381 2.21631 104.555 4.98499 106.932C7.75367 109.31 11.9167 108.99 14.2834 106.218C16.1548 104.026 16.3427 100.957 14.9706 98.5936C15.2948 97.1714 16.7833 94.6605 21.6771 90.4323C24.0069 88.4193 27.0389 88.9447 28.8374 89.5378C29.8329 90.164 30.876 90.738 31.9648 91.2542C33.6065 92.0327 35.2832 92.6474 36.9766 93.1049C37.4794 94.0215 38.4361 96.3785 37.5724 99.9694C35.6315 108.039 34.7221 109.909 34.3571 110.315C34.2963 110.342 34.2361 110.372 34.1768 110.405L34.1493 110.401C34.1493 110.401 34.1505 110.402 34.1529 110.404C34.1553 110.407 34.1589 110.41 34.1638 110.412C33.4921 110.789 32.9297 111.499 32.7415 112.302C32.4673 113.471 33.0909 114.394 34.1344 114.364C35.178 114.333 36.2462 113.36 36.5204 112.191C36.7286 111.303 36.4194 110.557 35.8019 110.263C35.7816 109.37 36.2588 106.783 38.8571 99.3725C39.9498 96.2559 41.6484 94.7283 42.6568 94.0571C45.6685 94.2627 48.6686 94.0022 51.5563 93.3119C54.529 94.0239 57.8248 95.5214 59.7189 98.6349C64.5366 106.554 65.805 111.055 65.8503 113.584C61.5784 116.702 60.053 122.552 62.4958 127.458C65.2191 132.928 71.8434 135.155 77.2916 132.432C82.7397 129.708 84.9486 123.066 82.2253 117.596C80.0695 113.266 75.4694 110.968 70.9432 111.549C68.9698 110.096 66.0938 106.139 62.7936 95.8775C61.6783 92.4095 62.73 89.2277 64.1758 86.8149C66.2728 84.9862 68.1355 82.8394 69.6841 80.4029C70.5205 80.2363 71.4151 80.2494 72.2548 80.6348C76.2429 82.465 77.3901 83.5269 77.6733 84.081C77.5535 85.0685 78.0579 86.0684 78.9997 86.5327C80.1897 87.1193 81.6274 86.6289 82.2109 85.4373C82.7944 84.2457 82.3027 82.8042 81.1127 82.2175C80.2627 81.7985 79.2864 81.9289 78.5853 82.4718C77.8398 82.4648 76.2149 81.8538 72.6978 79.0062C72.0585 78.4885 71.6851 77.83 71.4805 77.1456L71.5076 77.0882C71.7752 76.5198 72.0234 75.9471 72.2522 75.371C73.1567 73.6178 76.1807 68.5509 81.0635 68.2293C88.1831 67.7603 91.6599 68.5172 93.3564 69.3947C93.9858 73.3672 97.3865 76.4408 101.542 76.5209C106.201 76.6107 110.046 72.9019 110.128 68.237C110.21 63.5722 106.499 59.7177 101.839 59.6279Z" fill="#DEE5EE"/>
<path d="M44.8687 21.812C45.0534 23.1286 44.1402 24.3446 42.829 24.528C41.5178 24.7113 40.305 23.7925 40.1203 22.4759C39.9356 21.1592 40.8488 19.9432 42.16 19.7599C43.4712 19.5766 44.684 20.4953 44.8687 21.812Z" fill="#DEE5EE"/>
<path d="M16.8028 86.582C17.6417 86.4647 18.226 85.6867 18.1078 84.8443C17.9896 84.002 17.2137 83.4142 16.3748 83.5314C15.5359 83.6487 14.9516 84.4267 15.0698 85.2691C15.188 86.1115 15.9639 86.6993 16.8028 86.582Z" fill="#DEE5EE"/>
<path d="M72.4863 90.292C72.5439 90.703 72.2589 91.0826 71.8496 91.1398C71.4403 91.197 71.0617 90.9102 71.0041 90.4992C70.9464 90.0882 71.2315 89.7087 71.6408 89.6515C72.05 89.5942 72.4286 89.881 72.4863 90.292Z" fill="#DEE5EE"/>
<path d="M69.9153 132.12C71.8253 132.543 73.8126 132.447 75.6718 131.842C77.5309 131.237 79.1944 130.145 80.4901 128.68L80.3426 128.549C79.0702 129.988 77.4366 131.06 75.6108 131.654C73.7849 132.248 71.8332 132.342 69.9576 131.927L69.9153 132.12Z" fill="#4B5D6B"/>
<path d="M7.70679 107.409C8.85491 107.663 10.0496 107.606 11.1672 107.242C12.2848 106.879 13.2847 106.222 14.0636 105.341L13.975 105.263C13.2101 106.128 12.2281 106.772 11.1305 107.129C10.0329 107.486 8.85971 107.543 7.73218 107.293L7.70679 107.409Z" fill="#4B5D6B"/>
<path d="M12.7907 20.8348C14.3338 21.1764 15.9394 21.0989 17.4414 20.6103C18.9435 20.1217 20.2875 19.2397 21.3343 18.0556L21.2151 17.9499C20.1871 19.1128 18.8673 19.9789 17.3922 20.4588C15.917 20.9386 14.3402 21.0147 12.8248 20.6792L12.7907 20.8348Z" fill="#4B5D6B"/>
<path d="M69.7375 130.936C72.3842 131.522 75.1525 131.107 77.5094 129.77L77.4344 129.637C75.1102 130.956 72.3802 131.365 69.7701 130.787L69.7375 130.936Z" fill="#4B5D6B"/>
<path d="M7.02787 106.906C8.61889 107.259 10.283 107.009 11.6998 106.205L11.6547 106.126C10.2575 106.918 8.61646 107.164 7.04748 106.817L7.02787 106.906Z" fill="#4B5D6B"/>
<path d="M12.7633 19.5972C14.9016 20.0708 17.1382 19.7353 19.0424 18.6554L18.9818 18.5483C17.104 19.6133 14.8984 19.9442 12.7896 19.4771L12.7633 19.5972Z" fill="#4B5D6B"/>
<path d="M99.414 75.7129C100.882 76.038 102.41 75.9643 103.839 75.4994C105.268 75.0345 106.547 74.1954 107.543 73.0688L107.429 72.9682C106.451 74.0746 105.195 74.8987 103.792 75.3552C102.388 75.8117 100.888 75.8841 99.4465 75.5649L99.414 75.7129Z" fill="#4B5D6B"/>
<path d="M63.0136 26.8666C63.9231 27.068 64.8695 27.0224 65.7549 26.7343C66.6403 26.4463 67.4325 25.9265 68.0495 25.2285L67.9793 25.1662C67.3733 25.8516 66.5954 26.3622 65.7259 26.645C64.8564 26.9279 63.9269 26.9727 63.0337 26.7749L63.0136 26.8666Z" fill="#4B5D6B"/>
<path d="M80.1029 44.9941C80.5207 45.0866 80.9554 45.0656 81.3621 44.9333C81.7688 44.801 82.1326 44.5622 82.416 44.2417L82.3838 44.213C82.1055 44.5279 81.7481 44.7624 81.3487 44.8923C80.9493 45.0222 80.5224 45.0428 80.1121 44.952L80.1029 44.9941Z" fill="#4B5D6B"/>
<path d="M79.2879 86.2319C79.7057 86.3244 80.1404 86.3034 80.5471 86.1711C80.9538 86.0388 81.3177 85.8 81.6011 85.4794L81.5688 85.4508C81.2905 85.7657 80.9332 86.0002 80.5338 86.1301C80.1344 86.26 79.7075 86.2806 79.2972 86.1898L79.2879 86.2319Z" fill="#4B5D6B"/>
<path d="M33.3568 113.744C33.7746 113.837 34.2093 113.816 34.616 113.684C35.0226 113.551 35.3865 113.312 35.6699 112.992L35.6377 112.963C35.3594 113.278 35.002 113.513 34.6026 113.643C34.2032 113.772 33.7763 113.793 33.366 113.702L33.3568 113.744Z" fill="#4B5D6B"/>
<path d="M99.2207 74.8274C101.255 75.278 103.383 74.9589 105.195 73.9314L105.137 73.8295C103.351 74.8428 101.252 75.1576 99.2457 74.7132L99.2207 74.8274Z" fill="#4B5D6B"/>
<path d="M62.9515 26.3498C64.212 26.629 65.5303 26.4312 66.6527 25.7947L66.617 25.7316C65.5101 26.3593 64.21 26.5543 62.9671 26.279L62.9515 26.3498Z" fill="#4B5D6B"/>
<path d="M80.0415 44.4776C80.6204 44.6058 81.226 44.515 81.7415 44.2226L81.7251 44.1936C81.2167 44.482 80.6196 44.5715 80.0486 44.4451L80.0415 44.4776Z" fill="#4B5D6B"/>
<path d="M79.2268 85.7153C79.8058 85.8435 80.4113 85.7527 80.9269 85.4603L80.9104 85.4313C80.402 85.7196 79.8049 85.8092 79.234 85.6828L79.2268 85.7153Z" fill="#4B5D6B"/>
<path d="M33.2954 113.228C33.8744 113.356 34.4799 113.265 34.9955 112.973L34.979 112.944C34.4706 113.232 33.8735 113.322 33.3026 113.195L33.2954 113.228Z" fill="#4B5D6B"/>
<ellipse cx="45.1405" cy="64.7835" rx="25.2753" ry="25.3433" fill="white"/>
<g clip-path="url(#clip0)">
<path d="M55.1086 68.9588L53.3323 68.4373L49.4678 65.9131V65.3348C50.5867 64.4908 51.355 63.2008 51.4978 61.7221C52.059 61.6318 52.4889 61.1442 52.4889 60.558V58.9676C52.4889 58.9614 52.4883 58.9554 52.488 58.9493V56.9346C52.7115 56.7745 52.8534 56.5138 52.8534 56.2213V54.3776L55.5204 53.9233C55.9587 53.8486 56.2739 53.5005 56.3049 53.057C56.3357 52.6135 56.0719 52.225 55.6482 52.0903L46.6574 49.2306C46.4698 49.1709 46.2717 49.1709 46.0842 49.2305L37.0933 52.0903C36.6696 52.225 36.4057 52.6135 36.4366 53.057C36.4563 53.3387 36.5909 53.5817 36.7988 53.7408V56.1518H36.7768C36.2705 56.1518 35.8586 56.5637 35.8586 57.07V58.2668L35.2659 61.7457C35.1634 62.3474 35.6269 62.8981 36.2387 62.8981H38.2455C38.8559 62.8981 39.321 62.3487 39.2183 61.7456L38.6256 58.2668V57.07C38.6256 56.5637 38.2137 56.1518 37.7074 56.1518H37.6854V54.0023L39.89 54.3778V56.2213C39.89 56.5125 40.0312 56.7729 40.2537 56.9332L40.2545 58.9678V60.558C40.2545 61.1442 40.6844 61.6318 41.2456 61.7221C41.3883 63.2 42.1559 64.4894 43.2737 65.3334V65.9145L39.41 68.4381L37.6351 68.9591C35.7359 69.5165 34.3949 71.2602 34.3949 73.287V74.6083C34.3949 74.8531 34.5933 75.0516 34.8382 75.0516C35.0831 75.0516 35.2816 74.8532 35.2816 74.6083V73.287C35.2816 71.6896 36.352 70.2597 37.8849 69.8098L39.5386 69.3244L46.1453 73.2502C46.2795 73.3299 46.4569 73.3342 46.5983 73.2502L53.2054 69.3242L54.859 69.8096C56.3916 70.2596 57.462 71.6894 57.462 73.2867V77.5687C57.462 78.1179 57.0152 78.5647 56.466 78.5647H54.5119V76.6537C54.5119 76.4089 54.3135 76.2104 54.0686 76.2104C53.8237 76.2104 53.6252 76.4088 53.6252 76.6537V78.5647H39.1162V76.6537C39.1162 76.4089 38.9178 76.2104 38.6729 76.2104C38.428 76.2104 38.2296 76.4088 38.2296 76.6537V78.5647H36.2775C35.7283 78.5647 35.2815 78.1179 35.2815 77.5687V76.6807C35.2815 76.4359 35.083 76.2374 34.8381 76.2374C34.5932 76.2374 34.3948 76.4358 34.3948 76.6807V77.5686C34.3948 78.6068 35.2393 79.4513 36.2774 79.4513H56.4659C57.504 79.4513 58.3485 78.6068 58.3485 77.5686V73.2867C58.3485 71.3076 57.0533 69.5298 55.1086 68.9588V68.9588ZM38.2454 62.0115H36.2387C36.1767 62.0115 36.1294 61.9561 36.1399 61.8945L36.676 58.7476H37.808L38.3442 61.8945C38.3546 61.9559 38.3077 62.0115 38.2454 62.0115V62.0115ZM37.7389 57.07V57.861H36.7451V57.07C36.7451 57.0526 36.7593 57.0385 36.7767 57.0385H37.7072C37.7247 57.0384 37.7389 57.0526 37.7389 57.07V57.07ZM44.7861 71.2448L44.9626 71.516L40.4364 68.8266L43.3093 66.9501C43.4396 68.4787 43.9435 69.9497 44.7861 71.2448ZM44.783 69.331C45.8266 69.4793 46.9162 69.4794 47.9603 69.331C47.7586 69.8275 47.51 70.3065 47.2141 70.7613L46.3717 72.0561L45.5293 70.7613C45.2334 70.3065 44.9848 69.8275 44.783 69.331V69.331ZM47.9573 71.2448C48.7999 69.9497 49.3038 68.4787 49.434 66.9501L52.3069 68.8265L47.7808 71.516L47.9573 71.2448ZM50.5506 57.0997H51.6014V58.5242H51.0798C50.788 58.5242 50.5505 58.2868 50.5505 57.995V57.0997H50.5506ZM37.362 52.9352L46.353 50.0754C46.3645 50.0717 46.377 50.0717 46.3887 50.0754L55.3796 52.9352C55.3982 52.9412 55.4237 52.9492 55.4204 52.9954C55.4172 53.0415 55.3909 53.0459 55.3716 53.0492L52.399 53.5555L51.2829 53.4175C51.0401 53.3874 50.8186 53.5601 50.7886 53.8031C50.7585 54.0461 50.9312 54.2674 51.1741 54.2974L51.9668 54.3955V56.2131L40.7766 56.2127V54.3954L45.3641 53.8278C46.0323 53.7452 46.7098 53.7452 47.3775 53.8278L49.1138 54.0425C49.3567 54.0726 49.5781 53.9 49.6082 53.657C49.6383 53.414 49.4656 53.1927 49.2227 53.1626L47.4864 52.9478C46.7465 52.8563 45.9957 52.8563 45.2553 52.9478L40.3434 53.5556L37.3699 53.0492C37.3506 53.0459 37.3243 53.0415 37.3211 52.9954C37.3179 52.9492 37.3434 52.9411 37.362 52.9352V52.9352ZM41.1409 58.5242L41.1403 57.0997H42.1928V57.995C42.1928 58.2868 41.9554 58.5242 41.6635 58.5242H41.1409V58.5242ZM42.1167 61.4942C42.0939 61.1332 41.7938 60.8504 41.4336 60.8504C41.2723 60.8504 41.1411 60.7192 41.1411 60.5579V59.4109H41.6635C42.4442 59.4109 43.0794 58.7757 43.0794 57.995V57.0997H49.6639V57.995C49.6639 58.7757 50.2991 59.4109 51.0798 59.4109H51.6022V60.5579C51.6022 60.7192 51.471 60.8504 51.3097 60.8504C50.9495 60.8504 50.6495 61.1332 50.6267 61.4943C50.4854 63.7328 48.6164 65.4864 46.3716 65.4864C44.1268 65.4864 42.2579 63.7328 42.1167 61.4942V61.4942ZM46.3717 66.373C47.1602 66.373 47.9096 66.1927 48.5812 65.8721V66.1531C48.5812 66.9111 48.4789 67.6588 48.282 68.38C47.0772 68.6097 45.7151 68.619 44.4614 68.38C44.2645 67.6589 44.1622 66.9112 44.1622 66.1531C44.1622 66.1437 44.1609 66.1345 44.1603 66.1253C44.1602 66.1234 44.1604 66.1216 44.1602 66.1198V65.8713C44.8323 66.1924 45.5824 66.373 46.3717 66.373V66.373Z" fill="#4B5D6B"/>
</g>
<defs>
<clipPath id="clip0">
<rect width="30.2655" height="30.2655" fill="white" transform="translate(31.239 49.1858)"/>
</clipPath>
</defs>
</svg>
