<svg width="103" height="111" viewBox="0 0 103 111" fill="none" xmlns="http://www.w3.org/2000/svg">
<g clip-path="url(#clip0)">
<path fill-rule="evenodd" clip-rule="evenodd" d="M93.9486 39.1213C90.3837 39.0526 87.314 41.2902 86.1592 44.4644C84.5672 45.2696 81.029 45.8212 73.1727 44.4662C69.3332 43.804 67.7886 41.3809 67.1922 39.8901C66.8799 37.5786 66.2883 35.3163 65.4361 33.1551C65.3327 31.9117 65.3573 29.3642 67.0581 28.0694C70.4579 25.4812 71.8727 25.0075 72.4591 25.031C72.5882 25.1213 72.7253 25.1974 72.8678 25.2589L72.8699 25.2627L72.8693 25.2595C73.5886 25.5692 74.4466 25.5053 75.1286 25.0155C76.1663 24.2704 76.4038 22.8218 75.6592 21.7799C74.9147 20.738 73.4699 20.4974 72.4323 21.2425C71.6936 21.7729 71.3604 22.6599 71.4983 23.5028C71.1653 24.132 69.9215 25.2406 65.8795 26.9471C64.0829 27.7056 62.2958 26.697 61.3115 25.9482C59.2616 23.3317 56.7329 21.0421 53.7783 19.2265C53.1026 17.9502 52.5795 16.2745 53.134 14.6185C54.4842 10.5862 55.6861 8.82587 56.5558 8.07633C58.8979 8.65428 61.3808 7.47537 62.3707 5.18503C63.4759 2.62813 62.3017 -0.345717 59.7483 -1.45724C57.1948 -2.56877 54.229 -1.39706 53.1238 1.15984C52.2505 3.18049 52.8006 5.46155 54.33 6.87805C54.413 7.98896 53.8907 10.1575 51.2672 14.3487C50.44 15.6702 49.1379 16.2477 47.9329 16.4789C42.8721 14.7585 37.5923 14.5411 32.6346 15.6327C30.2879 15.8401 24.9357 15.8569 22.1018 12.2025C17.7036 6.53113 16.335 3.17888 16.0795 1.23654C19.0931 -1.53874 19.7558 -6.17341 17.4485 -9.7343C14.8756 -13.7049 9.58425 -14.8368 5.62986 -12.2626C1.67546 -9.68834 0.555494 -4.38274 3.12834 -0.412174C5.16541 2.73156 8.90668 4.09581 12.3392 3.24997C13.9845 4.19573 16.5424 6.98872 19.9766 14.5945C21.3522 17.6411 20.3512 20.6457 19.1737 22.7308C16.6284 25.1254 14.4813 28.031 12.9008 31.3874C8.58116 40.5601 9.54009 50.8753 14.5445 58.8901L14.3858 58.7441C14.3858 58.7441 17.1317 64.1507 14.5199 67.7959C11.3952 72.1567 9.29218 73.832 7.96492 74.4118C5.35347 72.8447 1.92235 73.3423 -0.12045 75.7349C-2.40193 78.407 -2.08778 82.431 0.58122 84.7227C3.25023 87.0143 7.26338 86.7059 9.54486 84.0337C11.3489 81.9208 11.53 78.9627 10.2073 76.6841C10.5198 75.3131 11.9548 72.8927 16.6724 68.8166C18.9182 66.8762 21.8409 67.3825 23.5747 67.9543C24.5344 68.5581 25.5401 69.1114 26.5897 69.6091C28.1723 70.3595 29.7887 70.9521 31.4211 71.3932C31.9058 72.2768 32.8279 74.5489 31.9953 78.0103C30.1242 85.7898 29.2475 87.5927 28.8958 87.9832C28.8372 88.0097 28.7792 88.0387 28.722 88.0703L28.6955 88.0659C28.6955 88.0659 28.6999 88.072 28.7095 88.0773C28.062 88.44 27.5198 89.1246 27.3383 89.8986C27.074 91.026 27.6752 91.916 28.6811 91.8866C29.6871 91.8571 30.7169 90.9193 30.9812 89.7918C31.1819 88.9361 30.8839 88.217 30.2886 87.9331C30.269 87.0729 30.729 84.5788 33.2338 77.4349C34.2871 74.4308 35.9244 72.9581 36.8965 72.311C39.7999 72.5092 42.6921 72.2581 45.476 71.5926C48.3416 72.279 51.5187 73.7226 53.3446 76.724C57.9888 84.3578 59.2115 88.6964 59.2552 91.1344C55.1371 94.1408 53.6666 99.7796 56.0214 104.51C58.6467 109.783 65.0325 111.929 70.2845 109.304C75.5366 106.679 77.6659 100.276 75.0406 95.0025C72.9624 90.8283 68.5279 88.6133 64.1647 89.1735C62.2624 87.7723 59.4899 83.9579 56.3086 74.0658C55.2334 70.7228 56.2473 67.6556 57.6409 65.3297C59.6625 63.5668 61.4582 61.4972 62.9511 59.1484C63.7574 58.9878 64.6198 59.0004 65.4292 59.3719C69.2736 61.1362 70.3796 62.1599 70.6526 62.694C70.5371 63.646 71.0234 64.6098 71.9313 65.0574C73.0784 65.6229 74.4644 65.1502 75.0269 64.0015C75.5893 62.8528 75.1153 61.4631 73.9682 60.8976C73.1488 60.4936 72.2076 60.6194 71.5317 61.1428C70.813 61.1359 69.2466 60.5469 65.8563 57.8019C65.24 57.3029 64.8801 56.6681 64.6828 56.0083L64.7089 55.953C64.9671 55.4047 65.2064 54.8524 65.4271 54.2966C66.2996 52.6057 69.2146 47.7229 73.9208 47.4129C80.784 46.9608 84.1356 47.6905 85.7711 48.5364C86.3778 52.3659 89.656 55.3289 93.6617 55.4061C98.1537 55.4927 101.859 51.9174 101.939 47.4205C102.018 42.9235 98.4406 39.2079 93.9486 39.1213ZM39.029 2.66687C39.2071 3.93613 38.3267 5.10834 37.0627 5.28507C35.7987 5.4618 34.6296 4.57613 34.4515 3.30687C34.2735 2.0376 35.1538 0.865395 36.4178 0.688663C37.6818 0.511935 38.8509 1.39761 39.029 2.66687ZM11.9737 65.105C12.7824 64.9919 13.3456 64.2419 13.2316 63.4299C13.1177 62.6178 12.3698 62.0512 11.5611 62.1642C10.7524 62.2773 10.1891 63.0273 10.3031 63.8393C10.417 64.6514 11.1649 65.218 11.9737 65.105ZM65.6522 68.6815C65.7078 69.0777 65.433 69.4436 65.0385 69.4988C64.6439 69.5539 64.279 69.2775 64.2234 68.8813C64.1678 68.4851 64.4426 68.1192 64.8372 68.064C65.2317 68.0089 65.5966 68.2853 65.6522 68.6815Z" fill="#4B5D6B"/>
<path d="M63.1741 109.003C65.0152 109.411 66.931 109.318 68.7233 108.735C70.5155 108.152 72.1191 107.1 73.3681 105.687L73.2259 105.561C71.9993 106.949 70.4245 107.982 68.6644 108.555C66.9044 109.127 65.0229 109.218 63.2148 108.818L63.1741 109.003Z" fill="white"/>
<path d="M3.20495 85.1822C4.31173 85.4272 5.46338 85.3716 6.54075 85.0212C7.61811 84.6707 8.58207 84.0381 9.33289 83.1888L9.24746 83.113C8.5101 83.947 7.56344 84.5683 6.50539 84.9125C5.44735 85.2566 4.31636 85.3112 3.22942 85.0706L3.20495 85.1822Z" fill="white"/>
<path d="M8.10585 1.72467C9.59337 2.05403 11.1412 1.97933 12.5892 1.50831C14.0372 1.0373 15.3327 0.187067 16.3418 -0.954414L16.227 -1.05633C15.236 0.0646775 13.9637 0.899657 12.5417 1.36223C11.1196 1.8248 9.59958 1.89815 8.13874 1.57471L8.10585 1.72467Z" fill="white"/>
<path d="M63.0026 107.862C65.554 108.427 68.2227 108.026 70.4947 106.738L70.4224 106.61C68.1819 107.881 65.5502 108.276 63.0341 107.718L63.0026 107.862Z" fill="white"/>
<path d="M2.5506 84.6972C4.08433 85.0369 5.68854 84.7963 7.05431 84.0217L7.01086 83.9449C5.66399 84.7088 4.082 84.9461 2.5695 84.611L2.5506 84.6972Z" fill="white"/>
<path d="M8.07948 0.531795C10.1408 0.988375 12.2969 0.664987 14.1325 -0.376097L14.0741 -0.479286C12.2639 0.547385 10.1377 0.866296 8.10488 0.416037L8.07948 0.531795Z" fill="white"/>
<path d="M91.6106 54.6271C93.0258 54.9405 94.4985 54.8694 95.8761 54.4213C97.2538 53.9732 98.4864 53.1642 99.4465 52.0782L99.3372 51.9812C98.3944 53.0478 97.1839 53.8422 95.8309 54.2823C94.478 54.7224 93.0318 54.7922 91.6419 54.4845L91.6106 54.6271Z" fill="white"/>
<path d="M56.5206 7.53932C57.3975 7.73346 58.3098 7.68943 59.1633 7.41179C60.0168 7.13415 60.7805 6.63299 61.3753 5.96015L61.3076 5.90007C60.7235 6.56085 59.9735 7.05302 59.1353 7.32568C58.2971 7.59834 57.4011 7.64158 56.54 7.45092L56.5206 7.53932Z" fill="white"/>
<path d="M72.9947 25.0142C73.3974 25.1034 73.8165 25.0832 74.2085 24.9556C74.6005 24.8281 74.9513 24.5979 75.2245 24.2889L75.1934 24.2613C74.9251 24.5648 74.5807 24.7909 74.1956 24.9161C73.8106 25.0413 73.3991 25.0612 73.0036 24.9736L72.9947 25.0142Z" fill="white"/>
<path d="M72.2093 64.7674C72.6121 64.8566 73.0311 64.8363 73.4232 64.7088C73.8152 64.5813 74.166 64.3511 74.4392 64.042L74.4081 64.0144C74.1398 64.318 73.7953 64.544 73.4103 64.6693C73.0253 64.7945 72.6137 64.8144 72.2182 64.7268L72.2093 64.7674Z" fill="white"/>
<path d="M27.9315 91.2894C28.3343 91.3785 28.7533 91.3583 29.1454 91.2308C29.5374 91.1033 29.8882 90.8731 30.1614 90.564L30.1303 90.5364C29.862 90.8399 29.5175 91.066 29.1325 91.1912C28.7475 91.3165 28.336 91.3363 27.9404 91.2488L27.9315 91.2894Z" fill="white"/>
<path d="M91.4242 53.7737C93.3854 54.2081 95.4368 53.9004 97.1832 52.9099L97.1277 52.8117C95.4054 53.7885 93.3825 54.0919 91.4484 53.6635L91.4242 53.7737Z" fill="white"/>
<path d="M56.461 7.04117C57.6761 7.3103 58.9469 7.11968 60.0289 6.50602L59.9945 6.4452C58.9275 7.05036 57.6742 7.23834 56.476 6.97294L56.461 7.04117Z" fill="white"/>
<path d="M72.9355 24.5164C73.4936 24.64 74.0773 24.5525 74.5743 24.2706L74.5585 24.2426C74.0684 24.5206 73.4927 24.607 72.9424 24.4851L72.9355 24.5164Z" fill="white"/>
<path d="M72.1502 64.2693C72.7083 64.3929 73.292 64.3054 73.789 64.0235L73.7732 63.9956C73.2831 64.2735 72.7074 64.3599 72.157 64.238L72.1502 64.2693Z" fill="white"/>
<path d="M27.8724 90.7913C28.4305 90.9149 29.0143 90.8274 29.5113 90.5455L29.4955 90.5176C29.0054 90.7955 28.4297 90.8819 27.8793 90.76L27.8724 90.7913Z" fill="white"/>
<ellipse cx="39.2913" cy="44.091" rx="24.3653" ry="24.4309" fill="#F8F8F8"/>
<g clip-path="url(#clip1)">
<path d="M47.8697 48.773L46.0934 48.2515L42.2289 45.7273V45.149C43.3477 44.305 44.1161 43.015 44.2589 41.5363C44.82 41.446 45.25 40.9584 45.25 40.3722V38.7818C45.25 38.7756 45.2493 38.7696 45.249 38.7635V36.7488C45.4726 36.5887 45.6145 36.328 45.6145 36.0355V34.1918L48.2814 33.7375C48.7197 33.6629 49.0349 33.3147 49.0659 32.8712C49.0968 32.4277 48.8329 32.0392 48.4093 31.9045L39.4185 29.0448C39.2309 28.9851 39.0327 28.9851 38.8452 29.0447L29.8543 31.9045C29.4306 32.0392 29.1668 32.4277 29.1977 32.8712C29.2173 33.1529 29.352 33.3959 29.5598 33.555V35.966H29.5378C29.0315 35.966 28.6196 36.3779 28.6196 36.8842V38.081L28.0269 41.5599C27.9245 42.1616 28.3879 42.7123 28.9997 42.7123H31.0065C31.617 42.7123 32.082 42.1629 31.9793 41.5598L31.3866 38.081V36.8842C31.3866 36.3779 30.9747 35.966 30.4684 35.966H30.4465V33.8165L32.651 34.192V36.0355C32.651 36.3267 32.7922 36.5871 33.0147 36.7474L33.0156 38.782V40.3722C33.0156 40.9584 33.4455 41.446 34.0066 41.5363C34.1494 43.0142 34.9169 44.3036 36.0347 45.1476V45.7287L32.171 48.2524L30.3962 48.7733C28.497 49.3307 27.1559 51.0744 27.1559 53.1012V54.4225C27.1559 54.6673 27.3544 54.8658 27.5993 54.8658C27.8442 54.8658 28.0426 54.6674 28.0426 54.4225V53.1012C28.0426 51.5038 29.1131 50.0739 30.6459 49.6241L32.2997 49.1386L38.9064 53.0644C39.0405 53.1441 39.218 53.1484 39.3593 53.0644L45.9665 49.1384L47.62 49.6238C49.1526 50.0738 50.2231 51.5036 50.2231 53.1009V57.3829C50.2231 57.9321 49.7763 58.3789 49.227 58.3789H47.273V56.468C47.273 56.2231 47.0745 56.0246 46.8296 56.0246C46.5848 56.0246 46.3863 56.2231 46.3863 56.468V58.3789H31.8773V56.468C31.8773 56.2231 31.6789 56.0246 31.434 56.0246C31.1891 56.0246 30.9906 56.2231 30.9906 56.468V58.3789H29.0385C28.4893 58.3789 28.0425 57.9321 28.0425 57.3829V56.4949C28.0425 56.2501 27.8441 56.0516 27.5992 56.0516C27.3543 56.0516 27.1558 56.25 27.1558 56.4949V57.3828C27.1558 58.421 28.0004 59.2655 29.0385 59.2655H49.2269C50.2651 59.2655 51.1096 58.421 51.1096 57.3828V53.1009C51.1096 51.1218 49.8143 49.344 47.8697 48.773V48.773ZM31.0065 41.8257H28.9997C28.9377 41.8257 28.8904 41.7703 28.9009 41.7087L29.4371 38.5618H30.5691L31.1052 41.7087C31.1157 41.7701 31.0688 41.8257 31.0065 41.8257V41.8257ZM30.4999 36.8842V37.6752H29.5062V36.8842C29.5062 36.8668 29.5203 36.8527 29.5378 36.8527H30.4683C30.4858 36.8526 30.4999 36.8668 30.4999 36.8842V36.8842ZM37.5472 51.059L37.7236 51.3302L33.1975 48.6408L36.0704 46.7643C36.2007 48.2929 36.7045 49.7639 37.5472 51.059ZM37.5441 49.1452C38.5876 49.2935 39.6773 49.2936 40.7214 49.1452C40.5196 49.6417 40.271 50.1207 39.9751 50.5755L39.1327 51.8703L38.2903 50.5755C37.9945 50.1207 37.7458 49.6417 37.5441 49.1452V49.1452ZM40.7183 51.059C41.561 49.7639 42.0648 48.2929 42.195 46.7643L45.068 48.6407L40.5419 51.3302L40.7183 51.059ZM43.3116 36.9139H44.3624V38.3384H43.8409C43.549 38.3384 43.3116 38.101 43.3116 37.8092V36.9139H43.3116ZM30.123 32.7494L39.1141 29.8896C39.1256 29.8859 39.138 29.8859 39.1497 29.8897L48.1407 32.7494C48.1592 32.7554 48.1847 32.7634 48.1815 32.8096C48.1782 32.8557 48.1519 32.8601 48.1326 32.8634L45.16 33.3697L44.044 33.2317C43.8011 33.2016 43.5797 33.3743 43.5496 33.6173C43.5196 33.8603 43.6922 34.0816 43.9352 34.1116L44.7279 34.2097V36.0273L33.5376 36.0269V34.2096L38.1252 33.642C38.7934 33.5594 39.4708 33.5594 40.1385 33.642L41.8748 33.8567C42.1178 33.8868 42.3392 33.7142 42.3693 33.4712C42.3993 33.2282 42.2267 33.0069 41.9837 32.9768L40.2474 32.762C39.5075 32.6705 38.7568 32.6705 38.0163 32.762L33.1045 33.3698L30.1309 32.8634C30.1117 32.8601 30.0854 32.8557 30.0821 32.8096C30.0789 32.7634 30.1044 32.7553 30.123 32.7494V32.7494ZM33.902 38.3384L33.9014 36.9139H34.9539V37.8092C34.9539 38.101 34.7165 38.3385 34.4246 38.3385H33.902V38.3384ZM34.8777 41.3084C34.8549 40.9474 34.5548 40.6646 34.1947 40.6646C34.0334 40.6646 33.9021 40.5334 33.9021 40.3722V39.2251H34.4246C35.2053 39.2251 35.8405 38.5899 35.8405 37.8092V36.9139H42.4249V37.8092C42.4249 38.5899 43.0602 39.2251 43.8409 39.2251H44.3633V40.3722C44.3633 40.5334 44.2321 40.6646 44.0707 40.6646C43.7106 40.6646 43.4105 40.9474 43.3877 41.3085C43.2465 43.547 41.3775 45.3006 39.1327 45.3006C36.8879 45.3006 35.0189 43.547 34.8777 41.3084V41.3084ZM39.1327 46.1872C39.9212 46.1872 40.6707 46.0069 41.3422 45.6863V45.9673C41.3422 46.7253 41.24 47.473 41.0431 48.1942C39.8382 48.4239 38.4761 48.4332 37.2224 48.1942C37.0255 47.4731 36.9232 46.7254 36.9232 45.9673C36.9232 45.9579 36.9219 45.9487 36.9213 45.9395C36.9212 45.9376 36.9214 45.9358 36.9213 45.934V45.6855C37.5933 46.0066 38.3435 46.1872 39.1327 46.1872V46.1872Z" fill="#4B5D6B"/>
</g>
</g>
<defs>
<clipPath id="clip0">
<rect width="103" height="111" fill="white"/>
</clipPath>
<clipPath id="clip1">
<rect width="30.2655" height="30.2655" fill="white" transform="translate(24 29)"/>
</clipPath>
</defs>
</svg>
