<svg width="40" height="40" viewBox="0 0 40 40" fill="none" xmlns="http://www.w3.org/2000/svg">
<g clip-path="url(#clip0)">
<path d="M31.5471 26.1327L29.1995 25.4434L24.092 22.1074V21.343C25.5707 20.2276 26.5862 18.5227 26.775 16.5684C27.5166 16.449 28.0848 15.8046 28.0848 15.0299V12.9279C28.0848 12.9198 28.0839 12.9118 28.0836 12.9037V10.2411C28.379 10.0295 28.5665 9.68488 28.5665 9.29832V6.8616L32.0913 6.26121C32.6706 6.16254 33.0871 5.70246 33.1281 5.11629C33.1689 4.53011 32.8202 4.01668 32.2603 3.83863L20.3777 0.0590991C20.1297 -0.0198071 19.8679 -0.019729 19.62 0.059021L7.7373 3.83863C7.17738 4.01668 6.82863 4.53011 6.86949 5.11621C6.89543 5.48863 7.0734 5.80972 7.34809 6.02004V9.20652H7.31902C6.64988 9.20652 6.10551 9.7509 6.10551 10.42V12.0018L5.32215 16.5996C5.18676 17.3948 5.79926 18.1227 6.60785 18.1227H9.26012C10.0669 18.1227 10.6815 17.3965 10.5458 16.5995L9.76246 12.0018V10.42C9.76246 9.7509 9.21809 9.20652 8.54895 9.20652H8.51996V6.36566L11.4336 6.86191V9.29832C11.4336 9.68324 11.6202 10.0273 11.9143 10.2392L11.9154 12.9282V15.0299C11.9154 15.8046 12.4836 16.449 13.2252 16.5684C13.4139 18.5216 14.4282 20.2257 15.9056 21.3412V22.1092L10.7992 25.4446L8.45348 26.1331C5.9434 26.8698 4.17105 29.1743 4.17105 31.853V33.5993C4.17105 33.9229 4.43332 34.1852 4.75699 34.1852C5.08066 34.1852 5.34293 33.9229 5.34293 33.5993V31.853C5.34293 29.7418 6.7577 27.852 8.78355 27.2575L10.9692 26.6159L19.7009 31.8044C19.8782 31.9097 20.1127 31.9153 20.2995 31.8044L29.0318 26.6156L31.2171 27.2571C33.2427 27.8518 34.6575 29.7415 34.6575 31.8526V37.5118C34.6575 38.2377 34.0669 38.8282 33.3411 38.8282H30.7585V36.3026C30.7585 35.979 30.4962 35.7167 30.1725 35.7167C29.8489 35.7167 29.5866 35.9789 29.5866 36.3026V38.8282H10.411V36.3026C10.411 35.979 10.1487 35.7167 9.82504 35.7167C9.50137 35.7167 9.2391 35.9789 9.2391 36.3026V38.8282H6.65918C5.93332 38.8282 5.34277 38.2377 5.34277 37.5118V36.3382C5.34277 36.0146 5.08051 35.7523 4.75684 35.7523C4.43316 35.7523 4.1709 36.0146 4.1709 36.3382V37.5118C4.1709 38.8838 5.28707 40 6.6591 40H33.3409C34.7129 40 35.8291 38.8838 35.8291 37.5118V31.8525C35.8291 29.2369 34.1172 26.8873 31.5471 26.1327ZM9.26004 16.9508H6.60785C6.5259 16.9508 6.4634 16.8776 6.4773 16.7963L7.1859 12.6372H8.68199L9.39059 16.7962C9.40441 16.8774 9.34238 16.9508 9.26004 16.9508ZM8.59059 10.42V11.4654H7.27723V10.42C7.27723 10.397 7.2959 10.3783 7.31895 10.3783H8.54879C8.57191 10.3782 8.59059 10.397 8.59059 10.42ZM17.9045 29.1539L18.1377 29.5124L12.1557 25.9579L15.9527 23.4778C16.1249 25.4982 16.7908 27.4423 17.9045 29.1539ZM17.9004 26.6246C19.2796 26.8206 20.7197 26.8207 22.0996 26.6246C21.833 27.2807 21.5044 27.9139 21.1134 28.515L20 30.2262L18.8867 28.515C18.4957 27.9139 18.1671 27.2807 17.9004 26.6246ZM22.0956 29.1539C23.2093 27.4423 23.8752 25.4982 24.0473 23.4778L27.8443 25.9578L21.8624 29.5124L22.0956 29.1539ZM25.523 10.4593H26.9118V12.3419H26.2225C25.8368 12.3419 25.5229 12.0282 25.5229 11.6425V10.4593H25.523ZM8.09246 4.95535L19.9754 1.17566C19.9906 1.17082 20.007 1.17074 20.0225 1.17574L31.9053 4.95535C31.9298 4.96316 31.9635 4.97379 31.9592 5.0348C31.9549 5.09574 31.9201 5.1016 31.8946 5.10597L27.9659 5.77511L26.4909 5.59269C26.17 5.55293 25.8773 5.78121 25.8375 6.1023C25.7979 6.42347 26.0261 6.71597 26.3471 6.75566L27.3948 6.88527V9.28746L12.6054 9.28691V6.88519L18.6684 6.13496C19.5515 6.02582 20.4468 6.02582 21.3293 6.13496L23.6241 6.41879C23.9452 6.45855 24.2378 6.23035 24.2775 5.90926C24.3173 5.58808 24.0891 5.29558 23.768 5.25582L21.4732 4.97199C20.4954 4.85097 19.5032 4.85097 18.5246 4.97199L12.0329 5.77527L8.10293 5.10597C8.07746 5.1016 8.0427 5.09574 8.0384 5.0348C8.03418 4.97379 8.06785 4.96308 8.09246 4.95535ZM13.0868 12.3419L13.0861 10.4593H14.4771V11.6425C14.4771 12.0282 14.1633 12.342 13.7775 12.342H13.0868V12.3419ZM14.3764 16.2672C14.3463 15.7901 13.9497 15.4164 13.4737 15.4164C13.2605 15.4164 13.0871 15.2429 13.0871 15.0298V13.5138H13.7775C14.8093 13.5138 15.6489 12.6743 15.6489 11.6425V10.4593H24.3511V11.6425C24.3511 12.6743 25.1907 13.5138 26.2225 13.5138H26.9129V15.0298C26.9129 15.2429 26.7395 15.4164 26.5263 15.4164C26.0503 15.4164 25.6537 15.7901 25.6236 16.2673C25.4369 19.2258 22.9668 21.5434 20 21.5434C17.0332 21.5434 14.5631 19.2258 14.3764 16.2672ZM20 22.7152C21.0421 22.7152 22.0326 22.4769 22.9202 22.0532V22.4246C22.9202 23.4264 22.785 24.4146 22.5248 25.3677C20.9325 25.6713 19.1322 25.6836 17.4753 25.3677C17.215 24.4146 17.0799 23.4264 17.0799 22.4246C17.0799 22.4121 17.0782 22.4 17.0774 22.3878C17.0772 22.3853 17.0775 22.3829 17.0773 22.3805V22.0521C17.9655 22.4764 18.9569 22.7152 20 22.7152Z" fill="#DEE5EE"/>
</g>
<defs>
<clipPath id="clip0">
<rect width="40" height="40" fill="white"/>
</clipPath>
</defs>
</svg>
