<svg width="40" height="40" viewBox="0 0 40 40" fill="none" xmlns="http://www.w3.org/2000/svg">
<path d="M20.0003 13.3332C21.8413 13.3332 23.3337 11.8408 23.3337 9.99984C23.3337 8.15889 21.8413 6.6665 20.0003 6.6665C18.1594 6.6665 16.667 8.15889 16.667 9.99984C16.667 11.8408 18.1594 13.3332 20.0003 13.3332Z" fill="#FFFFFF"/>
<path d="M35 24.9C35 24.0667 34.4 23.35 33.5833 23.2667C30.45 22.9167 27.7667 21.3833 25.6667 18.8833L23.4333 16.2167C22.8 15.4333 21.8667 15 20.8833 15H19.1333C18.15 15 17.2167 15.4333 16.5833 16.2L14.35 18.8667C12.2667 21.3667 9.56667 22.9 6.43333 23.25C5.6 23.35 5 24.0667 5 24.9C5 25.9 5.88333 26.6833 6.88333 26.5667C10.7167 26.1167 14.0833 24.25 16.6667 21.25V25L10.4 27.5C9.31667 27.9333 8.46667 28.8833 8.35 30.05C8.18333 31.8333 9.56667 33.3333 11.3167 33.3333H15V32.5C15 30.2 16.8667 28.3333 19.1667 28.3333H24.1667C24.6333 28.3333 25 28.7 25 29.1667C25 29.6333 24.6333 30 24.1667 30H19.1667C17.7833 30 16.6667 31.1167 16.6667 32.5V33.3333H28.5C29.9167 33.3333 31.25 32.4333 31.5833 31.05C31.9333 29.5667 31.1333 28.1167 29.7833 27.5833L23.3333 25V21.25C25.9333 24.25 29.2833 26.1 33.1167 26.5667C34.1167 26.6667 35 25.9 35 24.9Z" fill="#FFFFFF"/>
</svg>
