<svg width="40" height="40" viewBox="0 0 40 40" fill="none" xmlns="http://www.w3.org/2000/svg">
<path d="M19.9997 3.3335C10.7997 3.3335 3.33301 10.8002 3.33301 20.0002C3.33301 29.2002 10.7997 36.6668 19.9997 36.6668C29.1997 36.6668 36.6663 29.2002 36.6663 20.0002C36.6663 10.8002 29.1997 3.3335 19.9997 3.3335ZM21.6663 8.8335L23.9163 7.25016C26.9497 8.1835 29.533 10.1835 31.2163 12.8168L30.5663 15.0502L28.3163 15.8168L21.6663 11.1668V8.8335ZM16.083 7.25016L18.333 8.8335V11.1668L11.683 15.8168L9.43301 15.0502L8.78301 12.8168C10.4663 10.2002 13.0497 8.20016 16.083 7.25016ZM11.7997 28.5168L9.89967 28.6835C7.88301 26.3502 6.66634 23.3168 6.66634 20.0002C6.66634 19.8002 6.68301 19.6168 6.69967 19.4168L8.36634 18.2002L10.6663 19.0002L13.0997 26.2335L11.7997 28.5168ZM24.1663 32.6502C22.8497 33.0835 21.4497 33.3335 19.9997 33.3335C18.5497 33.3335 17.1497 33.0835 15.833 32.6502L14.683 30.1668L15.7497 28.3335H24.2663L25.333 30.1835L24.1663 32.6502ZM23.783 25.0002H16.2163L13.9663 18.3002L19.9997 14.0668L26.0497 18.3002L23.783 25.0002ZM30.0997 28.6835L28.1997 28.5168L26.883 26.2335L29.3163 19.0002L31.633 18.2168L33.2997 19.4335C33.3163 19.6168 33.333 19.8002 33.333 20.0002C33.333 23.3168 32.1163 26.3502 30.0997 28.6835Z" fill="#FFFFFF"/>
</svg>
