<svg width="40" height="40" viewBox="0 0 40 40" fill="none" xmlns="http://www.w3.org/2000/svg">
<path d="M8.33366 18.3335H1.66699V36.6668H8.33366V18.3335Z" fill="#FFFFFF"/>
<path d="M26.667 5.41683C27.7503 4.15016 29.4337 3.3335 31.167 3.3335C34.2503 3.3335 36.667 5.75016 36.667 8.8335C36.667 12.6168 31.817 17.0002 26.667 21.6668C21.517 16.9835 16.667 12.6002 16.667 8.8335C16.667 5.75016 19.0837 3.3335 22.167 3.3335C23.9003 3.3335 25.5837 4.15016 26.667 5.41683Z" fill="#FFFFFF"/>
<path d="M33.3337 28.3335H21.667L18.1837 27.1168L18.7337 25.5502L21.667 26.6668H26.367C27.4503 26.6668 28.3337 25.7835 28.3337 24.7002C28.3337 23.8835 27.817 23.1502 27.0503 22.8502L14.9503 18.3335H11.667V33.3668L23.3337 36.6668L36.6837 31.6668C36.667 29.8335 35.1837 28.3335 33.3337 28.3335Z" fill="#FFFFFF"/>
</svg>
