<svg width="40" height="40" viewBox="0 0 40 40" fill="none" xmlns="http://www.w3.org/2000/svg">
<path d="M8.33314 21.9668V26.6501C8.33314 27.8668 8.9998 29.0001 10.0665 29.5835L18.3998 34.1335C19.3998 34.6835 20.5998 34.6835 21.5998 34.1335L29.9331 29.5835C30.9998 29.0001 31.6665 27.8668 31.6665 26.6501V21.9668L21.5998 27.4668C20.5998 28.0168 19.3998 28.0168 18.3998 27.4668L8.33314 21.9668ZM18.3998 5.8668L4.3498 13.5335C3.1998 14.1668 3.1998 15.8335 4.3498 16.4668L18.3998 24.1335C19.3998 24.6835 20.5998 24.6835 21.5998 24.1335L34.9998 16.8168V26.6668C34.9998 27.5835 35.7498 28.3335 36.6665 28.3335C37.5831 28.3335 38.3331 27.5835 38.3331 26.6668V15.9835C38.3331 15.3668 37.9998 14.8168 37.4665 14.5168L21.5998 5.8668C20.5998 5.33346 19.3998 5.33346 18.3998 5.8668Z" fill="#FFFFFF"/>
</svg>
