<svg width="40" height="40" viewBox="0 0 40 40" fill="none" xmlns="http://www.w3.org/2000/svg">
<path d="M19.9997 3.3335C10.8163 3.3335 3.33301 10.8168 3.33301 20.0002C3.33301 29.1835 10.8163 36.6668 19.9997 36.6668C22.2997 36.6668 24.1663 34.8002 24.1663 32.5002C24.1663 31.4835 23.783 30.5002 23.0997 29.7168C22.9663 29.5502 22.883 29.3668 22.883 29.1668C22.883 28.7002 23.2497 28.3335 23.7163 28.3335H26.6663C32.183 28.3335 36.6663 23.8502 36.6663 18.3335C36.6663 10.0668 29.183 3.3335 19.9997 3.3335ZM29.1663 21.6668C27.783 21.6668 26.6663 20.5502 26.6663 19.1668C26.6663 17.7835 27.783 16.6668 29.1663 16.6668C30.5497 16.6668 31.6663 17.7835 31.6663 19.1668C31.6663 20.5502 30.5497 21.6668 29.1663 21.6668ZM24.1663 15.0002C22.783 15.0002 21.6663 13.8835 21.6663 12.5002C21.6663 11.1168 22.783 10.0002 24.1663 10.0002C25.5497 10.0002 26.6663 11.1168 26.6663 12.5002C26.6663 13.8835 25.5497 15.0002 24.1663 15.0002ZM8.33301 19.1668C8.33301 17.7835 9.44967 16.6668 10.833 16.6668C12.2163 16.6668 13.333 17.7835 13.333 19.1668C13.333 20.5502 12.2163 21.6668 10.833 21.6668C9.44967 21.6668 8.33301 20.5502 8.33301 19.1668ZM18.333 12.5002C18.333 13.8835 17.2163 15.0002 15.833 15.0002C14.4497 15.0002 13.333 13.8835 13.333 12.5002C13.333 11.1168 14.4497 10.0002 15.833 10.0002C17.2163 10.0002 18.333 11.1168 18.333 12.5002Z" fill="#FFFFFF"/>
</svg>
