<svg width="36" height="36" viewBox="0 0 36 36" fill="none" xmlns="http://www.w3.org/2000/svg">
<path d="M19.5 15H4.5C3.675 15 3 15.675 3 16.5C3 17.325 3.675 18 4.5 18H19.5C20.325 18 21 17.325 21 16.5C21 15.675 20.325 15 19.5 15ZM19.5 9H4.5C3.675 9 3 9.675 3 10.5C3 11.325 3.675 12 4.5 12H19.5C20.325 12 21 11.325 21 10.5C21 9.675 20.325 9 19.5 9ZM4.5 24H13.5C14.325 24 15 23.325 15 22.5C15 21.675 14.325 21 13.5 21H4.5C3.675 21 3 21.675 3 22.5C3 23.325 3.675 24 4.5 24ZM33.315 18.315L33.45 18.45C34.035 19.035 34.035 19.98 33.45 20.565L25.08 28.95C24.495 29.535 23.55 29.535 22.965 28.95L18.33 24.315C17.745 23.73 17.745 22.785 18.33 22.2L18.465 22.065C19.05 21.48 19.995 21.48 20.58 22.065L24.03 25.515L31.2 18.33C31.77 17.73 32.73 17.73 33.315 18.315V18.315Z" fill="#4B5D6B"/>
</svg>
