<svg width="22" height="18" viewBox="0 0 22 18" fill="none" xmlns="http://www.w3.org/2000/svg">
<path d="M14.6364 17V15.2222C14.6364 14.2792 14.2532 13.3749 13.5713 12.7081C12.8893 12.0413 11.9644 11.6667 11 11.6667H4.63636C3.67194 11.6667 2.74702 12.0413 2.06507 12.7081C1.38312 13.3749 1 14.2792 1 15.2222V17M18.2727 5.44444V10.7778M21 8.11111H15.5455M11.4545 4.55556C11.4545 6.51923 9.82649 8.11111 7.81818 8.11111C5.80987 8.11111 4.18182 6.51923 4.18182 4.55556C4.18182 2.59188 5.80987 1 7.81818 1C9.82649 1 11.4545 2.59188 11.4545 4.55556Z" stroke="#4B5D6B" stroke-width="2" stroke-linecap="round" stroke-linejoin="round"/>
</svg>
