<svg width="40" height="40" viewBox="0 0 40 40" fill="none" xmlns="http://www.w3.org/2000/svg">
<path d="M19.9997 11.6667V5H3.33301V35H36.6663V11.6667H19.9997ZM9.99967 31.6667H6.66634V28.3333H9.99967V31.6667ZM9.99967 25H6.66634V21.6667H9.99967V25ZM9.99967 18.3333H6.66634V15H9.99967V18.3333ZM9.99967 11.6667H6.66634V8.33333H9.99967V11.6667ZM16.6663 31.6667H13.333V28.3333H16.6663V31.6667ZM16.6663 25H13.333V21.6667H16.6663V25ZM16.6663 18.3333H13.333V15H16.6663V18.3333ZM16.6663 11.6667H13.333V8.33333H16.6663V11.6667ZM33.333 31.6667H19.9997V28.3333H23.333V25H19.9997V21.6667H23.333V18.3333H19.9997V15H33.333V31.6667ZM29.9997 18.3333H26.6663V21.6667H29.9997V18.3333ZM29.9997 25H26.6663V28.3333H29.9997V25Z" fill="#FFFFFF"/>
</svg>
