<svg width="19" height="23" viewBox="0 0 19 23" fill="none" xmlns="http://www.w3.org/2000/svg">
<path d="M10.3216 11.6533L17.8122 19.1439C18.3299 19.6617 18.3299 20.4988 17.8122 21.0111L16.5674 22.2558C16.0497 22.7736 15.2125 22.7736 14.7003 22.2558L9.38526 16.9518L4.07573 22.2613C3.558 22.7791 2.72081 22.7791 2.20858 22.2613L0.958308 21.0166C0.440574 20.4988 0.440574 19.6617 0.958308 19.1494L8.44893 11.6588C8.96667 11.1356 9.80386 11.1356 10.3216 11.6533ZM8.44893 1.0783L0.958308 8.56893C0.440574 9.08666 0.440574 9.92385 0.958308 10.4361L2.20307 11.6808C2.72081 12.1986 3.558 12.1986 4.07022 11.6808L9.37975 6.37131L14.6893 11.6808C15.207 12.1986 16.0442 12.1986 16.5564 11.6808L17.8012 10.4361C18.3189 9.91834 18.3189 9.08115 17.8012 8.56893L10.3106 1.0783C9.80386 0.560569 8.96667 0.560569 8.44893 1.0783Z" fill="#545454" fill-opacity="0.75"/>
</svg>
