<svg width="30" height="25" viewBox="0 0 30 25" fill="none" xmlns="http://www.w3.org/2000/svg">
<path d="M28 1.51233C26.8683 2.3405 25.6152 2.97392 24.2891 3.3882C23.5773 2.53917 22.6314 1.93739 21.5792 1.66427C20.527 1.39115 19.4194 1.45985 18.4061 1.86109C17.3928 2.26232 16.5227 2.97673 15.9135 3.9077C15.3043 4.83866 14.9855 5.94126 15 7.06637V8.29243C12.9231 8.3483 10.8651 7.87044 9.00937 6.9014C7.15361 5.93237 5.55765 4.50224 4.36364 2.73839C4.36364 2.73839 -0.363636 13.7729 10.2727 18.6771C7.83881 20.3911 4.93937 21.2506 2 21.1293C12.6364 27.2596 25.6364 21.1293 25.6364 7.02959C25.6353 6.68808 25.6036 6.34741 25.5418 6.01196C26.748 4.77793 27.5992 3.21988 28 1.51233V1.51233Z" stroke="#4B5D6B" stroke-width="3" stroke-linecap="round" stroke-linejoin="round"/>
</svg>
