<svg width="35" height="33" viewBox="0 0 35 33" fill="none" xmlns="http://www.w3.org/2000/svg">
<path d="M27.9795 13.125C31.6039 13.125 34.542 10.1869 34.542 6.5625C34.542 2.93813 31.6039 0 27.9795 0C24.3551 0 21.417 2.93813 21.417 6.5625C21.417 10.1869 24.3551 13.125 27.9795 13.125Z" fill="#B62931"/>
<path fill-rule="evenodd" clip-rule="evenodd" d="M30.1666 15.5438C29.2544 15.8662 28.2727 16.0417 27.25 16.0417C22.4175 16.0417 18.5 12.1242 18.5 7.29167C18.5 6.269 18.6754 5.28731 18.9979 4.37505C18.8345 4.375 18.6685 4.375 18.5 4.375H12.6667C7.16729 4.375 4.41688 4.375 2.70917 6.08417C1 7.79188 1 10.5423 1 16.0417C1 21.541 1 24.2915 2.70917 25.9992C3.66146 26.9529 4.9375 27.3744 6.83333 27.5596L7.38011 27.5666C7.20702 29.6566 7.21196 30.7632 7.81042 31.1646C8.52731 31.6469 9.98231 30.8917 12.8911 29.382L12.8985 29.3781C14.7113 28.4375 16.6975 27.7083 18.5 27.7083C23.9994 27.7083 26.7498 27.7083 28.4575 25.9992C30.1667 24.2915 30.1667 21.541 30.1667 16.0417C30.1667 15.8731 30.1667 15.7072 30.1666 15.5438Z" fill="#DEE5EE"/>
</svg>
