<svg width="33" height="30" viewBox="0 0 33 30" fill="none" xmlns="http://www.w3.org/2000/svg">
<path d="M26.1854 12.5759C29.6582 12.5759 32.4734 9.76072 32.4734 6.28797C32.4734 2.81522 29.6582 0 26.1854 0C22.7127 0 19.8975 2.81522 19.8975 6.28797C19.8975 9.76072 22.7127 12.5759 26.1854 12.5759Z" fill="#B62931"/>
<path fill-rule="evenodd" clip-rule="evenodd" d="M28.2814 14.8956C27.4072 15.2046 26.4664 15.3728 25.4863 15.3728C20.856 15.3728 17.1024 11.6192 17.1024 6.98886C17.1024 6.00865 17.2706 5.06774 17.5797 4.19341C17.4232 4.19336 17.2643 4.19336 17.1029 4.19336H11.5136C6.24425 4.19336 3.6089 4.19336 1.97263 5.83103C0.334961 7.46729 0.334961 10.1027 0.334961 15.372C0.334961 20.6413 0.334961 23.2766 1.97263 24.9129C2.88508 25.8268 4.10774 26.2306 5.92427 26.4081L6.44816 26.4147C6.28232 28.4174 6.28705 29.4776 6.86047 29.8622C7.54737 30.3244 8.9415 29.6008 11.7286 28.1542L11.7357 28.1505C13.4726 27.2492 15.3758 26.5506 17.1029 26.5506C22.3722 26.5506 25.0075 26.5506 26.6438 24.9129C28.2815 23.2766 28.2815 20.6413 28.2815 15.372C28.2815 15.2107 28.2815 15.052 28.2814 14.8956Z" fill="black"/>
</svg>
