<svg width="12" height="12" viewBox="0 0 12 12" fill="none" xmlns="http://www.w3.org/2000/svg">
<circle cx="6" cy="6" r="6" fill="#F86D70"/>
<path d="M2 6.09893L3.32129 7.27401M3.32129 7.27401L4.64958 6.0927M3.32129 7.27401L3.38836 5.50657C3.3895 5.08438 3.51088 4.66876 3.74117 4.29849C3.97146 3.92822 4.30315 3.61537 4.70531 3.38913C5.10746 3.16289 5.56696 3.03064 6.04094 3.00472C6.51492 2.97879 6.98792 3.06004 7.41581 3.24087M10.5714 5.90107L9.25014 4.72599M9.25014 4.72599L7.92185 5.9073M9.25014 4.72599L9.18306 6.49343C9.18193 6.91562 9.06055 7.33124 8.83026 7.70151C8.59997 8.07178 8.26828 8.38463 7.86612 8.61087C7.46397 8.83711 7.00446 8.96936 6.53049 8.99528C6.05651 9.02121 5.58351 8.93996 5.15561 8.75913" stroke="white" stroke-width="0.9" stroke-linecap="round" stroke-linejoin="round"/>
</svg>
