<svg width="43" height="37" viewBox="0 0 43 37" fill="none" xmlns="http://www.w3.org/2000/svg">
<path d="M33 3L26 8L33 13V3Z" stroke="white" stroke-width="2" stroke-linecap="round" stroke-linejoin="round"/>
<path d="M24 1H13C11.8954 1 11 1.89543 11 3V13C11 14.1046 11.8954 15 13 15H24C25.1046 15 26 14.1046 26 13V3C26 1.89543 25.1046 1 24 1Z" stroke="white" stroke-width="2" stroke-linecap="round" stroke-linejoin="round"/>
<path d="M11.276 24.2L7.006 34H5.214L0.93 24.2H2.904L6.166 31.76L9.456 24.2H11.276ZM12.2105 26.524H13.9605V34H12.2105V26.524ZM13.0925 25.292C12.7752 25.292 12.5092 25.194 12.2945 24.998C12.0798 24.7927 11.9725 24.5407 11.9725 24.242C11.9725 23.9433 12.0798 23.696 12.2945 23.5C12.5092 23.2947 12.7752 23.192 13.0925 23.192C13.4098 23.192 13.6758 23.29 13.8905 23.486C14.1052 23.6727 14.2125 23.9107 14.2125 24.2C14.2125 24.508 14.1052 24.7693 13.8905 24.984C13.6852 25.1893 13.4192 25.292 13.0925 25.292ZM23.5794 23.612V34H21.8994V33.034C21.61 33.3887 21.2507 33.6547 20.8214 33.832C20.4014 34.0093 19.9347 34.098 19.4214 34.098C18.7027 34.098 18.054 33.9393 17.4754 33.622C16.906 33.3047 16.458 32.8567 16.1314 32.278C15.8047 31.69 15.6414 31.018 15.6414 30.262C15.6414 29.506 15.8047 28.8387 16.1314 28.26C16.458 27.6813 16.906 27.2333 17.4754 26.916C18.054 26.5987 18.7027 26.44 19.4214 26.44C19.916 26.44 20.3687 26.524 20.7794 26.692C21.19 26.86 21.54 27.112 21.8294 27.448V23.612H23.5794ZM19.6314 32.6C20.0514 32.6 20.4294 32.5067 20.7654 32.32C21.1014 32.124 21.3674 31.8487 21.5634 31.494C21.7594 31.1393 21.8574 30.7287 21.8574 30.262C21.8574 29.7953 21.7594 29.3847 21.5634 29.03C21.3674 28.6753 21.1014 28.4047 20.7654 28.218C20.4294 28.022 20.0514 27.924 19.6314 27.924C19.2114 27.924 18.8334 28.022 18.4974 28.218C18.1614 28.4047 17.8954 28.6753 17.6994 29.03C17.5034 29.3847 17.4054 29.7953 17.4054 30.262C17.4054 30.7287 17.5034 31.1393 17.6994 31.494C17.8954 31.8487 18.1614 32.124 18.4974 32.32C18.8334 32.5067 19.2114 32.6 19.6314 32.6ZM32.8967 30.304C32.8967 30.4253 32.8874 30.598 32.8687 30.822H27.0027C27.1054 31.3727 27.3714 31.8113 27.8007 32.138C28.2394 32.4553 28.7807 32.614 29.4247 32.614C30.246 32.614 30.9227 32.3433 31.4547 31.802L32.3927 32.88C32.0567 33.2813 31.632 33.5847 31.1187 33.79C30.6054 33.9953 30.0267 34.098 29.3827 34.098C28.5614 34.098 27.838 33.9347 27.2127 33.608C26.5874 33.2813 26.102 32.8287 25.7567 32.25C25.4207 31.662 25.2527 30.9993 25.2527 30.262C25.2527 29.534 25.416 28.8807 25.7427 28.302C26.0787 27.714 26.5407 27.2567 27.1287 26.93C27.7167 26.6033 28.3794 26.44 29.1167 26.44C29.8447 26.44 30.4934 26.6033 31.0627 26.93C31.6414 27.2473 32.0894 27.7 32.4067 28.288C32.7334 28.8667 32.8967 29.5387 32.8967 30.304ZM29.1167 27.84C28.5567 27.84 28.0807 28.008 27.6887 28.344C27.306 28.6707 27.0727 29.1093 26.9887 29.66H31.2307C31.156 29.1187 30.9274 28.68 30.5447 28.344C30.162 28.008 29.686 27.84 29.1167 27.84ZM37.9377 34.098C37.1817 34.098 36.5004 33.9347 35.8937 33.608C35.287 33.2813 34.811 32.8287 34.4657 32.25C34.1297 31.662 33.9617 30.9993 33.9617 30.262C33.9617 29.5247 34.1297 28.8667 34.4657 28.288C34.811 27.7093 35.287 27.2567 35.8937 26.93C36.5004 26.6033 37.1817 26.44 37.9377 26.44C38.703 26.44 39.389 26.6033 39.9957 26.93C40.6024 27.2567 41.0737 27.7093 41.4097 28.288C41.755 28.8667 41.9277 29.5247 41.9277 30.262C41.9277 30.9993 41.755 31.662 41.4097 32.25C41.0737 32.8287 40.6024 33.2813 39.9957 33.608C39.389 33.9347 38.703 34.098 37.9377 34.098ZM37.9377 32.6C38.5817 32.6 39.1137 32.3853 39.5337 31.956C39.9537 31.5267 40.1637 30.962 40.1637 30.262C40.1637 29.562 39.9537 28.9973 39.5337 28.568C39.1137 28.1387 38.5817 27.924 37.9377 27.924C37.2937 27.924 36.7617 28.1387 36.3417 28.568C35.931 28.9973 35.7257 29.562 35.7257 30.262C35.7257 30.962 35.931 31.5267 36.3417 31.956C36.7617 32.3853 37.2937 32.6 37.9377 32.6Z" fill="white"/>
</svg>
