<svg width="243" height="231" viewBox="0 0 243 231" fill="none" xmlns="http://www.w3.org/2000/svg">
<path d="M46.5019 104.498H0.501953V230.998H46.5019V104.498Z" fill="#E7DFDF"/>
<path d="M173.002 15.373C180.477 6.63305 192.092 0.998047 204.052 0.998047C225.327 0.998047 242.002 17.673 242.002 38.948C242.002 65.053 208.537 95.298 173.002 127.498C137.467 95.183 104.002 64.938 104.002 38.948C104.002 17.673 120.677 0.998047 141.952 0.998047C153.912 0.998047 165.527 6.63305 173.002 15.373Z" fill="#E7DFDF"/>
<path d="M219.002 173.498H138.502L114.467 165.103L118.262 154.293L138.502 161.998H170.932C178.407 161.998 184.502 155.903 184.502 148.428C184.502 142.793 180.937 137.733 175.647 135.663L92.157 104.498H69.502V208.228L150.002 230.998L242.117 196.498C242.002 183.848 231.767 173.498 219.002 173.498Z" fill="#E7DFDF"/>
</svg>
