<svg width="276" height="276" viewBox="0 0 276 276" fill="none" xmlns="http://www.w3.org/2000/svg">
<path d="M57.5019 126.498H11.502V252.998H57.5019V126.498Z" fill="#E7DFDF"/>
<path d="M184.002 37.373C191.477 28.633 203.092 22.998 215.052 22.998C236.327 22.998 253.002 39.673 253.002 60.948C253.002 87.053 219.537 117.298 184.002 149.498C148.467 117.183 115.002 86.938 115.002 60.948C115.002 39.673 131.677 22.998 152.952 22.998C164.912 22.998 176.527 28.633 184.002 37.373Z" fill="#E7DFDF"/>
<path d="M230.002 195.498H149.502L125.467 187.103L129.262 176.293L149.502 183.998H181.932C189.407 183.998 195.502 177.903 195.502 170.428C195.502 164.793 191.937 159.733 186.647 157.663L103.157 126.498H80.502V230.228L161.002 252.998L253.117 218.498C253.002 205.848 242.767 195.498 230.002 195.498Z" fill="#E7DFDF"/>
</svg>
