<svg width="48" height="48" viewBox="0 0 48 48" fill="none" xmlns="http://www.w3.org/2000/svg">
<path d="M18 30C12.66 30 2 32.68 2 38V42H34V38C34 32.68 23.34 30 18 30Z" fill="black"/>
<path d="M44.2002 13.68C44.2202 13.46 44.2402 13.24 44.2402 13C44.2402 12.76 44.2202 12.54 44.1802 12.32L45.6602 11.16C45.8002 11.06 45.8202 10.86 45.7402 10.72L44.3402 8.3C44.2602 8.14 44.0602 8.1 43.9202 8.14L42.2002 8.84C41.8402 8.56 41.4402 8.34 41.0202 8.16L40.7602 6.3C40.7202 6.12 40.5802 6 40.4002 6H37.6002C37.4202 6 37.2802 6.12 37.2602 6.3L37.0002 8.16C36.5802 8.34 36.1802 8.58 35.8202 8.84L34.0802 8.14C33.9202 8.08 33.7402 8.14 33.6602 8.3L32.2602 10.72C32.1802 10.88 32.2002 11.06 32.3402 11.16L33.8202 12.32C33.7802 12.54 33.7602 12.78 33.7602 13C33.7602 13.22 33.7802 13.46 33.8202 13.68L32.3402 14.84C32.2002 14.94 32.1802 15.14 32.2602 15.28L33.6602 17.7C33.7402 17.86 33.9402 17.9 34.0802 17.86L35.8202 17.16C36.1802 17.44 36.5802 17.66 37.0002 17.84L37.2602 19.7C37.2802 19.88 37.4202 20 37.6002 20H40.4002C40.5802 20 40.7202 19.88 40.7402 19.7L41.0002 17.84C41.4202 17.66 41.8202 17.42 42.1802 17.16L43.9202 17.86C44.0802 17.92 44.2602 17.86 44.3402 17.7L45.7402 15.28C45.8202 15.12 45.8002 14.94 45.6602 14.84L44.2002 13.68ZM39.0002 15.5C37.6202 15.5 36.5002 14.38 36.5002 13C36.5002 11.62 37.6202 10.5 39.0002 10.5C40.3802 10.5 41.5002 11.62 41.5002 13C41.5002 14.38 40.3802 15.5 39.0002 15.5Z" fill="black"/>
<path d="M39.8403 23.36L38.8403 21.62C38.7803 21.5 38.6403 21.46 38.5403 21.5L37.3003 22C37.0403 21.8 36.7603 21.64 36.4603 21.52L36.2803 20.2C36.2403 20.08 36.1203 20 36.0003 20H34.0003C33.8803 20 33.7803 20.08 33.7603 20.22L33.5803 21.54C33.2803 21.66 33.0003 21.84 32.7403 22.02L31.5003 21.52C31.3803 21.48 31.2603 21.52 31.2003 21.64L30.2003 23.38C30.1403 23.5 30.1603 23.62 30.2603 23.7L31.3203 24.52C31.3003 24.68 31.2803 24.84 31.2803 25C31.2803 25.16 31.3003 25.34 31.3203 25.48L30.2603 26.3C30.1603 26.38 30.1403 26.52 30.2003 26.62L31.2003 28.36C31.2603 28.48 31.4003 28.52 31.5003 28.48L32.7403 27.98C33.0003 28.18 33.2803 28.34 33.5803 28.46L33.7603 29.78C33.7803 29.92 33.8803 30 34.0003 30H36.0003C36.1203 30 36.2403 29.92 36.2403 29.78L36.4203 28.46C36.7203 28.34 37.0003 28.16 37.2603 27.98L38.5003 28.48C38.6203 28.52 38.7403 28.48 38.8003 28.36L39.8003 26.62C39.8603 26.5 39.8403 26.38 39.7403 26.3L38.7003 25.48C38.7203 25.32 38.7403 25.16 38.7403 25C38.7403 24.84 38.7203 24.66 38.7003 24.52L39.7603 23.7C39.8603 23.62 39.8803 23.48 39.8403 23.36ZM35.0003 26.66C34.0803 26.66 33.3403 25.9 33.3403 25C33.3403 24.08 34.1003 23.34 35.0003 23.34C35.9003 23.34 36.6603 24.1 36.6603 25C36.6603 25.92 35.9203 26.66 35.0003 26.66Z" fill="black"/>
<path d="M9.48 18H26.54C27.08 18 27.52 17.56 27.52 17.02V16.98C27.52 16.44 27.08 16 26.54 16H26C26 13.04 24.38 10.5 22 9.1V11C22 11.56 21.56 12 21 12C20.44 12 20 11.56 20 11V8.28C19.36 8.12 18.7 8 18 8C17.3 8 16.64 8.12 16 8.28V11C16 11.56 15.56 12 15 12C14.44 12 14 11.56 14 11V9.1C11.62 10.5 10 13.04 10 16H9.48C8.94 16 8.5 16.44 8.5 16.98V17.04C8.5 17.56 8.94 18 9.48 18Z" fill="black"/>
<path d="M18.0003 26C21.7203 26 24.8203 23.44 25.7203 20H10.2803C11.1803 23.44 14.2803 26 18.0003 26Z" fill="black"/>
</svg>
